%TF.GenerationSoftware,KiCad,Pcbnew,8.0.3*%
%TF.CreationDate,2024-06-18T14:48:34-07:00*%
%TF.ProjectId,WonrderTANG,576f6e72-6465-4725-9441-4e472e6b6963,rev?*%
%TF.SameCoordinates,Original*%
%TF.FileFunction,Profile,NP*%
%FSLAX46Y46*%
G04 Gerber Fmt 4.6, Leading zero omitted, Abs format (unit mm)*
G04 Created by KiCad (PCBNEW 8.0.3) date 2024-06-18 14:48:34*
%MOMM*%
%LPD*%
G01*
G04 APERTURE LIST*
%TA.AperFunction,Profile*%
%ADD10C,0.050000*%
%TD*%
G04 APERTURE END LIST*
D10*
X127635000Y-56515000D02*
X124460000Y-54610000D01*
X99060000Y-128270000D02*
X99695000Y-128905000D01*
X127635000Y-59690000D02*
X127635000Y-56515000D01*
X165100000Y-118745000D02*
X178435000Y-118745000D01*
X174625000Y-63500000D02*
X174625000Y-65405000D01*
X127635000Y-46355000D02*
X127635000Y-39370000D01*
X124460000Y-54610000D02*
X124460000Y-48260000D01*
X164465000Y-128905000D02*
X165100000Y-128270000D01*
X76835000Y-39370000D02*
X76835000Y-106045000D01*
X99695000Y-128905000D02*
X164465000Y-128905000D01*
X86995000Y-118745000D02*
X99060000Y-118745000D01*
X76835000Y-106045000D02*
X86995000Y-106045000D01*
X178435000Y-63500000D02*
X174625000Y-63500000D01*
X99060000Y-118745000D02*
X99060000Y-128270000D01*
X174625000Y-65405000D02*
X169545000Y-65405000D01*
X124460000Y-48260000D02*
X127635000Y-46355000D01*
X169545000Y-63500000D02*
X127635000Y-63500000D01*
X165100000Y-128270000D02*
X165100000Y-118745000D01*
X178435000Y-118745000D02*
X178435000Y-63500000D01*
X169545000Y-65405000D02*
X169545000Y-63500000D01*
X127635000Y-39370000D02*
X76835000Y-39370000D01*
X127635000Y-63500000D02*
X127635000Y-59690000D01*
X86995000Y-106045000D02*
X86995000Y-118745000D01*
M02*
