M48
; DRILL file {KiCad 7.0.7} date Fri Oct 27 21:04:03 2023
; FORMAT={-:-/ absolute / inch / decimal}
; #@! TF.CreationDate,2023-10-27T21:04:03-07:00
; #@! TF.GenerationSoftware,Kicad,Pcbnew,7.0.7
; #@! TF.FileFunction,Plated,1,2,PTH
FMAT,2
INCH
; #@! TA.AperFunction,Plated,PTH,ViaDrill
T1C0.0150
; #@! TA.AperFunction,Plated,PTH,ComponentDrill
T2C0.0295
; #@! TA.AperFunction,Plated,PTH,ComponentDrill
T3C0.0315
; #@! TA.AperFunction,Plated,PTH,ComponentDrill
T4C0.0354
; #@! TA.AperFunction,Plated,PTH,ComponentDrill
T5C0.0394
; #@! TA.AperFunction,Plated,PTH,ComponentDrill
T6C0.0433
%
G90
G05
T1
X2.7037Y-4.6489
X2.9166Y-3.067
X3.0145Y-4.7165
X3.017Y-3.2247
X3.0934Y-5.1433
X3.0949Y-4.0274
X3.0976Y-5.1836
X3.1225Y-3.8218
X3.2535Y-3.1197
X3.2629Y-3.1658
X3.2909Y-3.1187
X3.5527Y-5.2168
X3.5536Y-3.0741
X3.6063Y-4.9331
X3.6379Y-4.9938
X3.6534Y-3.0684
X3.657Y-4.756
X3.6842Y-5.0241
X3.6915Y-3.3405
X3.7588Y-3.2182
X3.7769Y-3.7393
X3.9233Y-3.8547
X4.0142Y-3.2995
X4.0952Y-4.7221
X4.2196Y-3.098
X4.2534Y-5.1432
X4.3525Y-5.1521
X4.3997Y-4.2451
X4.4516Y-3.1116
X4.453Y-5.1945
X4.4663Y-4.5969
X4.4787Y-5.1027
X4.5871Y-5.1282
X4.6225Y-3.8124
X5.0Y-5.1272
X5.0531Y-5.1104
X5.064Y-3.7455
X5.1236Y-4.7731
X5.131Y-3.1016
X5.2526Y-5.2144
X5.4Y-5.3283
X5.5473Y-5.1832
X5.5476Y-5.2281
X5.6958Y-5.1669
T2
X5.845Y-5.04
X5.845Y-5.09
X5.845Y-5.14
T3
X2.275Y-2.175
X2.275Y-2.975
X2.3016Y-3.175
X2.375Y-2.175
X2.375Y-2.975
X2.4Y-3.175
X2.475Y-2.175
X2.475Y-2.975
X2.5Y-3.675
X2.5Y-3.775
X2.5Y-3.875
X2.5Y-3.975
X2.5Y-4.075
X2.5Y-4.175
X2.5Y-4.275
X2.5Y-4.375
X2.5Y-4.475
X2.5Y-4.575
X2.575Y-2.175
X2.575Y-2.975
X2.6Y-3.475
X2.675Y-2.175
X2.675Y-2.975
X2.675Y-3.175
X2.6984Y-3.475
X2.7734Y-3.175
X2.775Y-2.175
X2.775Y-2.975
X2.8Y-3.675
X2.8Y-3.775
X2.8Y-3.875
X2.8Y-3.975
X2.8Y-4.075
X2.8Y-4.175
X2.8Y-4.275
X2.8Y-4.375
X2.8Y-4.475
X2.8Y-4.575
X2.83Y-4.7624
X2.83Y-4.8411
X2.875Y-2.175
X2.875Y-2.975
X2.975Y-2.175
X2.975Y-2.975
X3.075Y-2.175
X3.075Y-2.975
X3.175Y-2.175
X3.175Y-2.975
X3.175Y-3.675
X3.175Y-3.775
X3.175Y-3.875
X3.175Y-3.975
X3.175Y-4.075
X3.175Y-4.175
X3.175Y-4.275
X3.175Y-4.375
X3.175Y-4.475
X3.175Y-4.575
X3.275Y-2.175
X3.275Y-2.975
X3.2766Y-3.475
X3.375Y-2.175
X3.375Y-2.975
X3.375Y-3.475
X3.475Y-2.175
X3.475Y-2.975
X3.475Y-3.675
X3.475Y-3.775
X3.475Y-3.875
X3.475Y-3.975
X3.475Y-4.075
X3.475Y-4.175
X3.475Y-4.275
X3.475Y-4.375
X3.475Y-4.475
X3.475Y-4.575
X3.575Y-2.175
X3.575Y-2.975
X3.675Y-2.175
X3.675Y-2.975
X3.775Y-2.175
X3.775Y-2.975
X3.85Y-3.675
X3.85Y-3.775
X3.85Y-3.875
X3.85Y-3.975
X3.85Y-4.075
X3.85Y-4.175
X3.85Y-4.275
X3.85Y-4.375
X3.85Y-4.475
X3.85Y-4.575
X3.875Y-2.175
X3.875Y-2.975
X3.9516Y-3.475
X3.975Y-2.175
X3.975Y-2.975
X4.05Y-3.475
X4.075Y-2.175
X4.075Y-2.975
X4.0758Y-3.175
X4.15Y-3.675
X4.15Y-3.775
X4.15Y-3.875
X4.15Y-3.975
X4.15Y-4.075
X4.15Y-4.175
X4.15Y-4.275
X4.15Y-4.375
X4.15Y-4.475
X4.15Y-4.575
X4.1742Y-3.175
X4.175Y-2.175
X4.175Y-2.975
X4.55Y-3.675
X4.55Y-3.775
X4.55Y-3.875
X4.55Y-3.975
X4.55Y-4.075
X4.55Y-4.175
X4.55Y-4.275
X4.55Y-4.375
X4.55Y-4.475
X4.55Y-4.575
X4.6516Y-3.475
X4.75Y-3.475
X4.85Y-3.675
X4.85Y-3.775
X4.85Y-3.875
X4.85Y-3.975
X4.85Y-4.075
X4.85Y-4.175
X4.85Y-4.275
X4.85Y-4.375
X4.85Y-4.475
X4.85Y-4.575
X5.05Y-3.2
X5.225Y-3.675
X5.225Y-3.775
X5.225Y-3.875
X5.225Y-3.975
X5.225Y-4.075
X5.225Y-4.175
X5.225Y-4.275
X5.225Y-4.375
X5.225Y-4.475
X5.225Y-4.575
X5.3266Y-3.475
X5.425Y-3.475
X5.45Y-3.2
X5.525Y-3.675
X5.525Y-3.775
X5.525Y-3.875
X5.525Y-3.975
X5.525Y-4.075
X5.525Y-4.175
X5.525Y-4.275
X5.525Y-4.375
X5.525Y-4.475
X5.525Y-4.575
X5.725Y-4.125
X5.725Y-4.625
X5.725Y-4.75
X5.725Y-4.885
X5.85Y-3.7713
X5.85Y-3.85
X5.85Y-4.2713
X5.85Y-4.35
X5.8758Y-4.5
X5.8766Y-4.0
X5.9742Y-4.5
X5.975Y-4.0
X6.125Y-4.125
X6.125Y-4.625
X6.125Y-4.75
X6.125Y-4.885
T4
X5.65Y-3.2
X5.75Y-3.2
T5
X2.815Y-4.9998
X2.815Y-5.0998
X4.6498Y-3.2
X4.7498Y-3.2
T6
X3.5Y-3.175
X3.9Y-3.175
T5
G00X6.0266Y-3.139
M15
G01X6.0659Y-3.139
M16
G05
G00X6.1053Y-3.2335
M15
G01X6.1447Y-3.2335
M16
G05
G00X6.1053Y-3.45
M15
G01X6.1447Y-3.45
M16
G05
T0
M30
