M48
; DRILL file {KiCad 7.0.7} date Wed Oct 18 23:35:02 2023
; FORMAT={-:-/ absolute / inch / decimal}
; #@! TF.CreationDate,2023-10-18T23:35:02-07:00
; #@! TF.GenerationSoftware,Kicad,Pcbnew,7.0.7
; #@! TF.FileFunction,Plated,1,2,PTH
FMAT,2
INCH
; #@! TA.AperFunction,Plated,PTH,ViaDrill
T1C0.0150
; #@! TA.AperFunction,Plated,PTH,ComponentDrill
T2C0.0295
; #@! TA.AperFunction,Plated,PTH,ComponentDrill
T3C0.0315
; #@! TA.AperFunction,Plated,PTH,ComponentDrill
T4C0.0354
; #@! TA.AperFunction,Plated,PTH,ComponentDrill
T5C0.0394
; #@! TA.AperFunction,Plated,PTH,ComponentDrill
T6C0.0433
%
G90
G05
T1
X2.3718Y-2.8919
X2.6602Y-4.2782
X2.7316Y-4.2453
X2.8101Y-3.0907
X2.88Y-3.8455
X2.9305Y-3.7966
X3.0746Y-4.0469
X3.0746Y-4.8321
X3.1123Y-4.9513
X3.1298Y-4.521
X3.2034Y-3.1635
X3.547Y-5.2086
X3.5494Y-4.7809
X3.6883Y-4.9324
X3.7088Y-4.9004
X3.7425Y-3.1979
X3.743Y-2.4664
X3.8178Y-3.4846
X3.8202Y-3.3161
X3.9173Y-4.0396
X3.988Y-4.1771
X3.9969Y-4.2223
X4.2394Y-3.2236
X4.2527Y-5.2226
X4.279Y-5.1277
X4.452Y-4.2445
X4.5467Y-5.1764
X4.5971Y-3.9283
X4.6091Y-4.2393
X4.6231Y-3.8333
X4.6232Y-3.701
X4.6793Y-3.6065
X4.7151Y-3.1157
X4.7779Y-3.0977
X5.0354Y-5.0998
X5.1081Y-4.7799
X5.348Y-5.2149
X5.3534Y-5.1556
X5.3823Y-5.0533
X5.4481Y-5.2002
X5.4582Y-4.2288
X5.6005Y-4.3304
T2
X5.875Y-4.9392
X5.925Y-4.9392
X5.975Y-4.9392
T3
X2.275Y-2.175
X2.275Y-2.975
X2.3016Y-3.175
X2.375Y-2.175
X2.375Y-2.975
X2.4Y-3.175
X2.475Y-2.175
X2.475Y-2.975
X2.5Y-3.675
X2.5Y-3.775
X2.5Y-3.875
X2.5Y-3.975
X2.5Y-4.075
X2.5Y-4.175
X2.5Y-4.275
X2.5Y-4.375
X2.5Y-4.475
X2.5Y-4.575
X2.575Y-2.175
X2.575Y-2.975
X2.6Y-3.475
X2.675Y-2.175
X2.675Y-2.975
X2.675Y-3.175
X2.6984Y-3.475
X2.7734Y-3.175
X2.775Y-2.175
X2.775Y-2.975
X2.8Y-3.675
X2.8Y-3.775
X2.8Y-3.875
X2.8Y-3.975
X2.8Y-4.075
X2.8Y-4.175
X2.8Y-4.275
X2.8Y-4.375
X2.8Y-4.475
X2.8Y-4.575
X2.875Y-2.175
X2.875Y-2.975
X2.975Y-2.175
X2.975Y-2.975
X3.075Y-2.175
X3.075Y-2.975
X3.175Y-2.175
X3.175Y-2.975
X3.175Y-3.675
X3.175Y-3.775
X3.175Y-3.875
X3.175Y-3.975
X3.175Y-4.075
X3.175Y-4.175
X3.175Y-4.275
X3.175Y-4.375
X3.175Y-4.475
X3.175Y-4.575
X3.275Y-2.175
X3.275Y-2.975
X3.2766Y-3.475
X3.375Y-2.175
X3.375Y-2.975
X3.375Y-3.475
X3.475Y-2.175
X3.475Y-2.975
X3.475Y-3.675
X3.475Y-3.775
X3.475Y-3.875
X3.475Y-3.975
X3.475Y-4.075
X3.475Y-4.175
X3.475Y-4.275
X3.475Y-4.375
X3.475Y-4.475
X3.475Y-4.575
X3.575Y-2.175
X3.575Y-2.975
X3.675Y-2.175
X3.675Y-2.975
X3.775Y-2.175
X3.775Y-2.975
X3.85Y-3.675
X3.85Y-3.775
X3.85Y-3.875
X3.85Y-3.975
X3.85Y-4.075
X3.85Y-4.175
X3.85Y-4.275
X3.85Y-4.375
X3.85Y-4.475
X3.85Y-4.575
X3.875Y-2.175
X3.875Y-2.975
X3.9516Y-3.475
X3.975Y-2.175
X3.975Y-2.975
X4.05Y-3.475
X4.075Y-2.175
X4.075Y-2.975
X4.0758Y-3.175
X4.15Y-3.675
X4.15Y-3.775
X4.15Y-3.875
X4.15Y-3.975
X4.15Y-4.075
X4.15Y-4.175
X4.15Y-4.275
X4.15Y-4.375
X4.15Y-4.475
X4.15Y-4.575
X4.1742Y-3.175
X4.175Y-2.175
X4.175Y-2.975
X4.55Y-3.675
X4.55Y-3.775
X4.55Y-3.875
X4.55Y-3.975
X4.55Y-4.075
X4.55Y-4.175
X4.55Y-4.275
X4.55Y-4.375
X4.55Y-4.475
X4.55Y-4.575
X4.6516Y-3.475
X4.75Y-3.475
X4.85Y-3.675
X4.85Y-3.775
X4.85Y-3.875
X4.85Y-3.975
X4.85Y-4.075
X4.85Y-4.175
X4.85Y-4.275
X4.85Y-4.375
X4.85Y-4.475
X4.85Y-4.575
X5.05Y-3.2
X5.225Y-3.675
X5.225Y-3.775
X5.225Y-3.875
X5.225Y-3.975
X5.225Y-4.075
X5.225Y-4.175
X5.225Y-4.275
X5.225Y-4.375
X5.225Y-4.475
X5.225Y-4.575
X5.3266Y-3.475
X5.425Y-3.475
X5.45Y-3.2
X5.525Y-3.675
X5.525Y-3.775
X5.525Y-3.875
X5.525Y-3.975
X5.525Y-4.075
X5.525Y-4.175
X5.525Y-4.275
X5.525Y-4.375
X5.525Y-4.475
X5.525Y-4.575
X5.725Y-4.125
X5.725Y-4.625
X5.725Y-4.75
X5.8758Y-4.5
X5.8766Y-4.0
X5.8839Y-3.825
X5.8839Y-4.325
X5.9626Y-3.825
X5.9626Y-4.325
X5.9742Y-4.5
X5.975Y-4.0
X6.125Y-4.125
X6.125Y-4.625
X6.125Y-4.75
T4
X5.65Y-3.2
X5.75Y-3.2
T5
X2.825Y-4.85
X2.925Y-4.85
X4.6498Y-3.2
X4.7498Y-3.2
T6
X3.5Y-3.175
X3.9Y-3.175
T5
G00X6.0266Y-3.139
M15
G01X6.0659Y-3.139
M16
G05
G00X6.1053Y-3.2335
M15
G01X6.1447Y-3.2335
M16
G05
G00X6.1053Y-3.45
M15
G01X6.1447Y-3.45
M16
G05
T0
M30
