%TF.GenerationSoftware,KiCad,Pcbnew,7.0.7*%
%TF.CreationDate,2023-10-18T23:35:30-07:00*%
%TF.ProjectId,WonrderTANG,576f6e72-6465-4725-9441-4e472e6b6963,rev?*%
%TF.SameCoordinates,Original*%
%TF.FileFunction,Legend,Top*%
%TF.FilePolarity,Positive*%
%FSLAX46Y46*%
G04 Gerber Fmt 4.6, Leading zero omitted, Abs format (unit mm)*
G04 Created by KiCad (PCBNEW 7.0.7) date 2023-10-18 23:35:30*
%MOMM*%
%LPD*%
G01*
G04 APERTURE LIST*
%ADD10C,0.150000*%
%ADD11C,0.300000*%
%ADD12C,0.100000*%
%ADD13C,0.120000*%
%ADD14C,1.600000*%
%ADD15R,2.200000X2.200000*%
%ADD16O,2.200000X2.200000*%
%ADD17R,1.600000X1.600000*%
%ADD18R,2.400000X1.600000*%
%ADD19O,2.400000X1.600000*%
%ADD20R,1.700000X1.700000*%
%ADD21O,1.700000X1.700000*%
%ADD22O,1.600000X1.600000*%
%ADD23O,2.800000X1.800000*%
%ADD24C,4.900000*%
%ADD25R,1.270000X7.620000*%
%ADD26R,1.600000X2.400000*%
%ADD27O,1.600000X2.400000*%
%ADD28R,1.800000X1.800000*%
%ADD29C,1.800000*%
%ADD30R,1.050000X1.500000*%
%ADD31O,1.050000X1.500000*%
G04 APERTURE END LIST*
D10*
X118618095Y-133535057D02*
X118665714Y-133487438D01*
X118665714Y-133487438D02*
X118760952Y-133439819D01*
X118760952Y-133439819D02*
X118999047Y-133439819D01*
X118999047Y-133439819D02*
X119094285Y-133487438D01*
X119094285Y-133487438D02*
X119141904Y-133535057D01*
X119141904Y-133535057D02*
X119189523Y-133630295D01*
X119189523Y-133630295D02*
X119189523Y-133725533D01*
X119189523Y-133725533D02*
X119141904Y-133868390D01*
X119141904Y-133868390D02*
X118570476Y-134439819D01*
X118570476Y-134439819D02*
X119189523Y-134439819D01*
X119808571Y-133439819D02*
X119903809Y-133439819D01*
X119903809Y-133439819D02*
X119999047Y-133487438D01*
X119999047Y-133487438D02*
X120046666Y-133535057D01*
X120046666Y-133535057D02*
X120094285Y-133630295D01*
X120094285Y-133630295D02*
X120141904Y-133820771D01*
X120141904Y-133820771D02*
X120141904Y-134058866D01*
X120141904Y-134058866D02*
X120094285Y-134249342D01*
X120094285Y-134249342D02*
X120046666Y-134344580D01*
X120046666Y-134344580D02*
X119999047Y-134392200D01*
X119999047Y-134392200D02*
X119903809Y-134439819D01*
X119903809Y-134439819D02*
X119808571Y-134439819D01*
X119808571Y-134439819D02*
X119713333Y-134392200D01*
X119713333Y-134392200D02*
X119665714Y-134344580D01*
X119665714Y-134344580D02*
X119618095Y-134249342D01*
X119618095Y-134249342D02*
X119570476Y-134058866D01*
X119570476Y-134058866D02*
X119570476Y-133820771D01*
X119570476Y-133820771D02*
X119618095Y-133630295D01*
X119618095Y-133630295D02*
X119665714Y-133535057D01*
X119665714Y-133535057D02*
X119713333Y-133487438D01*
X119713333Y-133487438D02*
X119808571Y-133439819D01*
X83893866Y-132378220D02*
X83893866Y-131616316D01*
X84274819Y-131997268D02*
X83512914Y-131997268D01*
X84274819Y-130616316D02*
X84274819Y-131187744D01*
X84274819Y-130902030D02*
X83274819Y-130902030D01*
X83274819Y-130902030D02*
X83417676Y-130997268D01*
X83417676Y-130997268D02*
X83512914Y-131092506D01*
X83512914Y-131092506D02*
X83560533Y-131187744D01*
X83370057Y-130235363D02*
X83322438Y-130187744D01*
X83322438Y-130187744D02*
X83274819Y-130092506D01*
X83274819Y-130092506D02*
X83274819Y-129854411D01*
X83274819Y-129854411D02*
X83322438Y-129759173D01*
X83322438Y-129759173D02*
X83370057Y-129711554D01*
X83370057Y-129711554D02*
X83465295Y-129663935D01*
X83465295Y-129663935D02*
X83560533Y-129663935D01*
X83560533Y-129663935D02*
X83703390Y-129711554D01*
X83703390Y-129711554D02*
X84274819Y-130282982D01*
X84274819Y-130282982D02*
X84274819Y-129663935D01*
X129349523Y-134439819D02*
X128778095Y-134439819D01*
X129063809Y-134439819D02*
X129063809Y-133439819D01*
X129063809Y-133439819D02*
X128968571Y-133582676D01*
X128968571Y-133582676D02*
X128873333Y-133677914D01*
X128873333Y-133677914D02*
X128778095Y-133725533D01*
X129730476Y-133535057D02*
X129778095Y-133487438D01*
X129778095Y-133487438D02*
X129873333Y-133439819D01*
X129873333Y-133439819D02*
X130111428Y-133439819D01*
X130111428Y-133439819D02*
X130206666Y-133487438D01*
X130206666Y-133487438D02*
X130254285Y-133535057D01*
X130254285Y-133535057D02*
X130301904Y-133630295D01*
X130301904Y-133630295D02*
X130301904Y-133725533D01*
X130301904Y-133725533D02*
X130254285Y-133868390D01*
X130254285Y-133868390D02*
X129682857Y-134439819D01*
X129682857Y-134439819D02*
X130301904Y-134439819D01*
X126809523Y-134439819D02*
X126238095Y-134439819D01*
X126523809Y-134439819D02*
X126523809Y-133439819D01*
X126523809Y-133439819D02*
X126428571Y-133582676D01*
X126428571Y-133582676D02*
X126333333Y-133677914D01*
X126333333Y-133677914D02*
X126238095Y-133725533D01*
X127666666Y-133773152D02*
X127666666Y-134439819D01*
X127428571Y-133392200D02*
X127190476Y-134106485D01*
X127190476Y-134106485D02*
X127809523Y-134106485D01*
X91154285Y-133773152D02*
X91154285Y-134439819D01*
X90916190Y-133392200D02*
X90678095Y-134106485D01*
X90678095Y-134106485D02*
X91297142Y-134106485D01*
X91630476Y-133535057D02*
X91678095Y-133487438D01*
X91678095Y-133487438D02*
X91773333Y-133439819D01*
X91773333Y-133439819D02*
X92011428Y-133439819D01*
X92011428Y-133439819D02*
X92106666Y-133487438D01*
X92106666Y-133487438D02*
X92154285Y-133535057D01*
X92154285Y-133535057D02*
X92201904Y-133630295D01*
X92201904Y-133630295D02*
X92201904Y-133725533D01*
X92201904Y-133725533D02*
X92154285Y-133868390D01*
X92154285Y-133868390D02*
X91582857Y-134439819D01*
X91582857Y-134439819D02*
X92201904Y-134439819D01*
X86767200Y-132425839D02*
X86814819Y-132282982D01*
X86814819Y-132282982D02*
X86814819Y-132044887D01*
X86814819Y-132044887D02*
X86767200Y-131949649D01*
X86767200Y-131949649D02*
X86719580Y-131902030D01*
X86719580Y-131902030D02*
X86624342Y-131854411D01*
X86624342Y-131854411D02*
X86529104Y-131854411D01*
X86529104Y-131854411D02*
X86433866Y-131902030D01*
X86433866Y-131902030D02*
X86386247Y-131949649D01*
X86386247Y-131949649D02*
X86338628Y-132044887D01*
X86338628Y-132044887D02*
X86291009Y-132235363D01*
X86291009Y-132235363D02*
X86243390Y-132330601D01*
X86243390Y-132330601D02*
X86195771Y-132378220D01*
X86195771Y-132378220D02*
X86100533Y-132425839D01*
X86100533Y-132425839D02*
X86005295Y-132425839D01*
X86005295Y-132425839D02*
X85910057Y-132378220D01*
X85910057Y-132378220D02*
X85862438Y-132330601D01*
X85862438Y-132330601D02*
X85814819Y-132235363D01*
X85814819Y-132235363D02*
X85814819Y-131997268D01*
X85814819Y-131997268D02*
X85862438Y-131854411D01*
X85814819Y-131521077D02*
X86814819Y-131282982D01*
X86814819Y-131282982D02*
X86100533Y-131092506D01*
X86100533Y-131092506D02*
X86814819Y-130902030D01*
X86814819Y-130902030D02*
X85814819Y-130663935D01*
X116078095Y-133535057D02*
X116125714Y-133487438D01*
X116125714Y-133487438D02*
X116220952Y-133439819D01*
X116220952Y-133439819D02*
X116459047Y-133439819D01*
X116459047Y-133439819D02*
X116554285Y-133487438D01*
X116554285Y-133487438D02*
X116601904Y-133535057D01*
X116601904Y-133535057D02*
X116649523Y-133630295D01*
X116649523Y-133630295D02*
X116649523Y-133725533D01*
X116649523Y-133725533D02*
X116601904Y-133868390D01*
X116601904Y-133868390D02*
X116030476Y-134439819D01*
X116030476Y-134439819D02*
X116649523Y-134439819D01*
X117030476Y-133535057D02*
X117078095Y-133487438D01*
X117078095Y-133487438D02*
X117173333Y-133439819D01*
X117173333Y-133439819D02*
X117411428Y-133439819D01*
X117411428Y-133439819D02*
X117506666Y-133487438D01*
X117506666Y-133487438D02*
X117554285Y-133535057D01*
X117554285Y-133535057D02*
X117601904Y-133630295D01*
X117601904Y-133630295D02*
X117601904Y-133725533D01*
X117601904Y-133725533D02*
X117554285Y-133868390D01*
X117554285Y-133868390D02*
X116982857Y-134439819D01*
X116982857Y-134439819D02*
X117601904Y-134439819D01*
X114469104Y-132425839D02*
X114469104Y-131949649D01*
X114754819Y-132521077D02*
X113754819Y-132187744D01*
X113754819Y-132187744D02*
X114754819Y-131854411D01*
X114183390Y-131378220D02*
X114135771Y-131473458D01*
X114135771Y-131473458D02*
X114088152Y-131521077D01*
X114088152Y-131521077D02*
X113992914Y-131568696D01*
X113992914Y-131568696D02*
X113945295Y-131568696D01*
X113945295Y-131568696D02*
X113850057Y-131521077D01*
X113850057Y-131521077D02*
X113802438Y-131473458D01*
X113802438Y-131473458D02*
X113754819Y-131378220D01*
X113754819Y-131378220D02*
X113754819Y-131187744D01*
X113754819Y-131187744D02*
X113802438Y-131092506D01*
X113802438Y-131092506D02*
X113850057Y-131044887D01*
X113850057Y-131044887D02*
X113945295Y-130997268D01*
X113945295Y-130997268D02*
X113992914Y-130997268D01*
X113992914Y-130997268D02*
X114088152Y-131044887D01*
X114088152Y-131044887D02*
X114135771Y-131092506D01*
X114135771Y-131092506D02*
X114183390Y-131187744D01*
X114183390Y-131187744D02*
X114183390Y-131378220D01*
X114183390Y-131378220D02*
X114231009Y-131473458D01*
X114231009Y-131473458D02*
X114278628Y-131521077D01*
X114278628Y-131521077D02*
X114373866Y-131568696D01*
X114373866Y-131568696D02*
X114564342Y-131568696D01*
X114564342Y-131568696D02*
X114659580Y-131521077D01*
X114659580Y-131521077D02*
X114707200Y-131473458D01*
X114707200Y-131473458D02*
X114754819Y-131378220D01*
X114754819Y-131378220D02*
X114754819Y-131187744D01*
X114754819Y-131187744D02*
X114707200Y-131092506D01*
X114707200Y-131092506D02*
X114659580Y-131044887D01*
X114659580Y-131044887D02*
X114564342Y-130997268D01*
X114564342Y-130997268D02*
X114373866Y-130997268D01*
X114373866Y-130997268D02*
X114278628Y-131044887D01*
X114278628Y-131044887D02*
X114231009Y-131092506D01*
X114231009Y-131092506D02*
X114183390Y-131187744D01*
X122089104Y-132425839D02*
X122089104Y-131949649D01*
X122374819Y-132521077D02*
X121374819Y-132187744D01*
X121374819Y-132187744D02*
X122374819Y-131854411D01*
X122374819Y-130997268D02*
X122374819Y-131568696D01*
X122374819Y-131282982D02*
X121374819Y-131282982D01*
X121374819Y-131282982D02*
X121517676Y-131378220D01*
X121517676Y-131378220D02*
X121612914Y-131473458D01*
X121612914Y-131473458D02*
X121660533Y-131568696D01*
X121374819Y-130092506D02*
X121374819Y-130568696D01*
X121374819Y-130568696D02*
X121851009Y-130616315D01*
X121851009Y-130616315D02*
X121803390Y-130568696D01*
X121803390Y-130568696D02*
X121755771Y-130473458D01*
X121755771Y-130473458D02*
X121755771Y-130235363D01*
X121755771Y-130235363D02*
X121803390Y-130140125D01*
X121803390Y-130140125D02*
X121851009Y-130092506D01*
X121851009Y-130092506D02*
X121946247Y-130044887D01*
X121946247Y-130044887D02*
X122184342Y-130044887D01*
X122184342Y-130044887D02*
X122279580Y-130092506D01*
X122279580Y-130092506D02*
X122327200Y-130140125D01*
X122327200Y-130140125D02*
X122374819Y-130235363D01*
X122374819Y-130235363D02*
X122374819Y-130473458D01*
X122374819Y-130473458D02*
X122327200Y-130568696D01*
X122327200Y-130568696D02*
X122279580Y-130616315D01*
X81353866Y-132378220D02*
X81353866Y-131616316D01*
X81734819Y-130616316D02*
X81734819Y-131187744D01*
X81734819Y-130902030D02*
X80734819Y-130902030D01*
X80734819Y-130902030D02*
X80877676Y-130997268D01*
X80877676Y-130997268D02*
X80972914Y-131092506D01*
X80972914Y-131092506D02*
X81020533Y-131187744D01*
X80830057Y-130235363D02*
X80782438Y-130187744D01*
X80782438Y-130187744D02*
X80734819Y-130092506D01*
X80734819Y-130092506D02*
X80734819Y-129854411D01*
X80734819Y-129854411D02*
X80782438Y-129759173D01*
X80782438Y-129759173D02*
X80830057Y-129711554D01*
X80830057Y-129711554D02*
X80925295Y-129663935D01*
X80925295Y-129663935D02*
X81020533Y-129663935D01*
X81020533Y-129663935D02*
X81163390Y-129711554D01*
X81163390Y-129711554D02*
X81734819Y-130282982D01*
X81734819Y-130282982D02*
X81734819Y-129663935D01*
X95710476Y-133439819D02*
X96329523Y-133439819D01*
X96329523Y-133439819D02*
X95996190Y-133820771D01*
X95996190Y-133820771D02*
X96139047Y-133820771D01*
X96139047Y-133820771D02*
X96234285Y-133868390D01*
X96234285Y-133868390D02*
X96281904Y-133916009D01*
X96281904Y-133916009D02*
X96329523Y-134011247D01*
X96329523Y-134011247D02*
X96329523Y-134249342D01*
X96329523Y-134249342D02*
X96281904Y-134344580D01*
X96281904Y-134344580D02*
X96234285Y-134392200D01*
X96234285Y-134392200D02*
X96139047Y-134439819D01*
X96139047Y-134439819D02*
X95853333Y-134439819D01*
X95853333Y-134439819D02*
X95758095Y-134392200D01*
X95758095Y-134392200D02*
X95710476Y-134344580D01*
X96900952Y-133868390D02*
X96805714Y-133820771D01*
X96805714Y-133820771D02*
X96758095Y-133773152D01*
X96758095Y-133773152D02*
X96710476Y-133677914D01*
X96710476Y-133677914D02*
X96710476Y-133630295D01*
X96710476Y-133630295D02*
X96758095Y-133535057D01*
X96758095Y-133535057D02*
X96805714Y-133487438D01*
X96805714Y-133487438D02*
X96900952Y-133439819D01*
X96900952Y-133439819D02*
X97091428Y-133439819D01*
X97091428Y-133439819D02*
X97186666Y-133487438D01*
X97186666Y-133487438D02*
X97234285Y-133535057D01*
X97234285Y-133535057D02*
X97281904Y-133630295D01*
X97281904Y-133630295D02*
X97281904Y-133677914D01*
X97281904Y-133677914D02*
X97234285Y-133773152D01*
X97234285Y-133773152D02*
X97186666Y-133820771D01*
X97186666Y-133820771D02*
X97091428Y-133868390D01*
X97091428Y-133868390D02*
X96900952Y-133868390D01*
X96900952Y-133868390D02*
X96805714Y-133916009D01*
X96805714Y-133916009D02*
X96758095Y-133963628D01*
X96758095Y-133963628D02*
X96710476Y-134058866D01*
X96710476Y-134058866D02*
X96710476Y-134249342D01*
X96710476Y-134249342D02*
X96758095Y-134344580D01*
X96758095Y-134344580D02*
X96805714Y-134392200D01*
X96805714Y-134392200D02*
X96900952Y-134439819D01*
X96900952Y-134439819D02*
X97091428Y-134439819D01*
X97091428Y-134439819D02*
X97186666Y-134392200D01*
X97186666Y-134392200D02*
X97234285Y-134344580D01*
X97234285Y-134344580D02*
X97281904Y-134249342D01*
X97281904Y-134249342D02*
X97281904Y-134058866D01*
X97281904Y-134058866D02*
X97234285Y-133963628D01*
X97234285Y-133963628D02*
X97186666Y-133916009D01*
X97186666Y-133916009D02*
X97091428Y-133868390D01*
X142599580Y-131806792D02*
X142647200Y-131854411D01*
X142647200Y-131854411D02*
X142694819Y-131997268D01*
X142694819Y-131997268D02*
X142694819Y-132092506D01*
X142694819Y-132092506D02*
X142647200Y-132235363D01*
X142647200Y-132235363D02*
X142551961Y-132330601D01*
X142551961Y-132330601D02*
X142456723Y-132378220D01*
X142456723Y-132378220D02*
X142266247Y-132425839D01*
X142266247Y-132425839D02*
X142123390Y-132425839D01*
X142123390Y-132425839D02*
X141932914Y-132378220D01*
X141932914Y-132378220D02*
X141837676Y-132330601D01*
X141837676Y-132330601D02*
X141742438Y-132235363D01*
X141742438Y-132235363D02*
X141694819Y-132092506D01*
X141694819Y-132092506D02*
X141694819Y-131997268D01*
X141694819Y-131997268D02*
X141742438Y-131854411D01*
X141742438Y-131854411D02*
X141790057Y-131806792D01*
X142647200Y-131425839D02*
X142694819Y-131282982D01*
X142694819Y-131282982D02*
X142694819Y-131044887D01*
X142694819Y-131044887D02*
X142647200Y-130949649D01*
X142647200Y-130949649D02*
X142599580Y-130902030D01*
X142599580Y-130902030D02*
X142504342Y-130854411D01*
X142504342Y-130854411D02*
X142409104Y-130854411D01*
X142409104Y-130854411D02*
X142313866Y-130902030D01*
X142313866Y-130902030D02*
X142266247Y-130949649D01*
X142266247Y-130949649D02*
X142218628Y-131044887D01*
X142218628Y-131044887D02*
X142171009Y-131235363D01*
X142171009Y-131235363D02*
X142123390Y-131330601D01*
X142123390Y-131330601D02*
X142075771Y-131378220D01*
X142075771Y-131378220D02*
X141980533Y-131425839D01*
X141980533Y-131425839D02*
X141885295Y-131425839D01*
X141885295Y-131425839D02*
X141790057Y-131378220D01*
X141790057Y-131378220D02*
X141742438Y-131330601D01*
X141742438Y-131330601D02*
X141694819Y-131235363D01*
X141694819Y-131235363D02*
X141694819Y-130997268D01*
X141694819Y-130997268D02*
X141742438Y-130854411D01*
X141790057Y-130473458D02*
X141742438Y-130425839D01*
X141742438Y-130425839D02*
X141694819Y-130330601D01*
X141694819Y-130330601D02*
X141694819Y-130092506D01*
X141694819Y-130092506D02*
X141742438Y-129997268D01*
X141742438Y-129997268D02*
X141790057Y-129949649D01*
X141790057Y-129949649D02*
X141885295Y-129902030D01*
X141885295Y-129902030D02*
X141980533Y-129902030D01*
X141980533Y-129902030D02*
X142123390Y-129949649D01*
X142123390Y-129949649D02*
X142694819Y-130521077D01*
X142694819Y-130521077D02*
X142694819Y-129902030D01*
X105870476Y-133439819D02*
X106489523Y-133439819D01*
X106489523Y-133439819D02*
X106156190Y-133820771D01*
X106156190Y-133820771D02*
X106299047Y-133820771D01*
X106299047Y-133820771D02*
X106394285Y-133868390D01*
X106394285Y-133868390D02*
X106441904Y-133916009D01*
X106441904Y-133916009D02*
X106489523Y-134011247D01*
X106489523Y-134011247D02*
X106489523Y-134249342D01*
X106489523Y-134249342D02*
X106441904Y-134344580D01*
X106441904Y-134344580D02*
X106394285Y-134392200D01*
X106394285Y-134392200D02*
X106299047Y-134439819D01*
X106299047Y-134439819D02*
X106013333Y-134439819D01*
X106013333Y-134439819D02*
X105918095Y-134392200D01*
X105918095Y-134392200D02*
X105870476Y-134344580D01*
X107108571Y-133439819D02*
X107203809Y-133439819D01*
X107203809Y-133439819D02*
X107299047Y-133487438D01*
X107299047Y-133487438D02*
X107346666Y-133535057D01*
X107346666Y-133535057D02*
X107394285Y-133630295D01*
X107394285Y-133630295D02*
X107441904Y-133820771D01*
X107441904Y-133820771D02*
X107441904Y-134058866D01*
X107441904Y-134058866D02*
X107394285Y-134249342D01*
X107394285Y-134249342D02*
X107346666Y-134344580D01*
X107346666Y-134344580D02*
X107299047Y-134392200D01*
X107299047Y-134392200D02*
X107203809Y-134439819D01*
X107203809Y-134439819D02*
X107108571Y-134439819D01*
X107108571Y-134439819D02*
X107013333Y-134392200D01*
X107013333Y-134392200D02*
X106965714Y-134344580D01*
X106965714Y-134344580D02*
X106918095Y-134249342D01*
X106918095Y-134249342D02*
X106870476Y-134058866D01*
X106870476Y-134058866D02*
X106870476Y-133820771D01*
X106870476Y-133820771D02*
X106918095Y-133630295D01*
X106918095Y-133630295D02*
X106965714Y-133535057D01*
X106965714Y-133535057D02*
X107013333Y-133487438D01*
X107013333Y-133487438D02*
X107108571Y-133439819D01*
X96974819Y-132378220D02*
X95974819Y-132378220D01*
X95974819Y-132378220D02*
X95974819Y-132140125D01*
X95974819Y-132140125D02*
X96022438Y-131997268D01*
X96022438Y-131997268D02*
X96117676Y-131902030D01*
X96117676Y-131902030D02*
X96212914Y-131854411D01*
X96212914Y-131854411D02*
X96403390Y-131806792D01*
X96403390Y-131806792D02*
X96546247Y-131806792D01*
X96546247Y-131806792D02*
X96736723Y-131854411D01*
X96736723Y-131854411D02*
X96831961Y-131902030D01*
X96831961Y-131902030D02*
X96927200Y-131997268D01*
X96927200Y-131997268D02*
X96974819Y-132140125D01*
X96974819Y-132140125D02*
X96974819Y-132378220D01*
X96308152Y-130949649D02*
X96974819Y-130949649D01*
X95927200Y-131187744D02*
X96641485Y-131425839D01*
X96641485Y-131425839D02*
X96641485Y-130806792D01*
X91799580Y-131806792D02*
X91847200Y-131854411D01*
X91847200Y-131854411D02*
X91894819Y-131997268D01*
X91894819Y-131997268D02*
X91894819Y-132092506D01*
X91894819Y-132092506D02*
X91847200Y-132235363D01*
X91847200Y-132235363D02*
X91751961Y-132330601D01*
X91751961Y-132330601D02*
X91656723Y-132378220D01*
X91656723Y-132378220D02*
X91466247Y-132425839D01*
X91466247Y-132425839D02*
X91323390Y-132425839D01*
X91323390Y-132425839D02*
X91132914Y-132378220D01*
X91132914Y-132378220D02*
X91037676Y-132330601D01*
X91037676Y-132330601D02*
X90942438Y-132235363D01*
X90942438Y-132235363D02*
X90894819Y-132092506D01*
X90894819Y-132092506D02*
X90894819Y-131997268D01*
X90894819Y-131997268D02*
X90942438Y-131854411D01*
X90942438Y-131854411D02*
X90990057Y-131806792D01*
X91894819Y-130902030D02*
X91894819Y-131378220D01*
X91894819Y-131378220D02*
X90894819Y-131378220D01*
X91894819Y-130568696D02*
X90894819Y-130568696D01*
X91894819Y-129997268D02*
X91323390Y-130425839D01*
X90894819Y-129997268D02*
X91466247Y-130568696D01*
X119549104Y-132425839D02*
X119549104Y-131949649D01*
X119834819Y-132521077D02*
X118834819Y-132187744D01*
X118834819Y-132187744D02*
X119834819Y-131854411D01*
X119834819Y-130997268D02*
X119834819Y-131568696D01*
X119834819Y-131282982D02*
X118834819Y-131282982D01*
X118834819Y-131282982D02*
X118977676Y-131378220D01*
X118977676Y-131378220D02*
X119072914Y-131473458D01*
X119072914Y-131473458D02*
X119120533Y-131568696D01*
X118834819Y-130378220D02*
X118834819Y-130282982D01*
X118834819Y-130282982D02*
X118882438Y-130187744D01*
X118882438Y-130187744D02*
X118930057Y-130140125D01*
X118930057Y-130140125D02*
X119025295Y-130092506D01*
X119025295Y-130092506D02*
X119215771Y-130044887D01*
X119215771Y-130044887D02*
X119453866Y-130044887D01*
X119453866Y-130044887D02*
X119644342Y-130092506D01*
X119644342Y-130092506D02*
X119739580Y-130140125D01*
X119739580Y-130140125D02*
X119787200Y-130187744D01*
X119787200Y-130187744D02*
X119834819Y-130282982D01*
X119834819Y-130282982D02*
X119834819Y-130378220D01*
X119834819Y-130378220D02*
X119787200Y-130473458D01*
X119787200Y-130473458D02*
X119739580Y-130521077D01*
X119739580Y-130521077D02*
X119644342Y-130568696D01*
X119644342Y-130568696D02*
X119453866Y-130616315D01*
X119453866Y-130616315D02*
X119215771Y-130616315D01*
X119215771Y-130616315D02*
X119025295Y-130568696D01*
X119025295Y-130568696D02*
X118930057Y-130521077D01*
X118930057Y-130521077D02*
X118882438Y-130473458D01*
X118882438Y-130473458D02*
X118834819Y-130378220D01*
X113538095Y-133535057D02*
X113585714Y-133487438D01*
X113585714Y-133487438D02*
X113680952Y-133439819D01*
X113680952Y-133439819D02*
X113919047Y-133439819D01*
X113919047Y-133439819D02*
X114014285Y-133487438D01*
X114014285Y-133487438D02*
X114061904Y-133535057D01*
X114061904Y-133535057D02*
X114109523Y-133630295D01*
X114109523Y-133630295D02*
X114109523Y-133725533D01*
X114109523Y-133725533D02*
X114061904Y-133868390D01*
X114061904Y-133868390D02*
X113490476Y-134439819D01*
X113490476Y-134439819D02*
X114109523Y-134439819D01*
X114966666Y-133773152D02*
X114966666Y-134439819D01*
X114728571Y-133392200D02*
X114490476Y-134106485D01*
X114490476Y-134106485D02*
X115109523Y-134106485D01*
X83534285Y-133773152D02*
X83534285Y-134439819D01*
X83296190Y-133392200D02*
X83058095Y-134106485D01*
X83058095Y-134106485D02*
X83677142Y-134106485D01*
X84200952Y-133868390D02*
X84105714Y-133820771D01*
X84105714Y-133820771D02*
X84058095Y-133773152D01*
X84058095Y-133773152D02*
X84010476Y-133677914D01*
X84010476Y-133677914D02*
X84010476Y-133630295D01*
X84010476Y-133630295D02*
X84058095Y-133535057D01*
X84058095Y-133535057D02*
X84105714Y-133487438D01*
X84105714Y-133487438D02*
X84200952Y-133439819D01*
X84200952Y-133439819D02*
X84391428Y-133439819D01*
X84391428Y-133439819D02*
X84486666Y-133487438D01*
X84486666Y-133487438D02*
X84534285Y-133535057D01*
X84534285Y-133535057D02*
X84581904Y-133630295D01*
X84581904Y-133630295D02*
X84581904Y-133677914D01*
X84581904Y-133677914D02*
X84534285Y-133773152D01*
X84534285Y-133773152D02*
X84486666Y-133820771D01*
X84486666Y-133820771D02*
X84391428Y-133868390D01*
X84391428Y-133868390D02*
X84200952Y-133868390D01*
X84200952Y-133868390D02*
X84105714Y-133916009D01*
X84105714Y-133916009D02*
X84058095Y-133963628D01*
X84058095Y-133963628D02*
X84010476Y-134058866D01*
X84010476Y-134058866D02*
X84010476Y-134249342D01*
X84010476Y-134249342D02*
X84058095Y-134344580D01*
X84058095Y-134344580D02*
X84105714Y-134392200D01*
X84105714Y-134392200D02*
X84200952Y-134439819D01*
X84200952Y-134439819D02*
X84391428Y-134439819D01*
X84391428Y-134439819D02*
X84486666Y-134392200D01*
X84486666Y-134392200D02*
X84534285Y-134344580D01*
X84534285Y-134344580D02*
X84581904Y-134249342D01*
X84581904Y-134249342D02*
X84581904Y-134058866D01*
X84581904Y-134058866D02*
X84534285Y-133963628D01*
X84534285Y-133963628D02*
X84486666Y-133916009D01*
X84486666Y-133916009D02*
X84391428Y-133868390D01*
X86074285Y-133773152D02*
X86074285Y-134439819D01*
X85836190Y-133392200D02*
X85598095Y-134106485D01*
X85598095Y-134106485D02*
X86217142Y-134106485D01*
X87026666Y-133439819D02*
X86836190Y-133439819D01*
X86836190Y-133439819D02*
X86740952Y-133487438D01*
X86740952Y-133487438D02*
X86693333Y-133535057D01*
X86693333Y-133535057D02*
X86598095Y-133677914D01*
X86598095Y-133677914D02*
X86550476Y-133868390D01*
X86550476Y-133868390D02*
X86550476Y-134249342D01*
X86550476Y-134249342D02*
X86598095Y-134344580D01*
X86598095Y-134344580D02*
X86645714Y-134392200D01*
X86645714Y-134392200D02*
X86740952Y-134439819D01*
X86740952Y-134439819D02*
X86931428Y-134439819D01*
X86931428Y-134439819D02*
X87026666Y-134392200D01*
X87026666Y-134392200D02*
X87074285Y-134344580D01*
X87074285Y-134344580D02*
X87121904Y-134249342D01*
X87121904Y-134249342D02*
X87121904Y-134011247D01*
X87121904Y-134011247D02*
X87074285Y-133916009D01*
X87074285Y-133916009D02*
X87026666Y-133868390D01*
X87026666Y-133868390D02*
X86931428Y-133820771D01*
X86931428Y-133820771D02*
X86740952Y-133820771D01*
X86740952Y-133820771D02*
X86645714Y-133868390D01*
X86645714Y-133868390D02*
X86598095Y-133916009D01*
X86598095Y-133916009D02*
X86550476Y-134011247D01*
X134524762Y-133868390D02*
X134429524Y-133820771D01*
X134429524Y-133820771D02*
X134381905Y-133773152D01*
X134381905Y-133773152D02*
X134334286Y-133677914D01*
X134334286Y-133677914D02*
X134334286Y-133630295D01*
X134334286Y-133630295D02*
X134381905Y-133535057D01*
X134381905Y-133535057D02*
X134429524Y-133487438D01*
X134429524Y-133487438D02*
X134524762Y-133439819D01*
X134524762Y-133439819D02*
X134715238Y-133439819D01*
X134715238Y-133439819D02*
X134810476Y-133487438D01*
X134810476Y-133487438D02*
X134858095Y-133535057D01*
X134858095Y-133535057D02*
X134905714Y-133630295D01*
X134905714Y-133630295D02*
X134905714Y-133677914D01*
X134905714Y-133677914D02*
X134858095Y-133773152D01*
X134858095Y-133773152D02*
X134810476Y-133820771D01*
X134810476Y-133820771D02*
X134715238Y-133868390D01*
X134715238Y-133868390D02*
X134524762Y-133868390D01*
X134524762Y-133868390D02*
X134429524Y-133916009D01*
X134429524Y-133916009D02*
X134381905Y-133963628D01*
X134381905Y-133963628D02*
X134334286Y-134058866D01*
X134334286Y-134058866D02*
X134334286Y-134249342D01*
X134334286Y-134249342D02*
X134381905Y-134344580D01*
X134381905Y-134344580D02*
X134429524Y-134392200D01*
X134429524Y-134392200D02*
X134524762Y-134439819D01*
X134524762Y-134439819D02*
X134715238Y-134439819D01*
X134715238Y-134439819D02*
X134810476Y-134392200D01*
X134810476Y-134392200D02*
X134858095Y-134344580D01*
X134858095Y-134344580D02*
X134905714Y-134249342D01*
X134905714Y-134249342D02*
X134905714Y-134058866D01*
X134905714Y-134058866D02*
X134858095Y-133963628D01*
X134858095Y-133963628D02*
X134810476Y-133916009D01*
X134810476Y-133916009D02*
X134715238Y-133868390D01*
X100790476Y-133439819D02*
X101409523Y-133439819D01*
X101409523Y-133439819D02*
X101076190Y-133820771D01*
X101076190Y-133820771D02*
X101219047Y-133820771D01*
X101219047Y-133820771D02*
X101314285Y-133868390D01*
X101314285Y-133868390D02*
X101361904Y-133916009D01*
X101361904Y-133916009D02*
X101409523Y-134011247D01*
X101409523Y-134011247D02*
X101409523Y-134249342D01*
X101409523Y-134249342D02*
X101361904Y-134344580D01*
X101361904Y-134344580D02*
X101314285Y-134392200D01*
X101314285Y-134392200D02*
X101219047Y-134439819D01*
X101219047Y-134439819D02*
X100933333Y-134439819D01*
X100933333Y-134439819D02*
X100838095Y-134392200D01*
X100838095Y-134392200D02*
X100790476Y-134344580D01*
X102266666Y-133773152D02*
X102266666Y-134439819D01*
X102028571Y-133392200D02*
X101790476Y-134106485D01*
X101790476Y-134106485D02*
X102409523Y-134106485D01*
X132011009Y-132044887D02*
X132058628Y-131902030D01*
X132058628Y-131902030D02*
X132106247Y-131854411D01*
X132106247Y-131854411D02*
X132201485Y-131806792D01*
X132201485Y-131806792D02*
X132344342Y-131806792D01*
X132344342Y-131806792D02*
X132439580Y-131854411D01*
X132439580Y-131854411D02*
X132487200Y-131902030D01*
X132487200Y-131902030D02*
X132534819Y-131997268D01*
X132534819Y-131997268D02*
X132534819Y-132378220D01*
X132534819Y-132378220D02*
X131534819Y-132378220D01*
X131534819Y-132378220D02*
X131534819Y-132044887D01*
X131534819Y-132044887D02*
X131582438Y-131949649D01*
X131582438Y-131949649D02*
X131630057Y-131902030D01*
X131630057Y-131902030D02*
X131725295Y-131854411D01*
X131725295Y-131854411D02*
X131820533Y-131854411D01*
X131820533Y-131854411D02*
X131915771Y-131902030D01*
X131915771Y-131902030D02*
X131963390Y-131949649D01*
X131963390Y-131949649D02*
X132011009Y-132044887D01*
X132011009Y-132044887D02*
X132011009Y-132378220D01*
X132534819Y-131378220D02*
X131534819Y-131378220D01*
X131534819Y-131378220D02*
X131534819Y-131140125D01*
X131534819Y-131140125D02*
X131582438Y-130997268D01*
X131582438Y-130997268D02*
X131677676Y-130902030D01*
X131677676Y-130902030D02*
X131772914Y-130854411D01*
X131772914Y-130854411D02*
X131963390Y-130806792D01*
X131963390Y-130806792D02*
X132106247Y-130806792D01*
X132106247Y-130806792D02*
X132296723Y-130854411D01*
X132296723Y-130854411D02*
X132391961Y-130902030D01*
X132391961Y-130902030D02*
X132487200Y-130997268D01*
X132487200Y-130997268D02*
X132534819Y-131140125D01*
X132534819Y-131140125D02*
X132534819Y-131378220D01*
X132534819Y-130378220D02*
X131534819Y-130378220D01*
X132534819Y-129330602D02*
X132058628Y-129663935D01*
X132534819Y-129902030D02*
X131534819Y-129902030D01*
X131534819Y-129902030D02*
X131534819Y-129521078D01*
X131534819Y-129521078D02*
X131582438Y-129425840D01*
X131582438Y-129425840D02*
X131630057Y-129378221D01*
X131630057Y-129378221D02*
X131725295Y-129330602D01*
X131725295Y-129330602D02*
X131868152Y-129330602D01*
X131868152Y-129330602D02*
X131963390Y-129378221D01*
X131963390Y-129378221D02*
X132011009Y-129425840D01*
X132011009Y-129425840D02*
X132058628Y-129521078D01*
X132058628Y-129521078D02*
X132058628Y-129902030D01*
X108458095Y-133535057D02*
X108505714Y-133487438D01*
X108505714Y-133487438D02*
X108600952Y-133439819D01*
X108600952Y-133439819D02*
X108839047Y-133439819D01*
X108839047Y-133439819D02*
X108934285Y-133487438D01*
X108934285Y-133487438D02*
X108981904Y-133535057D01*
X108981904Y-133535057D02*
X109029523Y-133630295D01*
X109029523Y-133630295D02*
X109029523Y-133725533D01*
X109029523Y-133725533D02*
X108981904Y-133868390D01*
X108981904Y-133868390D02*
X108410476Y-134439819D01*
X108410476Y-134439819D02*
X109029523Y-134439819D01*
X109600952Y-133868390D02*
X109505714Y-133820771D01*
X109505714Y-133820771D02*
X109458095Y-133773152D01*
X109458095Y-133773152D02*
X109410476Y-133677914D01*
X109410476Y-133677914D02*
X109410476Y-133630295D01*
X109410476Y-133630295D02*
X109458095Y-133535057D01*
X109458095Y-133535057D02*
X109505714Y-133487438D01*
X109505714Y-133487438D02*
X109600952Y-133439819D01*
X109600952Y-133439819D02*
X109791428Y-133439819D01*
X109791428Y-133439819D02*
X109886666Y-133487438D01*
X109886666Y-133487438D02*
X109934285Y-133535057D01*
X109934285Y-133535057D02*
X109981904Y-133630295D01*
X109981904Y-133630295D02*
X109981904Y-133677914D01*
X109981904Y-133677914D02*
X109934285Y-133773152D01*
X109934285Y-133773152D02*
X109886666Y-133820771D01*
X109886666Y-133820771D02*
X109791428Y-133868390D01*
X109791428Y-133868390D02*
X109600952Y-133868390D01*
X109600952Y-133868390D02*
X109505714Y-133916009D01*
X109505714Y-133916009D02*
X109458095Y-133963628D01*
X109458095Y-133963628D02*
X109410476Y-134058866D01*
X109410476Y-134058866D02*
X109410476Y-134249342D01*
X109410476Y-134249342D02*
X109458095Y-134344580D01*
X109458095Y-134344580D02*
X109505714Y-134392200D01*
X109505714Y-134392200D02*
X109600952Y-134439819D01*
X109600952Y-134439819D02*
X109791428Y-134439819D01*
X109791428Y-134439819D02*
X109886666Y-134392200D01*
X109886666Y-134392200D02*
X109934285Y-134344580D01*
X109934285Y-134344580D02*
X109981904Y-134249342D01*
X109981904Y-134249342D02*
X109981904Y-134058866D01*
X109981904Y-134058866D02*
X109934285Y-133963628D01*
X109934285Y-133963628D02*
X109886666Y-133916009D01*
X109886666Y-133916009D02*
X109791428Y-133868390D01*
X81041904Y-133439819D02*
X80565714Y-133439819D01*
X80565714Y-133439819D02*
X80518095Y-133916009D01*
X80518095Y-133916009D02*
X80565714Y-133868390D01*
X80565714Y-133868390D02*
X80660952Y-133820771D01*
X80660952Y-133820771D02*
X80899047Y-133820771D01*
X80899047Y-133820771D02*
X80994285Y-133868390D01*
X80994285Y-133868390D02*
X81041904Y-133916009D01*
X81041904Y-133916009D02*
X81089523Y-134011247D01*
X81089523Y-134011247D02*
X81089523Y-134249342D01*
X81089523Y-134249342D02*
X81041904Y-134344580D01*
X81041904Y-134344580D02*
X80994285Y-134392200D01*
X80994285Y-134392200D02*
X80899047Y-134439819D01*
X80899047Y-134439819D02*
X80660952Y-134439819D01*
X80660952Y-134439819D02*
X80565714Y-134392200D01*
X80565714Y-134392200D02*
X80518095Y-134344580D01*
X81708571Y-133439819D02*
X81803809Y-133439819D01*
X81803809Y-133439819D02*
X81899047Y-133487438D01*
X81899047Y-133487438D02*
X81946666Y-133535057D01*
X81946666Y-133535057D02*
X81994285Y-133630295D01*
X81994285Y-133630295D02*
X82041904Y-133820771D01*
X82041904Y-133820771D02*
X82041904Y-134058866D01*
X82041904Y-134058866D02*
X81994285Y-134249342D01*
X81994285Y-134249342D02*
X81946666Y-134344580D01*
X81946666Y-134344580D02*
X81899047Y-134392200D01*
X81899047Y-134392200D02*
X81803809Y-134439819D01*
X81803809Y-134439819D02*
X81708571Y-134439819D01*
X81708571Y-134439819D02*
X81613333Y-134392200D01*
X81613333Y-134392200D02*
X81565714Y-134344580D01*
X81565714Y-134344580D02*
X81518095Y-134249342D01*
X81518095Y-134249342D02*
X81470476Y-134058866D01*
X81470476Y-134058866D02*
X81470476Y-133820771D01*
X81470476Y-133820771D02*
X81518095Y-133630295D01*
X81518095Y-133630295D02*
X81565714Y-133535057D01*
X81565714Y-133535057D02*
X81613333Y-133487438D01*
X81613333Y-133487438D02*
X81708571Y-133439819D01*
X98250476Y-133439819D02*
X98869523Y-133439819D01*
X98869523Y-133439819D02*
X98536190Y-133820771D01*
X98536190Y-133820771D02*
X98679047Y-133820771D01*
X98679047Y-133820771D02*
X98774285Y-133868390D01*
X98774285Y-133868390D02*
X98821904Y-133916009D01*
X98821904Y-133916009D02*
X98869523Y-134011247D01*
X98869523Y-134011247D02*
X98869523Y-134249342D01*
X98869523Y-134249342D02*
X98821904Y-134344580D01*
X98821904Y-134344580D02*
X98774285Y-134392200D01*
X98774285Y-134392200D02*
X98679047Y-134439819D01*
X98679047Y-134439819D02*
X98393333Y-134439819D01*
X98393333Y-134439819D02*
X98298095Y-134392200D01*
X98298095Y-134392200D02*
X98250476Y-134344580D01*
X99726666Y-133439819D02*
X99536190Y-133439819D01*
X99536190Y-133439819D02*
X99440952Y-133487438D01*
X99440952Y-133487438D02*
X99393333Y-133535057D01*
X99393333Y-133535057D02*
X99298095Y-133677914D01*
X99298095Y-133677914D02*
X99250476Y-133868390D01*
X99250476Y-133868390D02*
X99250476Y-134249342D01*
X99250476Y-134249342D02*
X99298095Y-134344580D01*
X99298095Y-134344580D02*
X99345714Y-134392200D01*
X99345714Y-134392200D02*
X99440952Y-134439819D01*
X99440952Y-134439819D02*
X99631428Y-134439819D01*
X99631428Y-134439819D02*
X99726666Y-134392200D01*
X99726666Y-134392200D02*
X99774285Y-134344580D01*
X99774285Y-134344580D02*
X99821904Y-134249342D01*
X99821904Y-134249342D02*
X99821904Y-134011247D01*
X99821904Y-134011247D02*
X99774285Y-133916009D01*
X99774285Y-133916009D02*
X99726666Y-133868390D01*
X99726666Y-133868390D02*
X99631428Y-133820771D01*
X99631428Y-133820771D02*
X99440952Y-133820771D01*
X99440952Y-133820771D02*
X99345714Y-133868390D01*
X99345714Y-133868390D02*
X99298095Y-133916009D01*
X99298095Y-133916009D02*
X99250476Y-134011247D01*
X99514819Y-132378220D02*
X98514819Y-132378220D01*
X98514819Y-132378220D02*
X98514819Y-132140125D01*
X98514819Y-132140125D02*
X98562438Y-131997268D01*
X98562438Y-131997268D02*
X98657676Y-131902030D01*
X98657676Y-131902030D02*
X98752914Y-131854411D01*
X98752914Y-131854411D02*
X98943390Y-131806792D01*
X98943390Y-131806792D02*
X99086247Y-131806792D01*
X99086247Y-131806792D02*
X99276723Y-131854411D01*
X99276723Y-131854411D02*
X99371961Y-131902030D01*
X99371961Y-131902030D02*
X99467200Y-131997268D01*
X99467200Y-131997268D02*
X99514819Y-132140125D01*
X99514819Y-132140125D02*
X99514819Y-132378220D01*
X98610057Y-131425839D02*
X98562438Y-131378220D01*
X98562438Y-131378220D02*
X98514819Y-131282982D01*
X98514819Y-131282982D02*
X98514819Y-131044887D01*
X98514819Y-131044887D02*
X98562438Y-130949649D01*
X98562438Y-130949649D02*
X98610057Y-130902030D01*
X98610057Y-130902030D02*
X98705295Y-130854411D01*
X98705295Y-130854411D02*
X98800533Y-130854411D01*
X98800533Y-130854411D02*
X98943390Y-130902030D01*
X98943390Y-130902030D02*
X99514819Y-131473458D01*
X99514819Y-131473458D02*
X99514819Y-130854411D01*
X111929104Y-132425839D02*
X111929104Y-131949649D01*
X112214819Y-132521077D02*
X111214819Y-132187744D01*
X111214819Y-132187744D02*
X112214819Y-131854411D01*
X112214819Y-130997268D02*
X112214819Y-131568696D01*
X112214819Y-131282982D02*
X111214819Y-131282982D01*
X111214819Y-131282982D02*
X111357676Y-131378220D01*
X111357676Y-131378220D02*
X111452914Y-131473458D01*
X111452914Y-131473458D02*
X111500533Y-131568696D01*
X111214819Y-130663934D02*
X111214819Y-130044887D01*
X111214819Y-130044887D02*
X111595771Y-130378220D01*
X111595771Y-130378220D02*
X111595771Y-130235363D01*
X111595771Y-130235363D02*
X111643390Y-130140125D01*
X111643390Y-130140125D02*
X111691009Y-130092506D01*
X111691009Y-130092506D02*
X111786247Y-130044887D01*
X111786247Y-130044887D02*
X112024342Y-130044887D01*
X112024342Y-130044887D02*
X112119580Y-130092506D01*
X112119580Y-130092506D02*
X112167200Y-130140125D01*
X112167200Y-130140125D02*
X112214819Y-130235363D01*
X112214819Y-130235363D02*
X112214819Y-130521077D01*
X112214819Y-130521077D02*
X112167200Y-130616315D01*
X112167200Y-130616315D02*
X112119580Y-130663934D01*
X109389104Y-132425839D02*
X109389104Y-131949649D01*
X109674819Y-132521077D02*
X108674819Y-132187744D01*
X108674819Y-132187744D02*
X109674819Y-131854411D01*
X108674819Y-131330601D02*
X108674819Y-131235363D01*
X108674819Y-131235363D02*
X108722438Y-131140125D01*
X108722438Y-131140125D02*
X108770057Y-131092506D01*
X108770057Y-131092506D02*
X108865295Y-131044887D01*
X108865295Y-131044887D02*
X109055771Y-130997268D01*
X109055771Y-130997268D02*
X109293866Y-130997268D01*
X109293866Y-130997268D02*
X109484342Y-131044887D01*
X109484342Y-131044887D02*
X109579580Y-131092506D01*
X109579580Y-131092506D02*
X109627200Y-131140125D01*
X109627200Y-131140125D02*
X109674819Y-131235363D01*
X109674819Y-131235363D02*
X109674819Y-131330601D01*
X109674819Y-131330601D02*
X109627200Y-131425839D01*
X109627200Y-131425839D02*
X109579580Y-131473458D01*
X109579580Y-131473458D02*
X109484342Y-131521077D01*
X109484342Y-131521077D02*
X109293866Y-131568696D01*
X109293866Y-131568696D02*
X109055771Y-131568696D01*
X109055771Y-131568696D02*
X108865295Y-131521077D01*
X108865295Y-131521077D02*
X108770057Y-131473458D01*
X108770057Y-131473458D02*
X108722438Y-131425839D01*
X108722438Y-131425839D02*
X108674819Y-131330601D01*
X117009104Y-132425839D02*
X117009104Y-131949649D01*
X117294819Y-132521077D02*
X116294819Y-132187744D01*
X116294819Y-132187744D02*
X117294819Y-131854411D01*
X116294819Y-131092506D02*
X116294819Y-131282982D01*
X116294819Y-131282982D02*
X116342438Y-131378220D01*
X116342438Y-131378220D02*
X116390057Y-131425839D01*
X116390057Y-131425839D02*
X116532914Y-131521077D01*
X116532914Y-131521077D02*
X116723390Y-131568696D01*
X116723390Y-131568696D02*
X117104342Y-131568696D01*
X117104342Y-131568696D02*
X117199580Y-131521077D01*
X117199580Y-131521077D02*
X117247200Y-131473458D01*
X117247200Y-131473458D02*
X117294819Y-131378220D01*
X117294819Y-131378220D02*
X117294819Y-131187744D01*
X117294819Y-131187744D02*
X117247200Y-131092506D01*
X117247200Y-131092506D02*
X117199580Y-131044887D01*
X117199580Y-131044887D02*
X117104342Y-130997268D01*
X117104342Y-130997268D02*
X116866247Y-130997268D01*
X116866247Y-130997268D02*
X116771009Y-131044887D01*
X116771009Y-131044887D02*
X116723390Y-131092506D01*
X116723390Y-131092506D02*
X116675771Y-131187744D01*
X116675771Y-131187744D02*
X116675771Y-131378220D01*
X116675771Y-131378220D02*
X116723390Y-131473458D01*
X116723390Y-131473458D02*
X116771009Y-131521077D01*
X116771009Y-131521077D02*
X116866247Y-131568696D01*
X121729523Y-134439819D02*
X121158095Y-134439819D01*
X121443809Y-134439819D02*
X121443809Y-133439819D01*
X121443809Y-133439819D02*
X121348571Y-133582676D01*
X121348571Y-133582676D02*
X121253333Y-133677914D01*
X121253333Y-133677914D02*
X121158095Y-133725533D01*
X122300952Y-133868390D02*
X122205714Y-133820771D01*
X122205714Y-133820771D02*
X122158095Y-133773152D01*
X122158095Y-133773152D02*
X122110476Y-133677914D01*
X122110476Y-133677914D02*
X122110476Y-133630295D01*
X122110476Y-133630295D02*
X122158095Y-133535057D01*
X122158095Y-133535057D02*
X122205714Y-133487438D01*
X122205714Y-133487438D02*
X122300952Y-133439819D01*
X122300952Y-133439819D02*
X122491428Y-133439819D01*
X122491428Y-133439819D02*
X122586666Y-133487438D01*
X122586666Y-133487438D02*
X122634285Y-133535057D01*
X122634285Y-133535057D02*
X122681904Y-133630295D01*
X122681904Y-133630295D02*
X122681904Y-133677914D01*
X122681904Y-133677914D02*
X122634285Y-133773152D01*
X122634285Y-133773152D02*
X122586666Y-133820771D01*
X122586666Y-133820771D02*
X122491428Y-133868390D01*
X122491428Y-133868390D02*
X122300952Y-133868390D01*
X122300952Y-133868390D02*
X122205714Y-133916009D01*
X122205714Y-133916009D02*
X122158095Y-133963628D01*
X122158095Y-133963628D02*
X122110476Y-134058866D01*
X122110476Y-134058866D02*
X122110476Y-134249342D01*
X122110476Y-134249342D02*
X122158095Y-134344580D01*
X122158095Y-134344580D02*
X122205714Y-134392200D01*
X122205714Y-134392200D02*
X122300952Y-134439819D01*
X122300952Y-134439819D02*
X122491428Y-134439819D01*
X122491428Y-134439819D02*
X122586666Y-134392200D01*
X122586666Y-134392200D02*
X122634285Y-134344580D01*
X122634285Y-134344580D02*
X122681904Y-134249342D01*
X122681904Y-134249342D02*
X122681904Y-134058866D01*
X122681904Y-134058866D02*
X122634285Y-133963628D01*
X122634285Y-133963628D02*
X122586666Y-133916009D01*
X122586666Y-133916009D02*
X122491428Y-133868390D01*
X141954286Y-133535057D02*
X142001905Y-133487438D01*
X142001905Y-133487438D02*
X142097143Y-133439819D01*
X142097143Y-133439819D02*
X142335238Y-133439819D01*
X142335238Y-133439819D02*
X142430476Y-133487438D01*
X142430476Y-133487438D02*
X142478095Y-133535057D01*
X142478095Y-133535057D02*
X142525714Y-133630295D01*
X142525714Y-133630295D02*
X142525714Y-133725533D01*
X142525714Y-133725533D02*
X142478095Y-133868390D01*
X142478095Y-133868390D02*
X141906667Y-134439819D01*
X141906667Y-134439819D02*
X142525714Y-134439819D01*
X127454819Y-131806792D02*
X126978628Y-132140125D01*
X127454819Y-132378220D02*
X126454819Y-132378220D01*
X126454819Y-132378220D02*
X126454819Y-131997268D01*
X126454819Y-131997268D02*
X126502438Y-131902030D01*
X126502438Y-131902030D02*
X126550057Y-131854411D01*
X126550057Y-131854411D02*
X126645295Y-131806792D01*
X126645295Y-131806792D02*
X126788152Y-131806792D01*
X126788152Y-131806792D02*
X126883390Y-131854411D01*
X126883390Y-131854411D02*
X126931009Y-131902030D01*
X126931009Y-131902030D02*
X126978628Y-131997268D01*
X126978628Y-131997268D02*
X126978628Y-132378220D01*
X127454819Y-131378220D02*
X126454819Y-131378220D01*
X126454819Y-131378220D02*
X126454819Y-131140125D01*
X126454819Y-131140125D02*
X126502438Y-130997268D01*
X126502438Y-130997268D02*
X126597676Y-130902030D01*
X126597676Y-130902030D02*
X126692914Y-130854411D01*
X126692914Y-130854411D02*
X126883390Y-130806792D01*
X126883390Y-130806792D02*
X127026247Y-130806792D01*
X127026247Y-130806792D02*
X127216723Y-130854411D01*
X127216723Y-130854411D02*
X127311961Y-130902030D01*
X127311961Y-130902030D02*
X127407200Y-130997268D01*
X127407200Y-130997268D02*
X127454819Y-131140125D01*
X127454819Y-131140125D02*
X127454819Y-131378220D01*
X110998095Y-133535057D02*
X111045714Y-133487438D01*
X111045714Y-133487438D02*
X111140952Y-133439819D01*
X111140952Y-133439819D02*
X111379047Y-133439819D01*
X111379047Y-133439819D02*
X111474285Y-133487438D01*
X111474285Y-133487438D02*
X111521904Y-133535057D01*
X111521904Y-133535057D02*
X111569523Y-133630295D01*
X111569523Y-133630295D02*
X111569523Y-133725533D01*
X111569523Y-133725533D02*
X111521904Y-133868390D01*
X111521904Y-133868390D02*
X110950476Y-134439819D01*
X110950476Y-134439819D02*
X111569523Y-134439819D01*
X112426666Y-133439819D02*
X112236190Y-133439819D01*
X112236190Y-133439819D02*
X112140952Y-133487438D01*
X112140952Y-133487438D02*
X112093333Y-133535057D01*
X112093333Y-133535057D02*
X111998095Y-133677914D01*
X111998095Y-133677914D02*
X111950476Y-133868390D01*
X111950476Y-133868390D02*
X111950476Y-134249342D01*
X111950476Y-134249342D02*
X111998095Y-134344580D01*
X111998095Y-134344580D02*
X112045714Y-134392200D01*
X112045714Y-134392200D02*
X112140952Y-134439819D01*
X112140952Y-134439819D02*
X112331428Y-134439819D01*
X112331428Y-134439819D02*
X112426666Y-134392200D01*
X112426666Y-134392200D02*
X112474285Y-134344580D01*
X112474285Y-134344580D02*
X112521904Y-134249342D01*
X112521904Y-134249342D02*
X112521904Y-134011247D01*
X112521904Y-134011247D02*
X112474285Y-133916009D01*
X112474285Y-133916009D02*
X112426666Y-133868390D01*
X112426666Y-133868390D02*
X112331428Y-133820771D01*
X112331428Y-133820771D02*
X112140952Y-133820771D01*
X112140952Y-133820771D02*
X112045714Y-133868390D01*
X112045714Y-133868390D02*
X111998095Y-133916009D01*
X111998095Y-133916009D02*
X111950476Y-134011247D01*
X139890476Y-133773152D02*
X139890476Y-134439819D01*
X139652381Y-133392200D02*
X139414286Y-134106485D01*
X139414286Y-134106485D02*
X140033333Y-134106485D01*
X93694285Y-133773152D02*
X93694285Y-134439819D01*
X93456190Y-133392200D02*
X93218095Y-134106485D01*
X93218095Y-134106485D02*
X93837142Y-134106485D01*
X94408571Y-133439819D02*
X94503809Y-133439819D01*
X94503809Y-133439819D02*
X94599047Y-133487438D01*
X94599047Y-133487438D02*
X94646666Y-133535057D01*
X94646666Y-133535057D02*
X94694285Y-133630295D01*
X94694285Y-133630295D02*
X94741904Y-133820771D01*
X94741904Y-133820771D02*
X94741904Y-134058866D01*
X94741904Y-134058866D02*
X94694285Y-134249342D01*
X94694285Y-134249342D02*
X94646666Y-134344580D01*
X94646666Y-134344580D02*
X94599047Y-134392200D01*
X94599047Y-134392200D02*
X94503809Y-134439819D01*
X94503809Y-134439819D02*
X94408571Y-134439819D01*
X94408571Y-134439819D02*
X94313333Y-134392200D01*
X94313333Y-134392200D02*
X94265714Y-134344580D01*
X94265714Y-134344580D02*
X94218095Y-134249342D01*
X94218095Y-134249342D02*
X94170476Y-134058866D01*
X94170476Y-134058866D02*
X94170476Y-133820771D01*
X94170476Y-133820771D02*
X94218095Y-133630295D01*
X94218095Y-133630295D02*
X94265714Y-133535057D01*
X94265714Y-133535057D02*
X94313333Y-133487438D01*
X94313333Y-133487438D02*
X94408571Y-133439819D01*
X135074819Y-132378220D02*
X134074819Y-132378220D01*
X135074819Y-131902030D02*
X134074819Y-131902030D01*
X134074819Y-131902030D02*
X135074819Y-131330602D01*
X135074819Y-131330602D02*
X134074819Y-131330602D01*
X134074819Y-130997268D02*
X134074819Y-130425840D01*
X135074819Y-130711554D02*
X134074819Y-130711554D01*
X103330476Y-133439819D02*
X103949523Y-133439819D01*
X103949523Y-133439819D02*
X103616190Y-133820771D01*
X103616190Y-133820771D02*
X103759047Y-133820771D01*
X103759047Y-133820771D02*
X103854285Y-133868390D01*
X103854285Y-133868390D02*
X103901904Y-133916009D01*
X103901904Y-133916009D02*
X103949523Y-134011247D01*
X103949523Y-134011247D02*
X103949523Y-134249342D01*
X103949523Y-134249342D02*
X103901904Y-134344580D01*
X103901904Y-134344580D02*
X103854285Y-134392200D01*
X103854285Y-134392200D02*
X103759047Y-134439819D01*
X103759047Y-134439819D02*
X103473333Y-134439819D01*
X103473333Y-134439819D02*
X103378095Y-134392200D01*
X103378095Y-134392200D02*
X103330476Y-134344580D01*
X104330476Y-133535057D02*
X104378095Y-133487438D01*
X104378095Y-133487438D02*
X104473333Y-133439819D01*
X104473333Y-133439819D02*
X104711428Y-133439819D01*
X104711428Y-133439819D02*
X104806666Y-133487438D01*
X104806666Y-133487438D02*
X104854285Y-133535057D01*
X104854285Y-133535057D02*
X104901904Y-133630295D01*
X104901904Y-133630295D02*
X104901904Y-133725533D01*
X104901904Y-133725533D02*
X104854285Y-133868390D01*
X104854285Y-133868390D02*
X104282857Y-134439819D01*
X104282857Y-134439819D02*
X104901904Y-134439819D01*
D11*
X57750685Y-119658917D02*
X57679257Y-119587489D01*
X57679257Y-119587489D02*
X57607828Y-119444632D01*
X57607828Y-119444632D02*
X57607828Y-119087489D01*
X57607828Y-119087489D02*
X57679257Y-118944632D01*
X57679257Y-118944632D02*
X57750685Y-118873203D01*
X57750685Y-118873203D02*
X57893542Y-118801774D01*
X57893542Y-118801774D02*
X58036400Y-118801774D01*
X58036400Y-118801774D02*
X58250685Y-118873203D01*
X58250685Y-118873203D02*
X59107828Y-119730346D01*
X59107828Y-119730346D02*
X59107828Y-118801774D01*
X57607828Y-117873203D02*
X57607828Y-117730346D01*
X57607828Y-117730346D02*
X57679257Y-117587489D01*
X57679257Y-117587489D02*
X57750685Y-117516061D01*
X57750685Y-117516061D02*
X57893542Y-117444632D01*
X57893542Y-117444632D02*
X58179257Y-117373203D01*
X58179257Y-117373203D02*
X58536400Y-117373203D01*
X58536400Y-117373203D02*
X58822114Y-117444632D01*
X58822114Y-117444632D02*
X58964971Y-117516061D01*
X58964971Y-117516061D02*
X59036400Y-117587489D01*
X59036400Y-117587489D02*
X59107828Y-117730346D01*
X59107828Y-117730346D02*
X59107828Y-117873203D01*
X59107828Y-117873203D02*
X59036400Y-118016061D01*
X59036400Y-118016061D02*
X58964971Y-118087489D01*
X58964971Y-118087489D02*
X58822114Y-118158918D01*
X58822114Y-118158918D02*
X58536400Y-118230346D01*
X58536400Y-118230346D02*
X58179257Y-118230346D01*
X58179257Y-118230346D02*
X57893542Y-118158918D01*
X57893542Y-118158918D02*
X57750685Y-118087489D01*
X57750685Y-118087489D02*
X57679257Y-118016061D01*
X57679257Y-118016061D02*
X57607828Y-117873203D01*
X57750685Y-116801775D02*
X57679257Y-116730347D01*
X57679257Y-116730347D02*
X57607828Y-116587490D01*
X57607828Y-116587490D02*
X57607828Y-116230347D01*
X57607828Y-116230347D02*
X57679257Y-116087490D01*
X57679257Y-116087490D02*
X57750685Y-116016061D01*
X57750685Y-116016061D02*
X57893542Y-115944632D01*
X57893542Y-115944632D02*
X58036400Y-115944632D01*
X58036400Y-115944632D02*
X58250685Y-116016061D01*
X58250685Y-116016061D02*
X59107828Y-116873204D01*
X59107828Y-116873204D02*
X59107828Y-115944632D01*
X57607828Y-115444633D02*
X57607828Y-114516061D01*
X57607828Y-114516061D02*
X58179257Y-115016061D01*
X58179257Y-115016061D02*
X58179257Y-114801776D01*
X58179257Y-114801776D02*
X58250685Y-114658919D01*
X58250685Y-114658919D02*
X58322114Y-114587490D01*
X58322114Y-114587490D02*
X58464971Y-114516061D01*
X58464971Y-114516061D02*
X58822114Y-114516061D01*
X58822114Y-114516061D02*
X58964971Y-114587490D01*
X58964971Y-114587490D02*
X59036400Y-114658919D01*
X59036400Y-114658919D02*
X59107828Y-114801776D01*
X59107828Y-114801776D02*
X59107828Y-115230347D01*
X59107828Y-115230347D02*
X59036400Y-115373204D01*
X59036400Y-115373204D02*
X58964971Y-115444633D01*
X57607828Y-112944633D02*
X59107828Y-112444633D01*
X59107828Y-112444633D02*
X57607828Y-111944633D01*
X59107828Y-110658919D02*
X59107828Y-111516062D01*
X59107828Y-111087491D02*
X57607828Y-111087491D01*
X57607828Y-111087491D02*
X57822114Y-111230348D01*
X57822114Y-111230348D02*
X57964971Y-111373205D01*
X57964971Y-111373205D02*
X58036400Y-111516062D01*
X58964971Y-110016063D02*
X59036400Y-109944634D01*
X59036400Y-109944634D02*
X59107828Y-110016063D01*
X59107828Y-110016063D02*
X59036400Y-110087491D01*
X59036400Y-110087491D02*
X58964971Y-110016063D01*
X58964971Y-110016063D02*
X59107828Y-110016063D01*
X57607828Y-109016062D02*
X57607828Y-108873205D01*
X57607828Y-108873205D02*
X57679257Y-108730348D01*
X57679257Y-108730348D02*
X57750685Y-108658920D01*
X57750685Y-108658920D02*
X57893542Y-108587491D01*
X57893542Y-108587491D02*
X58179257Y-108516062D01*
X58179257Y-108516062D02*
X58536400Y-108516062D01*
X58536400Y-108516062D02*
X58822114Y-108587491D01*
X58822114Y-108587491D02*
X58964971Y-108658920D01*
X58964971Y-108658920D02*
X59036400Y-108730348D01*
X59036400Y-108730348D02*
X59107828Y-108873205D01*
X59107828Y-108873205D02*
X59107828Y-109016062D01*
X59107828Y-109016062D02*
X59036400Y-109158920D01*
X59036400Y-109158920D02*
X58964971Y-109230348D01*
X58964971Y-109230348D02*
X58822114Y-109301777D01*
X58822114Y-109301777D02*
X58536400Y-109373205D01*
X58536400Y-109373205D02*
X58179257Y-109373205D01*
X58179257Y-109373205D02*
X57893542Y-109301777D01*
X57893542Y-109301777D02*
X57750685Y-109230348D01*
X57750685Y-109230348D02*
X57679257Y-109158920D01*
X57679257Y-109158920D02*
X57607828Y-109016062D01*
X59107828Y-107087491D02*
X59107828Y-107944634D01*
X59107828Y-107516063D02*
X57607828Y-107516063D01*
X57607828Y-107516063D02*
X57822114Y-107658920D01*
X57822114Y-107658920D02*
X57964971Y-107801777D01*
X57964971Y-107801777D02*
X58036400Y-107944634D01*
X61522828Y-118873203D02*
X61522828Y-119587489D01*
X61522828Y-119587489D02*
X60022828Y-119587489D01*
X60022828Y-118373203D02*
X61237114Y-118373203D01*
X61237114Y-118373203D02*
X61379971Y-118301774D01*
X61379971Y-118301774D02*
X61451400Y-118230346D01*
X61451400Y-118230346D02*
X61522828Y-118087488D01*
X61522828Y-118087488D02*
X61522828Y-117801774D01*
X61522828Y-117801774D02*
X61451400Y-117658917D01*
X61451400Y-117658917D02*
X61379971Y-117587488D01*
X61379971Y-117587488D02*
X61237114Y-117516060D01*
X61237114Y-117516060D02*
X60022828Y-117516060D01*
X61522828Y-116801774D02*
X60022828Y-116801774D01*
X61451400Y-116158916D02*
X61522828Y-115944631D01*
X61522828Y-115944631D02*
X61522828Y-115587488D01*
X61522828Y-115587488D02*
X61451400Y-115444631D01*
X61451400Y-115444631D02*
X61379971Y-115373202D01*
X61379971Y-115373202D02*
X61237114Y-115301773D01*
X61237114Y-115301773D02*
X61094257Y-115301773D01*
X61094257Y-115301773D02*
X60951400Y-115373202D01*
X60951400Y-115373202D02*
X60879971Y-115444631D01*
X60879971Y-115444631D02*
X60808542Y-115587488D01*
X60808542Y-115587488D02*
X60737114Y-115873202D01*
X60737114Y-115873202D02*
X60665685Y-116016059D01*
X60665685Y-116016059D02*
X60594257Y-116087488D01*
X60594257Y-116087488D02*
X60451400Y-116158916D01*
X60451400Y-116158916D02*
X60308542Y-116158916D01*
X60308542Y-116158916D02*
X60165685Y-116087488D01*
X60165685Y-116087488D02*
X60094257Y-116016059D01*
X60094257Y-116016059D02*
X60022828Y-115873202D01*
X60022828Y-115873202D02*
X60022828Y-115516059D01*
X60022828Y-115516059D02*
X60094257Y-115301773D01*
X61094257Y-113587488D02*
X61094257Y-112873203D01*
X61522828Y-113730345D02*
X60022828Y-113230345D01*
X60022828Y-113230345D02*
X61522828Y-112730345D01*
X61522828Y-112230346D02*
X60022828Y-112230346D01*
X60022828Y-112230346D02*
X61522828Y-111373203D01*
X61522828Y-111373203D02*
X60022828Y-111373203D01*
X60022828Y-110873202D02*
X60022828Y-110016060D01*
X61522828Y-110444631D02*
X60022828Y-110444631D01*
X60022828Y-109230345D02*
X60022828Y-108944631D01*
X60022828Y-108944631D02*
X60094257Y-108801774D01*
X60094257Y-108801774D02*
X60237114Y-108658917D01*
X60237114Y-108658917D02*
X60522828Y-108587488D01*
X60522828Y-108587488D02*
X61022828Y-108587488D01*
X61022828Y-108587488D02*
X61308542Y-108658917D01*
X61308542Y-108658917D02*
X61451400Y-108801774D01*
X61451400Y-108801774D02*
X61522828Y-108944631D01*
X61522828Y-108944631D02*
X61522828Y-109230345D01*
X61522828Y-109230345D02*
X61451400Y-109373203D01*
X61451400Y-109373203D02*
X61308542Y-109516060D01*
X61308542Y-109516060D02*
X61022828Y-109587488D01*
X61022828Y-109587488D02*
X60522828Y-109587488D01*
X60522828Y-109587488D02*
X60237114Y-109516060D01*
X60237114Y-109516060D02*
X60094257Y-109373203D01*
X60094257Y-109373203D02*
X60022828Y-109230345D01*
X61522828Y-107944631D02*
X60022828Y-107944631D01*
X60022828Y-107944631D02*
X61522828Y-107087488D01*
X61522828Y-107087488D02*
X60022828Y-107087488D01*
X61522828Y-106373202D02*
X60022828Y-106373202D01*
X60022828Y-105373201D02*
X60022828Y-105087487D01*
X60022828Y-105087487D02*
X60094257Y-104944630D01*
X60094257Y-104944630D02*
X60237114Y-104801773D01*
X60237114Y-104801773D02*
X60522828Y-104730344D01*
X60522828Y-104730344D02*
X61022828Y-104730344D01*
X61022828Y-104730344D02*
X61308542Y-104801773D01*
X61308542Y-104801773D02*
X61451400Y-104944630D01*
X61451400Y-104944630D02*
X61522828Y-105087487D01*
X61522828Y-105087487D02*
X61522828Y-105373201D01*
X61522828Y-105373201D02*
X61451400Y-105516059D01*
X61451400Y-105516059D02*
X61308542Y-105658916D01*
X61308542Y-105658916D02*
X61022828Y-105730344D01*
X61022828Y-105730344D02*
X60522828Y-105730344D01*
X60522828Y-105730344D02*
X60237114Y-105658916D01*
X60237114Y-105658916D02*
X60094257Y-105516059D01*
X60094257Y-105516059D02*
X60022828Y-105373201D01*
X61451400Y-104158915D02*
X61522828Y-103944630D01*
X61522828Y-103944630D02*
X61522828Y-103587487D01*
X61522828Y-103587487D02*
X61451400Y-103444630D01*
X61451400Y-103444630D02*
X61379971Y-103373201D01*
X61379971Y-103373201D02*
X61237114Y-103301772D01*
X61237114Y-103301772D02*
X61094257Y-103301772D01*
X61094257Y-103301772D02*
X60951400Y-103373201D01*
X60951400Y-103373201D02*
X60879971Y-103444630D01*
X60879971Y-103444630D02*
X60808542Y-103587487D01*
X60808542Y-103587487D02*
X60737114Y-103873201D01*
X60737114Y-103873201D02*
X60665685Y-104016058D01*
X60665685Y-104016058D02*
X60594257Y-104087487D01*
X60594257Y-104087487D02*
X60451400Y-104158915D01*
X60451400Y-104158915D02*
X60308542Y-104158915D01*
X60308542Y-104158915D02*
X60165685Y-104087487D01*
X60165685Y-104087487D02*
X60094257Y-104016058D01*
X60094257Y-104016058D02*
X60022828Y-103873201D01*
X60022828Y-103873201D02*
X60022828Y-103516058D01*
X60022828Y-103516058D02*
X60094257Y-103301772D01*
X61522828Y-102658916D02*
X60022828Y-102658916D01*
D10*
X89307200Y-132425839D02*
X89354819Y-132282982D01*
X89354819Y-132282982D02*
X89354819Y-132044887D01*
X89354819Y-132044887D02*
X89307200Y-131949649D01*
X89307200Y-131949649D02*
X89259580Y-131902030D01*
X89259580Y-131902030D02*
X89164342Y-131854411D01*
X89164342Y-131854411D02*
X89069104Y-131854411D01*
X89069104Y-131854411D02*
X88973866Y-131902030D01*
X88973866Y-131902030D02*
X88926247Y-131949649D01*
X88926247Y-131949649D02*
X88878628Y-132044887D01*
X88878628Y-132044887D02*
X88831009Y-132235363D01*
X88831009Y-132235363D02*
X88783390Y-132330601D01*
X88783390Y-132330601D02*
X88735771Y-132378220D01*
X88735771Y-132378220D02*
X88640533Y-132425839D01*
X88640533Y-132425839D02*
X88545295Y-132425839D01*
X88545295Y-132425839D02*
X88450057Y-132378220D01*
X88450057Y-132378220D02*
X88402438Y-132330601D01*
X88402438Y-132330601D02*
X88354819Y-132235363D01*
X88354819Y-132235363D02*
X88354819Y-131997268D01*
X88354819Y-131997268D02*
X88402438Y-131854411D01*
X88354819Y-131521077D02*
X89354819Y-131282982D01*
X89354819Y-131282982D02*
X88640533Y-131092506D01*
X88640533Y-131092506D02*
X89354819Y-130902030D01*
X89354819Y-130902030D02*
X88354819Y-130663935D01*
X94434819Y-132378220D02*
X93434819Y-132378220D01*
X93434819Y-132378220D02*
X93434819Y-132140125D01*
X93434819Y-132140125D02*
X93482438Y-131997268D01*
X93482438Y-131997268D02*
X93577676Y-131902030D01*
X93577676Y-131902030D02*
X93672914Y-131854411D01*
X93672914Y-131854411D02*
X93863390Y-131806792D01*
X93863390Y-131806792D02*
X94006247Y-131806792D01*
X94006247Y-131806792D02*
X94196723Y-131854411D01*
X94196723Y-131854411D02*
X94291961Y-131902030D01*
X94291961Y-131902030D02*
X94387200Y-131997268D01*
X94387200Y-131997268D02*
X94434819Y-132140125D01*
X94434819Y-132140125D02*
X94434819Y-132378220D01*
X93434819Y-130949649D02*
X93434819Y-131140125D01*
X93434819Y-131140125D02*
X93482438Y-131235363D01*
X93482438Y-131235363D02*
X93530057Y-131282982D01*
X93530057Y-131282982D02*
X93672914Y-131378220D01*
X93672914Y-131378220D02*
X93863390Y-131425839D01*
X93863390Y-131425839D02*
X94244342Y-131425839D01*
X94244342Y-131425839D02*
X94339580Y-131378220D01*
X94339580Y-131378220D02*
X94387200Y-131330601D01*
X94387200Y-131330601D02*
X94434819Y-131235363D01*
X94434819Y-131235363D02*
X94434819Y-131044887D01*
X94434819Y-131044887D02*
X94387200Y-130949649D01*
X94387200Y-130949649D02*
X94339580Y-130902030D01*
X94339580Y-130902030D02*
X94244342Y-130854411D01*
X94244342Y-130854411D02*
X94006247Y-130854411D01*
X94006247Y-130854411D02*
X93911009Y-130902030D01*
X93911009Y-130902030D02*
X93863390Y-130949649D01*
X93863390Y-130949649D02*
X93815771Y-131044887D01*
X93815771Y-131044887D02*
X93815771Y-131235363D01*
X93815771Y-131235363D02*
X93863390Y-131330601D01*
X93863390Y-131330601D02*
X93911009Y-131378220D01*
X93911009Y-131378220D02*
X94006247Y-131425839D01*
X137614819Y-131806792D02*
X137138628Y-132140125D01*
X137614819Y-132378220D02*
X136614819Y-132378220D01*
X136614819Y-132378220D02*
X136614819Y-131997268D01*
X136614819Y-131997268D02*
X136662438Y-131902030D01*
X136662438Y-131902030D02*
X136710057Y-131854411D01*
X136710057Y-131854411D02*
X136805295Y-131806792D01*
X136805295Y-131806792D02*
X136948152Y-131806792D01*
X136948152Y-131806792D02*
X137043390Y-131854411D01*
X137043390Y-131854411D02*
X137091009Y-131902030D01*
X137091009Y-131902030D02*
X137138628Y-131997268D01*
X137138628Y-131997268D02*
X137138628Y-132378220D01*
X137091009Y-131044887D02*
X137091009Y-131378220D01*
X137614819Y-131378220D02*
X136614819Y-131378220D01*
X136614819Y-131378220D02*
X136614819Y-130902030D01*
X137567200Y-130568696D02*
X137614819Y-130425839D01*
X137614819Y-130425839D02*
X137614819Y-130187744D01*
X137614819Y-130187744D02*
X137567200Y-130092506D01*
X137567200Y-130092506D02*
X137519580Y-130044887D01*
X137519580Y-130044887D02*
X137424342Y-129997268D01*
X137424342Y-129997268D02*
X137329104Y-129997268D01*
X137329104Y-129997268D02*
X137233866Y-130044887D01*
X137233866Y-130044887D02*
X137186247Y-130092506D01*
X137186247Y-130092506D02*
X137138628Y-130187744D01*
X137138628Y-130187744D02*
X137091009Y-130378220D01*
X137091009Y-130378220D02*
X137043390Y-130473458D01*
X137043390Y-130473458D02*
X136995771Y-130521077D01*
X136995771Y-130521077D02*
X136900533Y-130568696D01*
X136900533Y-130568696D02*
X136805295Y-130568696D01*
X136805295Y-130568696D02*
X136710057Y-130521077D01*
X136710057Y-130521077D02*
X136662438Y-130473458D01*
X136662438Y-130473458D02*
X136614819Y-130378220D01*
X136614819Y-130378220D02*
X136614819Y-130140125D01*
X136614819Y-130140125D02*
X136662438Y-129997268D01*
X137614819Y-129568696D02*
X136614819Y-129568696D01*
X137091009Y-129568696D02*
X137091009Y-128997268D01*
X137614819Y-128997268D02*
X136614819Y-128997268D01*
X137350476Y-133439819D02*
X137160000Y-133439819D01*
X137160000Y-133439819D02*
X137064762Y-133487438D01*
X137064762Y-133487438D02*
X137017143Y-133535057D01*
X137017143Y-133535057D02*
X136921905Y-133677914D01*
X136921905Y-133677914D02*
X136874286Y-133868390D01*
X136874286Y-133868390D02*
X136874286Y-134249342D01*
X136874286Y-134249342D02*
X136921905Y-134344580D01*
X136921905Y-134344580D02*
X136969524Y-134392200D01*
X136969524Y-134392200D02*
X137064762Y-134439819D01*
X137064762Y-134439819D02*
X137255238Y-134439819D01*
X137255238Y-134439819D02*
X137350476Y-134392200D01*
X137350476Y-134392200D02*
X137398095Y-134344580D01*
X137398095Y-134344580D02*
X137445714Y-134249342D01*
X137445714Y-134249342D02*
X137445714Y-134011247D01*
X137445714Y-134011247D02*
X137398095Y-133916009D01*
X137398095Y-133916009D02*
X137350476Y-133868390D01*
X137350476Y-133868390D02*
X137255238Y-133820771D01*
X137255238Y-133820771D02*
X137064762Y-133820771D01*
X137064762Y-133820771D02*
X136969524Y-133868390D01*
X136969524Y-133868390D02*
X136921905Y-133916009D01*
X136921905Y-133916009D02*
X136874286Y-134011247D01*
X104309104Y-132425839D02*
X104309104Y-131949649D01*
X104594819Y-132521077D02*
X103594819Y-132187744D01*
X103594819Y-132187744D02*
X104594819Y-131854411D01*
X103928152Y-131092506D02*
X104594819Y-131092506D01*
X103547200Y-131330601D02*
X104261485Y-131568696D01*
X104261485Y-131568696D02*
X104261485Y-130949649D01*
X106849104Y-132425839D02*
X106849104Y-131949649D01*
X107134819Y-132521077D02*
X106134819Y-132187744D01*
X106134819Y-132187744D02*
X107134819Y-131854411D01*
X106230057Y-131568696D02*
X106182438Y-131521077D01*
X106182438Y-131521077D02*
X106134819Y-131425839D01*
X106134819Y-131425839D02*
X106134819Y-131187744D01*
X106134819Y-131187744D02*
X106182438Y-131092506D01*
X106182438Y-131092506D02*
X106230057Y-131044887D01*
X106230057Y-131044887D02*
X106325295Y-130997268D01*
X106325295Y-130997268D02*
X106420533Y-130997268D01*
X106420533Y-130997268D02*
X106563390Y-131044887D01*
X106563390Y-131044887D02*
X107134819Y-131616315D01*
X107134819Y-131616315D02*
X107134819Y-130997268D01*
X124269523Y-134439819D02*
X123698095Y-134439819D01*
X123983809Y-134439819D02*
X123983809Y-133439819D01*
X123983809Y-133439819D02*
X123888571Y-133582676D01*
X123888571Y-133582676D02*
X123793333Y-133677914D01*
X123793333Y-133677914D02*
X123698095Y-133725533D01*
X125126666Y-133439819D02*
X124936190Y-133439819D01*
X124936190Y-133439819D02*
X124840952Y-133487438D01*
X124840952Y-133487438D02*
X124793333Y-133535057D01*
X124793333Y-133535057D02*
X124698095Y-133677914D01*
X124698095Y-133677914D02*
X124650476Y-133868390D01*
X124650476Y-133868390D02*
X124650476Y-134249342D01*
X124650476Y-134249342D02*
X124698095Y-134344580D01*
X124698095Y-134344580D02*
X124745714Y-134392200D01*
X124745714Y-134392200D02*
X124840952Y-134439819D01*
X124840952Y-134439819D02*
X125031428Y-134439819D01*
X125031428Y-134439819D02*
X125126666Y-134392200D01*
X125126666Y-134392200D02*
X125174285Y-134344580D01*
X125174285Y-134344580D02*
X125221904Y-134249342D01*
X125221904Y-134249342D02*
X125221904Y-134011247D01*
X125221904Y-134011247D02*
X125174285Y-133916009D01*
X125174285Y-133916009D02*
X125126666Y-133868390D01*
X125126666Y-133868390D02*
X125031428Y-133820771D01*
X125031428Y-133820771D02*
X124840952Y-133820771D01*
X124840952Y-133820771D02*
X124745714Y-133868390D01*
X124745714Y-133868390D02*
X124698095Y-133916009D01*
X124698095Y-133916009D02*
X124650476Y-134011247D01*
D11*
X104894999Y-121105828D02*
X105252142Y-122605828D01*
X105252142Y-122605828D02*
X105537856Y-121534400D01*
X105537856Y-121534400D02*
X105823571Y-122605828D01*
X105823571Y-122605828D02*
X106180714Y-121105828D01*
X107037857Y-121105828D02*
X107323571Y-121105828D01*
X107323571Y-121105828D02*
X107466428Y-121177257D01*
X107466428Y-121177257D02*
X107609285Y-121320114D01*
X107609285Y-121320114D02*
X107680714Y-121605828D01*
X107680714Y-121605828D02*
X107680714Y-122105828D01*
X107680714Y-122105828D02*
X107609285Y-122391542D01*
X107609285Y-122391542D02*
X107466428Y-122534400D01*
X107466428Y-122534400D02*
X107323571Y-122605828D01*
X107323571Y-122605828D02*
X107037857Y-122605828D01*
X107037857Y-122605828D02*
X106895000Y-122534400D01*
X106895000Y-122534400D02*
X106752142Y-122391542D01*
X106752142Y-122391542D02*
X106680714Y-122105828D01*
X106680714Y-122105828D02*
X106680714Y-121605828D01*
X106680714Y-121605828D02*
X106752142Y-121320114D01*
X106752142Y-121320114D02*
X106895000Y-121177257D01*
X106895000Y-121177257D02*
X107037857Y-121105828D01*
X108323571Y-122605828D02*
X108323571Y-121105828D01*
X108323571Y-121105828D02*
X109180714Y-122605828D01*
X109180714Y-122605828D02*
X109180714Y-121105828D01*
X109895000Y-122605828D02*
X109895000Y-121105828D01*
X109895000Y-121105828D02*
X110252143Y-121105828D01*
X110252143Y-121105828D02*
X110466429Y-121177257D01*
X110466429Y-121177257D02*
X110609286Y-121320114D01*
X110609286Y-121320114D02*
X110680715Y-121462971D01*
X110680715Y-121462971D02*
X110752143Y-121748685D01*
X110752143Y-121748685D02*
X110752143Y-121962971D01*
X110752143Y-121962971D02*
X110680715Y-122248685D01*
X110680715Y-122248685D02*
X110609286Y-122391542D01*
X110609286Y-122391542D02*
X110466429Y-122534400D01*
X110466429Y-122534400D02*
X110252143Y-122605828D01*
X110252143Y-122605828D02*
X109895000Y-122605828D01*
X111395000Y-121820114D02*
X111895000Y-121820114D01*
X112109286Y-122605828D02*
X111395000Y-122605828D01*
X111395000Y-122605828D02*
X111395000Y-121105828D01*
X111395000Y-121105828D02*
X112109286Y-121105828D01*
X113609286Y-122605828D02*
X113109286Y-121891542D01*
X112752143Y-122605828D02*
X112752143Y-121105828D01*
X112752143Y-121105828D02*
X113323572Y-121105828D01*
X113323572Y-121105828D02*
X113466429Y-121177257D01*
X113466429Y-121177257D02*
X113537858Y-121248685D01*
X113537858Y-121248685D02*
X113609286Y-121391542D01*
X113609286Y-121391542D02*
X113609286Y-121605828D01*
X113609286Y-121605828D02*
X113537858Y-121748685D01*
X113537858Y-121748685D02*
X113466429Y-121820114D01*
X113466429Y-121820114D02*
X113323572Y-121891542D01*
X113323572Y-121891542D02*
X112752143Y-121891542D01*
X114037858Y-121105828D02*
X114895001Y-121105828D01*
X114466429Y-122605828D02*
X114466429Y-121105828D01*
X115323572Y-122177257D02*
X116037858Y-122177257D01*
X115180715Y-122605828D02*
X115680715Y-121105828D01*
X115680715Y-121105828D02*
X116180715Y-122605828D01*
X116680714Y-122605828D02*
X116680714Y-121105828D01*
X116680714Y-121105828D02*
X117537857Y-122605828D01*
X117537857Y-122605828D02*
X117537857Y-121105828D01*
X119037858Y-121177257D02*
X118895001Y-121105828D01*
X118895001Y-121105828D02*
X118680715Y-121105828D01*
X118680715Y-121105828D02*
X118466429Y-121177257D01*
X118466429Y-121177257D02*
X118323572Y-121320114D01*
X118323572Y-121320114D02*
X118252143Y-121462971D01*
X118252143Y-121462971D02*
X118180715Y-121748685D01*
X118180715Y-121748685D02*
X118180715Y-121962971D01*
X118180715Y-121962971D02*
X118252143Y-122248685D01*
X118252143Y-122248685D02*
X118323572Y-122391542D01*
X118323572Y-122391542D02*
X118466429Y-122534400D01*
X118466429Y-122534400D02*
X118680715Y-122605828D01*
X118680715Y-122605828D02*
X118823572Y-122605828D01*
X118823572Y-122605828D02*
X119037858Y-122534400D01*
X119037858Y-122534400D02*
X119109286Y-122462971D01*
X119109286Y-122462971D02*
X119109286Y-121962971D01*
X119109286Y-121962971D02*
X118823572Y-121962971D01*
X119752143Y-122462971D02*
X119823572Y-122534400D01*
X119823572Y-122534400D02*
X119752143Y-122605828D01*
X119752143Y-122605828D02*
X119680715Y-122534400D01*
X119680715Y-122534400D02*
X119752143Y-122462971D01*
X119752143Y-122462971D02*
X119752143Y-122605828D01*
X119752143Y-122034400D02*
X119680715Y-121177257D01*
X119680715Y-121177257D02*
X119752143Y-121105828D01*
X119752143Y-121105828D02*
X119823572Y-121177257D01*
X119823572Y-121177257D02*
X119752143Y-122034400D01*
X119752143Y-122034400D02*
X119752143Y-121105828D01*
X103109285Y-124949400D02*
X103323571Y-125020828D01*
X103323571Y-125020828D02*
X103680713Y-125020828D01*
X103680713Y-125020828D02*
X103823571Y-124949400D01*
X103823571Y-124949400D02*
X103894999Y-124877971D01*
X103894999Y-124877971D02*
X103966428Y-124735114D01*
X103966428Y-124735114D02*
X103966428Y-124592257D01*
X103966428Y-124592257D02*
X103894999Y-124449400D01*
X103894999Y-124449400D02*
X103823571Y-124377971D01*
X103823571Y-124377971D02*
X103680713Y-124306542D01*
X103680713Y-124306542D02*
X103394999Y-124235114D01*
X103394999Y-124235114D02*
X103252142Y-124163685D01*
X103252142Y-124163685D02*
X103180713Y-124092257D01*
X103180713Y-124092257D02*
X103109285Y-123949400D01*
X103109285Y-123949400D02*
X103109285Y-123806542D01*
X103109285Y-123806542D02*
X103180713Y-123663685D01*
X103180713Y-123663685D02*
X103252142Y-123592257D01*
X103252142Y-123592257D02*
X103394999Y-123520828D01*
X103394999Y-123520828D02*
X103752142Y-123520828D01*
X103752142Y-123520828D02*
X103966428Y-123592257D01*
X104894999Y-124306542D02*
X104894999Y-125020828D01*
X104394999Y-123520828D02*
X104894999Y-124306542D01*
X104894999Y-124306542D02*
X105394999Y-123520828D01*
X105894998Y-125020828D02*
X105894998Y-123520828D01*
X105894998Y-123520828D02*
X106752141Y-125020828D01*
X106752141Y-125020828D02*
X106752141Y-123520828D01*
X107252142Y-123520828D02*
X108109285Y-123520828D01*
X107680713Y-125020828D02*
X107680713Y-123520828D01*
X108609284Y-125020828D02*
X108609284Y-123520828D01*
X108609284Y-124235114D02*
X109466427Y-124235114D01*
X109466427Y-125020828D02*
X109466427Y-123520828D01*
X110180713Y-124235114D02*
X110680713Y-124235114D01*
X110894999Y-125020828D02*
X110180713Y-125020828D01*
X110180713Y-125020828D02*
X110180713Y-123520828D01*
X110180713Y-123520828D02*
X110894999Y-123520828D01*
X111323571Y-123520828D02*
X112180714Y-123520828D01*
X111752142Y-125020828D02*
X111752142Y-123520828D01*
X112680713Y-125020828D02*
X112680713Y-123520828D01*
X114252142Y-124877971D02*
X114180714Y-124949400D01*
X114180714Y-124949400D02*
X113966428Y-125020828D01*
X113966428Y-125020828D02*
X113823571Y-125020828D01*
X113823571Y-125020828D02*
X113609285Y-124949400D01*
X113609285Y-124949400D02*
X113466428Y-124806542D01*
X113466428Y-124806542D02*
X113394999Y-124663685D01*
X113394999Y-124663685D02*
X113323571Y-124377971D01*
X113323571Y-124377971D02*
X113323571Y-124163685D01*
X113323571Y-124163685D02*
X113394999Y-123877971D01*
X113394999Y-123877971D02*
X113466428Y-123735114D01*
X113466428Y-123735114D02*
X113609285Y-123592257D01*
X113609285Y-123592257D02*
X113823571Y-123520828D01*
X113823571Y-123520828D02*
X113966428Y-123520828D01*
X113966428Y-123520828D02*
X114180714Y-123592257D01*
X114180714Y-123592257D02*
X114252142Y-123663685D01*
X116466428Y-123520828D02*
X116466428Y-124592257D01*
X116466428Y-124592257D02*
X116394999Y-124806542D01*
X116394999Y-124806542D02*
X116252142Y-124949400D01*
X116252142Y-124949400D02*
X116037856Y-125020828D01*
X116037856Y-125020828D02*
X115894999Y-125020828D01*
X117180713Y-123520828D02*
X117180713Y-124735114D01*
X117180713Y-124735114D02*
X117252142Y-124877971D01*
X117252142Y-124877971D02*
X117323571Y-124949400D01*
X117323571Y-124949400D02*
X117466428Y-125020828D01*
X117466428Y-125020828D02*
X117752142Y-125020828D01*
X117752142Y-125020828D02*
X117894999Y-124949400D01*
X117894999Y-124949400D02*
X117966428Y-124877971D01*
X117966428Y-124877971D02*
X118037856Y-124735114D01*
X118037856Y-124735114D02*
X118037856Y-123520828D01*
X118752142Y-125020828D02*
X118752142Y-123520828D01*
X120323571Y-124877971D02*
X120252143Y-124949400D01*
X120252143Y-124949400D02*
X120037857Y-125020828D01*
X120037857Y-125020828D02*
X119895000Y-125020828D01*
X119895000Y-125020828D02*
X119680714Y-124949400D01*
X119680714Y-124949400D02*
X119537857Y-124806542D01*
X119537857Y-124806542D02*
X119466428Y-124663685D01*
X119466428Y-124663685D02*
X119395000Y-124377971D01*
X119395000Y-124377971D02*
X119395000Y-124163685D01*
X119395000Y-124163685D02*
X119466428Y-123877971D01*
X119466428Y-123877971D02*
X119537857Y-123735114D01*
X119537857Y-123735114D02*
X119680714Y-123592257D01*
X119680714Y-123592257D02*
X119895000Y-123520828D01*
X119895000Y-123520828D02*
X120037857Y-123520828D01*
X120037857Y-123520828D02*
X120252143Y-123592257D01*
X120252143Y-123592257D02*
X120323571Y-123663685D01*
X120966428Y-124235114D02*
X121466428Y-124235114D01*
X121680714Y-125020828D02*
X120966428Y-125020828D01*
X120966428Y-125020828D02*
X120966428Y-123520828D01*
X120966428Y-123520828D02*
X121680714Y-123520828D01*
X104680714Y-126650114D02*
X104180714Y-126650114D01*
X104180714Y-127435828D02*
X104180714Y-125935828D01*
X104180714Y-125935828D02*
X104895000Y-125935828D01*
X105752143Y-125935828D02*
X106037857Y-125935828D01*
X106037857Y-125935828D02*
X106180714Y-126007257D01*
X106180714Y-126007257D02*
X106323571Y-126150114D01*
X106323571Y-126150114D02*
X106395000Y-126435828D01*
X106395000Y-126435828D02*
X106395000Y-126935828D01*
X106395000Y-126935828D02*
X106323571Y-127221542D01*
X106323571Y-127221542D02*
X106180714Y-127364400D01*
X106180714Y-127364400D02*
X106037857Y-127435828D01*
X106037857Y-127435828D02*
X105752143Y-127435828D01*
X105752143Y-127435828D02*
X105609286Y-127364400D01*
X105609286Y-127364400D02*
X105466428Y-127221542D01*
X105466428Y-127221542D02*
X105395000Y-126935828D01*
X105395000Y-126935828D02*
X105395000Y-126435828D01*
X105395000Y-126435828D02*
X105466428Y-126150114D01*
X105466428Y-126150114D02*
X105609286Y-126007257D01*
X105609286Y-126007257D02*
X105752143Y-125935828D01*
X107895000Y-127435828D02*
X107395000Y-126721542D01*
X107037857Y-127435828D02*
X107037857Y-125935828D01*
X107037857Y-125935828D02*
X107609286Y-125935828D01*
X107609286Y-125935828D02*
X107752143Y-126007257D01*
X107752143Y-126007257D02*
X107823572Y-126078685D01*
X107823572Y-126078685D02*
X107895000Y-126221542D01*
X107895000Y-126221542D02*
X107895000Y-126435828D01*
X107895000Y-126435828D02*
X107823572Y-126578685D01*
X107823572Y-126578685D02*
X107752143Y-126650114D01*
X107752143Y-126650114D02*
X107609286Y-126721542D01*
X107609286Y-126721542D02*
X107037857Y-126721542D01*
X109966429Y-126721542D02*
X109966429Y-127435828D01*
X109466429Y-125935828D02*
X109966429Y-126721542D01*
X109966429Y-126721542D02*
X110466429Y-125935828D01*
X111252143Y-125935828D02*
X111537857Y-125935828D01*
X111537857Y-125935828D02*
X111680714Y-126007257D01*
X111680714Y-126007257D02*
X111823571Y-126150114D01*
X111823571Y-126150114D02*
X111895000Y-126435828D01*
X111895000Y-126435828D02*
X111895000Y-126935828D01*
X111895000Y-126935828D02*
X111823571Y-127221542D01*
X111823571Y-127221542D02*
X111680714Y-127364400D01*
X111680714Y-127364400D02*
X111537857Y-127435828D01*
X111537857Y-127435828D02*
X111252143Y-127435828D01*
X111252143Y-127435828D02*
X111109286Y-127364400D01*
X111109286Y-127364400D02*
X110966428Y-127221542D01*
X110966428Y-127221542D02*
X110895000Y-126935828D01*
X110895000Y-126935828D02*
X110895000Y-126435828D01*
X110895000Y-126435828D02*
X110966428Y-126150114D01*
X110966428Y-126150114D02*
X111109286Y-126007257D01*
X111109286Y-126007257D02*
X111252143Y-125935828D01*
X112537857Y-125935828D02*
X112537857Y-127150114D01*
X112537857Y-127150114D02*
X112609286Y-127292971D01*
X112609286Y-127292971D02*
X112680715Y-127364400D01*
X112680715Y-127364400D02*
X112823572Y-127435828D01*
X112823572Y-127435828D02*
X113109286Y-127435828D01*
X113109286Y-127435828D02*
X113252143Y-127364400D01*
X113252143Y-127364400D02*
X113323572Y-127292971D01*
X113323572Y-127292971D02*
X113395000Y-127150114D01*
X113395000Y-127150114D02*
X113395000Y-125935828D01*
X114966429Y-127435828D02*
X114466429Y-126721542D01*
X114109286Y-127435828D02*
X114109286Y-125935828D01*
X114109286Y-125935828D02*
X114680715Y-125935828D01*
X114680715Y-125935828D02*
X114823572Y-126007257D01*
X114823572Y-126007257D02*
X114895001Y-126078685D01*
X114895001Y-126078685D02*
X114966429Y-126221542D01*
X114966429Y-126221542D02*
X114966429Y-126435828D01*
X114966429Y-126435828D02*
X114895001Y-126578685D01*
X114895001Y-126578685D02*
X114823572Y-126650114D01*
X114823572Y-126650114D02*
X114680715Y-126721542D01*
X114680715Y-126721542D02*
X114109286Y-126721542D01*
X116752143Y-127435828D02*
X116752143Y-125935828D01*
X116752143Y-125935828D02*
X117252143Y-127007257D01*
X117252143Y-127007257D02*
X117752143Y-125935828D01*
X117752143Y-125935828D02*
X117752143Y-127435828D01*
X118395001Y-127364400D02*
X118609287Y-127435828D01*
X118609287Y-127435828D02*
X118966429Y-127435828D01*
X118966429Y-127435828D02*
X119109287Y-127364400D01*
X119109287Y-127364400D02*
X119180715Y-127292971D01*
X119180715Y-127292971D02*
X119252144Y-127150114D01*
X119252144Y-127150114D02*
X119252144Y-127007257D01*
X119252144Y-127007257D02*
X119180715Y-126864400D01*
X119180715Y-126864400D02*
X119109287Y-126792971D01*
X119109287Y-126792971D02*
X118966429Y-126721542D01*
X118966429Y-126721542D02*
X118680715Y-126650114D01*
X118680715Y-126650114D02*
X118537858Y-126578685D01*
X118537858Y-126578685D02*
X118466429Y-126507257D01*
X118466429Y-126507257D02*
X118395001Y-126364400D01*
X118395001Y-126364400D02*
X118395001Y-126221542D01*
X118395001Y-126221542D02*
X118466429Y-126078685D01*
X118466429Y-126078685D02*
X118537858Y-126007257D01*
X118537858Y-126007257D02*
X118680715Y-125935828D01*
X118680715Y-125935828D02*
X119037858Y-125935828D01*
X119037858Y-125935828D02*
X119252144Y-126007257D01*
X119752143Y-125935828D02*
X120752143Y-127435828D01*
X120752143Y-125935828D02*
X119752143Y-127435828D01*
D10*
X140107200Y-132425839D02*
X140154819Y-132282982D01*
X140154819Y-132282982D02*
X140154819Y-132044887D01*
X140154819Y-132044887D02*
X140107200Y-131949649D01*
X140107200Y-131949649D02*
X140059580Y-131902030D01*
X140059580Y-131902030D02*
X139964342Y-131854411D01*
X139964342Y-131854411D02*
X139869104Y-131854411D01*
X139869104Y-131854411D02*
X139773866Y-131902030D01*
X139773866Y-131902030D02*
X139726247Y-131949649D01*
X139726247Y-131949649D02*
X139678628Y-132044887D01*
X139678628Y-132044887D02*
X139631009Y-132235363D01*
X139631009Y-132235363D02*
X139583390Y-132330601D01*
X139583390Y-132330601D02*
X139535771Y-132378220D01*
X139535771Y-132378220D02*
X139440533Y-132425839D01*
X139440533Y-132425839D02*
X139345295Y-132425839D01*
X139345295Y-132425839D02*
X139250057Y-132378220D01*
X139250057Y-132378220D02*
X139202438Y-132330601D01*
X139202438Y-132330601D02*
X139154819Y-132235363D01*
X139154819Y-132235363D02*
X139154819Y-131997268D01*
X139154819Y-131997268D02*
X139202438Y-131854411D01*
X140154819Y-130949649D02*
X140154819Y-131425839D01*
X140154819Y-131425839D02*
X139154819Y-131425839D01*
X139154819Y-130759172D02*
X139154819Y-130187744D01*
X140154819Y-130473458D02*
X139154819Y-130473458D01*
X140107200Y-129902029D02*
X140154819Y-129759172D01*
X140154819Y-129759172D02*
X140154819Y-129521077D01*
X140154819Y-129521077D02*
X140107200Y-129425839D01*
X140107200Y-129425839D02*
X140059580Y-129378220D01*
X140059580Y-129378220D02*
X139964342Y-129330601D01*
X139964342Y-129330601D02*
X139869104Y-129330601D01*
X139869104Y-129330601D02*
X139773866Y-129378220D01*
X139773866Y-129378220D02*
X139726247Y-129425839D01*
X139726247Y-129425839D02*
X139678628Y-129521077D01*
X139678628Y-129521077D02*
X139631009Y-129711553D01*
X139631009Y-129711553D02*
X139583390Y-129806791D01*
X139583390Y-129806791D02*
X139535771Y-129854410D01*
X139535771Y-129854410D02*
X139440533Y-129902029D01*
X139440533Y-129902029D02*
X139345295Y-129902029D01*
X139345295Y-129902029D02*
X139250057Y-129854410D01*
X139250057Y-129854410D02*
X139202438Y-129806791D01*
X139202438Y-129806791D02*
X139154819Y-129711553D01*
X139154819Y-129711553D02*
X139154819Y-129473458D01*
X139154819Y-129473458D02*
X139202438Y-129330601D01*
X140154819Y-128425839D02*
X140154819Y-128902029D01*
X140154819Y-128902029D02*
X139154819Y-128902029D01*
X131889523Y-134439819D02*
X131318095Y-134439819D01*
X131603809Y-134439819D02*
X131603809Y-133439819D01*
X131603809Y-133439819D02*
X131508571Y-133582676D01*
X131508571Y-133582676D02*
X131413333Y-133677914D01*
X131413333Y-133677914D02*
X131318095Y-133725533D01*
X132508571Y-133439819D02*
X132603809Y-133439819D01*
X132603809Y-133439819D02*
X132699047Y-133487438D01*
X132699047Y-133487438D02*
X132746666Y-133535057D01*
X132746666Y-133535057D02*
X132794285Y-133630295D01*
X132794285Y-133630295D02*
X132841904Y-133820771D01*
X132841904Y-133820771D02*
X132841904Y-134058866D01*
X132841904Y-134058866D02*
X132794285Y-134249342D01*
X132794285Y-134249342D02*
X132746666Y-134344580D01*
X132746666Y-134344580D02*
X132699047Y-134392200D01*
X132699047Y-134392200D02*
X132603809Y-134439819D01*
X132603809Y-134439819D02*
X132508571Y-134439819D01*
X132508571Y-134439819D02*
X132413333Y-134392200D01*
X132413333Y-134392200D02*
X132365714Y-134344580D01*
X132365714Y-134344580D02*
X132318095Y-134249342D01*
X132318095Y-134249342D02*
X132270476Y-134058866D01*
X132270476Y-134058866D02*
X132270476Y-133820771D01*
X132270476Y-133820771D02*
X132318095Y-133630295D01*
X132318095Y-133630295D02*
X132365714Y-133535057D01*
X132365714Y-133535057D02*
X132413333Y-133487438D01*
X132413333Y-133487438D02*
X132508571Y-133439819D01*
X102054819Y-132378220D02*
X101054819Y-132378220D01*
X101054819Y-132378220D02*
X101054819Y-132140125D01*
X101054819Y-132140125D02*
X101102438Y-131997268D01*
X101102438Y-131997268D02*
X101197676Y-131902030D01*
X101197676Y-131902030D02*
X101292914Y-131854411D01*
X101292914Y-131854411D02*
X101483390Y-131806792D01*
X101483390Y-131806792D02*
X101626247Y-131806792D01*
X101626247Y-131806792D02*
X101816723Y-131854411D01*
X101816723Y-131854411D02*
X101911961Y-131902030D01*
X101911961Y-131902030D02*
X102007200Y-131997268D01*
X102007200Y-131997268D02*
X102054819Y-132140125D01*
X102054819Y-132140125D02*
X102054819Y-132378220D01*
X101054819Y-131187744D02*
X101054819Y-131092506D01*
X101054819Y-131092506D02*
X101102438Y-130997268D01*
X101102438Y-130997268D02*
X101150057Y-130949649D01*
X101150057Y-130949649D02*
X101245295Y-130902030D01*
X101245295Y-130902030D02*
X101435771Y-130854411D01*
X101435771Y-130854411D02*
X101673866Y-130854411D01*
X101673866Y-130854411D02*
X101864342Y-130902030D01*
X101864342Y-130902030D02*
X101959580Y-130949649D01*
X101959580Y-130949649D02*
X102007200Y-130997268D01*
X102007200Y-130997268D02*
X102054819Y-131092506D01*
X102054819Y-131092506D02*
X102054819Y-131187744D01*
X102054819Y-131187744D02*
X102007200Y-131282982D01*
X102007200Y-131282982D02*
X101959580Y-131330601D01*
X101959580Y-131330601D02*
X101864342Y-131378220D01*
X101864342Y-131378220D02*
X101673866Y-131425839D01*
X101673866Y-131425839D02*
X101435771Y-131425839D01*
X101435771Y-131425839D02*
X101245295Y-131378220D01*
X101245295Y-131378220D02*
X101150057Y-131330601D01*
X101150057Y-131330601D02*
X101102438Y-131282982D01*
X101102438Y-131282982D02*
X101054819Y-131187744D01*
X129994819Y-132378220D02*
X128994819Y-132378220D01*
X128994819Y-132378220D02*
X129709104Y-132044887D01*
X129709104Y-132044887D02*
X128994819Y-131711554D01*
X128994819Y-131711554D02*
X129994819Y-131711554D01*
X129994819Y-130663935D02*
X129518628Y-130997268D01*
X129994819Y-131235363D02*
X128994819Y-131235363D01*
X128994819Y-131235363D02*
X128994819Y-130854411D01*
X128994819Y-130854411D02*
X129042438Y-130759173D01*
X129042438Y-130759173D02*
X129090057Y-130711554D01*
X129090057Y-130711554D02*
X129185295Y-130663935D01*
X129185295Y-130663935D02*
X129328152Y-130663935D01*
X129328152Y-130663935D02*
X129423390Y-130711554D01*
X129423390Y-130711554D02*
X129471009Y-130759173D01*
X129471009Y-130759173D02*
X129518628Y-130854411D01*
X129518628Y-130854411D02*
X129518628Y-131235363D01*
X130090057Y-129568697D02*
X130042438Y-129663935D01*
X130042438Y-129663935D02*
X129947200Y-129759173D01*
X129947200Y-129759173D02*
X129804342Y-129902030D01*
X129804342Y-129902030D02*
X129756723Y-129997268D01*
X129756723Y-129997268D02*
X129756723Y-130092506D01*
X129994819Y-130044887D02*
X129947200Y-130140125D01*
X129947200Y-130140125D02*
X129851961Y-130235363D01*
X129851961Y-130235363D02*
X129661485Y-130282982D01*
X129661485Y-130282982D02*
X129328152Y-130282982D01*
X129328152Y-130282982D02*
X129137676Y-130235363D01*
X129137676Y-130235363D02*
X129042438Y-130140125D01*
X129042438Y-130140125D02*
X128994819Y-130044887D01*
X128994819Y-130044887D02*
X128994819Y-129854411D01*
X128994819Y-129854411D02*
X129042438Y-129759173D01*
X129042438Y-129759173D02*
X129137676Y-129663935D01*
X129137676Y-129663935D02*
X129328152Y-129616316D01*
X129328152Y-129616316D02*
X129661485Y-129616316D01*
X129661485Y-129616316D02*
X129851961Y-129663935D01*
X129851961Y-129663935D02*
X129947200Y-129759173D01*
X129947200Y-129759173D02*
X129994819Y-129854411D01*
X129994819Y-129854411D02*
X129994819Y-130044887D01*
X84308333Y-91124580D02*
X84260714Y-91172200D01*
X84260714Y-91172200D02*
X84117857Y-91219819D01*
X84117857Y-91219819D02*
X84022619Y-91219819D01*
X84022619Y-91219819D02*
X83879762Y-91172200D01*
X83879762Y-91172200D02*
X83784524Y-91076961D01*
X83784524Y-91076961D02*
X83736905Y-90981723D01*
X83736905Y-90981723D02*
X83689286Y-90791247D01*
X83689286Y-90791247D02*
X83689286Y-90648390D01*
X83689286Y-90648390D02*
X83736905Y-90457914D01*
X83736905Y-90457914D02*
X83784524Y-90362676D01*
X83784524Y-90362676D02*
X83879762Y-90267438D01*
X83879762Y-90267438D02*
X84022619Y-90219819D01*
X84022619Y-90219819D02*
X84117857Y-90219819D01*
X84117857Y-90219819D02*
X84260714Y-90267438D01*
X84260714Y-90267438D02*
X84308333Y-90315057D01*
X85165476Y-90219819D02*
X84975000Y-90219819D01*
X84975000Y-90219819D02*
X84879762Y-90267438D01*
X84879762Y-90267438D02*
X84832143Y-90315057D01*
X84832143Y-90315057D02*
X84736905Y-90457914D01*
X84736905Y-90457914D02*
X84689286Y-90648390D01*
X84689286Y-90648390D02*
X84689286Y-91029342D01*
X84689286Y-91029342D02*
X84736905Y-91124580D01*
X84736905Y-91124580D02*
X84784524Y-91172200D01*
X84784524Y-91172200D02*
X84879762Y-91219819D01*
X84879762Y-91219819D02*
X85070238Y-91219819D01*
X85070238Y-91219819D02*
X85165476Y-91172200D01*
X85165476Y-91172200D02*
X85213095Y-91124580D01*
X85213095Y-91124580D02*
X85260714Y-91029342D01*
X85260714Y-91029342D02*
X85260714Y-90791247D01*
X85260714Y-90791247D02*
X85213095Y-90696009D01*
X85213095Y-90696009D02*
X85165476Y-90648390D01*
X85165476Y-90648390D02*
X85070238Y-90600771D01*
X85070238Y-90600771D02*
X84879762Y-90600771D01*
X84879762Y-90600771D02*
X84784524Y-90648390D01*
X84784524Y-90648390D02*
X84736905Y-90696009D01*
X84736905Y-90696009D02*
X84689286Y-90791247D01*
X88233333Y-88719819D02*
X87661905Y-88719819D01*
X87947619Y-88719819D02*
X87947619Y-87719819D01*
X87947619Y-87719819D02*
X87852381Y-87862676D01*
X87852381Y-87862676D02*
X87757143Y-87957914D01*
X87757143Y-87957914D02*
X87661905Y-88005533D01*
X88852381Y-87719819D02*
X88947619Y-87719819D01*
X88947619Y-87719819D02*
X89042857Y-87767438D01*
X89042857Y-87767438D02*
X89090476Y-87815057D01*
X89090476Y-87815057D02*
X89138095Y-87910295D01*
X89138095Y-87910295D02*
X89185714Y-88100771D01*
X89185714Y-88100771D02*
X89185714Y-88338866D01*
X89185714Y-88338866D02*
X89138095Y-88529342D01*
X89138095Y-88529342D02*
X89090476Y-88624580D01*
X89090476Y-88624580D02*
X89042857Y-88672200D01*
X89042857Y-88672200D02*
X88947619Y-88719819D01*
X88947619Y-88719819D02*
X88852381Y-88719819D01*
X88852381Y-88719819D02*
X88757143Y-88672200D01*
X88757143Y-88672200D02*
X88709524Y-88624580D01*
X88709524Y-88624580D02*
X88661905Y-88529342D01*
X88661905Y-88529342D02*
X88614286Y-88338866D01*
X88614286Y-88338866D02*
X88614286Y-88100771D01*
X88614286Y-88100771D02*
X88661905Y-87910295D01*
X88661905Y-87910295D02*
X88709524Y-87815057D01*
X88709524Y-87815057D02*
X88757143Y-87767438D01*
X88757143Y-87767438D02*
X88852381Y-87719819D01*
X90042857Y-88053152D02*
X90042857Y-88719819D01*
X89804762Y-87672200D02*
X89566667Y-88386485D01*
X89566667Y-88386485D02*
X90185714Y-88386485D01*
X93241905Y-83569819D02*
X93241905Y-82569819D01*
X93241905Y-82569819D02*
X93480000Y-82569819D01*
X93480000Y-82569819D02*
X93622857Y-82617438D01*
X93622857Y-82617438D02*
X93718095Y-82712676D01*
X93718095Y-82712676D02*
X93765714Y-82807914D01*
X93765714Y-82807914D02*
X93813333Y-82998390D01*
X93813333Y-82998390D02*
X93813333Y-83141247D01*
X93813333Y-83141247D02*
X93765714Y-83331723D01*
X93765714Y-83331723D02*
X93718095Y-83426961D01*
X93718095Y-83426961D02*
X93622857Y-83522200D01*
X93622857Y-83522200D02*
X93480000Y-83569819D01*
X93480000Y-83569819D02*
X93241905Y-83569819D01*
X94194286Y-82665057D02*
X94241905Y-82617438D01*
X94241905Y-82617438D02*
X94337143Y-82569819D01*
X94337143Y-82569819D02*
X94575238Y-82569819D01*
X94575238Y-82569819D02*
X94670476Y-82617438D01*
X94670476Y-82617438D02*
X94718095Y-82665057D01*
X94718095Y-82665057D02*
X94765714Y-82760295D01*
X94765714Y-82760295D02*
X94765714Y-82855533D01*
X94765714Y-82855533D02*
X94718095Y-82998390D01*
X94718095Y-82998390D02*
X94146667Y-83569819D01*
X94146667Y-83569819D02*
X94765714Y-83569819D01*
X91817142Y-78813819D02*
X91245714Y-78813819D01*
X91531428Y-78813819D02*
X91531428Y-77813819D01*
X91531428Y-77813819D02*
X91436190Y-77956676D01*
X91436190Y-77956676D02*
X91340952Y-78051914D01*
X91340952Y-78051914D02*
X91245714Y-78099533D01*
X92245714Y-78813819D02*
X92245714Y-77813819D01*
X92245714Y-77813819D02*
X92817142Y-78813819D01*
X92817142Y-78813819D02*
X92817142Y-77813819D01*
X93769523Y-77813819D02*
X93293333Y-77813819D01*
X93293333Y-77813819D02*
X93245714Y-78290009D01*
X93245714Y-78290009D02*
X93293333Y-78242390D01*
X93293333Y-78242390D02*
X93388571Y-78194771D01*
X93388571Y-78194771D02*
X93626666Y-78194771D01*
X93626666Y-78194771D02*
X93721904Y-78242390D01*
X93721904Y-78242390D02*
X93769523Y-78290009D01*
X93769523Y-78290009D02*
X93817142Y-78385247D01*
X93817142Y-78385247D02*
X93817142Y-78623342D01*
X93817142Y-78623342D02*
X93769523Y-78718580D01*
X93769523Y-78718580D02*
X93721904Y-78766200D01*
X93721904Y-78766200D02*
X93626666Y-78813819D01*
X93626666Y-78813819D02*
X93388571Y-78813819D01*
X93388571Y-78813819D02*
X93293333Y-78766200D01*
X93293333Y-78766200D02*
X93245714Y-78718580D01*
X94388571Y-78242390D02*
X94293333Y-78194771D01*
X94293333Y-78194771D02*
X94245714Y-78147152D01*
X94245714Y-78147152D02*
X94198095Y-78051914D01*
X94198095Y-78051914D02*
X94198095Y-78004295D01*
X94198095Y-78004295D02*
X94245714Y-77909057D01*
X94245714Y-77909057D02*
X94293333Y-77861438D01*
X94293333Y-77861438D02*
X94388571Y-77813819D01*
X94388571Y-77813819D02*
X94579047Y-77813819D01*
X94579047Y-77813819D02*
X94674285Y-77861438D01*
X94674285Y-77861438D02*
X94721904Y-77909057D01*
X94721904Y-77909057D02*
X94769523Y-78004295D01*
X94769523Y-78004295D02*
X94769523Y-78051914D01*
X94769523Y-78051914D02*
X94721904Y-78147152D01*
X94721904Y-78147152D02*
X94674285Y-78194771D01*
X94674285Y-78194771D02*
X94579047Y-78242390D01*
X94579047Y-78242390D02*
X94388571Y-78242390D01*
X94388571Y-78242390D02*
X94293333Y-78290009D01*
X94293333Y-78290009D02*
X94245714Y-78337628D01*
X94245714Y-78337628D02*
X94198095Y-78432866D01*
X94198095Y-78432866D02*
X94198095Y-78623342D01*
X94198095Y-78623342D02*
X94245714Y-78718580D01*
X94245714Y-78718580D02*
X94293333Y-78766200D01*
X94293333Y-78766200D02*
X94388571Y-78813819D01*
X94388571Y-78813819D02*
X94579047Y-78813819D01*
X94579047Y-78813819D02*
X94674285Y-78766200D01*
X94674285Y-78766200D02*
X94721904Y-78718580D01*
X94721904Y-78718580D02*
X94769523Y-78623342D01*
X94769523Y-78623342D02*
X94769523Y-78432866D01*
X94769523Y-78432866D02*
X94721904Y-78337628D01*
X94721904Y-78337628D02*
X94674285Y-78290009D01*
X94674285Y-78290009D02*
X94579047Y-78242390D01*
X95721904Y-78813819D02*
X95150476Y-78813819D01*
X95436190Y-78813819D02*
X95436190Y-77813819D01*
X95436190Y-77813819D02*
X95340952Y-77956676D01*
X95340952Y-77956676D02*
X95245714Y-78051914D01*
X95245714Y-78051914D02*
X95150476Y-78099533D01*
X96055238Y-77813819D02*
X96721904Y-77813819D01*
X96721904Y-77813819D02*
X96293333Y-78813819D01*
X98798095Y-83199819D02*
X98798095Y-82199819D01*
X99369523Y-83199819D02*
X98940952Y-82628390D01*
X99369523Y-82199819D02*
X98798095Y-82771247D01*
X59543333Y-83504580D02*
X59495714Y-83552200D01*
X59495714Y-83552200D02*
X59352857Y-83599819D01*
X59352857Y-83599819D02*
X59257619Y-83599819D01*
X59257619Y-83599819D02*
X59114762Y-83552200D01*
X59114762Y-83552200D02*
X59019524Y-83456961D01*
X59019524Y-83456961D02*
X58971905Y-83361723D01*
X58971905Y-83361723D02*
X58924286Y-83171247D01*
X58924286Y-83171247D02*
X58924286Y-83028390D01*
X58924286Y-83028390D02*
X58971905Y-82837914D01*
X58971905Y-82837914D02*
X59019524Y-82742676D01*
X59019524Y-82742676D02*
X59114762Y-82647438D01*
X59114762Y-82647438D02*
X59257619Y-82599819D01*
X59257619Y-82599819D02*
X59352857Y-82599819D01*
X59352857Y-82599819D02*
X59495714Y-82647438D01*
X59495714Y-82647438D02*
X59543333Y-82695057D01*
X60114762Y-83028390D02*
X60019524Y-82980771D01*
X60019524Y-82980771D02*
X59971905Y-82933152D01*
X59971905Y-82933152D02*
X59924286Y-82837914D01*
X59924286Y-82837914D02*
X59924286Y-82790295D01*
X59924286Y-82790295D02*
X59971905Y-82695057D01*
X59971905Y-82695057D02*
X60019524Y-82647438D01*
X60019524Y-82647438D02*
X60114762Y-82599819D01*
X60114762Y-82599819D02*
X60305238Y-82599819D01*
X60305238Y-82599819D02*
X60400476Y-82647438D01*
X60400476Y-82647438D02*
X60448095Y-82695057D01*
X60448095Y-82695057D02*
X60495714Y-82790295D01*
X60495714Y-82790295D02*
X60495714Y-82837914D01*
X60495714Y-82837914D02*
X60448095Y-82933152D01*
X60448095Y-82933152D02*
X60400476Y-82980771D01*
X60400476Y-82980771D02*
X60305238Y-83028390D01*
X60305238Y-83028390D02*
X60114762Y-83028390D01*
X60114762Y-83028390D02*
X60019524Y-83076009D01*
X60019524Y-83076009D02*
X59971905Y-83123628D01*
X59971905Y-83123628D02*
X59924286Y-83218866D01*
X59924286Y-83218866D02*
X59924286Y-83409342D01*
X59924286Y-83409342D02*
X59971905Y-83504580D01*
X59971905Y-83504580D02*
X60019524Y-83552200D01*
X60019524Y-83552200D02*
X60114762Y-83599819D01*
X60114762Y-83599819D02*
X60305238Y-83599819D01*
X60305238Y-83599819D02*
X60400476Y-83552200D01*
X60400476Y-83552200D02*
X60448095Y-83504580D01*
X60448095Y-83504580D02*
X60495714Y-83409342D01*
X60495714Y-83409342D02*
X60495714Y-83218866D01*
X60495714Y-83218866D02*
X60448095Y-83123628D01*
X60448095Y-83123628D02*
X60400476Y-83076009D01*
X60400476Y-83076009D02*
X60305238Y-83028390D01*
X63468333Y-81226819D02*
X62896905Y-81226819D01*
X63182619Y-81226819D02*
X63182619Y-80226819D01*
X63182619Y-80226819D02*
X63087381Y-80369676D01*
X63087381Y-80369676D02*
X62992143Y-80464914D01*
X62992143Y-80464914D02*
X62896905Y-80512533D01*
X64087381Y-80226819D02*
X64182619Y-80226819D01*
X64182619Y-80226819D02*
X64277857Y-80274438D01*
X64277857Y-80274438D02*
X64325476Y-80322057D01*
X64325476Y-80322057D02*
X64373095Y-80417295D01*
X64373095Y-80417295D02*
X64420714Y-80607771D01*
X64420714Y-80607771D02*
X64420714Y-80845866D01*
X64420714Y-80845866D02*
X64373095Y-81036342D01*
X64373095Y-81036342D02*
X64325476Y-81131580D01*
X64325476Y-81131580D02*
X64277857Y-81179200D01*
X64277857Y-81179200D02*
X64182619Y-81226819D01*
X64182619Y-81226819D02*
X64087381Y-81226819D01*
X64087381Y-81226819D02*
X63992143Y-81179200D01*
X63992143Y-81179200D02*
X63944524Y-81131580D01*
X63944524Y-81131580D02*
X63896905Y-81036342D01*
X63896905Y-81036342D02*
X63849286Y-80845866D01*
X63849286Y-80845866D02*
X63849286Y-80607771D01*
X63849286Y-80607771D02*
X63896905Y-80417295D01*
X63896905Y-80417295D02*
X63944524Y-80322057D01*
X63944524Y-80322057D02*
X63992143Y-80274438D01*
X63992143Y-80274438D02*
X64087381Y-80226819D01*
X65277857Y-80560152D02*
X65277857Y-81226819D01*
X65039762Y-80179200D02*
X64801667Y-80893485D01*
X64801667Y-80893485D02*
X65420714Y-80893485D01*
X66647142Y-91124580D02*
X66599523Y-91172200D01*
X66599523Y-91172200D02*
X66456666Y-91219819D01*
X66456666Y-91219819D02*
X66361428Y-91219819D01*
X66361428Y-91219819D02*
X66218571Y-91172200D01*
X66218571Y-91172200D02*
X66123333Y-91076961D01*
X66123333Y-91076961D02*
X66075714Y-90981723D01*
X66075714Y-90981723D02*
X66028095Y-90791247D01*
X66028095Y-90791247D02*
X66028095Y-90648390D01*
X66028095Y-90648390D02*
X66075714Y-90457914D01*
X66075714Y-90457914D02*
X66123333Y-90362676D01*
X66123333Y-90362676D02*
X66218571Y-90267438D01*
X66218571Y-90267438D02*
X66361428Y-90219819D01*
X66361428Y-90219819D02*
X66456666Y-90219819D01*
X66456666Y-90219819D02*
X66599523Y-90267438D01*
X66599523Y-90267438D02*
X66647142Y-90315057D01*
X67599523Y-91219819D02*
X67028095Y-91219819D01*
X67313809Y-91219819D02*
X67313809Y-90219819D01*
X67313809Y-90219819D02*
X67218571Y-90362676D01*
X67218571Y-90362676D02*
X67123333Y-90457914D01*
X67123333Y-90457914D02*
X67028095Y-90505533D01*
X68551904Y-91219819D02*
X67980476Y-91219819D01*
X68266190Y-91219819D02*
X68266190Y-90219819D01*
X68266190Y-90219819D02*
X68170952Y-90362676D01*
X68170952Y-90362676D02*
X68075714Y-90457914D01*
X68075714Y-90457914D02*
X67980476Y-90505533D01*
X71068333Y-88846819D02*
X70496905Y-88846819D01*
X70782619Y-88846819D02*
X70782619Y-87846819D01*
X70782619Y-87846819D02*
X70687381Y-87989676D01*
X70687381Y-87989676D02*
X70592143Y-88084914D01*
X70592143Y-88084914D02*
X70496905Y-88132533D01*
X71687381Y-87846819D02*
X71782619Y-87846819D01*
X71782619Y-87846819D02*
X71877857Y-87894438D01*
X71877857Y-87894438D02*
X71925476Y-87942057D01*
X71925476Y-87942057D02*
X71973095Y-88037295D01*
X71973095Y-88037295D02*
X72020714Y-88227771D01*
X72020714Y-88227771D02*
X72020714Y-88465866D01*
X72020714Y-88465866D02*
X71973095Y-88656342D01*
X71973095Y-88656342D02*
X71925476Y-88751580D01*
X71925476Y-88751580D02*
X71877857Y-88799200D01*
X71877857Y-88799200D02*
X71782619Y-88846819D01*
X71782619Y-88846819D02*
X71687381Y-88846819D01*
X71687381Y-88846819D02*
X71592143Y-88799200D01*
X71592143Y-88799200D02*
X71544524Y-88751580D01*
X71544524Y-88751580D02*
X71496905Y-88656342D01*
X71496905Y-88656342D02*
X71449286Y-88465866D01*
X71449286Y-88465866D02*
X71449286Y-88227771D01*
X71449286Y-88227771D02*
X71496905Y-88037295D01*
X71496905Y-88037295D02*
X71544524Y-87942057D01*
X71544524Y-87942057D02*
X71592143Y-87894438D01*
X71592143Y-87894438D02*
X71687381Y-87846819D01*
X72877857Y-88180152D02*
X72877857Y-88846819D01*
X72639762Y-87799200D02*
X72401667Y-88513485D01*
X72401667Y-88513485D02*
X73020714Y-88513485D01*
X69429333Y-83671580D02*
X69381714Y-83719200D01*
X69381714Y-83719200D02*
X69238857Y-83766819D01*
X69238857Y-83766819D02*
X69143619Y-83766819D01*
X69143619Y-83766819D02*
X69000762Y-83719200D01*
X69000762Y-83719200D02*
X68905524Y-83623961D01*
X68905524Y-83623961D02*
X68857905Y-83528723D01*
X68857905Y-83528723D02*
X68810286Y-83338247D01*
X68810286Y-83338247D02*
X68810286Y-83195390D01*
X68810286Y-83195390D02*
X68857905Y-83004914D01*
X68857905Y-83004914D02*
X68905524Y-82909676D01*
X68905524Y-82909676D02*
X69000762Y-82814438D01*
X69000762Y-82814438D02*
X69143619Y-82766819D01*
X69143619Y-82766819D02*
X69238857Y-82766819D01*
X69238857Y-82766819D02*
X69381714Y-82814438D01*
X69381714Y-82814438D02*
X69429333Y-82862057D01*
X70334095Y-82766819D02*
X69857905Y-82766819D01*
X69857905Y-82766819D02*
X69810286Y-83243009D01*
X69810286Y-83243009D02*
X69857905Y-83195390D01*
X69857905Y-83195390D02*
X69953143Y-83147771D01*
X69953143Y-83147771D02*
X70191238Y-83147771D01*
X70191238Y-83147771D02*
X70286476Y-83195390D01*
X70286476Y-83195390D02*
X70334095Y-83243009D01*
X70334095Y-83243009D02*
X70381714Y-83338247D01*
X70381714Y-83338247D02*
X70381714Y-83576342D01*
X70381714Y-83576342D02*
X70334095Y-83671580D01*
X70334095Y-83671580D02*
X70286476Y-83719200D01*
X70286476Y-83719200D02*
X70191238Y-83766819D01*
X70191238Y-83766819D02*
X69953143Y-83766819D01*
X69953143Y-83766819D02*
X69857905Y-83719200D01*
X69857905Y-83719200D02*
X69810286Y-83671580D01*
X72993333Y-81226819D02*
X72421905Y-81226819D01*
X72707619Y-81226819D02*
X72707619Y-80226819D01*
X72707619Y-80226819D02*
X72612381Y-80369676D01*
X72612381Y-80369676D02*
X72517143Y-80464914D01*
X72517143Y-80464914D02*
X72421905Y-80512533D01*
X73612381Y-80226819D02*
X73707619Y-80226819D01*
X73707619Y-80226819D02*
X73802857Y-80274438D01*
X73802857Y-80274438D02*
X73850476Y-80322057D01*
X73850476Y-80322057D02*
X73898095Y-80417295D01*
X73898095Y-80417295D02*
X73945714Y-80607771D01*
X73945714Y-80607771D02*
X73945714Y-80845866D01*
X73945714Y-80845866D02*
X73898095Y-81036342D01*
X73898095Y-81036342D02*
X73850476Y-81131580D01*
X73850476Y-81131580D02*
X73802857Y-81179200D01*
X73802857Y-81179200D02*
X73707619Y-81226819D01*
X73707619Y-81226819D02*
X73612381Y-81226819D01*
X73612381Y-81226819D02*
X73517143Y-81179200D01*
X73517143Y-81179200D02*
X73469524Y-81131580D01*
X73469524Y-81131580D02*
X73421905Y-81036342D01*
X73421905Y-81036342D02*
X73374286Y-80845866D01*
X73374286Y-80845866D02*
X73374286Y-80607771D01*
X73374286Y-80607771D02*
X73421905Y-80417295D01*
X73421905Y-80417295D02*
X73469524Y-80322057D01*
X73469524Y-80322057D02*
X73517143Y-80274438D01*
X73517143Y-80274438D02*
X73612381Y-80226819D01*
X74802857Y-80560152D02*
X74802857Y-81226819D01*
X74564762Y-80179200D02*
X74326667Y-80893485D01*
X74326667Y-80893485D02*
X74945714Y-80893485D01*
X146203433Y-97514580D02*
X146155814Y-97562200D01*
X146155814Y-97562200D02*
X146012957Y-97609819D01*
X146012957Y-97609819D02*
X145917719Y-97609819D01*
X145917719Y-97609819D02*
X145774862Y-97562200D01*
X145774862Y-97562200D02*
X145679624Y-97466961D01*
X145679624Y-97466961D02*
X145632005Y-97371723D01*
X145632005Y-97371723D02*
X145584386Y-97181247D01*
X145584386Y-97181247D02*
X145584386Y-97038390D01*
X145584386Y-97038390D02*
X145632005Y-96847914D01*
X145632005Y-96847914D02*
X145679624Y-96752676D01*
X145679624Y-96752676D02*
X145774862Y-96657438D01*
X145774862Y-96657438D02*
X145917719Y-96609819D01*
X145917719Y-96609819D02*
X146012957Y-96609819D01*
X146012957Y-96609819D02*
X146155814Y-96657438D01*
X146155814Y-96657438D02*
X146203433Y-96705057D01*
X146536767Y-96609819D02*
X147155814Y-96609819D01*
X147155814Y-96609819D02*
X146822481Y-96990771D01*
X146822481Y-96990771D02*
X146965338Y-96990771D01*
X146965338Y-96990771D02*
X147060576Y-97038390D01*
X147060576Y-97038390D02*
X147108195Y-97086009D01*
X147108195Y-97086009D02*
X147155814Y-97181247D01*
X147155814Y-97181247D02*
X147155814Y-97419342D01*
X147155814Y-97419342D02*
X147108195Y-97514580D01*
X147108195Y-97514580D02*
X147060576Y-97562200D01*
X147060576Y-97562200D02*
X146965338Y-97609819D01*
X146965338Y-97609819D02*
X146679624Y-97609819D01*
X146679624Y-97609819D02*
X146584386Y-97562200D01*
X146584386Y-97562200D02*
X146536767Y-97514580D01*
X154759806Y-98226428D02*
X154759806Y-98797856D01*
X154759806Y-98512142D02*
X153759806Y-98512142D01*
X153759806Y-98512142D02*
X153902663Y-98607380D01*
X153902663Y-98607380D02*
X153997901Y-98702618D01*
X153997901Y-98702618D02*
X154045520Y-98797856D01*
X153759806Y-97607380D02*
X153759806Y-97512142D01*
X153759806Y-97512142D02*
X153807425Y-97416904D01*
X153807425Y-97416904D02*
X153855044Y-97369285D01*
X153855044Y-97369285D02*
X153950282Y-97321666D01*
X153950282Y-97321666D02*
X154140758Y-97274047D01*
X154140758Y-97274047D02*
X154378853Y-97274047D01*
X154378853Y-97274047D02*
X154569329Y-97321666D01*
X154569329Y-97321666D02*
X154664567Y-97369285D01*
X154664567Y-97369285D02*
X154712187Y-97416904D01*
X154712187Y-97416904D02*
X154759806Y-97512142D01*
X154759806Y-97512142D02*
X154759806Y-97607380D01*
X154759806Y-97607380D02*
X154712187Y-97702618D01*
X154712187Y-97702618D02*
X154664567Y-97750237D01*
X154664567Y-97750237D02*
X154569329Y-97797856D01*
X154569329Y-97797856D02*
X154378853Y-97845475D01*
X154378853Y-97845475D02*
X154140758Y-97845475D01*
X154140758Y-97845475D02*
X153950282Y-97797856D01*
X153950282Y-97797856D02*
X153855044Y-97750237D01*
X153855044Y-97750237D02*
X153807425Y-97702618D01*
X153807425Y-97702618D02*
X153759806Y-97607380D01*
X154093139Y-96416904D02*
X154759806Y-96416904D01*
X154093139Y-96845475D02*
X154616948Y-96845475D01*
X154616948Y-96845475D02*
X154712187Y-96797856D01*
X154712187Y-96797856D02*
X154759806Y-96702618D01*
X154759806Y-96702618D02*
X154759806Y-96559761D01*
X154759806Y-96559761D02*
X154712187Y-96464523D01*
X154712187Y-96464523D02*
X154664567Y-96416904D01*
X154235996Y-95607380D02*
X154235996Y-95940713D01*
X154759806Y-95940713D02*
X153759806Y-95940713D01*
X153759806Y-95940713D02*
X153759806Y-95464523D01*
X145883320Y-110214580D02*
X145835701Y-110262200D01*
X145835701Y-110262200D02*
X145692844Y-110309819D01*
X145692844Y-110309819D02*
X145597606Y-110309819D01*
X145597606Y-110309819D02*
X145454749Y-110262200D01*
X145454749Y-110262200D02*
X145359511Y-110166961D01*
X145359511Y-110166961D02*
X145311892Y-110071723D01*
X145311892Y-110071723D02*
X145264273Y-109881247D01*
X145264273Y-109881247D02*
X145264273Y-109738390D01*
X145264273Y-109738390D02*
X145311892Y-109547914D01*
X145311892Y-109547914D02*
X145359511Y-109452676D01*
X145359511Y-109452676D02*
X145454749Y-109357438D01*
X145454749Y-109357438D02*
X145597606Y-109309819D01*
X145597606Y-109309819D02*
X145692844Y-109309819D01*
X145692844Y-109309819D02*
X145835701Y-109357438D01*
X145835701Y-109357438D02*
X145883320Y-109405057D01*
X146835701Y-110309819D02*
X146264273Y-110309819D01*
X146549987Y-110309819D02*
X146549987Y-109309819D01*
X146549987Y-109309819D02*
X146454749Y-109452676D01*
X146454749Y-109452676D02*
X146359511Y-109547914D01*
X146359511Y-109547914D02*
X146264273Y-109595533D01*
X154759806Y-110926428D02*
X154759806Y-111497856D01*
X154759806Y-111212142D02*
X153759806Y-111212142D01*
X153759806Y-111212142D02*
X153902663Y-111307380D01*
X153902663Y-111307380D02*
X153997901Y-111402618D01*
X153997901Y-111402618D02*
X154045520Y-111497856D01*
X153759806Y-110307380D02*
X153759806Y-110212142D01*
X153759806Y-110212142D02*
X153807425Y-110116904D01*
X153807425Y-110116904D02*
X153855044Y-110069285D01*
X153855044Y-110069285D02*
X153950282Y-110021666D01*
X153950282Y-110021666D02*
X154140758Y-109974047D01*
X154140758Y-109974047D02*
X154378853Y-109974047D01*
X154378853Y-109974047D02*
X154569329Y-110021666D01*
X154569329Y-110021666D02*
X154664567Y-110069285D01*
X154664567Y-110069285D02*
X154712187Y-110116904D01*
X154712187Y-110116904D02*
X154759806Y-110212142D01*
X154759806Y-110212142D02*
X154759806Y-110307380D01*
X154759806Y-110307380D02*
X154712187Y-110402618D01*
X154712187Y-110402618D02*
X154664567Y-110450237D01*
X154664567Y-110450237D02*
X154569329Y-110497856D01*
X154569329Y-110497856D02*
X154378853Y-110545475D01*
X154378853Y-110545475D02*
X154140758Y-110545475D01*
X154140758Y-110545475D02*
X153950282Y-110497856D01*
X153950282Y-110497856D02*
X153855044Y-110450237D01*
X153855044Y-110450237D02*
X153807425Y-110402618D01*
X153807425Y-110402618D02*
X153759806Y-110307380D01*
X154093139Y-109116904D02*
X154759806Y-109116904D01*
X154093139Y-109545475D02*
X154616948Y-109545475D01*
X154616948Y-109545475D02*
X154712187Y-109497856D01*
X154712187Y-109497856D02*
X154759806Y-109402618D01*
X154759806Y-109402618D02*
X154759806Y-109259761D01*
X154759806Y-109259761D02*
X154712187Y-109164523D01*
X154712187Y-109164523D02*
X154664567Y-109116904D01*
X154235996Y-108307380D02*
X154235996Y-108640713D01*
X154759806Y-108640713D02*
X153759806Y-108640713D01*
X153759806Y-108640713D02*
X153759806Y-108164523D01*
X83693095Y-118199819D02*
X83693095Y-119009342D01*
X83693095Y-119009342D02*
X83740714Y-119104580D01*
X83740714Y-119104580D02*
X83788333Y-119152200D01*
X83788333Y-119152200D02*
X83883571Y-119199819D01*
X83883571Y-119199819D02*
X84074047Y-119199819D01*
X84074047Y-119199819D02*
X84169285Y-119152200D01*
X84169285Y-119152200D02*
X84216904Y-119104580D01*
X84216904Y-119104580D02*
X84264523Y-119009342D01*
X84264523Y-119009342D02*
X84264523Y-118199819D01*
X85264523Y-119199819D02*
X84693095Y-119199819D01*
X84978809Y-119199819D02*
X84978809Y-118199819D01*
X84978809Y-118199819D02*
X84883571Y-118342676D01*
X84883571Y-118342676D02*
X84788333Y-118437914D01*
X84788333Y-118437914D02*
X84693095Y-118485533D01*
X84862200Y-109997190D02*
X84909819Y-109854333D01*
X84909819Y-109854333D02*
X84909819Y-109616238D01*
X84909819Y-109616238D02*
X84862200Y-109521000D01*
X84862200Y-109521000D02*
X84814580Y-109473381D01*
X84814580Y-109473381D02*
X84719342Y-109425762D01*
X84719342Y-109425762D02*
X84624104Y-109425762D01*
X84624104Y-109425762D02*
X84528866Y-109473381D01*
X84528866Y-109473381D02*
X84481247Y-109521000D01*
X84481247Y-109521000D02*
X84433628Y-109616238D01*
X84433628Y-109616238D02*
X84386009Y-109806714D01*
X84386009Y-109806714D02*
X84338390Y-109901952D01*
X84338390Y-109901952D02*
X84290771Y-109949571D01*
X84290771Y-109949571D02*
X84195533Y-109997190D01*
X84195533Y-109997190D02*
X84100295Y-109997190D01*
X84100295Y-109997190D02*
X84005057Y-109949571D01*
X84005057Y-109949571D02*
X83957438Y-109901952D01*
X83957438Y-109901952D02*
X83909819Y-109806714D01*
X83909819Y-109806714D02*
X83909819Y-109568619D01*
X83909819Y-109568619D02*
X83957438Y-109425762D01*
X84909819Y-108997190D02*
X83909819Y-108997190D01*
X83909819Y-108997190D02*
X84909819Y-108425762D01*
X84909819Y-108425762D02*
X83909819Y-108425762D01*
X83909819Y-108044809D02*
X83909819Y-107378143D01*
X83909819Y-107378143D02*
X84909819Y-107806714D01*
X84243152Y-106568619D02*
X84909819Y-106568619D01*
X83862200Y-106806714D02*
X84576485Y-107044809D01*
X84576485Y-107044809D02*
X84576485Y-106425762D01*
X84909819Y-105568619D02*
X84909819Y-106044809D01*
X84909819Y-106044809D02*
X83909819Y-106044809D01*
X83909819Y-105378142D02*
X84909819Y-105044809D01*
X84909819Y-105044809D02*
X83909819Y-104711476D01*
X84814580Y-103806714D02*
X84862200Y-103854333D01*
X84862200Y-103854333D02*
X84909819Y-103997190D01*
X84909819Y-103997190D02*
X84909819Y-104092428D01*
X84909819Y-104092428D02*
X84862200Y-104235285D01*
X84862200Y-104235285D02*
X84766961Y-104330523D01*
X84766961Y-104330523D02*
X84671723Y-104378142D01*
X84671723Y-104378142D02*
X84481247Y-104425761D01*
X84481247Y-104425761D02*
X84338390Y-104425761D01*
X84338390Y-104425761D02*
X84147914Y-104378142D01*
X84147914Y-104378142D02*
X84052676Y-104330523D01*
X84052676Y-104330523D02*
X83957438Y-104235285D01*
X83957438Y-104235285D02*
X83909819Y-104092428D01*
X83909819Y-104092428D02*
X83909819Y-103997190D01*
X83909819Y-103997190D02*
X83957438Y-103854333D01*
X83957438Y-103854333D02*
X84005057Y-103806714D01*
X84005057Y-103425761D02*
X83957438Y-103378142D01*
X83957438Y-103378142D02*
X83909819Y-103282904D01*
X83909819Y-103282904D02*
X83909819Y-103044809D01*
X83909819Y-103044809D02*
X83957438Y-102949571D01*
X83957438Y-102949571D02*
X84005057Y-102901952D01*
X84005057Y-102901952D02*
X84100295Y-102854333D01*
X84100295Y-102854333D02*
X84195533Y-102854333D01*
X84195533Y-102854333D02*
X84338390Y-102901952D01*
X84338390Y-102901952D02*
X84909819Y-103473380D01*
X84909819Y-103473380D02*
X84909819Y-102854333D01*
X84243152Y-101997190D02*
X84909819Y-101997190D01*
X83862200Y-102235285D02*
X84576485Y-102473380D01*
X84576485Y-102473380D02*
X84576485Y-101854333D01*
X83909819Y-100997190D02*
X83909819Y-101473380D01*
X83909819Y-101473380D02*
X84386009Y-101520999D01*
X84386009Y-101520999D02*
X84338390Y-101473380D01*
X84338390Y-101473380D02*
X84290771Y-101378142D01*
X84290771Y-101378142D02*
X84290771Y-101140047D01*
X84290771Y-101140047D02*
X84338390Y-101044809D01*
X84338390Y-101044809D02*
X84386009Y-100997190D01*
X84386009Y-100997190D02*
X84481247Y-100949571D01*
X84481247Y-100949571D02*
X84719342Y-100949571D01*
X84719342Y-100949571D02*
X84814580Y-100997190D01*
X84814580Y-100997190D02*
X84862200Y-101044809D01*
X84862200Y-101044809D02*
X84909819Y-101140047D01*
X84909819Y-101140047D02*
X84909819Y-101378142D01*
X84909819Y-101378142D02*
X84862200Y-101473380D01*
X84862200Y-101473380D02*
X84814580Y-101520999D01*
X84624104Y-100568618D02*
X84624104Y-100092428D01*
X84909819Y-100663856D02*
X83909819Y-100330523D01*
X83909819Y-100330523D02*
X84909819Y-99997190D01*
X84909819Y-99663856D02*
X83909819Y-99663856D01*
X83909819Y-99663856D02*
X84909819Y-99092428D01*
X84909819Y-99092428D02*
X83909819Y-99092428D01*
X72691666Y-120314819D02*
X72691666Y-121029104D01*
X72691666Y-121029104D02*
X72644047Y-121171961D01*
X72644047Y-121171961D02*
X72548809Y-121267200D01*
X72548809Y-121267200D02*
X72405952Y-121314819D01*
X72405952Y-121314819D02*
X72310714Y-121314819D01*
X73072619Y-120314819D02*
X73691666Y-120314819D01*
X73691666Y-120314819D02*
X73358333Y-120695771D01*
X73358333Y-120695771D02*
X73501190Y-120695771D01*
X73501190Y-120695771D02*
X73596428Y-120743390D01*
X73596428Y-120743390D02*
X73644047Y-120791009D01*
X73644047Y-120791009D02*
X73691666Y-120886247D01*
X73691666Y-120886247D02*
X73691666Y-121124342D01*
X73691666Y-121124342D02*
X73644047Y-121219580D01*
X73644047Y-121219580D02*
X73596428Y-121267200D01*
X73596428Y-121267200D02*
X73501190Y-121314819D01*
X73501190Y-121314819D02*
X73215476Y-121314819D01*
X73215476Y-121314819D02*
X73120238Y-121267200D01*
X73120238Y-121267200D02*
X73072619Y-121219580D01*
X71001191Y-125899104D02*
X71477381Y-125899104D01*
X70905953Y-126184819D02*
X71239286Y-125184819D01*
X71239286Y-125184819D02*
X71572619Y-126184819D01*
X71905953Y-125184819D02*
X71905953Y-125994342D01*
X71905953Y-125994342D02*
X71953572Y-126089580D01*
X71953572Y-126089580D02*
X72001191Y-126137200D01*
X72001191Y-126137200D02*
X72096429Y-126184819D01*
X72096429Y-126184819D02*
X72286905Y-126184819D01*
X72286905Y-126184819D02*
X72382143Y-126137200D01*
X72382143Y-126137200D02*
X72429762Y-126089580D01*
X72429762Y-126089580D02*
X72477381Y-125994342D01*
X72477381Y-125994342D02*
X72477381Y-125184819D01*
X72953572Y-126184819D02*
X72953572Y-125184819D01*
X72953572Y-125184819D02*
X73191667Y-125184819D01*
X73191667Y-125184819D02*
X73334524Y-125232438D01*
X73334524Y-125232438D02*
X73429762Y-125327676D01*
X73429762Y-125327676D02*
X73477381Y-125422914D01*
X73477381Y-125422914D02*
X73525000Y-125613390D01*
X73525000Y-125613390D02*
X73525000Y-125756247D01*
X73525000Y-125756247D02*
X73477381Y-125946723D01*
X73477381Y-125946723D02*
X73429762Y-126041961D01*
X73429762Y-126041961D02*
X73334524Y-126137200D01*
X73334524Y-126137200D02*
X73191667Y-126184819D01*
X73191667Y-126184819D02*
X72953572Y-126184819D01*
X73953572Y-126184819D02*
X73953572Y-125184819D01*
X74620238Y-125184819D02*
X74810714Y-125184819D01*
X74810714Y-125184819D02*
X74905952Y-125232438D01*
X74905952Y-125232438D02*
X75001190Y-125327676D01*
X75001190Y-125327676D02*
X75048809Y-125518152D01*
X75048809Y-125518152D02*
X75048809Y-125851485D01*
X75048809Y-125851485D02*
X75001190Y-126041961D01*
X75001190Y-126041961D02*
X74905952Y-126137200D01*
X74905952Y-126137200D02*
X74810714Y-126184819D01*
X74810714Y-126184819D02*
X74620238Y-126184819D01*
X74620238Y-126184819D02*
X74525000Y-126137200D01*
X74525000Y-126137200D02*
X74429762Y-126041961D01*
X74429762Y-126041961D02*
X74382143Y-125851485D01*
X74382143Y-125851485D02*
X74382143Y-125518152D01*
X74382143Y-125518152D02*
X74429762Y-125327676D01*
X74429762Y-125327676D02*
X74525000Y-125232438D01*
X74525000Y-125232438D02*
X74620238Y-125184819D01*
X125563333Y-81734819D02*
X125230000Y-81258628D01*
X124991905Y-81734819D02*
X124991905Y-80734819D01*
X124991905Y-80734819D02*
X125372857Y-80734819D01*
X125372857Y-80734819D02*
X125468095Y-80782438D01*
X125468095Y-80782438D02*
X125515714Y-80830057D01*
X125515714Y-80830057D02*
X125563333Y-80925295D01*
X125563333Y-80925295D02*
X125563333Y-81068152D01*
X125563333Y-81068152D02*
X125515714Y-81163390D01*
X125515714Y-81163390D02*
X125468095Y-81211009D01*
X125468095Y-81211009D02*
X125372857Y-81258628D01*
X125372857Y-81258628D02*
X124991905Y-81258628D01*
X126515714Y-81734819D02*
X125944286Y-81734819D01*
X126230000Y-81734819D02*
X126230000Y-80734819D01*
X126230000Y-80734819D02*
X126134762Y-80877676D01*
X126134762Y-80877676D02*
X126039524Y-80972914D01*
X126039524Y-80972914D02*
X125944286Y-81020533D01*
X132064286Y-80734819D02*
X132683333Y-80734819D01*
X132683333Y-80734819D02*
X132350000Y-81115771D01*
X132350000Y-81115771D02*
X132492857Y-81115771D01*
X132492857Y-81115771D02*
X132588095Y-81163390D01*
X132588095Y-81163390D02*
X132635714Y-81211009D01*
X132635714Y-81211009D02*
X132683333Y-81306247D01*
X132683333Y-81306247D02*
X132683333Y-81544342D01*
X132683333Y-81544342D02*
X132635714Y-81639580D01*
X132635714Y-81639580D02*
X132588095Y-81687200D01*
X132588095Y-81687200D02*
X132492857Y-81734819D01*
X132492857Y-81734819D02*
X132207143Y-81734819D01*
X132207143Y-81734819D02*
X132111905Y-81687200D01*
X132111905Y-81687200D02*
X132064286Y-81639580D01*
X133016667Y-80734819D02*
X133635714Y-80734819D01*
X133635714Y-80734819D02*
X133302381Y-81115771D01*
X133302381Y-81115771D02*
X133445238Y-81115771D01*
X133445238Y-81115771D02*
X133540476Y-81163390D01*
X133540476Y-81163390D02*
X133588095Y-81211009D01*
X133588095Y-81211009D02*
X133635714Y-81306247D01*
X133635714Y-81306247D02*
X133635714Y-81544342D01*
X133635714Y-81544342D02*
X133588095Y-81639580D01*
X133588095Y-81639580D02*
X133540476Y-81687200D01*
X133540476Y-81687200D02*
X133445238Y-81734819D01*
X133445238Y-81734819D02*
X133159524Y-81734819D01*
X133159524Y-81734819D02*
X133064286Y-81687200D01*
X133064286Y-81687200D02*
X133016667Y-81639580D01*
X134254762Y-80734819D02*
X134350000Y-80734819D01*
X134350000Y-80734819D02*
X134445238Y-80782438D01*
X134445238Y-80782438D02*
X134492857Y-80830057D01*
X134492857Y-80830057D02*
X134540476Y-80925295D01*
X134540476Y-80925295D02*
X134588095Y-81115771D01*
X134588095Y-81115771D02*
X134588095Y-81353866D01*
X134588095Y-81353866D02*
X134540476Y-81544342D01*
X134540476Y-81544342D02*
X134492857Y-81639580D01*
X134492857Y-81639580D02*
X134445238Y-81687200D01*
X134445238Y-81687200D02*
X134350000Y-81734819D01*
X134350000Y-81734819D02*
X134254762Y-81734819D01*
X134254762Y-81734819D02*
X134159524Y-81687200D01*
X134159524Y-81687200D02*
X134111905Y-81639580D01*
X134111905Y-81639580D02*
X134064286Y-81544342D01*
X134064286Y-81544342D02*
X134016667Y-81353866D01*
X134016667Y-81353866D02*
X134016667Y-81115771D01*
X134016667Y-81115771D02*
X134064286Y-80925295D01*
X134064286Y-80925295D02*
X134111905Y-80830057D01*
X134111905Y-80830057D02*
X134159524Y-80782438D01*
X134159524Y-80782438D02*
X134254762Y-80734819D01*
X142708333Y-105229819D02*
X142375000Y-104753628D01*
X142136905Y-105229819D02*
X142136905Y-104229819D01*
X142136905Y-104229819D02*
X142517857Y-104229819D01*
X142517857Y-104229819D02*
X142613095Y-104277438D01*
X142613095Y-104277438D02*
X142660714Y-104325057D01*
X142660714Y-104325057D02*
X142708333Y-104420295D01*
X142708333Y-104420295D02*
X142708333Y-104563152D01*
X142708333Y-104563152D02*
X142660714Y-104658390D01*
X142660714Y-104658390D02*
X142613095Y-104706009D01*
X142613095Y-104706009D02*
X142517857Y-104753628D01*
X142517857Y-104753628D02*
X142136905Y-104753628D01*
X143089286Y-104325057D02*
X143136905Y-104277438D01*
X143136905Y-104277438D02*
X143232143Y-104229819D01*
X143232143Y-104229819D02*
X143470238Y-104229819D01*
X143470238Y-104229819D02*
X143565476Y-104277438D01*
X143565476Y-104277438D02*
X143613095Y-104325057D01*
X143613095Y-104325057D02*
X143660714Y-104420295D01*
X143660714Y-104420295D02*
X143660714Y-104515533D01*
X143660714Y-104515533D02*
X143613095Y-104658390D01*
X143613095Y-104658390D02*
X143041667Y-105229819D01*
X143041667Y-105229819D02*
X143660714Y-105229819D01*
X150209285Y-104563152D02*
X150209285Y-105229819D01*
X149971190Y-104182200D02*
X149733095Y-104896485D01*
X149733095Y-104896485D02*
X150352142Y-104896485D01*
X150637857Y-104229819D02*
X151304523Y-104229819D01*
X151304523Y-104229819D02*
X150875952Y-105229819D01*
X118618095Y-118199819D02*
X118618095Y-119009342D01*
X118618095Y-119009342D02*
X118665714Y-119104580D01*
X118665714Y-119104580D02*
X118713333Y-119152200D01*
X118713333Y-119152200D02*
X118808571Y-119199819D01*
X118808571Y-119199819D02*
X118999047Y-119199819D01*
X118999047Y-119199819D02*
X119094285Y-119152200D01*
X119094285Y-119152200D02*
X119141904Y-119104580D01*
X119141904Y-119104580D02*
X119189523Y-119009342D01*
X119189523Y-119009342D02*
X119189523Y-118199819D01*
X120094285Y-118199819D02*
X119903809Y-118199819D01*
X119903809Y-118199819D02*
X119808571Y-118247438D01*
X119808571Y-118247438D02*
X119760952Y-118295057D01*
X119760952Y-118295057D02*
X119665714Y-118437914D01*
X119665714Y-118437914D02*
X119618095Y-118628390D01*
X119618095Y-118628390D02*
X119618095Y-119009342D01*
X119618095Y-119009342D02*
X119665714Y-119104580D01*
X119665714Y-119104580D02*
X119713333Y-119152200D01*
X119713333Y-119152200D02*
X119808571Y-119199819D01*
X119808571Y-119199819D02*
X119999047Y-119199819D01*
X119999047Y-119199819D02*
X120094285Y-119152200D01*
X120094285Y-119152200D02*
X120141904Y-119104580D01*
X120141904Y-119104580D02*
X120189523Y-119009342D01*
X120189523Y-119009342D02*
X120189523Y-118771247D01*
X120189523Y-118771247D02*
X120141904Y-118676009D01*
X120141904Y-118676009D02*
X120094285Y-118628390D01*
X120094285Y-118628390D02*
X119999047Y-118580771D01*
X119999047Y-118580771D02*
X119808571Y-118580771D01*
X119808571Y-118580771D02*
X119713333Y-118628390D01*
X119713333Y-118628390D02*
X119665714Y-118676009D01*
X119665714Y-118676009D02*
X119618095Y-118771247D01*
X119787200Y-110251190D02*
X119834819Y-110108333D01*
X119834819Y-110108333D02*
X119834819Y-109870238D01*
X119834819Y-109870238D02*
X119787200Y-109775000D01*
X119787200Y-109775000D02*
X119739580Y-109727381D01*
X119739580Y-109727381D02*
X119644342Y-109679762D01*
X119644342Y-109679762D02*
X119549104Y-109679762D01*
X119549104Y-109679762D02*
X119453866Y-109727381D01*
X119453866Y-109727381D02*
X119406247Y-109775000D01*
X119406247Y-109775000D02*
X119358628Y-109870238D01*
X119358628Y-109870238D02*
X119311009Y-110060714D01*
X119311009Y-110060714D02*
X119263390Y-110155952D01*
X119263390Y-110155952D02*
X119215771Y-110203571D01*
X119215771Y-110203571D02*
X119120533Y-110251190D01*
X119120533Y-110251190D02*
X119025295Y-110251190D01*
X119025295Y-110251190D02*
X118930057Y-110203571D01*
X118930057Y-110203571D02*
X118882438Y-110155952D01*
X118882438Y-110155952D02*
X118834819Y-110060714D01*
X118834819Y-110060714D02*
X118834819Y-109822619D01*
X118834819Y-109822619D02*
X118882438Y-109679762D01*
X119834819Y-109251190D02*
X118834819Y-109251190D01*
X118834819Y-109251190D02*
X119834819Y-108679762D01*
X119834819Y-108679762D02*
X118834819Y-108679762D01*
X118834819Y-108298809D02*
X118834819Y-107632143D01*
X118834819Y-107632143D02*
X119834819Y-108060714D01*
X119168152Y-106822619D02*
X119834819Y-106822619D01*
X118787200Y-107060714D02*
X119501485Y-107298809D01*
X119501485Y-107298809D02*
X119501485Y-106679762D01*
X119834819Y-105822619D02*
X119834819Y-106298809D01*
X119834819Y-106298809D02*
X118834819Y-106298809D01*
X118834819Y-105632142D02*
X119834819Y-105298809D01*
X119834819Y-105298809D02*
X118834819Y-104965476D01*
X119739580Y-104060714D02*
X119787200Y-104108333D01*
X119787200Y-104108333D02*
X119834819Y-104251190D01*
X119834819Y-104251190D02*
X119834819Y-104346428D01*
X119834819Y-104346428D02*
X119787200Y-104489285D01*
X119787200Y-104489285D02*
X119691961Y-104584523D01*
X119691961Y-104584523D02*
X119596723Y-104632142D01*
X119596723Y-104632142D02*
X119406247Y-104679761D01*
X119406247Y-104679761D02*
X119263390Y-104679761D01*
X119263390Y-104679761D02*
X119072914Y-104632142D01*
X119072914Y-104632142D02*
X118977676Y-104584523D01*
X118977676Y-104584523D02*
X118882438Y-104489285D01*
X118882438Y-104489285D02*
X118834819Y-104346428D01*
X118834819Y-104346428D02*
X118834819Y-104251190D01*
X118834819Y-104251190D02*
X118882438Y-104108333D01*
X118882438Y-104108333D02*
X118930057Y-104060714D01*
X118930057Y-103679761D02*
X118882438Y-103632142D01*
X118882438Y-103632142D02*
X118834819Y-103536904D01*
X118834819Y-103536904D02*
X118834819Y-103298809D01*
X118834819Y-103298809D02*
X118882438Y-103203571D01*
X118882438Y-103203571D02*
X118930057Y-103155952D01*
X118930057Y-103155952D02*
X119025295Y-103108333D01*
X119025295Y-103108333D02*
X119120533Y-103108333D01*
X119120533Y-103108333D02*
X119263390Y-103155952D01*
X119263390Y-103155952D02*
X119834819Y-103727380D01*
X119834819Y-103727380D02*
X119834819Y-103108333D01*
X119168152Y-102251190D02*
X119834819Y-102251190D01*
X118787200Y-102489285D02*
X119501485Y-102727380D01*
X119501485Y-102727380D02*
X119501485Y-102108333D01*
X118834819Y-101251190D02*
X118834819Y-101727380D01*
X118834819Y-101727380D02*
X119311009Y-101774999D01*
X119311009Y-101774999D02*
X119263390Y-101727380D01*
X119263390Y-101727380D02*
X119215771Y-101632142D01*
X119215771Y-101632142D02*
X119215771Y-101394047D01*
X119215771Y-101394047D02*
X119263390Y-101298809D01*
X119263390Y-101298809D02*
X119311009Y-101251190D01*
X119311009Y-101251190D02*
X119406247Y-101203571D01*
X119406247Y-101203571D02*
X119644342Y-101203571D01*
X119644342Y-101203571D02*
X119739580Y-101251190D01*
X119739580Y-101251190D02*
X119787200Y-101298809D01*
X119787200Y-101298809D02*
X119834819Y-101394047D01*
X119834819Y-101394047D02*
X119834819Y-101632142D01*
X119834819Y-101632142D02*
X119787200Y-101727380D01*
X119787200Y-101727380D02*
X119739580Y-101774999D01*
X119549104Y-100822618D02*
X119549104Y-100346428D01*
X119834819Y-100917856D02*
X118834819Y-100584523D01*
X118834819Y-100584523D02*
X119834819Y-100251190D01*
X119834819Y-99917856D02*
X118834819Y-99917856D01*
X118834819Y-99917856D02*
X119834819Y-99346428D01*
X119834819Y-99346428D02*
X118834819Y-99346428D01*
X142708333Y-121104819D02*
X142375000Y-120628628D01*
X142136905Y-121104819D02*
X142136905Y-120104819D01*
X142136905Y-120104819D02*
X142517857Y-120104819D01*
X142517857Y-120104819D02*
X142613095Y-120152438D01*
X142613095Y-120152438D02*
X142660714Y-120200057D01*
X142660714Y-120200057D02*
X142708333Y-120295295D01*
X142708333Y-120295295D02*
X142708333Y-120438152D01*
X142708333Y-120438152D02*
X142660714Y-120533390D01*
X142660714Y-120533390D02*
X142613095Y-120581009D01*
X142613095Y-120581009D02*
X142517857Y-120628628D01*
X142517857Y-120628628D02*
X142136905Y-120628628D01*
X143565476Y-120438152D02*
X143565476Y-121104819D01*
X143327381Y-120057200D02*
X143089286Y-120771485D01*
X143089286Y-120771485D02*
X143708333Y-120771485D01*
X149566428Y-120438152D02*
X149566428Y-121104819D01*
X149328333Y-120057200D02*
X149090238Y-120771485D01*
X149090238Y-120771485D02*
X149709285Y-120771485D01*
X150090238Y-121009580D02*
X150137857Y-121057200D01*
X150137857Y-121057200D02*
X150090238Y-121104819D01*
X150090238Y-121104819D02*
X150042619Y-121057200D01*
X150042619Y-121057200D02*
X150090238Y-121009580D01*
X150090238Y-121009580D02*
X150090238Y-121104819D01*
X150471190Y-120104819D02*
X151137856Y-120104819D01*
X151137856Y-120104819D02*
X150709285Y-121104819D01*
X151518809Y-121104819D02*
X151518809Y-120104819D01*
X151614047Y-120723866D02*
X151899761Y-121104819D01*
X151899761Y-120438152D02*
X151518809Y-120819104D01*
X145883333Y-101959580D02*
X145835714Y-102007200D01*
X145835714Y-102007200D02*
X145692857Y-102054819D01*
X145692857Y-102054819D02*
X145597619Y-102054819D01*
X145597619Y-102054819D02*
X145454762Y-102007200D01*
X145454762Y-102007200D02*
X145359524Y-101911961D01*
X145359524Y-101911961D02*
X145311905Y-101816723D01*
X145311905Y-101816723D02*
X145264286Y-101626247D01*
X145264286Y-101626247D02*
X145264286Y-101483390D01*
X145264286Y-101483390D02*
X145311905Y-101292914D01*
X145311905Y-101292914D02*
X145359524Y-101197676D01*
X145359524Y-101197676D02*
X145454762Y-101102438D01*
X145454762Y-101102438D02*
X145597619Y-101054819D01*
X145597619Y-101054819D02*
X145692857Y-101054819D01*
X145692857Y-101054819D02*
X145835714Y-101102438D01*
X145835714Y-101102438D02*
X145883333Y-101150057D01*
X146264286Y-101150057D02*
X146311905Y-101102438D01*
X146311905Y-101102438D02*
X146407143Y-101054819D01*
X146407143Y-101054819D02*
X146645238Y-101054819D01*
X146645238Y-101054819D02*
X146740476Y-101102438D01*
X146740476Y-101102438D02*
X146788095Y-101150057D01*
X146788095Y-101150057D02*
X146835714Y-101245295D01*
X146835714Y-101245295D02*
X146835714Y-101340533D01*
X146835714Y-101340533D02*
X146788095Y-101483390D01*
X146788095Y-101483390D02*
X146216667Y-102054819D01*
X146216667Y-102054819D02*
X146835714Y-102054819D01*
X154273333Y-102054819D02*
X153701905Y-102054819D01*
X153987619Y-102054819D02*
X153987619Y-101054819D01*
X153987619Y-101054819D02*
X153892381Y-101197676D01*
X153892381Y-101197676D02*
X153797143Y-101292914D01*
X153797143Y-101292914D02*
X153701905Y-101340533D01*
X154892381Y-101054819D02*
X154987619Y-101054819D01*
X154987619Y-101054819D02*
X155082857Y-101102438D01*
X155082857Y-101102438D02*
X155130476Y-101150057D01*
X155130476Y-101150057D02*
X155178095Y-101245295D01*
X155178095Y-101245295D02*
X155225714Y-101435771D01*
X155225714Y-101435771D02*
X155225714Y-101673866D01*
X155225714Y-101673866D02*
X155178095Y-101864342D01*
X155178095Y-101864342D02*
X155130476Y-101959580D01*
X155130476Y-101959580D02*
X155082857Y-102007200D01*
X155082857Y-102007200D02*
X154987619Y-102054819D01*
X154987619Y-102054819D02*
X154892381Y-102054819D01*
X154892381Y-102054819D02*
X154797143Y-102007200D01*
X154797143Y-102007200D02*
X154749524Y-101959580D01*
X154749524Y-101959580D02*
X154701905Y-101864342D01*
X154701905Y-101864342D02*
X154654286Y-101673866D01*
X154654286Y-101673866D02*
X154654286Y-101435771D01*
X154654286Y-101435771D02*
X154701905Y-101245295D01*
X154701905Y-101245295D02*
X154749524Y-101150057D01*
X154749524Y-101150057D02*
X154797143Y-101102438D01*
X154797143Y-101102438D02*
X154892381Y-101054819D01*
X156130476Y-101054819D02*
X155654286Y-101054819D01*
X155654286Y-101054819D02*
X155606667Y-101531009D01*
X155606667Y-101531009D02*
X155654286Y-101483390D01*
X155654286Y-101483390D02*
X155749524Y-101435771D01*
X155749524Y-101435771D02*
X155987619Y-101435771D01*
X155987619Y-101435771D02*
X156082857Y-101483390D01*
X156082857Y-101483390D02*
X156130476Y-101531009D01*
X156130476Y-101531009D02*
X156178095Y-101626247D01*
X156178095Y-101626247D02*
X156178095Y-101864342D01*
X156178095Y-101864342D02*
X156130476Y-101959580D01*
X156130476Y-101959580D02*
X156082857Y-102007200D01*
X156082857Y-102007200D02*
X155987619Y-102054819D01*
X155987619Y-102054819D02*
X155749524Y-102054819D01*
X155749524Y-102054819D02*
X155654286Y-102007200D01*
X155654286Y-102007200D02*
X155606667Y-101959580D01*
X135763095Y-118199819D02*
X135763095Y-119009342D01*
X135763095Y-119009342D02*
X135810714Y-119104580D01*
X135810714Y-119104580D02*
X135858333Y-119152200D01*
X135858333Y-119152200D02*
X135953571Y-119199819D01*
X135953571Y-119199819D02*
X136144047Y-119199819D01*
X136144047Y-119199819D02*
X136239285Y-119152200D01*
X136239285Y-119152200D02*
X136286904Y-119104580D01*
X136286904Y-119104580D02*
X136334523Y-119009342D01*
X136334523Y-119009342D02*
X136334523Y-118199819D01*
X136763095Y-118295057D02*
X136810714Y-118247438D01*
X136810714Y-118247438D02*
X136905952Y-118199819D01*
X136905952Y-118199819D02*
X137144047Y-118199819D01*
X137144047Y-118199819D02*
X137239285Y-118247438D01*
X137239285Y-118247438D02*
X137286904Y-118295057D01*
X137286904Y-118295057D02*
X137334523Y-118390295D01*
X137334523Y-118390295D02*
X137334523Y-118485533D01*
X137334523Y-118485533D02*
X137286904Y-118628390D01*
X137286904Y-118628390D02*
X136715476Y-119199819D01*
X136715476Y-119199819D02*
X137334523Y-119199819D01*
X136932200Y-110251190D02*
X136979819Y-110108333D01*
X136979819Y-110108333D02*
X136979819Y-109870238D01*
X136979819Y-109870238D02*
X136932200Y-109775000D01*
X136932200Y-109775000D02*
X136884580Y-109727381D01*
X136884580Y-109727381D02*
X136789342Y-109679762D01*
X136789342Y-109679762D02*
X136694104Y-109679762D01*
X136694104Y-109679762D02*
X136598866Y-109727381D01*
X136598866Y-109727381D02*
X136551247Y-109775000D01*
X136551247Y-109775000D02*
X136503628Y-109870238D01*
X136503628Y-109870238D02*
X136456009Y-110060714D01*
X136456009Y-110060714D02*
X136408390Y-110155952D01*
X136408390Y-110155952D02*
X136360771Y-110203571D01*
X136360771Y-110203571D02*
X136265533Y-110251190D01*
X136265533Y-110251190D02*
X136170295Y-110251190D01*
X136170295Y-110251190D02*
X136075057Y-110203571D01*
X136075057Y-110203571D02*
X136027438Y-110155952D01*
X136027438Y-110155952D02*
X135979819Y-110060714D01*
X135979819Y-110060714D02*
X135979819Y-109822619D01*
X135979819Y-109822619D02*
X136027438Y-109679762D01*
X136979819Y-109251190D02*
X135979819Y-109251190D01*
X135979819Y-109251190D02*
X136979819Y-108679762D01*
X136979819Y-108679762D02*
X135979819Y-108679762D01*
X135979819Y-108298809D02*
X135979819Y-107632143D01*
X135979819Y-107632143D02*
X136979819Y-108060714D01*
X136313152Y-106822619D02*
X136979819Y-106822619D01*
X135932200Y-107060714D02*
X136646485Y-107298809D01*
X136646485Y-107298809D02*
X136646485Y-106679762D01*
X136979819Y-105822619D02*
X136979819Y-106298809D01*
X136979819Y-106298809D02*
X135979819Y-106298809D01*
X135979819Y-105632142D02*
X136979819Y-105298809D01*
X136979819Y-105298809D02*
X135979819Y-104965476D01*
X136884580Y-104060714D02*
X136932200Y-104108333D01*
X136932200Y-104108333D02*
X136979819Y-104251190D01*
X136979819Y-104251190D02*
X136979819Y-104346428D01*
X136979819Y-104346428D02*
X136932200Y-104489285D01*
X136932200Y-104489285D02*
X136836961Y-104584523D01*
X136836961Y-104584523D02*
X136741723Y-104632142D01*
X136741723Y-104632142D02*
X136551247Y-104679761D01*
X136551247Y-104679761D02*
X136408390Y-104679761D01*
X136408390Y-104679761D02*
X136217914Y-104632142D01*
X136217914Y-104632142D02*
X136122676Y-104584523D01*
X136122676Y-104584523D02*
X136027438Y-104489285D01*
X136027438Y-104489285D02*
X135979819Y-104346428D01*
X135979819Y-104346428D02*
X135979819Y-104251190D01*
X135979819Y-104251190D02*
X136027438Y-104108333D01*
X136027438Y-104108333D02*
X136075057Y-104060714D01*
X136075057Y-103679761D02*
X136027438Y-103632142D01*
X136027438Y-103632142D02*
X135979819Y-103536904D01*
X135979819Y-103536904D02*
X135979819Y-103298809D01*
X135979819Y-103298809D02*
X136027438Y-103203571D01*
X136027438Y-103203571D02*
X136075057Y-103155952D01*
X136075057Y-103155952D02*
X136170295Y-103108333D01*
X136170295Y-103108333D02*
X136265533Y-103108333D01*
X136265533Y-103108333D02*
X136408390Y-103155952D01*
X136408390Y-103155952D02*
X136979819Y-103727380D01*
X136979819Y-103727380D02*
X136979819Y-103108333D01*
X136313152Y-102251190D02*
X136979819Y-102251190D01*
X135932200Y-102489285D02*
X136646485Y-102727380D01*
X136646485Y-102727380D02*
X136646485Y-102108333D01*
X135979819Y-101251190D02*
X135979819Y-101727380D01*
X135979819Y-101727380D02*
X136456009Y-101774999D01*
X136456009Y-101774999D02*
X136408390Y-101727380D01*
X136408390Y-101727380D02*
X136360771Y-101632142D01*
X136360771Y-101632142D02*
X136360771Y-101394047D01*
X136360771Y-101394047D02*
X136408390Y-101298809D01*
X136408390Y-101298809D02*
X136456009Y-101251190D01*
X136456009Y-101251190D02*
X136551247Y-101203571D01*
X136551247Y-101203571D02*
X136789342Y-101203571D01*
X136789342Y-101203571D02*
X136884580Y-101251190D01*
X136884580Y-101251190D02*
X136932200Y-101298809D01*
X136932200Y-101298809D02*
X136979819Y-101394047D01*
X136979819Y-101394047D02*
X136979819Y-101632142D01*
X136979819Y-101632142D02*
X136932200Y-101727380D01*
X136932200Y-101727380D02*
X136884580Y-101774999D01*
X136694104Y-100822618D02*
X136694104Y-100346428D01*
X136979819Y-100917856D02*
X135979819Y-100584523D01*
X135979819Y-100584523D02*
X136979819Y-100251190D01*
X136979819Y-99917856D02*
X135979819Y-99917856D01*
X135979819Y-99917856D02*
X136979819Y-99346428D01*
X136979819Y-99346428D02*
X135979819Y-99346428D01*
X102959819Y-66928904D02*
X103769342Y-66928904D01*
X103769342Y-66928904D02*
X103864580Y-66881285D01*
X103864580Y-66881285D02*
X103912200Y-66833666D01*
X103912200Y-66833666D02*
X103959819Y-66738428D01*
X103959819Y-66738428D02*
X103959819Y-66547952D01*
X103959819Y-66547952D02*
X103912200Y-66452714D01*
X103912200Y-66452714D02*
X103864580Y-66405095D01*
X103864580Y-66405095D02*
X103769342Y-66357476D01*
X103769342Y-66357476D02*
X102959819Y-66357476D01*
X102959819Y-65405095D02*
X102959819Y-65881285D01*
X102959819Y-65881285D02*
X103436009Y-65928904D01*
X103436009Y-65928904D02*
X103388390Y-65881285D01*
X103388390Y-65881285D02*
X103340771Y-65786047D01*
X103340771Y-65786047D02*
X103340771Y-65547952D01*
X103340771Y-65547952D02*
X103388390Y-65452714D01*
X103388390Y-65452714D02*
X103436009Y-65405095D01*
X103436009Y-65405095D02*
X103531247Y-65357476D01*
X103531247Y-65357476D02*
X103769342Y-65357476D01*
X103769342Y-65357476D02*
X103864580Y-65405095D01*
X103864580Y-65405095D02*
X103912200Y-65452714D01*
X103912200Y-65452714D02*
X103959819Y-65547952D01*
X103959819Y-65547952D02*
X103959819Y-65786047D01*
X103959819Y-65786047D02*
X103912200Y-65881285D01*
X103912200Y-65881285D02*
X103864580Y-65928904D01*
D12*
X106664580Y-63168884D02*
X105855057Y-63168884D01*
X105855057Y-63168884D02*
X105759819Y-63216503D01*
X105759819Y-63216503D02*
X105712200Y-63264122D01*
X105712200Y-63264122D02*
X105664580Y-63359360D01*
X105664580Y-63359360D02*
X105664580Y-63549836D01*
X105664580Y-63549836D02*
X105712200Y-63645074D01*
X105712200Y-63645074D02*
X105759819Y-63692693D01*
X105759819Y-63692693D02*
X105855057Y-63740312D01*
X105855057Y-63740312D02*
X106664580Y-63740312D01*
X105712200Y-64168884D02*
X105664580Y-64311741D01*
X105664580Y-64311741D02*
X105664580Y-64549836D01*
X105664580Y-64549836D02*
X105712200Y-64645074D01*
X105712200Y-64645074D02*
X105759819Y-64692693D01*
X105759819Y-64692693D02*
X105855057Y-64740312D01*
X105855057Y-64740312D02*
X105950295Y-64740312D01*
X105950295Y-64740312D02*
X106045533Y-64692693D01*
X106045533Y-64692693D02*
X106093152Y-64645074D01*
X106093152Y-64645074D02*
X106140771Y-64549836D01*
X106140771Y-64549836D02*
X106188390Y-64359360D01*
X106188390Y-64359360D02*
X106236009Y-64264122D01*
X106236009Y-64264122D02*
X106283628Y-64216503D01*
X106283628Y-64216503D02*
X106378866Y-64168884D01*
X106378866Y-64168884D02*
X106474104Y-64168884D01*
X106474104Y-64168884D02*
X106569342Y-64216503D01*
X106569342Y-64216503D02*
X106616961Y-64264122D01*
X106616961Y-64264122D02*
X106664580Y-64359360D01*
X106664580Y-64359360D02*
X106664580Y-64597455D01*
X106664580Y-64597455D02*
X106616961Y-64740312D01*
X106188390Y-65502217D02*
X106140771Y-65645074D01*
X106140771Y-65645074D02*
X106093152Y-65692693D01*
X106093152Y-65692693D02*
X105997914Y-65740312D01*
X105997914Y-65740312D02*
X105855057Y-65740312D01*
X105855057Y-65740312D02*
X105759819Y-65692693D01*
X105759819Y-65692693D02*
X105712200Y-65645074D01*
X105712200Y-65645074D02*
X105664580Y-65549836D01*
X105664580Y-65549836D02*
X105664580Y-65168884D01*
X105664580Y-65168884D02*
X106664580Y-65168884D01*
X106664580Y-65168884D02*
X106664580Y-65502217D01*
X106664580Y-65502217D02*
X106616961Y-65597455D01*
X106616961Y-65597455D02*
X106569342Y-65645074D01*
X106569342Y-65645074D02*
X106474104Y-65692693D01*
X106474104Y-65692693D02*
X106378866Y-65692693D01*
X106378866Y-65692693D02*
X106283628Y-65645074D01*
X106283628Y-65645074D02*
X106236009Y-65597455D01*
X106236009Y-65597455D02*
X106188390Y-65502217D01*
X106188390Y-65502217D02*
X106188390Y-65168884D01*
X106045533Y-66168884D02*
X106045533Y-66930789D01*
X105759819Y-67978407D02*
X105712200Y-67930788D01*
X105712200Y-67930788D02*
X105664580Y-67787931D01*
X105664580Y-67787931D02*
X105664580Y-67692693D01*
X105664580Y-67692693D02*
X105712200Y-67549836D01*
X105712200Y-67549836D02*
X105807438Y-67454598D01*
X105807438Y-67454598D02*
X105902676Y-67406979D01*
X105902676Y-67406979D02*
X106093152Y-67359360D01*
X106093152Y-67359360D02*
X106236009Y-67359360D01*
X106236009Y-67359360D02*
X106426485Y-67406979D01*
X106426485Y-67406979D02*
X106521723Y-67454598D01*
X106521723Y-67454598D02*
X106616961Y-67549836D01*
X106616961Y-67549836D02*
X106664580Y-67692693D01*
X106664580Y-67692693D02*
X106664580Y-67787931D01*
X106664580Y-67787931D02*
X106616961Y-67930788D01*
X106616961Y-67930788D02*
X106569342Y-67978407D01*
X57404580Y-63676884D02*
X58404580Y-63676884D01*
X57928390Y-63676884D02*
X57928390Y-64248312D01*
X57404580Y-64248312D02*
X58404580Y-64248312D01*
X57404580Y-64724503D02*
X58404580Y-64724503D01*
X58404580Y-64724503D02*
X58404580Y-64962598D01*
X58404580Y-64962598D02*
X58356961Y-65105455D01*
X58356961Y-65105455D02*
X58261723Y-65200693D01*
X58261723Y-65200693D02*
X58166485Y-65248312D01*
X58166485Y-65248312D02*
X57976009Y-65295931D01*
X57976009Y-65295931D02*
X57833152Y-65295931D01*
X57833152Y-65295931D02*
X57642676Y-65248312D01*
X57642676Y-65248312D02*
X57547438Y-65200693D01*
X57547438Y-65200693D02*
X57452200Y-65105455D01*
X57452200Y-65105455D02*
X57404580Y-64962598D01*
X57404580Y-64962598D02*
X57404580Y-64724503D01*
X57404580Y-65724503D02*
X58404580Y-65724503D01*
X58404580Y-65724503D02*
X57690295Y-66057836D01*
X57690295Y-66057836D02*
X58404580Y-66391169D01*
X58404580Y-66391169D02*
X57404580Y-66391169D01*
X57404580Y-66867360D02*
X58404580Y-66867360D01*
D10*
X101453333Y-91124580D02*
X101405714Y-91172200D01*
X101405714Y-91172200D02*
X101262857Y-91219819D01*
X101262857Y-91219819D02*
X101167619Y-91219819D01*
X101167619Y-91219819D02*
X101024762Y-91172200D01*
X101024762Y-91172200D02*
X100929524Y-91076961D01*
X100929524Y-91076961D02*
X100881905Y-90981723D01*
X100881905Y-90981723D02*
X100834286Y-90791247D01*
X100834286Y-90791247D02*
X100834286Y-90648390D01*
X100834286Y-90648390D02*
X100881905Y-90457914D01*
X100881905Y-90457914D02*
X100929524Y-90362676D01*
X100929524Y-90362676D02*
X101024762Y-90267438D01*
X101024762Y-90267438D02*
X101167619Y-90219819D01*
X101167619Y-90219819D02*
X101262857Y-90219819D01*
X101262857Y-90219819D02*
X101405714Y-90267438D01*
X101405714Y-90267438D02*
X101453333Y-90315057D01*
X101786667Y-90219819D02*
X102453333Y-90219819D01*
X102453333Y-90219819D02*
X102024762Y-91219819D01*
X105378333Y-88719819D02*
X104806905Y-88719819D01*
X105092619Y-88719819D02*
X105092619Y-87719819D01*
X105092619Y-87719819D02*
X104997381Y-87862676D01*
X104997381Y-87862676D02*
X104902143Y-87957914D01*
X104902143Y-87957914D02*
X104806905Y-88005533D01*
X105997381Y-87719819D02*
X106092619Y-87719819D01*
X106092619Y-87719819D02*
X106187857Y-87767438D01*
X106187857Y-87767438D02*
X106235476Y-87815057D01*
X106235476Y-87815057D02*
X106283095Y-87910295D01*
X106283095Y-87910295D02*
X106330714Y-88100771D01*
X106330714Y-88100771D02*
X106330714Y-88338866D01*
X106330714Y-88338866D02*
X106283095Y-88529342D01*
X106283095Y-88529342D02*
X106235476Y-88624580D01*
X106235476Y-88624580D02*
X106187857Y-88672200D01*
X106187857Y-88672200D02*
X106092619Y-88719819D01*
X106092619Y-88719819D02*
X105997381Y-88719819D01*
X105997381Y-88719819D02*
X105902143Y-88672200D01*
X105902143Y-88672200D02*
X105854524Y-88624580D01*
X105854524Y-88624580D02*
X105806905Y-88529342D01*
X105806905Y-88529342D02*
X105759286Y-88338866D01*
X105759286Y-88338866D02*
X105759286Y-88100771D01*
X105759286Y-88100771D02*
X105806905Y-87910295D01*
X105806905Y-87910295D02*
X105854524Y-87815057D01*
X105854524Y-87815057D02*
X105902143Y-87767438D01*
X105902143Y-87767438D02*
X105997381Y-87719819D01*
X107187857Y-88053152D02*
X107187857Y-88719819D01*
X106949762Y-87672200D02*
X106711667Y-88386485D01*
X106711667Y-88386485D02*
X107330714Y-88386485D01*
X118757142Y-91124580D02*
X118709523Y-91172200D01*
X118709523Y-91172200D02*
X118566666Y-91219819D01*
X118566666Y-91219819D02*
X118471428Y-91219819D01*
X118471428Y-91219819D02*
X118328571Y-91172200D01*
X118328571Y-91172200D02*
X118233333Y-91076961D01*
X118233333Y-91076961D02*
X118185714Y-90981723D01*
X118185714Y-90981723D02*
X118138095Y-90791247D01*
X118138095Y-90791247D02*
X118138095Y-90648390D01*
X118138095Y-90648390D02*
X118185714Y-90457914D01*
X118185714Y-90457914D02*
X118233333Y-90362676D01*
X118233333Y-90362676D02*
X118328571Y-90267438D01*
X118328571Y-90267438D02*
X118471428Y-90219819D01*
X118471428Y-90219819D02*
X118566666Y-90219819D01*
X118566666Y-90219819D02*
X118709523Y-90267438D01*
X118709523Y-90267438D02*
X118757142Y-90315057D01*
X119709523Y-91219819D02*
X119138095Y-91219819D01*
X119423809Y-91219819D02*
X119423809Y-90219819D01*
X119423809Y-90219819D02*
X119328571Y-90362676D01*
X119328571Y-90362676D02*
X119233333Y-90457914D01*
X119233333Y-90457914D02*
X119138095Y-90505533D01*
X120328571Y-90219819D02*
X120423809Y-90219819D01*
X120423809Y-90219819D02*
X120519047Y-90267438D01*
X120519047Y-90267438D02*
X120566666Y-90315057D01*
X120566666Y-90315057D02*
X120614285Y-90410295D01*
X120614285Y-90410295D02*
X120661904Y-90600771D01*
X120661904Y-90600771D02*
X120661904Y-90838866D01*
X120661904Y-90838866D02*
X120614285Y-91029342D01*
X120614285Y-91029342D02*
X120566666Y-91124580D01*
X120566666Y-91124580D02*
X120519047Y-91172200D01*
X120519047Y-91172200D02*
X120423809Y-91219819D01*
X120423809Y-91219819D02*
X120328571Y-91219819D01*
X120328571Y-91219819D02*
X120233333Y-91172200D01*
X120233333Y-91172200D02*
X120185714Y-91124580D01*
X120185714Y-91124580D02*
X120138095Y-91029342D01*
X120138095Y-91029342D02*
X120090476Y-90838866D01*
X120090476Y-90838866D02*
X120090476Y-90600771D01*
X120090476Y-90600771D02*
X120138095Y-90410295D01*
X120138095Y-90410295D02*
X120185714Y-90315057D01*
X120185714Y-90315057D02*
X120233333Y-90267438D01*
X120233333Y-90267438D02*
X120328571Y-90219819D01*
X123158333Y-88719819D02*
X122586905Y-88719819D01*
X122872619Y-88719819D02*
X122872619Y-87719819D01*
X122872619Y-87719819D02*
X122777381Y-87862676D01*
X122777381Y-87862676D02*
X122682143Y-87957914D01*
X122682143Y-87957914D02*
X122586905Y-88005533D01*
X123777381Y-87719819D02*
X123872619Y-87719819D01*
X123872619Y-87719819D02*
X123967857Y-87767438D01*
X123967857Y-87767438D02*
X124015476Y-87815057D01*
X124015476Y-87815057D02*
X124063095Y-87910295D01*
X124063095Y-87910295D02*
X124110714Y-88100771D01*
X124110714Y-88100771D02*
X124110714Y-88338866D01*
X124110714Y-88338866D02*
X124063095Y-88529342D01*
X124063095Y-88529342D02*
X124015476Y-88624580D01*
X124015476Y-88624580D02*
X123967857Y-88672200D01*
X123967857Y-88672200D02*
X123872619Y-88719819D01*
X123872619Y-88719819D02*
X123777381Y-88719819D01*
X123777381Y-88719819D02*
X123682143Y-88672200D01*
X123682143Y-88672200D02*
X123634524Y-88624580D01*
X123634524Y-88624580D02*
X123586905Y-88529342D01*
X123586905Y-88529342D02*
X123539286Y-88338866D01*
X123539286Y-88338866D02*
X123539286Y-88100771D01*
X123539286Y-88100771D02*
X123586905Y-87910295D01*
X123586905Y-87910295D02*
X123634524Y-87815057D01*
X123634524Y-87815057D02*
X123682143Y-87767438D01*
X123682143Y-87767438D02*
X123777381Y-87719819D01*
X124967857Y-88053152D02*
X124967857Y-88719819D01*
X124729762Y-87672200D02*
X124491667Y-88386485D01*
X124491667Y-88386485D02*
X125110714Y-88386485D01*
X136378333Y-91124580D02*
X136330714Y-91172200D01*
X136330714Y-91172200D02*
X136187857Y-91219819D01*
X136187857Y-91219819D02*
X136092619Y-91219819D01*
X136092619Y-91219819D02*
X135949762Y-91172200D01*
X135949762Y-91172200D02*
X135854524Y-91076961D01*
X135854524Y-91076961D02*
X135806905Y-90981723D01*
X135806905Y-90981723D02*
X135759286Y-90791247D01*
X135759286Y-90791247D02*
X135759286Y-90648390D01*
X135759286Y-90648390D02*
X135806905Y-90457914D01*
X135806905Y-90457914D02*
X135854524Y-90362676D01*
X135854524Y-90362676D02*
X135949762Y-90267438D01*
X135949762Y-90267438D02*
X136092619Y-90219819D01*
X136092619Y-90219819D02*
X136187857Y-90219819D01*
X136187857Y-90219819D02*
X136330714Y-90267438D01*
X136330714Y-90267438D02*
X136378333Y-90315057D01*
X136854524Y-91219819D02*
X137045000Y-91219819D01*
X137045000Y-91219819D02*
X137140238Y-91172200D01*
X137140238Y-91172200D02*
X137187857Y-91124580D01*
X137187857Y-91124580D02*
X137283095Y-90981723D01*
X137283095Y-90981723D02*
X137330714Y-90791247D01*
X137330714Y-90791247D02*
X137330714Y-90410295D01*
X137330714Y-90410295D02*
X137283095Y-90315057D01*
X137283095Y-90315057D02*
X137235476Y-90267438D01*
X137235476Y-90267438D02*
X137140238Y-90219819D01*
X137140238Y-90219819D02*
X136949762Y-90219819D01*
X136949762Y-90219819D02*
X136854524Y-90267438D01*
X136854524Y-90267438D02*
X136806905Y-90315057D01*
X136806905Y-90315057D02*
X136759286Y-90410295D01*
X136759286Y-90410295D02*
X136759286Y-90648390D01*
X136759286Y-90648390D02*
X136806905Y-90743628D01*
X136806905Y-90743628D02*
X136854524Y-90791247D01*
X136854524Y-90791247D02*
X136949762Y-90838866D01*
X136949762Y-90838866D02*
X137140238Y-90838866D01*
X137140238Y-90838866D02*
X137235476Y-90791247D01*
X137235476Y-90791247D02*
X137283095Y-90743628D01*
X137283095Y-90743628D02*
X137330714Y-90648390D01*
X140303333Y-88719819D02*
X139731905Y-88719819D01*
X140017619Y-88719819D02*
X140017619Y-87719819D01*
X140017619Y-87719819D02*
X139922381Y-87862676D01*
X139922381Y-87862676D02*
X139827143Y-87957914D01*
X139827143Y-87957914D02*
X139731905Y-88005533D01*
X140922381Y-87719819D02*
X141017619Y-87719819D01*
X141017619Y-87719819D02*
X141112857Y-87767438D01*
X141112857Y-87767438D02*
X141160476Y-87815057D01*
X141160476Y-87815057D02*
X141208095Y-87910295D01*
X141208095Y-87910295D02*
X141255714Y-88100771D01*
X141255714Y-88100771D02*
X141255714Y-88338866D01*
X141255714Y-88338866D02*
X141208095Y-88529342D01*
X141208095Y-88529342D02*
X141160476Y-88624580D01*
X141160476Y-88624580D02*
X141112857Y-88672200D01*
X141112857Y-88672200D02*
X141017619Y-88719819D01*
X141017619Y-88719819D02*
X140922381Y-88719819D01*
X140922381Y-88719819D02*
X140827143Y-88672200D01*
X140827143Y-88672200D02*
X140779524Y-88624580D01*
X140779524Y-88624580D02*
X140731905Y-88529342D01*
X140731905Y-88529342D02*
X140684286Y-88338866D01*
X140684286Y-88338866D02*
X140684286Y-88100771D01*
X140684286Y-88100771D02*
X140731905Y-87910295D01*
X140731905Y-87910295D02*
X140779524Y-87815057D01*
X140779524Y-87815057D02*
X140827143Y-87767438D01*
X140827143Y-87767438D02*
X140922381Y-87719819D01*
X142112857Y-88053152D02*
X142112857Y-88719819D01*
X141874762Y-87672200D02*
X141636667Y-88386485D01*
X141636667Y-88386485D02*
X142255714Y-88386485D01*
X144041905Y-84909819D02*
X144041905Y-83909819D01*
X144041905Y-83909819D02*
X144280000Y-83909819D01*
X144280000Y-83909819D02*
X144422857Y-83957438D01*
X144422857Y-83957438D02*
X144518095Y-84052676D01*
X144518095Y-84052676D02*
X144565714Y-84147914D01*
X144565714Y-84147914D02*
X144613333Y-84338390D01*
X144613333Y-84338390D02*
X144613333Y-84481247D01*
X144613333Y-84481247D02*
X144565714Y-84671723D01*
X144565714Y-84671723D02*
X144518095Y-84766961D01*
X144518095Y-84766961D02*
X144422857Y-84862200D01*
X144422857Y-84862200D02*
X144280000Y-84909819D01*
X144280000Y-84909819D02*
X144041905Y-84909819D01*
X145565714Y-84909819D02*
X144994286Y-84909819D01*
X145280000Y-84909819D02*
X145280000Y-83909819D01*
X145280000Y-83909819D02*
X145184762Y-84052676D01*
X145184762Y-84052676D02*
X145089524Y-84147914D01*
X145089524Y-84147914D02*
X144994286Y-84195533D01*
X141470095Y-81861819D02*
X141470095Y-80861819D01*
X142041523Y-81861819D02*
X141612952Y-81290390D01*
X142041523Y-80861819D02*
X141470095Y-81433247D01*
X104152142Y-83544580D02*
X104104523Y-83592200D01*
X104104523Y-83592200D02*
X103961666Y-83639819D01*
X103961666Y-83639819D02*
X103866428Y-83639819D01*
X103866428Y-83639819D02*
X103723571Y-83592200D01*
X103723571Y-83592200D02*
X103628333Y-83496961D01*
X103628333Y-83496961D02*
X103580714Y-83401723D01*
X103580714Y-83401723D02*
X103533095Y-83211247D01*
X103533095Y-83211247D02*
X103533095Y-83068390D01*
X103533095Y-83068390D02*
X103580714Y-82877914D01*
X103580714Y-82877914D02*
X103628333Y-82782676D01*
X103628333Y-82782676D02*
X103723571Y-82687438D01*
X103723571Y-82687438D02*
X103866428Y-82639819D01*
X103866428Y-82639819D02*
X103961666Y-82639819D01*
X103961666Y-82639819D02*
X104104523Y-82687438D01*
X104104523Y-82687438D02*
X104152142Y-82735057D01*
X105104523Y-83639819D02*
X104533095Y-83639819D01*
X104818809Y-83639819D02*
X104818809Y-82639819D01*
X104818809Y-82639819D02*
X104723571Y-82782676D01*
X104723571Y-82782676D02*
X104628333Y-82877914D01*
X104628333Y-82877914D02*
X104533095Y-82925533D01*
X105485476Y-82735057D02*
X105533095Y-82687438D01*
X105533095Y-82687438D02*
X105628333Y-82639819D01*
X105628333Y-82639819D02*
X105866428Y-82639819D01*
X105866428Y-82639819D02*
X105961666Y-82687438D01*
X105961666Y-82687438D02*
X106009285Y-82735057D01*
X106009285Y-82735057D02*
X106056904Y-82830295D01*
X106056904Y-82830295D02*
X106056904Y-82925533D01*
X106056904Y-82925533D02*
X106009285Y-83068390D01*
X106009285Y-83068390D02*
X105437857Y-83639819D01*
X105437857Y-83639819D02*
X106056904Y-83639819D01*
X108573333Y-81099819D02*
X108001905Y-81099819D01*
X108287619Y-81099819D02*
X108287619Y-80099819D01*
X108287619Y-80099819D02*
X108192381Y-80242676D01*
X108192381Y-80242676D02*
X108097143Y-80337914D01*
X108097143Y-80337914D02*
X108001905Y-80385533D01*
X109192381Y-80099819D02*
X109287619Y-80099819D01*
X109287619Y-80099819D02*
X109382857Y-80147438D01*
X109382857Y-80147438D02*
X109430476Y-80195057D01*
X109430476Y-80195057D02*
X109478095Y-80290295D01*
X109478095Y-80290295D02*
X109525714Y-80480771D01*
X109525714Y-80480771D02*
X109525714Y-80718866D01*
X109525714Y-80718866D02*
X109478095Y-80909342D01*
X109478095Y-80909342D02*
X109430476Y-81004580D01*
X109430476Y-81004580D02*
X109382857Y-81052200D01*
X109382857Y-81052200D02*
X109287619Y-81099819D01*
X109287619Y-81099819D02*
X109192381Y-81099819D01*
X109192381Y-81099819D02*
X109097143Y-81052200D01*
X109097143Y-81052200D02*
X109049524Y-81004580D01*
X109049524Y-81004580D02*
X109001905Y-80909342D01*
X109001905Y-80909342D02*
X108954286Y-80718866D01*
X108954286Y-80718866D02*
X108954286Y-80480771D01*
X108954286Y-80480771D02*
X109001905Y-80290295D01*
X109001905Y-80290295D02*
X109049524Y-80195057D01*
X109049524Y-80195057D02*
X109097143Y-80147438D01*
X109097143Y-80147438D02*
X109192381Y-80099819D01*
X110382857Y-80433152D02*
X110382857Y-81099819D01*
X110144762Y-80052200D02*
X109906667Y-80766485D01*
X109906667Y-80766485D02*
X110525714Y-80766485D01*
X66548095Y-118194819D02*
X66548095Y-119004342D01*
X66548095Y-119004342D02*
X66595714Y-119099580D01*
X66595714Y-119099580D02*
X66643333Y-119147200D01*
X66643333Y-119147200D02*
X66738571Y-119194819D01*
X66738571Y-119194819D02*
X66929047Y-119194819D01*
X66929047Y-119194819D02*
X67024285Y-119147200D01*
X67024285Y-119147200D02*
X67071904Y-119099580D01*
X67071904Y-119099580D02*
X67119523Y-119004342D01*
X67119523Y-119004342D02*
X67119523Y-118194819D01*
X68024285Y-118528152D02*
X68024285Y-119194819D01*
X67786190Y-118147200D02*
X67548095Y-118861485D01*
X67548095Y-118861485D02*
X68167142Y-118861485D01*
X145883333Y-114659580D02*
X145835714Y-114707200D01*
X145835714Y-114707200D02*
X145692857Y-114754819D01*
X145692857Y-114754819D02*
X145597619Y-114754819D01*
X145597619Y-114754819D02*
X145454762Y-114707200D01*
X145454762Y-114707200D02*
X145359524Y-114611961D01*
X145359524Y-114611961D02*
X145311905Y-114516723D01*
X145311905Y-114516723D02*
X145264286Y-114326247D01*
X145264286Y-114326247D02*
X145264286Y-114183390D01*
X145264286Y-114183390D02*
X145311905Y-113992914D01*
X145311905Y-113992914D02*
X145359524Y-113897676D01*
X145359524Y-113897676D02*
X145454762Y-113802438D01*
X145454762Y-113802438D02*
X145597619Y-113754819D01*
X145597619Y-113754819D02*
X145692857Y-113754819D01*
X145692857Y-113754819D02*
X145835714Y-113802438D01*
X145835714Y-113802438D02*
X145883333Y-113850057D01*
X146740476Y-114088152D02*
X146740476Y-114754819D01*
X146502381Y-113707200D02*
X146264286Y-114421485D01*
X146264286Y-114421485D02*
X146883333Y-114421485D01*
X154253333Y-114754819D02*
X153681905Y-114754819D01*
X153967619Y-114754819D02*
X153967619Y-113754819D01*
X153967619Y-113754819D02*
X153872381Y-113897676D01*
X153872381Y-113897676D02*
X153777143Y-113992914D01*
X153777143Y-113992914D02*
X153681905Y-114040533D01*
X154872381Y-113754819D02*
X154967619Y-113754819D01*
X154967619Y-113754819D02*
X155062857Y-113802438D01*
X155062857Y-113802438D02*
X155110476Y-113850057D01*
X155110476Y-113850057D02*
X155158095Y-113945295D01*
X155158095Y-113945295D02*
X155205714Y-114135771D01*
X155205714Y-114135771D02*
X155205714Y-114373866D01*
X155205714Y-114373866D02*
X155158095Y-114564342D01*
X155158095Y-114564342D02*
X155110476Y-114659580D01*
X155110476Y-114659580D02*
X155062857Y-114707200D01*
X155062857Y-114707200D02*
X154967619Y-114754819D01*
X154967619Y-114754819D02*
X154872381Y-114754819D01*
X154872381Y-114754819D02*
X154777143Y-114707200D01*
X154777143Y-114707200D02*
X154729524Y-114659580D01*
X154729524Y-114659580D02*
X154681905Y-114564342D01*
X154681905Y-114564342D02*
X154634286Y-114373866D01*
X154634286Y-114373866D02*
X154634286Y-114135771D01*
X154634286Y-114135771D02*
X154681905Y-113945295D01*
X154681905Y-113945295D02*
X154729524Y-113850057D01*
X154729524Y-113850057D02*
X154777143Y-113802438D01*
X154777143Y-113802438D02*
X154872381Y-113754819D01*
X156110476Y-113754819D02*
X155634286Y-113754819D01*
X155634286Y-113754819D02*
X155586667Y-114231009D01*
X155586667Y-114231009D02*
X155634286Y-114183390D01*
X155634286Y-114183390D02*
X155729524Y-114135771D01*
X155729524Y-114135771D02*
X155967619Y-114135771D01*
X155967619Y-114135771D02*
X156062857Y-114183390D01*
X156062857Y-114183390D02*
X156110476Y-114231009D01*
X156110476Y-114231009D02*
X156158095Y-114326247D01*
X156158095Y-114326247D02*
X156158095Y-114564342D01*
X156158095Y-114564342D02*
X156110476Y-114659580D01*
X156110476Y-114659580D02*
X156062857Y-114707200D01*
X156062857Y-114707200D02*
X155967619Y-114754819D01*
X155967619Y-114754819D02*
X155729524Y-114754819D01*
X155729524Y-114754819D02*
X155634286Y-114707200D01*
X155634286Y-114707200D02*
X155586667Y-114659580D01*
X100838095Y-118199819D02*
X100838095Y-119009342D01*
X100838095Y-119009342D02*
X100885714Y-119104580D01*
X100885714Y-119104580D02*
X100933333Y-119152200D01*
X100933333Y-119152200D02*
X101028571Y-119199819D01*
X101028571Y-119199819D02*
X101219047Y-119199819D01*
X101219047Y-119199819D02*
X101314285Y-119152200D01*
X101314285Y-119152200D02*
X101361904Y-119104580D01*
X101361904Y-119104580D02*
X101409523Y-119009342D01*
X101409523Y-119009342D02*
X101409523Y-118199819D01*
X101790476Y-118199819D02*
X102409523Y-118199819D01*
X102409523Y-118199819D02*
X102076190Y-118580771D01*
X102076190Y-118580771D02*
X102219047Y-118580771D01*
X102219047Y-118580771D02*
X102314285Y-118628390D01*
X102314285Y-118628390D02*
X102361904Y-118676009D01*
X102361904Y-118676009D02*
X102409523Y-118771247D01*
X102409523Y-118771247D02*
X102409523Y-119009342D01*
X102409523Y-119009342D02*
X102361904Y-119104580D01*
X102361904Y-119104580D02*
X102314285Y-119152200D01*
X102314285Y-119152200D02*
X102219047Y-119199819D01*
X102219047Y-119199819D02*
X101933333Y-119199819D01*
X101933333Y-119199819D02*
X101838095Y-119152200D01*
X101838095Y-119152200D02*
X101790476Y-119104580D01*
X102134200Y-109997190D02*
X102181819Y-109854333D01*
X102181819Y-109854333D02*
X102181819Y-109616238D01*
X102181819Y-109616238D02*
X102134200Y-109521000D01*
X102134200Y-109521000D02*
X102086580Y-109473381D01*
X102086580Y-109473381D02*
X101991342Y-109425762D01*
X101991342Y-109425762D02*
X101896104Y-109425762D01*
X101896104Y-109425762D02*
X101800866Y-109473381D01*
X101800866Y-109473381D02*
X101753247Y-109521000D01*
X101753247Y-109521000D02*
X101705628Y-109616238D01*
X101705628Y-109616238D02*
X101658009Y-109806714D01*
X101658009Y-109806714D02*
X101610390Y-109901952D01*
X101610390Y-109901952D02*
X101562771Y-109949571D01*
X101562771Y-109949571D02*
X101467533Y-109997190D01*
X101467533Y-109997190D02*
X101372295Y-109997190D01*
X101372295Y-109997190D02*
X101277057Y-109949571D01*
X101277057Y-109949571D02*
X101229438Y-109901952D01*
X101229438Y-109901952D02*
X101181819Y-109806714D01*
X101181819Y-109806714D02*
X101181819Y-109568619D01*
X101181819Y-109568619D02*
X101229438Y-109425762D01*
X102181819Y-108997190D02*
X101181819Y-108997190D01*
X101181819Y-108997190D02*
X102181819Y-108425762D01*
X102181819Y-108425762D02*
X101181819Y-108425762D01*
X101181819Y-108044809D02*
X101181819Y-107378143D01*
X101181819Y-107378143D02*
X102181819Y-107806714D01*
X101515152Y-106568619D02*
X102181819Y-106568619D01*
X101134200Y-106806714D02*
X101848485Y-107044809D01*
X101848485Y-107044809D02*
X101848485Y-106425762D01*
X102181819Y-105568619D02*
X102181819Y-106044809D01*
X102181819Y-106044809D02*
X101181819Y-106044809D01*
X101181819Y-105378142D02*
X102181819Y-105044809D01*
X102181819Y-105044809D02*
X101181819Y-104711476D01*
X102086580Y-103806714D02*
X102134200Y-103854333D01*
X102134200Y-103854333D02*
X102181819Y-103997190D01*
X102181819Y-103997190D02*
X102181819Y-104092428D01*
X102181819Y-104092428D02*
X102134200Y-104235285D01*
X102134200Y-104235285D02*
X102038961Y-104330523D01*
X102038961Y-104330523D02*
X101943723Y-104378142D01*
X101943723Y-104378142D02*
X101753247Y-104425761D01*
X101753247Y-104425761D02*
X101610390Y-104425761D01*
X101610390Y-104425761D02*
X101419914Y-104378142D01*
X101419914Y-104378142D02*
X101324676Y-104330523D01*
X101324676Y-104330523D02*
X101229438Y-104235285D01*
X101229438Y-104235285D02*
X101181819Y-104092428D01*
X101181819Y-104092428D02*
X101181819Y-103997190D01*
X101181819Y-103997190D02*
X101229438Y-103854333D01*
X101229438Y-103854333D02*
X101277057Y-103806714D01*
X101277057Y-103425761D02*
X101229438Y-103378142D01*
X101229438Y-103378142D02*
X101181819Y-103282904D01*
X101181819Y-103282904D02*
X101181819Y-103044809D01*
X101181819Y-103044809D02*
X101229438Y-102949571D01*
X101229438Y-102949571D02*
X101277057Y-102901952D01*
X101277057Y-102901952D02*
X101372295Y-102854333D01*
X101372295Y-102854333D02*
X101467533Y-102854333D01*
X101467533Y-102854333D02*
X101610390Y-102901952D01*
X101610390Y-102901952D02*
X102181819Y-103473380D01*
X102181819Y-103473380D02*
X102181819Y-102854333D01*
X101515152Y-101997190D02*
X102181819Y-101997190D01*
X101134200Y-102235285D02*
X101848485Y-102473380D01*
X101848485Y-102473380D02*
X101848485Y-101854333D01*
X101181819Y-100997190D02*
X101181819Y-101473380D01*
X101181819Y-101473380D02*
X101658009Y-101520999D01*
X101658009Y-101520999D02*
X101610390Y-101473380D01*
X101610390Y-101473380D02*
X101562771Y-101378142D01*
X101562771Y-101378142D02*
X101562771Y-101140047D01*
X101562771Y-101140047D02*
X101610390Y-101044809D01*
X101610390Y-101044809D02*
X101658009Y-100997190D01*
X101658009Y-100997190D02*
X101753247Y-100949571D01*
X101753247Y-100949571D02*
X101991342Y-100949571D01*
X101991342Y-100949571D02*
X102086580Y-100997190D01*
X102086580Y-100997190D02*
X102134200Y-101044809D01*
X102134200Y-101044809D02*
X102181819Y-101140047D01*
X102181819Y-101140047D02*
X102181819Y-101378142D01*
X102181819Y-101378142D02*
X102134200Y-101473380D01*
X102134200Y-101473380D02*
X102086580Y-101520999D01*
X101896104Y-100568618D02*
X101896104Y-100092428D01*
X102181819Y-100663856D02*
X101181819Y-100330523D01*
X101181819Y-100330523D02*
X102181819Y-99997190D01*
X102181819Y-99663856D02*
X101181819Y-99663856D01*
X101181819Y-99663856D02*
X102181819Y-99092428D01*
X102181819Y-99092428D02*
X101181819Y-99092428D01*
X146589761Y-126005057D02*
X146494523Y-125957438D01*
X146494523Y-125957438D02*
X146399285Y-125862200D01*
X146399285Y-125862200D02*
X146256428Y-125719342D01*
X146256428Y-125719342D02*
X146161190Y-125671723D01*
X146161190Y-125671723D02*
X146065952Y-125671723D01*
X146113571Y-125909819D02*
X146018333Y-125862200D01*
X146018333Y-125862200D02*
X145923095Y-125766961D01*
X145923095Y-125766961D02*
X145875476Y-125576485D01*
X145875476Y-125576485D02*
X145875476Y-125243152D01*
X145875476Y-125243152D02*
X145923095Y-125052676D01*
X145923095Y-125052676D02*
X146018333Y-124957438D01*
X146018333Y-124957438D02*
X146113571Y-124909819D01*
X146113571Y-124909819D02*
X146304047Y-124909819D01*
X146304047Y-124909819D02*
X146399285Y-124957438D01*
X146399285Y-124957438D02*
X146494523Y-125052676D01*
X146494523Y-125052676D02*
X146542142Y-125243152D01*
X146542142Y-125243152D02*
X146542142Y-125576485D01*
X146542142Y-125576485D02*
X146494523Y-125766961D01*
X146494523Y-125766961D02*
X146399285Y-125862200D01*
X146399285Y-125862200D02*
X146304047Y-125909819D01*
X146304047Y-125909819D02*
X146113571Y-125909819D01*
X147494523Y-125909819D02*
X146923095Y-125909819D01*
X147208809Y-125909819D02*
X147208809Y-124909819D01*
X147208809Y-124909819D02*
X147113571Y-125052676D01*
X147113571Y-125052676D02*
X147018333Y-125147914D01*
X147018333Y-125147914D02*
X146923095Y-125195533D01*
X119041666Y-78404819D02*
X119041666Y-79119104D01*
X119041666Y-79119104D02*
X118994047Y-79261961D01*
X118994047Y-79261961D02*
X118898809Y-79357200D01*
X118898809Y-79357200D02*
X118755952Y-79404819D01*
X118755952Y-79404819D02*
X118660714Y-79404819D01*
X120041666Y-79404819D02*
X119470238Y-79404819D01*
X119755952Y-79404819D02*
X119755952Y-78404819D01*
X119755952Y-78404819D02*
X119660714Y-78547676D01*
X119660714Y-78547676D02*
X119565476Y-78642914D01*
X119565476Y-78642914D02*
X119470238Y-78690533D01*
X142708333Y-117929819D02*
X142375000Y-117453628D01*
X142136905Y-117929819D02*
X142136905Y-116929819D01*
X142136905Y-116929819D02*
X142517857Y-116929819D01*
X142517857Y-116929819D02*
X142613095Y-116977438D01*
X142613095Y-116977438D02*
X142660714Y-117025057D01*
X142660714Y-117025057D02*
X142708333Y-117120295D01*
X142708333Y-117120295D02*
X142708333Y-117263152D01*
X142708333Y-117263152D02*
X142660714Y-117358390D01*
X142660714Y-117358390D02*
X142613095Y-117406009D01*
X142613095Y-117406009D02*
X142517857Y-117453628D01*
X142517857Y-117453628D02*
X142136905Y-117453628D01*
X143041667Y-116929819D02*
X143660714Y-116929819D01*
X143660714Y-116929819D02*
X143327381Y-117310771D01*
X143327381Y-117310771D02*
X143470238Y-117310771D01*
X143470238Y-117310771D02*
X143565476Y-117358390D01*
X143565476Y-117358390D02*
X143613095Y-117406009D01*
X143613095Y-117406009D02*
X143660714Y-117501247D01*
X143660714Y-117501247D02*
X143660714Y-117739342D01*
X143660714Y-117739342D02*
X143613095Y-117834580D01*
X143613095Y-117834580D02*
X143565476Y-117882200D01*
X143565476Y-117882200D02*
X143470238Y-117929819D01*
X143470238Y-117929819D02*
X143184524Y-117929819D01*
X143184524Y-117929819D02*
X143089286Y-117882200D01*
X143089286Y-117882200D02*
X143041667Y-117834580D01*
X150209285Y-117263152D02*
X150209285Y-117929819D01*
X149971190Y-116882200D02*
X149733095Y-117596485D01*
X149733095Y-117596485D02*
X150352142Y-117596485D01*
X150637857Y-116929819D02*
X151304523Y-116929819D01*
X151304523Y-116929819D02*
X150875952Y-117929819D01*
D13*
%TO.C,C6*%
X87095000Y-89635000D02*
X87095000Y-86895000D01*
X87095000Y-89635000D02*
X81855000Y-89635000D01*
X87095000Y-86895000D02*
X81855000Y-86895000D01*
X81855000Y-89635000D02*
X81855000Y-86895000D01*
%TO.C,D2*%
X97720000Y-80645000D02*
X96700000Y-80645000D01*
X96700000Y-82115000D02*
X96700000Y-79175000D01*
X96700000Y-79175000D02*
X91260000Y-79175000D01*
X95920000Y-82115000D02*
X95920000Y-79175000D01*
X95800000Y-82115000D02*
X95800000Y-79175000D01*
X95680000Y-82115000D02*
X95680000Y-79175000D01*
X91260000Y-82115000D02*
X96700000Y-82115000D01*
X91260000Y-79175000D02*
X91260000Y-82115000D01*
X90240000Y-80645000D02*
X91260000Y-80645000D01*
%TO.C,C8*%
X62330000Y-82015000D02*
X62330000Y-79275000D01*
X62330000Y-82015000D02*
X57090000Y-82015000D01*
X62330000Y-79275000D02*
X57090000Y-79275000D01*
X57090000Y-82015000D02*
X57090000Y-79275000D01*
%TO.C,C11*%
X69910000Y-89635000D02*
X69910000Y-86895000D01*
X69910000Y-89635000D02*
X64670000Y-89635000D01*
X69910000Y-86895000D02*
X64670000Y-86895000D01*
X64670000Y-89635000D02*
X64670000Y-86895000D01*
%TO.C,C5*%
X66575000Y-79275000D02*
X66575000Y-82015000D01*
X66575000Y-79275000D02*
X71815000Y-79275000D01*
X66575000Y-82015000D02*
X71815000Y-82015000D01*
X71815000Y-79275000D02*
X71815000Y-82015000D01*
%TO.C,C3*%
X153254875Y-98630000D02*
X152754875Y-98630000D01*
X153004875Y-98880000D02*
X153004875Y-98380000D01*
X150450100Y-99735000D02*
X150450100Y-98195000D01*
X150450100Y-96115000D02*
X150450100Y-94575000D01*
X150410100Y-99735000D02*
X150410100Y-98195000D01*
X150410100Y-96115000D02*
X150410100Y-94575000D01*
X150370100Y-99734000D02*
X150370100Y-98195000D01*
X150370100Y-96115000D02*
X150370100Y-94576000D01*
X150330100Y-99733000D02*
X150330100Y-98195000D01*
X150330100Y-96115000D02*
X150330100Y-94577000D01*
X150290100Y-99731000D02*
X150290100Y-98195000D01*
X150290100Y-96115000D02*
X150290100Y-94579000D01*
X150250100Y-99728000D02*
X150250100Y-98195000D01*
X150250100Y-96115000D02*
X150250100Y-94582000D01*
X150210100Y-99724000D02*
X150210100Y-98195000D01*
X150210100Y-96115000D02*
X150210100Y-94586000D01*
X150170100Y-99720000D02*
X150170100Y-98195000D01*
X150170100Y-96115000D02*
X150170100Y-94590000D01*
X150130100Y-99716000D02*
X150130100Y-98195000D01*
X150130100Y-96115000D02*
X150130100Y-94594000D01*
X150090100Y-99711000D02*
X150090100Y-98195000D01*
X150090100Y-96115000D02*
X150090100Y-94599000D01*
X150050100Y-99705000D02*
X150050100Y-98195000D01*
X150050100Y-96115000D02*
X150050100Y-94605000D01*
X150010100Y-99698000D02*
X150010100Y-98195000D01*
X150010100Y-96115000D02*
X150010100Y-94612000D01*
X149970100Y-99691000D02*
X149970100Y-98195000D01*
X149970100Y-96115000D02*
X149970100Y-94619000D01*
X149930100Y-99683000D02*
X149930100Y-98195000D01*
X149930100Y-96115000D02*
X149930100Y-94627000D01*
X149890100Y-99675000D02*
X149890100Y-98195000D01*
X149890100Y-96115000D02*
X149890100Y-94635000D01*
X149850100Y-99666000D02*
X149850100Y-98195000D01*
X149850100Y-96115000D02*
X149850100Y-94644000D01*
X149810100Y-99656000D02*
X149810100Y-98195000D01*
X149810100Y-96115000D02*
X149810100Y-94654000D01*
X149770100Y-99646000D02*
X149770100Y-98195000D01*
X149770100Y-96115000D02*
X149770100Y-94664000D01*
X149729100Y-99635000D02*
X149729100Y-98195000D01*
X149729100Y-96115000D02*
X149729100Y-94675000D01*
X149689100Y-99623000D02*
X149689100Y-98195000D01*
X149689100Y-96115000D02*
X149689100Y-94687000D01*
X149649100Y-99610000D02*
X149649100Y-98195000D01*
X149649100Y-96115000D02*
X149649100Y-94700000D01*
X149609100Y-99597000D02*
X149609100Y-98195000D01*
X149609100Y-96115000D02*
X149609100Y-94713000D01*
X149569100Y-99583000D02*
X149569100Y-98195000D01*
X149569100Y-96115000D02*
X149569100Y-94727000D01*
X149529100Y-99569000D02*
X149529100Y-98195000D01*
X149529100Y-96115000D02*
X149529100Y-94741000D01*
X149489100Y-99553000D02*
X149489100Y-98195000D01*
X149489100Y-96115000D02*
X149489100Y-94757000D01*
X149449100Y-99537000D02*
X149449100Y-98195000D01*
X149449100Y-96115000D02*
X149449100Y-94773000D01*
X149409100Y-99520000D02*
X149409100Y-98195000D01*
X149409100Y-96115000D02*
X149409100Y-94790000D01*
X149369100Y-99503000D02*
X149369100Y-98195000D01*
X149369100Y-96115000D02*
X149369100Y-94807000D01*
X149329100Y-99484000D02*
X149329100Y-98195000D01*
X149329100Y-96115000D02*
X149329100Y-94826000D01*
X149289100Y-99465000D02*
X149289100Y-98195000D01*
X149289100Y-96115000D02*
X149289100Y-94845000D01*
X149249100Y-99445000D02*
X149249100Y-98195000D01*
X149249100Y-96115000D02*
X149249100Y-94865000D01*
X149209100Y-99423000D02*
X149209100Y-98195000D01*
X149209100Y-96115000D02*
X149209100Y-94887000D01*
X149169100Y-99402000D02*
X149169100Y-98195000D01*
X149169100Y-96115000D02*
X149169100Y-94908000D01*
X149129100Y-99379000D02*
X149129100Y-98195000D01*
X149129100Y-96115000D02*
X149129100Y-94931000D01*
X149089100Y-99355000D02*
X149089100Y-98195000D01*
X149089100Y-96115000D02*
X149089100Y-94955000D01*
X149049100Y-99330000D02*
X149049100Y-98195000D01*
X149049100Y-96115000D02*
X149049100Y-94980000D01*
X149009100Y-99304000D02*
X149009100Y-98195000D01*
X149009100Y-96115000D02*
X149009100Y-95006000D01*
X148969100Y-99277000D02*
X148969100Y-98195000D01*
X148969100Y-96115000D02*
X148969100Y-95033000D01*
X148929100Y-99250000D02*
X148929100Y-98195000D01*
X148929100Y-96115000D02*
X148929100Y-95060000D01*
X148889100Y-99220000D02*
X148889100Y-98195000D01*
X148889100Y-96115000D02*
X148889100Y-95090000D01*
X148849100Y-99190000D02*
X148849100Y-98195000D01*
X148849100Y-96115000D02*
X148849100Y-95120000D01*
X148809100Y-99159000D02*
X148809100Y-98195000D01*
X148809100Y-96115000D02*
X148809100Y-95151000D01*
X148769100Y-99126000D02*
X148769100Y-98195000D01*
X148769100Y-96115000D02*
X148769100Y-95184000D01*
X148729100Y-99092000D02*
X148729100Y-98195000D01*
X148729100Y-96115000D02*
X148729100Y-95218000D01*
X148689100Y-99056000D02*
X148689100Y-98195000D01*
X148689100Y-96115000D02*
X148689100Y-95254000D01*
X148649100Y-99019000D02*
X148649100Y-98195000D01*
X148649100Y-96115000D02*
X148649100Y-95291000D01*
X148609100Y-98981000D02*
X148609100Y-98195000D01*
X148609100Y-96115000D02*
X148609100Y-95329000D01*
X148569100Y-98940000D02*
X148569100Y-98195000D01*
X148569100Y-96115000D02*
X148569100Y-95370000D01*
X148529100Y-98898000D02*
X148529100Y-98195000D01*
X148529100Y-96115000D02*
X148529100Y-95412000D01*
X148489100Y-98854000D02*
X148489100Y-98195000D01*
X148489100Y-96115000D02*
X148489100Y-95456000D01*
X148449100Y-98808000D02*
X148449100Y-98195000D01*
X148449100Y-96115000D02*
X148449100Y-95502000D01*
X148409100Y-98760000D02*
X148409100Y-95550000D01*
X148369100Y-98709000D02*
X148369100Y-95601000D01*
X148329100Y-98655000D02*
X148329100Y-95655000D01*
X148289100Y-98598000D02*
X148289100Y-95712000D01*
X148249100Y-98538000D02*
X148249100Y-95772000D01*
X148209100Y-98474000D02*
X148209100Y-95836000D01*
X148169100Y-98406000D02*
X148169100Y-95904000D01*
X148129100Y-98333000D02*
X148129100Y-95977000D01*
X148089100Y-98253000D02*
X148089100Y-96057000D01*
X148049100Y-98166000D02*
X148049100Y-96144000D01*
X148009100Y-98070000D02*
X148009100Y-96240000D01*
X147969100Y-97960000D02*
X147969100Y-96350000D01*
X147929100Y-97832000D02*
X147929100Y-96478000D01*
X147889100Y-97673000D02*
X147889100Y-96637000D01*
X147849100Y-97439000D02*
X147849100Y-96871000D01*
X153070100Y-97155000D02*
G75*
G03*
X153070100Y-97155000I-2620000J0D01*
G01*
%TO.C,C1*%
X153254875Y-111330000D02*
X152754875Y-111330000D01*
X153004875Y-111580000D02*
X153004875Y-111080000D01*
X150450100Y-112435000D02*
X150450100Y-110895000D01*
X150450100Y-108815000D02*
X150450100Y-107275000D01*
X150410100Y-112435000D02*
X150410100Y-110895000D01*
X150410100Y-108815000D02*
X150410100Y-107275000D01*
X150370100Y-112434000D02*
X150370100Y-110895000D01*
X150370100Y-108815000D02*
X150370100Y-107276000D01*
X150330100Y-112433000D02*
X150330100Y-110895000D01*
X150330100Y-108815000D02*
X150330100Y-107277000D01*
X150290100Y-112431000D02*
X150290100Y-110895000D01*
X150290100Y-108815000D02*
X150290100Y-107279000D01*
X150250100Y-112428000D02*
X150250100Y-110895000D01*
X150250100Y-108815000D02*
X150250100Y-107282000D01*
X150210100Y-112424000D02*
X150210100Y-110895000D01*
X150210100Y-108815000D02*
X150210100Y-107286000D01*
X150170100Y-112420000D02*
X150170100Y-110895000D01*
X150170100Y-108815000D02*
X150170100Y-107290000D01*
X150130100Y-112416000D02*
X150130100Y-110895000D01*
X150130100Y-108815000D02*
X150130100Y-107294000D01*
X150090100Y-112411000D02*
X150090100Y-110895000D01*
X150090100Y-108815000D02*
X150090100Y-107299000D01*
X150050100Y-112405000D02*
X150050100Y-110895000D01*
X150050100Y-108815000D02*
X150050100Y-107305000D01*
X150010100Y-112398000D02*
X150010100Y-110895000D01*
X150010100Y-108815000D02*
X150010100Y-107312000D01*
X149970100Y-112391000D02*
X149970100Y-110895000D01*
X149970100Y-108815000D02*
X149970100Y-107319000D01*
X149930100Y-112383000D02*
X149930100Y-110895000D01*
X149930100Y-108815000D02*
X149930100Y-107327000D01*
X149890100Y-112375000D02*
X149890100Y-110895000D01*
X149890100Y-108815000D02*
X149890100Y-107335000D01*
X149850100Y-112366000D02*
X149850100Y-110895000D01*
X149850100Y-108815000D02*
X149850100Y-107344000D01*
X149810100Y-112356000D02*
X149810100Y-110895000D01*
X149810100Y-108815000D02*
X149810100Y-107354000D01*
X149770100Y-112346000D02*
X149770100Y-110895000D01*
X149770100Y-108815000D02*
X149770100Y-107364000D01*
X149729100Y-112335000D02*
X149729100Y-110895000D01*
X149729100Y-108815000D02*
X149729100Y-107375000D01*
X149689100Y-112323000D02*
X149689100Y-110895000D01*
X149689100Y-108815000D02*
X149689100Y-107387000D01*
X149649100Y-112310000D02*
X149649100Y-110895000D01*
X149649100Y-108815000D02*
X149649100Y-107400000D01*
X149609100Y-112297000D02*
X149609100Y-110895000D01*
X149609100Y-108815000D02*
X149609100Y-107413000D01*
X149569100Y-112283000D02*
X149569100Y-110895000D01*
X149569100Y-108815000D02*
X149569100Y-107427000D01*
X149529100Y-112269000D02*
X149529100Y-110895000D01*
X149529100Y-108815000D02*
X149529100Y-107441000D01*
X149489100Y-112253000D02*
X149489100Y-110895000D01*
X149489100Y-108815000D02*
X149489100Y-107457000D01*
X149449100Y-112237000D02*
X149449100Y-110895000D01*
X149449100Y-108815000D02*
X149449100Y-107473000D01*
X149409100Y-112220000D02*
X149409100Y-110895000D01*
X149409100Y-108815000D02*
X149409100Y-107490000D01*
X149369100Y-112203000D02*
X149369100Y-110895000D01*
X149369100Y-108815000D02*
X149369100Y-107507000D01*
X149329100Y-112184000D02*
X149329100Y-110895000D01*
X149329100Y-108815000D02*
X149329100Y-107526000D01*
X149289100Y-112165000D02*
X149289100Y-110895000D01*
X149289100Y-108815000D02*
X149289100Y-107545000D01*
X149249100Y-112145000D02*
X149249100Y-110895000D01*
X149249100Y-108815000D02*
X149249100Y-107565000D01*
X149209100Y-112123000D02*
X149209100Y-110895000D01*
X149209100Y-108815000D02*
X149209100Y-107587000D01*
X149169100Y-112102000D02*
X149169100Y-110895000D01*
X149169100Y-108815000D02*
X149169100Y-107608000D01*
X149129100Y-112079000D02*
X149129100Y-110895000D01*
X149129100Y-108815000D02*
X149129100Y-107631000D01*
X149089100Y-112055000D02*
X149089100Y-110895000D01*
X149089100Y-108815000D02*
X149089100Y-107655000D01*
X149049100Y-112030000D02*
X149049100Y-110895000D01*
X149049100Y-108815000D02*
X149049100Y-107680000D01*
X149009100Y-112004000D02*
X149009100Y-110895000D01*
X149009100Y-108815000D02*
X149009100Y-107706000D01*
X148969100Y-111977000D02*
X148969100Y-110895000D01*
X148969100Y-108815000D02*
X148969100Y-107733000D01*
X148929100Y-111950000D02*
X148929100Y-110895000D01*
X148929100Y-108815000D02*
X148929100Y-107760000D01*
X148889100Y-111920000D02*
X148889100Y-110895000D01*
X148889100Y-108815000D02*
X148889100Y-107790000D01*
X148849100Y-111890000D02*
X148849100Y-110895000D01*
X148849100Y-108815000D02*
X148849100Y-107820000D01*
X148809100Y-111859000D02*
X148809100Y-110895000D01*
X148809100Y-108815000D02*
X148809100Y-107851000D01*
X148769100Y-111826000D02*
X148769100Y-110895000D01*
X148769100Y-108815000D02*
X148769100Y-107884000D01*
X148729100Y-111792000D02*
X148729100Y-110895000D01*
X148729100Y-108815000D02*
X148729100Y-107918000D01*
X148689100Y-111756000D02*
X148689100Y-110895000D01*
X148689100Y-108815000D02*
X148689100Y-107954000D01*
X148649100Y-111719000D02*
X148649100Y-110895000D01*
X148649100Y-108815000D02*
X148649100Y-107991000D01*
X148609100Y-111681000D02*
X148609100Y-110895000D01*
X148609100Y-108815000D02*
X148609100Y-108029000D01*
X148569100Y-111640000D02*
X148569100Y-110895000D01*
X148569100Y-108815000D02*
X148569100Y-108070000D01*
X148529100Y-111598000D02*
X148529100Y-110895000D01*
X148529100Y-108815000D02*
X148529100Y-108112000D01*
X148489100Y-111554000D02*
X148489100Y-110895000D01*
X148489100Y-108815000D02*
X148489100Y-108156000D01*
X148449100Y-111508000D02*
X148449100Y-110895000D01*
X148449100Y-108815000D02*
X148449100Y-108202000D01*
X148409100Y-111460000D02*
X148409100Y-108250000D01*
X148369100Y-111409000D02*
X148369100Y-108301000D01*
X148329100Y-111355000D02*
X148329100Y-108355000D01*
X148289100Y-111298000D02*
X148289100Y-108412000D01*
X148249100Y-111238000D02*
X148249100Y-108472000D01*
X148209100Y-111174000D02*
X148209100Y-108536000D01*
X148169100Y-111106000D02*
X148169100Y-108604000D01*
X148129100Y-111033000D02*
X148129100Y-108677000D01*
X148089100Y-110953000D02*
X148089100Y-108757000D01*
X148049100Y-110866000D02*
X148049100Y-108844000D01*
X148009100Y-110770000D02*
X148009100Y-108940000D01*
X147969100Y-110660000D02*
X147969100Y-109050000D01*
X147929100Y-110532000D02*
X147929100Y-109178000D01*
X147889100Y-110373000D02*
X147889100Y-109337000D01*
X147849100Y-110139000D02*
X147849100Y-109571000D01*
X153070100Y-109855000D02*
G75*
G03*
X153070100Y-109855000I-2620000J0D01*
G01*
%TO.C,U1*%
X82205000Y-92015000D02*
X82205000Y-117535000D01*
X82205000Y-117535000D02*
X86705000Y-117535000D01*
X83455000Y-92015000D02*
X82205000Y-92015000D01*
X86705000Y-92015000D02*
X85455000Y-92015000D01*
X86705000Y-117535000D02*
X86705000Y-92015000D01*
X83455000Y-92015000D02*
G75*
G03*
X85455000Y-92015000I1000000J0D01*
G01*
%TO.C,J3*%
X70425000Y-121860000D02*
X71755000Y-121860000D01*
X70425000Y-123190000D02*
X70425000Y-121860000D01*
X70425000Y-124460000D02*
X70425000Y-124520000D01*
X70425000Y-124460000D02*
X73025000Y-124460000D01*
X70425000Y-124520000D02*
X75625000Y-124520000D01*
X73025000Y-121860000D02*
X75625000Y-121860000D01*
X73025000Y-124460000D02*
X73025000Y-121860000D01*
X75625000Y-121860000D02*
X75625000Y-124520000D01*
%TO.C,R1*%
X129310000Y-81280000D02*
X130080000Y-81280000D01*
X130080000Y-79910000D02*
X130080000Y-82650000D01*
X130080000Y-82650000D02*
X136620000Y-82650000D01*
X136620000Y-79910000D02*
X130080000Y-79910000D01*
X136620000Y-82650000D02*
X136620000Y-79910000D01*
X137390000Y-81280000D02*
X136620000Y-81280000D01*
%TO.C,J2*%
X149455000Y-78410000D02*
X151355000Y-78410000D01*
X149455000Y-92650000D02*
X149455000Y-78410000D01*
X151355000Y-74410000D02*
X157595000Y-74410000D01*
X151355000Y-78410000D02*
X151355000Y-74410000D01*
X157595000Y-74410000D02*
X157595000Y-78410000D01*
X157595000Y-78410000D02*
X157895000Y-78410000D01*
X157895000Y-78410000D02*
X157895000Y-92650000D01*
X157895000Y-92650000D02*
X149455000Y-92650000D01*
%TO.C,R2*%
X146455000Y-104775000D02*
X147225000Y-104775000D01*
X147225000Y-103405000D02*
X147225000Y-106145000D01*
X147225000Y-106145000D02*
X153765000Y-106145000D01*
X153765000Y-103405000D02*
X147225000Y-103405000D01*
X153765000Y-106145000D02*
X153765000Y-103405000D01*
X154535000Y-104775000D02*
X153765000Y-104775000D01*
%TO.C,U6*%
X117130000Y-92015000D02*
X117130000Y-117535000D01*
X117130000Y-117535000D02*
X121630000Y-117535000D01*
X118380000Y-92015000D02*
X117130000Y-92015000D01*
X121630000Y-92015000D02*
X120380000Y-92015000D01*
X121630000Y-117535000D02*
X121630000Y-92015000D01*
X118380000Y-92015000D02*
G75*
G03*
X120380000Y-92015000I1000000J0D01*
G01*
%TO.C,R4*%
X154535000Y-120650000D02*
X153765000Y-120650000D01*
X153765000Y-122020000D02*
X153765000Y-119280000D01*
X153765000Y-119280000D02*
X147225000Y-119280000D01*
X147225000Y-122020000D02*
X153765000Y-122020000D01*
X147225000Y-119280000D02*
X147225000Y-122020000D01*
X146455000Y-120650000D02*
X147225000Y-120650000D01*
%TO.C,C2*%
X153135000Y-102970000D02*
X153135000Y-100230000D01*
X153135000Y-102970000D02*
X147895000Y-102970000D01*
X153135000Y-100230000D02*
X147895000Y-100230000D01*
X147895000Y-102970000D02*
X147895000Y-100230000D01*
%TO.C,U2*%
X134275000Y-92015000D02*
X134275000Y-117535000D01*
X134275000Y-117535000D02*
X138775000Y-117535000D01*
X135525000Y-92015000D02*
X134275000Y-92015000D01*
X138775000Y-92015000D02*
X137525000Y-92015000D01*
X138775000Y-117535000D02*
X138775000Y-92015000D01*
X135525000Y-92015000D02*
G75*
G03*
X137525000Y-92015000I1000000J0D01*
G01*
D12*
%TO.C,U5*%
X107315000Y-53340000D02*
X56515000Y-53340000D01*
X56515000Y-53340000D02*
X56515000Y-77470000D01*
X107315000Y-57150000D02*
X56515000Y-57150000D01*
X107315000Y-73660000D02*
X56515000Y-73660000D01*
X107315000Y-77470000D02*
X107315000Y-53340000D01*
X56515000Y-77470000D02*
X107315000Y-77470000D01*
D13*
%TO.C,C7*%
X104240000Y-89635000D02*
X104240000Y-86895000D01*
X104240000Y-89635000D02*
X99000000Y-89635000D01*
X104240000Y-86895000D02*
X99000000Y-86895000D01*
X99000000Y-89635000D02*
X99000000Y-86895000D01*
%TO.C,C10*%
X122020000Y-89635000D02*
X122020000Y-86895000D01*
X122020000Y-89635000D02*
X116780000Y-89635000D01*
X122020000Y-86895000D02*
X116780000Y-86895000D01*
X116780000Y-89635000D02*
X116780000Y-86895000D01*
%TO.C,C9*%
X139165000Y-89635000D02*
X139165000Y-86895000D01*
X139165000Y-89635000D02*
X133925000Y-89635000D01*
X139165000Y-86895000D02*
X133925000Y-86895000D01*
X133925000Y-89635000D02*
X133925000Y-86895000D01*
%TO.C,D1*%
X143220000Y-80044000D02*
X143220000Y-80200000D01*
X143220000Y-82360000D02*
X143220000Y-82516000D01*
X146452334Y-80201392D02*
G75*
G03*
X143220001Y-80044485I-1672334J-1078608D01*
G01*
X145821129Y-80200164D02*
G75*
G03*
X143739040Y-80200001I-1041129J-1079836D01*
G01*
X143739040Y-82359999D02*
G75*
G03*
X145821129Y-82359836I1040960J1079999D01*
G01*
X143220001Y-82515515D02*
G75*
G03*
X146452334Y-82358608I1559999J1235515D01*
G01*
%TO.C,C12*%
X107395000Y-82015000D02*
X107395000Y-79275000D01*
X107395000Y-82015000D02*
X102155000Y-82015000D01*
X107395000Y-79275000D02*
X102155000Y-79275000D01*
X102155000Y-82015000D02*
X102155000Y-79275000D01*
%TO.C,U4*%
X65060000Y-92015000D02*
X65060000Y-117535000D01*
X65060000Y-117535000D02*
X69560000Y-117535000D01*
X66310000Y-92015000D02*
X65060000Y-92015000D01*
X69560000Y-92015000D02*
X68310000Y-92015000D01*
X69560000Y-117535000D02*
X69560000Y-92015000D01*
X66310000Y-92015000D02*
G75*
G03*
X68310000Y-92015000I1000000J0D01*
G01*
%TO.C,C4*%
X153115000Y-115670000D02*
X153115000Y-112930000D01*
X153115000Y-115670000D02*
X147875000Y-115670000D01*
X153115000Y-112930000D02*
X147875000Y-112930000D01*
X147875000Y-115670000D02*
X147875000Y-112930000D01*
%TO.C,U3*%
X99350000Y-92015000D02*
X99350000Y-117535000D01*
X99350000Y-117535000D02*
X103850000Y-117535000D01*
X100600000Y-92015000D02*
X99350000Y-92015000D01*
X103850000Y-92015000D02*
X102600000Y-92015000D01*
X103850000Y-117535000D02*
X103850000Y-92015000D01*
X100600000Y-92015000D02*
G75*
G03*
X102600000Y-92015000I1000000J0D01*
G01*
%TO.C,Q1*%
X148695000Y-127305000D02*
X152295000Y-127305000D01*
X150495000Y-122855000D02*
G75*
G03*
X148656522Y-127293478I0J-2600000D01*
G01*
X152333478Y-127293478D02*
G75*
G03*
X150495000Y-122855000I-1838478J1838478D01*
G01*
%TO.C,J1*%
X116775000Y-79950000D02*
X118105000Y-79950000D01*
X116775000Y-81280000D02*
X116775000Y-79950000D01*
X116775000Y-82550000D02*
X116775000Y-82610000D01*
X116775000Y-82550000D02*
X119375000Y-82550000D01*
X116775000Y-82610000D02*
X121975000Y-82610000D01*
X119375000Y-79950000D02*
X121975000Y-79950000D01*
X119375000Y-82550000D02*
X119375000Y-79950000D01*
X121975000Y-79950000D02*
X121975000Y-82610000D01*
%TO.C,R3*%
X146455000Y-117475000D02*
X147225000Y-117475000D01*
X147225000Y-116105000D02*
X147225000Y-118845000D01*
X147225000Y-118845000D02*
X153765000Y-118845000D01*
X153765000Y-116105000D02*
X147225000Y-116105000D01*
X153765000Y-118845000D02*
X153765000Y-116105000D01*
X154535000Y-117475000D02*
X153765000Y-117475000D01*
%TD*%
%LPC*%
D14*
%TO.C,C6*%
X85725000Y-88265000D03*
X83225000Y-88265000D03*
%TD*%
D15*
%TO.C,D2*%
X99060000Y-80645000D03*
D16*
X88900000Y-80645000D03*
%TD*%
D14*
%TO.C,C8*%
X60960000Y-80645000D03*
X58460000Y-80645000D03*
%TD*%
%TO.C,C11*%
X68540000Y-88265000D03*
X66040000Y-88265000D03*
%TD*%
%TO.C,C5*%
X67945000Y-80645000D03*
X70445000Y-80645000D03*
%TD*%
D17*
%TO.C,C3*%
X151450100Y-97155000D03*
D14*
X149450100Y-97155000D03*
%TD*%
D17*
%TO.C,C1*%
X151450100Y-109855000D03*
D14*
X149450100Y-109855000D03*
%TD*%
D18*
%TO.C,U1*%
X80645000Y-93345000D03*
D19*
X80645000Y-95885000D03*
X80645000Y-98425000D03*
X80645000Y-100965000D03*
X80645000Y-103505000D03*
X80645000Y-106045000D03*
X80645000Y-108585000D03*
X80645000Y-111125000D03*
X80645000Y-113665000D03*
X80645000Y-116205000D03*
X88265000Y-116205000D03*
X88265000Y-113665000D03*
X88265000Y-111125000D03*
X88265000Y-108585000D03*
X88265000Y-106045000D03*
X88265000Y-103505000D03*
X88265000Y-100965000D03*
X88265000Y-98425000D03*
X88265000Y-95885000D03*
X88265000Y-93345000D03*
%TD*%
D20*
%TO.C,J3*%
X71755000Y-123190000D03*
D21*
X74295000Y-123190000D03*
%TD*%
D14*
%TO.C,R1*%
X128270000Y-81280000D03*
D22*
X138430000Y-81280000D03*
%TD*%
D23*
%TO.C,J2*%
X155575000Y-87630000D03*
X153575000Y-79730000D03*
X155575000Y-82130000D03*
%TD*%
D24*
%TO.C,CON1*%
X83660000Y-122465000D03*
X139860000Y-127565000D03*
D25*
X142240000Y-139700000D03*
X139700000Y-139700000D03*
X137160000Y-139700000D03*
X134620000Y-139700000D03*
X132080000Y-139700000D03*
X129540000Y-139700000D03*
X127000000Y-139700000D03*
X124460000Y-139700000D03*
X121920000Y-139700000D03*
X119380000Y-139700000D03*
X116840000Y-139700000D03*
X114300000Y-139700000D03*
X111760000Y-139700000D03*
X109220000Y-139700000D03*
X106680000Y-139700000D03*
X104140000Y-139700000D03*
X101600000Y-139700000D03*
X99060000Y-139700000D03*
X96520000Y-139700000D03*
X93980000Y-139700000D03*
X91440000Y-139700000D03*
X88900000Y-138430000D03*
X86360000Y-139700000D03*
X83820000Y-139700000D03*
X81280000Y-139700000D03*
%TD*%
D14*
%TO.C,R2*%
X145415000Y-104775000D03*
D22*
X155575000Y-104775000D03*
%TD*%
D18*
%TO.C,U6*%
X115570000Y-93345000D03*
D19*
X115570000Y-95885000D03*
X115570000Y-98425000D03*
X115570000Y-100965000D03*
X115570000Y-103505000D03*
X115570000Y-106045000D03*
X115570000Y-108585000D03*
X115570000Y-111125000D03*
X115570000Y-113665000D03*
X115570000Y-116205000D03*
X123190000Y-116205000D03*
X123190000Y-113665000D03*
X123190000Y-111125000D03*
X123190000Y-108585000D03*
X123190000Y-106045000D03*
X123190000Y-103505000D03*
X123190000Y-100965000D03*
X123190000Y-98425000D03*
X123190000Y-95885000D03*
X123190000Y-93345000D03*
%TD*%
D14*
%TO.C,R4*%
X155575000Y-120650000D03*
D22*
X145415000Y-120650000D03*
%TD*%
D14*
%TO.C,C2*%
X151765000Y-101600000D03*
X149265000Y-101600000D03*
%TD*%
D18*
%TO.C,U2*%
X132715000Y-93345000D03*
D19*
X132715000Y-95885000D03*
X132715000Y-98425000D03*
X132715000Y-100965000D03*
X132715000Y-103505000D03*
X132715000Y-106045000D03*
X132715000Y-108585000D03*
X132715000Y-111125000D03*
X132715000Y-113665000D03*
X132715000Y-116205000D03*
X140335000Y-116205000D03*
X140335000Y-113665000D03*
X140335000Y-111125000D03*
X140335000Y-108585000D03*
X140335000Y-106045000D03*
X140335000Y-103505000D03*
X140335000Y-100965000D03*
X140335000Y-98425000D03*
X140335000Y-95885000D03*
X140335000Y-93345000D03*
%TD*%
D26*
%TO.C,U5*%
X106045000Y-55245000D03*
D27*
X103505000Y-55245000D03*
X100965000Y-55245000D03*
X98425000Y-55245000D03*
X95885000Y-55245000D03*
X93345000Y-55245000D03*
X90805000Y-55245000D03*
X88265000Y-55245000D03*
X85725000Y-55245000D03*
X83185000Y-55245000D03*
X80645000Y-55245000D03*
X78105000Y-55245000D03*
X75565000Y-55245000D03*
X73025000Y-55245000D03*
X70485000Y-55245000D03*
X67945000Y-55245000D03*
X65405000Y-55245000D03*
X62865000Y-55245000D03*
X60325000Y-55245000D03*
X57785000Y-55245000D03*
X57785000Y-75565000D03*
X60325000Y-75565000D03*
X62865000Y-75565000D03*
X65405000Y-75565000D03*
X67945000Y-75565000D03*
X70485000Y-75565000D03*
X73025000Y-75565000D03*
X75565000Y-75565000D03*
X78105000Y-75565000D03*
X80645000Y-75565000D03*
X83185000Y-75565000D03*
X85725000Y-75565000D03*
X88265000Y-75565000D03*
X90805000Y-75565000D03*
X93345000Y-75565000D03*
X95885000Y-75565000D03*
X98425000Y-75565000D03*
X100965000Y-75565000D03*
X103505000Y-75565000D03*
X106045000Y-75565000D03*
%TD*%
D14*
%TO.C,C7*%
X102870000Y-88265000D03*
X100370000Y-88265000D03*
%TD*%
%TO.C,C10*%
X120650000Y-88265000D03*
X118150000Y-88265000D03*
%TD*%
%TO.C,C9*%
X137795000Y-88265000D03*
X135295000Y-88265000D03*
%TD*%
D28*
%TO.C,D1*%
X143510000Y-81280000D03*
D29*
X146050000Y-81280000D03*
%TD*%
D14*
%TO.C,C12*%
X106025000Y-80645000D03*
X103525000Y-80645000D03*
%TD*%
D18*
%TO.C,U4*%
X63500000Y-93345000D03*
D19*
X63500000Y-95885000D03*
X63500000Y-98425000D03*
X63500000Y-100965000D03*
X63500000Y-103505000D03*
X63500000Y-106045000D03*
X63500000Y-108585000D03*
X63500000Y-111125000D03*
X63500000Y-113665000D03*
X63500000Y-116205000D03*
X71120000Y-116205000D03*
X71120000Y-113665000D03*
X71120000Y-111125000D03*
X71120000Y-108585000D03*
X71120000Y-106045000D03*
X71120000Y-103505000D03*
X71120000Y-100965000D03*
X71120000Y-98425000D03*
X71120000Y-95885000D03*
X71120000Y-93345000D03*
%TD*%
D14*
%TO.C,C4*%
X151745000Y-114300000D03*
X149245000Y-114300000D03*
%TD*%
D18*
%TO.C,U3*%
X97790000Y-93345000D03*
D19*
X97790000Y-95885000D03*
X97790000Y-98425000D03*
X97790000Y-100965000D03*
X97790000Y-103505000D03*
X97790000Y-106045000D03*
X97790000Y-108585000D03*
X97790000Y-111125000D03*
X97790000Y-113665000D03*
X97790000Y-116205000D03*
X105410000Y-116205000D03*
X105410000Y-113665000D03*
X105410000Y-111125000D03*
X105410000Y-108585000D03*
X105410000Y-106045000D03*
X105410000Y-103505000D03*
X105410000Y-100965000D03*
X105410000Y-98425000D03*
X105410000Y-95885000D03*
X105410000Y-93345000D03*
%TD*%
D30*
%TO.C,Q1*%
X149225000Y-125455000D03*
D31*
X150495000Y-125455000D03*
X151765000Y-125455000D03*
%TD*%
D20*
%TO.C,J1*%
X118105000Y-81280000D03*
D21*
X120645000Y-81280000D03*
%TD*%
D14*
%TO.C,R3*%
X145415000Y-117475000D03*
D22*
X155575000Y-117475000D03*
%TD*%
%LPD*%
M02*
