%TF.GenerationSoftware,KiCad,Pcbnew,7.0.7*%
%TF.CreationDate,2024-05-25T22:43:48-07:00*%
%TF.ProjectId,WonrderTANG,576f6e72-6465-4725-9441-4e472e6b6963,rev?*%
%TF.SameCoordinates,Original*%
%TF.FileFunction,Copper,L1,Top*%
%TF.FilePolarity,Positive*%
%FSLAX46Y46*%
G04 Gerber Fmt 4.6, Leading zero omitted, Abs format (unit mm)*
G04 Created by KiCad (PCBNEW 7.0.7) date 2024-05-25 22:43:48*
%MOMM*%
%LPD*%
G01*
G04 APERTURE LIST*
%TA.AperFunction,ComponentPad*%
%ADD10C,1.600000*%
%TD*%
%TA.AperFunction,ComponentPad*%
%ADD11R,2.200000X2.200000*%
%TD*%
%TA.AperFunction,ComponentPad*%
%ADD12O,2.200000X2.200000*%
%TD*%
%TA.AperFunction,ComponentPad*%
%ADD13R,1.600000X1.600000*%
%TD*%
%TA.AperFunction,ComponentPad*%
%ADD14R,2.400000X1.600000*%
%TD*%
%TA.AperFunction,ComponentPad*%
%ADD15O,2.400000X1.600000*%
%TD*%
%TA.AperFunction,ComponentPad*%
%ADD16O,1.600000X1.600000*%
%TD*%
%TA.AperFunction,ComponentPad*%
%ADD17R,1.700000X1.700000*%
%TD*%
%TA.AperFunction,ComponentPad*%
%ADD18O,1.700000X1.700000*%
%TD*%
%TA.AperFunction,ComponentPad*%
%ADD19O,2.800000X1.800000*%
%TD*%
%TA.AperFunction,ConnectorPad*%
%ADD20R,1.270000X7.620000*%
%TD*%
%TA.AperFunction,ComponentPad*%
%ADD21R,1.500000X1.050000*%
%TD*%
%TA.AperFunction,ComponentPad*%
%ADD22O,1.500000X1.050000*%
%TD*%
%TA.AperFunction,ComponentPad*%
%ADD23R,1.600000X2.400000*%
%TD*%
%TA.AperFunction,ComponentPad*%
%ADD24O,1.600000X2.400000*%
%TD*%
%TA.AperFunction,ComponentPad*%
%ADD25R,1.800000X1.800000*%
%TD*%
%TA.AperFunction,ComponentPad*%
%ADD26C,1.800000*%
%TD*%
%TA.AperFunction,ViaPad*%
%ADD27C,0.787400*%
%TD*%
%TA.AperFunction,Conductor*%
%ADD28C,0.203200*%
%TD*%
%TA.AperFunction,Conductor*%
%ADD29C,0.304800*%
%TD*%
G04 APERTURE END LIST*
D10*
%TO.P,C6,1*%
%TO.N,+3.3V*%
X85725000Y-88265000D03*
%TO.P,C6,2*%
%TO.N,GND*%
X83225000Y-88265000D03*
%TD*%
D11*
%TO.P,D2,1,K*%
%TO.N,+5V*%
X99060000Y-80645000D03*
D12*
%TO.P,D2,2,A*%
%TO.N,/CART_5V*%
X88900000Y-80645000D03*
%TD*%
D10*
%TO.P,C8,1*%
%TO.N,+3.3V*%
X60960000Y-80645000D03*
%TO.P,C8,2*%
%TO.N,GND*%
X58460000Y-80645000D03*
%TD*%
%TO.P,C11,1*%
%TO.N,+3.3V*%
X68540000Y-88265000D03*
%TO.P,C11,2*%
%TO.N,GND*%
X66040000Y-88265000D03*
%TD*%
%TO.P,C5,1*%
%TO.N,+3.3V*%
X67945000Y-80645000D03*
%TO.P,C5,2*%
%TO.N,GND*%
X70445000Y-80645000D03*
%TD*%
D13*
%TO.P,C3,1*%
%TO.N,Net-(C3-Pad1)*%
X148590000Y-107136000D03*
D10*
%TO.P,C3,2*%
%TO.N,Net-(J3-Pin_1)*%
X148590000Y-105136000D03*
%TD*%
D13*
%TO.P,C1,1*%
%TO.N,Net-(C1-Pad1)*%
X148590000Y-97250000D03*
D10*
%TO.P,C1,2*%
%TO.N,Net-(C1-Pad2)*%
X148590000Y-95250000D03*
%TD*%
D14*
%TO.P,U1,1,A->B*%
%TO.N,+3.3V*%
X80645000Y-93345000D03*
D15*
%TO.P,U1,2,A0*%
%TO.N,A0*%
X80645000Y-95885000D03*
%TO.P,U1,3,A1*%
%TO.N,A1*%
X80645000Y-98425000D03*
%TO.P,U1,4,A2*%
%TO.N,A2*%
X80645000Y-100965000D03*
%TO.P,U1,5,A3*%
%TO.N,A3*%
X80645000Y-103505000D03*
%TO.P,U1,6,A4*%
%TO.N,A4*%
X80645000Y-106045000D03*
%TO.P,U1,7,A5*%
%TO.N,A5*%
X80645000Y-108585000D03*
%TO.P,U1,8,A6*%
%TO.N,A6*%
X80645000Y-111125000D03*
%TO.P,U1,9,A7*%
%TO.N,A7*%
X80645000Y-113665000D03*
%TO.P,U1,10,GND*%
%TO.N,GND*%
X80645000Y-116205000D03*
%TO.P,U1,11,B7*%
%TO.N,MP7_33*%
X88265000Y-116205000D03*
%TO.P,U1,12,B6*%
%TO.N,MP6_33*%
X88265000Y-113665000D03*
%TO.P,U1,13,B5*%
%TO.N,MP5_33*%
X88265000Y-111125000D03*
%TO.P,U1,14,B4*%
%TO.N,MP4_33*%
X88265000Y-108585000D03*
%TO.P,U1,15,B3*%
%TO.N,MP3_33*%
X88265000Y-106045000D03*
%TO.P,U1,16,B2*%
%TO.N,MP2_33*%
X88265000Y-103505000D03*
%TO.P,U1,17,B1*%
%TO.N,MP1_33*%
X88265000Y-100965000D03*
%TO.P,U1,18,B0*%
%TO.N,MP0_33*%
X88265000Y-98425000D03*
%TO.P,U1,19,CE*%
%TO.N,MSEL0_33*%
X88265000Y-95885000D03*
%TO.P,U1,20,VCC*%
%TO.N,+3.3V*%
X88265000Y-93345000D03*
%TD*%
D10*
%TO.P,R5,1*%
%TO.N,/WAIT_SW*%
X145669000Y-118979000D03*
D16*
%TO.P,R5,2*%
%TO.N,Net-(Q1-B)*%
X155829000Y-118979000D03*
%TD*%
D17*
%TO.P,J3,1,Pin_1*%
%TO.N,Net-(J3-Pin_1)*%
X71501000Y-126995000D03*
D18*
%TO.P,J3,2,Pin_2*%
%TO.N,SOUNDIN*%
X71501000Y-129535000D03*
%TD*%
D10*
%TO.P,R1,1*%
%TO.N,LED*%
X128270000Y-81280000D03*
D16*
%TO.P,R1,2*%
%TO.N,Net-(D1-A)*%
X138430000Y-81280000D03*
%TD*%
D19*
%TO.P,J2,R*%
%TO.N,Net-(C1-Pad2)*%
X155575000Y-87630000D03*
%TO.P,J2,S*%
%TO.N,GND*%
X153575000Y-79730000D03*
%TO.P,J2,T*%
%TO.N,Net-(C1-Pad2)*%
X155575000Y-82130000D03*
%TD*%
D20*
%TO.P,CON1,2,~{CS2}*%
%TO.N,CS2*%
X142240000Y-139700000D03*
%TO.P,CON1,4,~{SLTSL}*%
%TO.N,SLTSL*%
X139700000Y-139700000D03*
%TO.P,CON1,6,~{RFSH}*%
%TO.N,RFSH*%
X137160000Y-139700000D03*
%TO.P,CON1,8,~{INT}*%
%TO.N,INT*%
X134620000Y-139700000D03*
%TO.P,CON1,10,~{BUSDIR}*%
%TO.N,BUSDIR*%
X132080000Y-139700000D03*
%TO.P,CON1,12,~{MERQ}*%
%TO.N,MERQ*%
X129540000Y-139700000D03*
%TO.P,CON1,14,~{RD}*%
%TO.N,RD*%
X127000000Y-139700000D03*
%TO.P,CON1,16,RSV@2*%
%TO.N,unconnected-(CON1-RSV@2-Pad16)*%
X124460000Y-139700000D03*
%TO.P,CON1,18,A15*%
%TO.N,A15*%
X121920000Y-139700000D03*
%TO.P,CON1,20,A10*%
%TO.N,A10*%
X119380000Y-139700000D03*
%TO.P,CON1,22,A6*%
%TO.N,A6*%
X116840000Y-139700000D03*
%TO.P,CON1,24,A8*%
%TO.N,A8*%
X114300000Y-139700000D03*
%TO.P,CON1,26,A13*%
%TO.N,A13*%
X111760000Y-139700000D03*
%TO.P,CON1,28,A0*%
%TO.N,A0*%
X109220000Y-139700000D03*
%TO.P,CON1,30,A2*%
%TO.N,A2*%
X106680000Y-139700000D03*
%TO.P,CON1,32,A4*%
%TO.N,A4*%
X104140000Y-139700000D03*
%TO.P,CON1,34,D0*%
%TO.N,D0*%
X101600000Y-139700000D03*
%TO.P,CON1,36,D2*%
%TO.N,D2*%
X99060000Y-139700000D03*
%TO.P,CON1,38,D4*%
%TO.N,D4*%
X96520000Y-139700000D03*
%TO.P,CON1,40,D6*%
%TO.N,D6*%
X93980000Y-139700000D03*
%TO.P,CON1,42,CLOCK*%
%TO.N,CLOCK*%
X91440000Y-139700000D03*
%TO.P,CON1,44,SW1*%
%TO.N,Net-(CON1-SW1)*%
X88900000Y-138430000D03*
%TO.P,CON1,46,SW2*%
X86360000Y-139700000D03*
%TO.P,CON1,48,+12*%
%TO.N,unconnected-(CON1-+12-Pad48)*%
X83820000Y-139700000D03*
%TO.P,CON1,50,-12*%
%TO.N,unconnected-(CON1--12-Pad50)*%
X81280000Y-139700000D03*
%TD*%
D10*
%TO.P,R2,1*%
%TO.N,SOUND_33*%
X145796000Y-101199000D03*
D16*
%TO.P,R2,2*%
%TO.N,Net-(C1-Pad1)*%
X155956000Y-101199000D03*
%TD*%
D13*
%TO.P,C13,1*%
%TO.N,+5V*%
X71882000Y-120964900D03*
D10*
%TO.P,C13,2*%
%TO.N,GND*%
X71882000Y-122964900D03*
%TD*%
D21*
%TO.P,Q2,1,E*%
%TO.N,GND*%
X153416000Y-126873000D03*
D22*
%TO.P,Q2,2,B*%
%TO.N,Net-(Q2-B)*%
X153416000Y-128143000D03*
%TO.P,Q2,3,C*%
%TO.N,INT*%
X153416000Y-129413000D03*
%TD*%
D14*
%TO.P,U6,1,A->B*%
%TO.N,+3.3V*%
X115570000Y-93345000D03*
D15*
%TO.P,U6,2,A0*%
%TO.N,MERQ*%
X115570000Y-95885000D03*
%TO.P,U6,3,A1*%
%TO.N,IORQ*%
X115570000Y-98425000D03*
%TO.P,U6,4,A2*%
%TO.N,CS1*%
X115570000Y-100965000D03*
%TO.P,U6,5,A3*%
%TO.N,CS2*%
X115570000Y-103505000D03*
%TO.P,U6,6,A4*%
%TO.N,RESET*%
X115570000Y-106045000D03*
%TO.P,U6,7,A5*%
%TO.N,RFSH*%
X115570000Y-108585000D03*
%TO.P,U6,8,A6*%
%TO.N,CS12*%
X115570000Y-111125000D03*
%TO.P,U6,9,A7*%
%TO.N,M1*%
X115570000Y-113665000D03*
%TO.P,U6,10,GND*%
%TO.N,GND*%
X115570000Y-116205000D03*
%TO.P,U6,11,B7*%
%TO.N,MP7_33*%
X123190000Y-116205000D03*
%TO.P,U6,12,B6*%
%TO.N,MP6_33*%
X123190000Y-113665000D03*
%TO.P,U6,13,B5*%
%TO.N,MP5_33*%
X123190000Y-111125000D03*
%TO.P,U6,14,B4*%
%TO.N,MP4_33*%
X123190000Y-108585000D03*
%TO.P,U6,15,B3*%
%TO.N,MP3_33*%
X123190000Y-106045000D03*
%TO.P,U6,16,B2*%
%TO.N,MP2_33*%
X123190000Y-103505000D03*
%TO.P,U6,17,B1*%
%TO.N,MP1_33*%
X123190000Y-100965000D03*
%TO.P,U6,18,B0*%
%TO.N,MP0_33*%
X123190000Y-98425000D03*
%TO.P,U6,19,CE*%
%TO.N,MSEL2_33*%
X123190000Y-95885000D03*
%TO.P,U6,20,VCC*%
%TO.N,+3.3V*%
X123190000Y-93345000D03*
%TD*%
D10*
%TO.P,R4,1*%
%TO.N,+3.3V*%
X155829000Y-115169000D03*
D16*
%TO.P,R4,2*%
%TO.N,WAIT_33*%
X145669000Y-115169000D03*
%TD*%
D10*
%TO.P,C2,1*%
%TO.N,Net-(C1-Pad1)*%
X154686000Y-97643000D03*
%TO.P,C2,2*%
%TO.N,GND*%
X154686000Y-95143000D03*
%TD*%
D14*
%TO.P,U2,1,A->B*%
%TO.N,+3.3V*%
X132715000Y-93345000D03*
D15*
%TO.P,U2,2,A0*%
%TO.N,INT_33*%
X132715000Y-95885000D03*
%TO.P,U2,3,A1*%
%TO.N,BUSDIR_33*%
X132715000Y-98425000D03*
%TO.P,U2,4,A2*%
%TO.N,WAIT_33*%
X132715000Y-100965000D03*
%TO.P,U2,5,A3*%
%TO.N,unconnected-(U2-A3-Pad5)*%
X132715000Y-103505000D03*
%TO.P,U2,6,A4*%
%TO.N,RD*%
X132715000Y-106045000D03*
%TO.P,U2,7,A5*%
%TO.N,WR*%
X132715000Y-108585000D03*
%TO.P,U2,8,A6*%
%TO.N,SLTSL*%
X132715000Y-111125000D03*
%TO.P,U2,9,A7*%
%TO.N,CLOCK*%
X132715000Y-113665000D03*
%TO.P,U2,10,GND*%
%TO.N,GND*%
X132715000Y-116205000D03*
%TO.P,U2,11,B7*%
%TO.N,CLOCK_33*%
X140335000Y-116205000D03*
%TO.P,U2,12,B6*%
%TO.N,SLTSL_33*%
X140335000Y-113665000D03*
%TO.P,U2,13,B5*%
%TO.N,WR_33*%
X140335000Y-111125000D03*
%TO.P,U2,14,B4*%
%TO.N,RD_33*%
X140335000Y-108585000D03*
%TO.P,U2,15,B3*%
%TO.N,unconnected-(U2-B3-Pad15)*%
X140335000Y-106045000D03*
%TO.P,U2,16,B2*%
%TO.N,/WAIT_SW*%
X140335000Y-103505000D03*
%TO.P,U2,17,B1*%
%TO.N,BUSDIR*%
X140335000Y-100965000D03*
%TO.P,U2,18,B0*%
%TO.N,/INT_SW*%
X140335000Y-98425000D03*
%TO.P,U2,19,CE*%
%TO.N,GND*%
X140335000Y-95885000D03*
%TO.P,U2,20,VCC*%
%TO.N,+3.3V*%
X140335000Y-93345000D03*
%TD*%
D23*
%TO.P,U5,1,73_IOT40A*%
%TO.N,INT_33*%
X106045000Y-55245000D03*
D24*
%TO.P,U5,2,74_IOT34B*%
%TO.N,BUSDIR_33*%
X103505000Y-55245000D03*
%TO.P,U5,3,75_IOT34A*%
%TO.N,unconnected-(U5-75_IOT34A-Pad3)*%
X100965000Y-55245000D03*
%TO.P,U5,4,85_IOT4B*%
%TO.N,unconnected-(U5-85_IOT4B-Pad4)*%
X98425000Y-55245000D03*
%TO.P,U5,5,77_IOT30A*%
%TO.N,MP0_33*%
X95885000Y-55245000D03*
%TO.P,U5,6,15_IOL47A_LED0*%
%TO.N,RD_33*%
X93345000Y-55245000D03*
%TO.P,U5,7,16_IOL47B_LED1*%
%TO.N,WR_33*%
X90805000Y-55245000D03*
%TO.P,U5,8,27_IOB8A*%
%TO.N,MP1_33*%
X88265000Y-55245000D03*
%TO.P,U5,9,28_IOB8B*%
%TO.N,MP2_33*%
X85725000Y-55245000D03*
%TO.P,U5,10,25_IOB6A*%
%TO.N,MP3_33*%
X83185000Y-55245000D03*
%TO.P,U5,11,26_IOB6B*%
%TO.N,MP4_33*%
X80645000Y-55245000D03*
%TO.P,U5,12,29_IOB14A*%
%TO.N,MP5_33*%
X78105000Y-55245000D03*
%TO.P,U5,13,30_IOB14B*%
%TO.N,MP6_33*%
X75565000Y-55245000D03*
%TO.P,U5,14,31_IOB29A*%
%TO.N,MP7_33*%
X73025000Y-55245000D03*
%TO.P,U5,15,17_IOL49A_LED2*%
%TO.N,MSEL0_33*%
X70485000Y-55245000D03*
%TO.P,U5,16,20_IOL51B_LED5*%
%TO.N,MSEL1_33*%
X67945000Y-55245000D03*
%TO.P,U5,17,19_IOL51A_LED4*%
%TO.N,MSEL2_33*%
X65405000Y-55245000D03*
%TO.P,U5,18,18_IOL49B_LED3*%
%TO.N,SLTSL_33*%
X62865000Y-55245000D03*
%TO.P,U5,19,3V3*%
%TO.N,+3.3V*%
X60325000Y-55245000D03*
%TO.P,U5,20,GND*%
%TO.N,GND*%
X57785000Y-55245000D03*
%TO.P,U5,21,52_IOR39A*%
%TO.N,DATADIR*%
X57785000Y-75565000D03*
%TO.P,U5,22,53_IOR38B*%
%TO.N,JP*%
X60325000Y-75565000D03*
%TO.P,U5,23,71_IOT44A*%
%TO.N,D5_33*%
X62865000Y-75565000D03*
%TO.P,U5,24,72_IOT40B*%
%TO.N,D4_33*%
X65405000Y-75565000D03*
%TO.P,U5,25,3V3*%
%TO.N,+3.3V*%
X67945000Y-75565000D03*
%TO.P,U5,26,GND*%
%TO.N,GND*%
X70485000Y-75565000D03*
%TO.P,U5,27,79_IOT27B*%
%TO.N,D3_33*%
X73025000Y-75565000D03*
%TO.P,U5,28,86_IOT4A*%
%TO.N,LED*%
X75565000Y-75565000D03*
%TO.P,U5,29,49_IOR49A*%
%TO.N,SOUND_33*%
X78105000Y-75565000D03*
%TO.P,U5,30,55_IOR36B*%
%TO.N,D7_33*%
X80645000Y-75565000D03*
%TO.P,U5,31,48_IOR49B*%
%TO.N,D0_33*%
X83185000Y-75565000D03*
%TO.P,U5,32,51_IOR45A*%
%TO.N,D6_33*%
X85725000Y-75565000D03*
%TO.P,U5,33,54_IOR38A*%
%TO.N,D2_33*%
X88265000Y-75565000D03*
%TO.P,U5,34,56_IOR36A*%
%TO.N,D1_33*%
X90805000Y-75565000D03*
%TO.P,U5,35,41_IOB43A*%
%TO.N,AUDIO_33*%
X93345000Y-75565000D03*
%TO.P,U5,36,42_IOB42B*%
%TO.N,WAIT_33*%
X95885000Y-75565000D03*
%TO.P,U5,37,80_IOT27A*%
%TO.N,unconnected-(U5-80_IOT27A-Pad37)*%
X98425000Y-75565000D03*
%TO.P,U5,38,76_IOT30B*%
%TO.N,CLOCK_33*%
X100965000Y-75565000D03*
%TO.P,U5,39,GND*%
%TO.N,GND*%
X103505000Y-75565000D03*
%TO.P,U5,40,5V*%
%TO.N,+5V*%
X106045000Y-75565000D03*
%TD*%
D10*
%TO.P,C7,1*%
%TO.N,+3.3V*%
X102870000Y-88265000D03*
%TO.P,C7,2*%
%TO.N,GND*%
X100370000Y-88265000D03*
%TD*%
%TO.P,C10,1*%
%TO.N,+3.3V*%
X120650000Y-88265000D03*
%TO.P,C10,2*%
%TO.N,GND*%
X118150000Y-88265000D03*
%TD*%
%TO.P,C9,1*%
%TO.N,+3.3V*%
X137795000Y-88265000D03*
%TO.P,C9,2*%
%TO.N,GND*%
X135295000Y-88265000D03*
%TD*%
D25*
%TO.P,D1,1,K*%
%TO.N,GND*%
X143510000Y-81280000D03*
D26*
%TO.P,D1,2,A*%
%TO.N,Net-(D1-A)*%
X146050000Y-81280000D03*
%TD*%
D10*
%TO.P,C12,1*%
%TO.N,+5V*%
X106025000Y-80645000D03*
%TO.P,C12,2*%
%TO.N,GND*%
X103525000Y-80645000D03*
%TD*%
D14*
%TO.P,U4,1,A->B*%
%TO.N,DATADIR*%
X63500000Y-93345000D03*
D15*
%TO.P,U4,2,A0*%
%TO.N,D0*%
X63500000Y-95885000D03*
%TO.P,U4,3,A1*%
%TO.N,D1*%
X63500000Y-98425000D03*
%TO.P,U4,4,A2*%
%TO.N,D2*%
X63500000Y-100965000D03*
%TO.P,U4,5,A3*%
%TO.N,D3*%
X63500000Y-103505000D03*
%TO.P,U4,6,A4*%
%TO.N,D4*%
X63500000Y-106045000D03*
%TO.P,U4,7,A5*%
%TO.N,D5*%
X63500000Y-108585000D03*
%TO.P,U4,8,A6*%
%TO.N,D6*%
X63500000Y-111125000D03*
%TO.P,U4,9,A7*%
%TO.N,D7*%
X63500000Y-113665000D03*
%TO.P,U4,10,GND*%
%TO.N,GND*%
X63500000Y-116205000D03*
%TO.P,U4,11,B7*%
%TO.N,D7_33*%
X71120000Y-116205000D03*
%TO.P,U4,12,B6*%
%TO.N,D6_33*%
X71120000Y-113665000D03*
%TO.P,U4,13,B5*%
%TO.N,D5_33*%
X71120000Y-111125000D03*
%TO.P,U4,14,B4*%
%TO.N,D4_33*%
X71120000Y-108585000D03*
%TO.P,U4,15,B3*%
%TO.N,D3_33*%
X71120000Y-106045000D03*
%TO.P,U4,16,B2*%
%TO.N,D2_33*%
X71120000Y-103505000D03*
%TO.P,U4,17,B1*%
%TO.N,D1_33*%
X71120000Y-100965000D03*
%TO.P,U4,18,B0*%
%TO.N,D0_33*%
X71120000Y-98425000D03*
%TO.P,U4,19,CE*%
%TO.N,GND*%
X71120000Y-95885000D03*
%TO.P,U4,20,VCC*%
%TO.N,+3.3V*%
X71120000Y-93345000D03*
%TD*%
D10*
%TO.P,C4,1*%
%TO.N,Net-(C3-Pad1)*%
X154686000Y-107148000D03*
%TO.P,C4,2*%
%TO.N,GND*%
X154686000Y-104648000D03*
%TD*%
D14*
%TO.P,U3,1,A->B*%
%TO.N,+3.3V*%
X97790000Y-93345000D03*
D15*
%TO.P,U3,2,A0*%
%TO.N,A8*%
X97790000Y-95885000D03*
%TO.P,U3,3,A1*%
%TO.N,A9*%
X97790000Y-98425000D03*
%TO.P,U3,4,A2*%
%TO.N,A10*%
X97790000Y-100965000D03*
%TO.P,U3,5,A3*%
%TO.N,A11*%
X97790000Y-103505000D03*
%TO.P,U3,6,A4*%
%TO.N,A12*%
X97790000Y-106045000D03*
%TO.P,U3,7,A5*%
%TO.N,A13*%
X97790000Y-108585000D03*
%TO.P,U3,8,A6*%
%TO.N,A14*%
X97790000Y-111125000D03*
%TO.P,U3,9,A7*%
%TO.N,A15*%
X97790000Y-113665000D03*
%TO.P,U3,10,GND*%
%TO.N,GND*%
X97790000Y-116205000D03*
%TO.P,U3,11,B7*%
%TO.N,MP7_33*%
X105410000Y-116205000D03*
%TO.P,U3,12,B6*%
%TO.N,MP6_33*%
X105410000Y-113665000D03*
%TO.P,U3,13,B5*%
%TO.N,MP5_33*%
X105410000Y-111125000D03*
%TO.P,U3,14,B4*%
%TO.N,MP4_33*%
X105410000Y-108585000D03*
%TO.P,U3,15,B3*%
%TO.N,MP3_33*%
X105410000Y-106045000D03*
%TO.P,U3,16,B2*%
%TO.N,MP2_33*%
X105410000Y-103505000D03*
%TO.P,U3,17,B1*%
%TO.N,MP1_33*%
X105410000Y-100965000D03*
%TO.P,U3,18,B0*%
%TO.N,MP0_33*%
X105410000Y-98425000D03*
%TO.P,U3,19,CE*%
%TO.N,MSEL1_33*%
X105410000Y-95885000D03*
%TO.P,U3,20,VCC*%
%TO.N,+3.3V*%
X105410000Y-93345000D03*
%TD*%
D21*
%TO.P,Q1,1,E*%
%TO.N,GND*%
X148103000Y-127000000D03*
D22*
%TO.P,Q1,2,B*%
%TO.N,Net-(Q1-B)*%
X148103000Y-128270000D03*
%TO.P,Q1,3,C*%
%TO.N,WAIT*%
X148103000Y-129540000D03*
%TD*%
D17*
%TO.P,J1,1,Pin_1*%
%TO.N,JP*%
X118105000Y-81280000D03*
D18*
%TO.P,J1,2,Pin_2*%
%TO.N,GND*%
X120645000Y-81280000D03*
%TD*%
D10*
%TO.P,R6,1*%
%TO.N,/INT_SW*%
X145669000Y-122662000D03*
D16*
%TO.P,R6,2*%
%TO.N,Net-(Q2-B)*%
X155829000Y-122662000D03*
%TD*%
D10*
%TO.P,R3,1*%
%TO.N,AUDIO_33*%
X145669000Y-111359000D03*
D16*
%TO.P,R3,2*%
%TO.N,Net-(C3-Pad1)*%
X155829000Y-111359000D03*
%TD*%
D27*
%TO.N,/CART_5V*%
X80114100Y-126721400D03*
X78044200Y-118802800D03*
X83732000Y-81482400D03*
%TO.N,INT_33*%
X101945100Y-84610100D03*
X98466900Y-71528100D03*
%TO.N,MSEL2_33*%
X73837600Y-82622300D03*
%TO.N,MSEL1_33*%
X96303400Y-69429100D03*
%TO.N,MSEL0_33*%
X74497100Y-84807000D03*
%TO.N,MP0_33*%
X94175300Y-87201600D03*
%TO.N,MP1_33*%
X99616800Y-96849100D03*
%TO.N,MP2_33*%
X96084500Y-77331000D03*
X90249900Y-101570900D03*
%TO.N,MP3_33*%
X86810700Y-100084500D03*
%TO.N,D1_33*%
X82793400Y-78736000D03*
%TO.N,D2_33*%
X83735100Y-78399000D03*
%TO.N,D6_33*%
X82431100Y-80102600D03*
%TO.N,D7_33*%
X72969600Y-97281100D03*
%TO.N,RD_33*%
X93553300Y-62163200D03*
%TO.N,WR_33*%
X136506200Y-97902000D03*
X109435300Y-78738400D03*
%TO.N,SLTSL_33*%
X72885500Y-112578800D03*
%TO.N,BUSDIR*%
X137073000Y-125787100D03*
%TO.N,WAIT*%
X135472500Y-133247800D03*
%TO.N,SLTSL*%
X139438100Y-134054000D03*
%TO.N,CS12*%
X129857400Y-118057500D03*
%TO.N,CS2*%
X120000100Y-105370700D03*
X134190000Y-118298500D03*
X141555700Y-134319500D03*
%TO.N,CS1*%
X134221000Y-109420300D03*
X120416700Y-102235000D03*
%TO.N,RFSH*%
X121753300Y-121541000D03*
%TO.N,M1*%
X129593000Y-128860000D03*
X123667600Y-125928600D03*
%TO.N,A13*%
X111551200Y-134910700D03*
%TO.N,A8*%
X110878200Y-131450900D03*
%TO.N,A10*%
X119169900Y-134245600D03*
%TO.N,A15*%
X106104600Y-122064500D03*
%TO.N,A7*%
X110354900Y-118712200D03*
%TO.N,A6*%
X94743800Y-127049800D03*
%TO.N,A4*%
X104140000Y-134340800D03*
%TO.N,A2*%
X106431800Y-134085700D03*
%TO.N,D6*%
X94071200Y-134414600D03*
%TO.N,D0*%
X101600000Y-134316000D03*
%TO.N,CLOCK*%
X82524600Y-133943800D03*
X78821800Y-127302600D03*
%TO.N,WR*%
X127787100Y-109769300D03*
%TO.N,RD*%
X131260700Y-125558700D03*
%TO.N,MERQ*%
X130196800Y-134033000D03*
%TO.N,A0*%
X109220000Y-132439500D03*
%TO.N,+5V*%
X74395100Y-116151500D03*
X83584400Y-80021700D03*
%TO.N,GND*%
X95758000Y-67818000D03*
%TD*%
D28*
%TO.N,Net-(J3-Pin_1)*%
X71501000Y-126995000D02*
X72606900Y-126995000D01*
X147534100Y-106191900D02*
X148590000Y-105136000D01*
X147534100Y-111568600D02*
X147534100Y-106191900D01*
X138281100Y-120821600D02*
X147534100Y-111568600D01*
X99675900Y-120821600D02*
X138281100Y-120821600D01*
X92543600Y-127953900D02*
X99675900Y-120821600D01*
X73565800Y-127953900D02*
X92543600Y-127953900D01*
X72606900Y-126995000D02*
X73565800Y-127953900D01*
%TO.N,Net-(C1-Pad2)*%
X155054100Y-88785900D02*
X148590000Y-95250000D01*
X155575000Y-88785900D02*
X155054100Y-88785900D01*
X155575000Y-87630000D02*
X155575000Y-88785900D01*
%TO.N,Net-(C3-Pad1)*%
X149657900Y-107148000D02*
X149645900Y-107136000D01*
X154686000Y-107148000D02*
X149657900Y-107148000D01*
X148590000Y-107136000D02*
X149645900Y-107136000D01*
%TO.N,AUDIO_33*%
X145669000Y-105208300D02*
X145669000Y-111359000D01*
X146867300Y-104010000D02*
X145669000Y-105208300D01*
X146867300Y-95832200D02*
X146867300Y-104010000D01*
X130452600Y-79417500D02*
X146867300Y-95832200D01*
X110552600Y-79417500D02*
X130452600Y-79417500D01*
X107783400Y-82186700D02*
X110552600Y-79417500D01*
X98026900Y-82186700D02*
X107783400Y-82186700D01*
X93345000Y-77504800D02*
X98026900Y-82186700D01*
X93345000Y-75565000D02*
X93345000Y-77504800D01*
%TO.N,LED*%
X75565000Y-75565000D02*
X75565000Y-77020900D01*
X81554900Y-83010800D02*
X75565000Y-77020900D01*
X113825300Y-83010800D02*
X81554900Y-83010800D01*
X116662000Y-80174100D02*
X113825300Y-83010800D01*
X127164100Y-80174100D02*
X116662000Y-80174100D01*
X128270000Y-81280000D02*
X127164100Y-80174100D01*
%TO.N,JP*%
X114907700Y-83371400D02*
X116999100Y-81280000D01*
X78616900Y-83371400D02*
X114907700Y-83371400D01*
X76953000Y-81707500D02*
X78616900Y-83371400D01*
X69984000Y-81707500D02*
X76953000Y-81707500D01*
X69195000Y-80918500D02*
X69984000Y-81707500D01*
X69195000Y-80347400D02*
X69195000Y-80918500D01*
X65868500Y-77020900D02*
X69195000Y-80347400D01*
X60325000Y-77020900D02*
X65868500Y-77020900D01*
X60325000Y-75565000D02*
X60325000Y-77020900D01*
X118105000Y-81280000D02*
X116999100Y-81280000D01*
D29*
%TO.N,/CART_5V*%
X88900000Y-80645000D02*
X87493300Y-80645000D01*
X86655900Y-81482400D02*
X83732000Y-81482400D01*
X87493300Y-80645000D02*
X86655900Y-81482400D01*
X80114100Y-120872700D02*
X80114100Y-126721400D01*
X78044200Y-118802800D02*
X80114100Y-120872700D01*
D28*
%TO.N,Net-(C1-Pad1)*%
X150038900Y-97643000D02*
X149645900Y-97250000D01*
X154686000Y-97643000D02*
X150038900Y-97643000D01*
X148590000Y-97250000D02*
X149645900Y-97250000D01*
%TO.N,INT_33*%
X106045000Y-55245000D02*
X106045000Y-53789100D01*
X132715000Y-95885000D02*
X134170900Y-95885000D01*
X98466900Y-67995300D02*
X98466900Y-71528100D01*
X89721000Y-59249400D02*
X98466900Y-67995300D01*
X89721000Y-54415100D02*
X89721000Y-59249400D01*
X90347000Y-53789100D02*
X89721000Y-54415100D01*
X106045000Y-53789100D02*
X90347000Y-53789100D01*
X120145100Y-84610100D02*
X101945100Y-84610100D01*
X127072900Y-91537900D02*
X120145100Y-84610100D01*
X133311700Y-91537900D02*
X127072900Y-91537900D01*
X134170900Y-92397100D02*
X133311700Y-91537900D01*
X134170900Y-95885000D02*
X134170900Y-92397100D01*
%TO.N,MSEL2_33*%
X123190000Y-95885000D02*
X121734100Y-95885000D01*
X77321600Y-86106300D02*
X73837600Y-82622300D01*
X117536800Y-86106300D02*
X77321600Y-86106300D01*
X119400000Y-87969500D02*
X117536800Y-86106300D01*
X119400000Y-93550900D02*
X119400000Y-87969500D01*
X121734100Y-95885000D02*
X119400000Y-93550900D01*
%TO.N,MSEL1_33*%
X67945000Y-55245000D02*
X67945000Y-56700900D01*
X96407600Y-69324900D02*
X96303400Y-69429100D01*
X96407600Y-67535900D02*
X96407600Y-69324900D01*
X90859100Y-61987400D02*
X96407600Y-67535900D01*
X73231500Y-61987400D02*
X90859100Y-61987400D01*
X67945000Y-56700900D02*
X73231500Y-61987400D01*
%TO.N,MSEL0_33*%
X88265000Y-95885000D02*
X86809100Y-95885000D01*
X76897700Y-87207600D02*
X74497100Y-84807000D01*
X83692500Y-87207600D02*
X76897700Y-87207600D01*
X84475000Y-87990100D02*
X83692500Y-87207600D01*
X84475000Y-93550900D02*
X84475000Y-87990100D01*
X86809100Y-95885000D02*
X84475000Y-93550900D01*
%TO.N,MP0_33*%
X105410000Y-98425000D02*
X103954100Y-98425000D01*
X88265000Y-98425000D02*
X89720900Y-98425000D01*
X92479700Y-87201600D02*
X94175300Y-87201600D01*
X86777500Y-92903800D02*
X92479700Y-87201600D01*
X86777500Y-93828200D02*
X86777500Y-92903800D01*
X87564300Y-94615000D02*
X86777500Y-93828200D01*
X88930500Y-94615000D02*
X87564300Y-94615000D01*
X89720900Y-95405400D02*
X88930500Y-94615000D01*
X89720900Y-98425000D02*
X89720900Y-95405400D01*
X101620000Y-96090900D02*
X103954100Y-98425000D01*
X101620000Y-88005400D02*
X101620000Y-96090900D01*
X100816200Y-87201600D02*
X101620000Y-88005400D01*
X94175300Y-87201600D02*
X100816200Y-87201600D01*
%TO.N,MP1_33*%
X88265000Y-100965000D02*
X89720900Y-100965000D01*
X93528800Y-97157100D02*
X89720900Y-100965000D01*
X99308800Y-97157100D02*
X93528800Y-97157100D01*
X99616800Y-96849100D02*
X99308800Y-97157100D01*
%TO.N,MP2_33*%
X88265000Y-103505000D02*
X89720900Y-103505000D01*
X85725000Y-55245000D02*
X85725000Y-56700900D01*
X89720900Y-102099900D02*
X89720900Y-103505000D01*
X90249900Y-101570900D02*
X89720900Y-102099900D01*
X86093200Y-56700900D02*
X85725000Y-56700900D01*
X96965300Y-67573000D02*
X86093200Y-56700900D01*
X96965300Y-76450200D02*
X96965300Y-67573000D01*
X96084500Y-77331000D02*
X96965300Y-76450200D01*
%TO.N,MP3_33*%
X88265000Y-106045000D02*
X86809100Y-106045000D01*
X86809100Y-100086100D02*
X86810700Y-100084500D01*
X86809100Y-106045000D02*
X86809100Y-100086100D01*
%TO.N,MP4_33*%
X123190000Y-108585000D02*
X121734100Y-108585000D01*
X88265000Y-108585000D02*
X89720900Y-108585000D01*
X105410000Y-108585000D02*
X106865900Y-108585000D01*
X105410000Y-108585000D02*
X103954100Y-108585000D01*
X89720900Y-110040900D02*
X89720900Y-108585000D01*
X96941500Y-117261500D02*
X89720900Y-110040900D01*
X98631600Y-117261500D02*
X96941500Y-117261500D01*
X103954100Y-111939000D02*
X98631600Y-117261500D01*
X103954100Y-108585000D02*
X103954100Y-111939000D01*
X120940700Y-109378400D02*
X121734100Y-108585000D01*
X120940700Y-113245100D02*
X120940700Y-109378400D01*
X116542900Y-117642900D02*
X120940700Y-113245100D01*
X114596600Y-117642900D02*
X116542900Y-117642900D01*
X106865900Y-109912200D02*
X114596600Y-117642900D01*
X106865900Y-108585000D02*
X106865900Y-109912200D01*
%TO.N,MP5_33*%
X123190000Y-111125000D02*
X121734100Y-111125000D01*
X105826300Y-111125000D02*
X105631100Y-111125000D01*
X105410000Y-111125000D02*
X105631100Y-111125000D01*
X105826300Y-111125000D02*
X106865900Y-111125000D01*
X88265000Y-111125000D02*
X89720900Y-111125000D01*
X121734100Y-112959400D02*
X121734100Y-111125000D01*
X116693100Y-118000400D02*
X121734100Y-112959400D01*
X114448500Y-118000400D02*
X116693100Y-118000400D01*
X107573100Y-111125000D02*
X114448500Y-118000400D01*
X106865900Y-111125000D02*
X107573100Y-111125000D01*
X96220600Y-117624700D02*
X89720900Y-111125000D01*
X98910300Y-117624700D02*
X96220600Y-117624700D01*
X105410000Y-111125000D02*
X98910300Y-117624700D01*
%TO.N,MP6_33*%
X123190000Y-113665000D02*
X121734100Y-113665000D01*
X105410000Y-113665000D02*
X106865900Y-113665000D01*
X117039700Y-118359400D02*
X121734100Y-113665000D01*
X114301900Y-118359400D02*
X117039700Y-118359400D01*
X109607500Y-113665000D02*
X114301900Y-118359400D01*
X106865900Y-113665000D02*
X109607500Y-113665000D01*
X88265000Y-113665000D02*
X89720900Y-113665000D01*
X105410000Y-113665000D02*
X103954100Y-113665000D01*
X94038100Y-117982200D02*
X89720900Y-113665000D01*
X99636900Y-117982200D02*
X94038100Y-117982200D01*
X103954100Y-113665000D02*
X99636900Y-117982200D01*
%TO.N,MP7_33*%
X123190000Y-116205000D02*
X121734100Y-116205000D01*
X105860400Y-116205000D02*
X106865900Y-116205000D01*
X105860400Y-116205000D02*
X105410000Y-116205000D01*
X119222200Y-118716900D02*
X121734100Y-116205000D01*
X114153800Y-118716900D02*
X119222200Y-118716900D01*
X111641900Y-116205000D02*
X114153800Y-118716900D01*
X106865900Y-116205000D02*
X111641900Y-116205000D01*
X101819400Y-118339700D02*
X103954100Y-116205000D01*
X91855600Y-118339700D02*
X101819400Y-118339700D01*
X89720900Y-116205000D02*
X91855600Y-118339700D01*
X88265000Y-116205000D02*
X89720900Y-116205000D01*
X105410000Y-116205000D02*
X103954100Y-116205000D01*
%TO.N,SOUND_33*%
X78105000Y-75565000D02*
X78105000Y-77020900D01*
X145796000Y-96887300D02*
X145796000Y-101199000D01*
X139546800Y-90638100D02*
X145796000Y-96887300D01*
X138616800Y-90638100D02*
X139546800Y-90638100D01*
X136545000Y-88566300D02*
X138616800Y-90638100D01*
X136545000Y-87975900D02*
X136545000Y-88566300D01*
X128372000Y-79802900D02*
X136545000Y-87975900D01*
X116527600Y-79802900D02*
X128372000Y-79802900D01*
X113718000Y-82612500D02*
X116527600Y-79802900D01*
X83696600Y-82612500D02*
X113718000Y-82612500D01*
X78105000Y-77020900D02*
X83696600Y-82612500D01*
%TO.N,D1_33*%
X90805000Y-75565000D02*
X90805000Y-77020900D01*
X83128000Y-79070600D02*
X82793400Y-78736000D01*
X87020400Y-79070600D02*
X83128000Y-79070600D01*
X89070100Y-77020900D02*
X87020400Y-79070600D01*
X90805000Y-77020900D02*
X89070100Y-77020900D01*
%TO.N,D2_33*%
X88265000Y-75565000D02*
X88265000Y-77020900D01*
X86886900Y-78399000D02*
X83735100Y-78399000D01*
X88265000Y-77020900D02*
X86886900Y-78399000D01*
%TO.N,D6_33*%
X85725000Y-75565000D02*
X85725000Y-77020900D01*
X82120300Y-79791800D02*
X82431100Y-80102600D01*
X82120300Y-78484100D02*
X82120300Y-79791800D01*
X83583500Y-77020900D02*
X82120300Y-78484100D01*
X85725000Y-77020900D02*
X83583500Y-77020900D01*
%TO.N,D7_33*%
X72575900Y-113208800D02*
X72575900Y-116205000D01*
X72232800Y-112865700D02*
X72575900Y-113208800D01*
X72232800Y-112287400D02*
X72232800Y-112865700D01*
X72969600Y-111550600D02*
X72232800Y-112287400D01*
X72969600Y-97281100D02*
X72969600Y-111550600D01*
X71120000Y-116205000D02*
X72575900Y-116205000D01*
%TO.N,RD_33*%
X141790900Y-109022600D02*
X141790900Y-108585000D01*
X145204600Y-112436300D02*
X141790900Y-109022600D01*
X146160800Y-112436300D02*
X145204600Y-112436300D01*
X146766000Y-111831100D02*
X146160800Y-112436300D01*
X146766000Y-104616900D02*
X146766000Y-111831100D01*
X147243600Y-104139300D02*
X146766000Y-104616900D01*
X147243600Y-95654700D02*
X147243600Y-104139300D01*
X130619900Y-79031000D02*
X147243600Y-95654700D01*
X110077400Y-79031000D02*
X130619900Y-79031000D01*
X109712900Y-79395500D02*
X110077400Y-79031000D01*
X107971500Y-79395500D02*
X109712900Y-79395500D01*
X104775000Y-76199000D02*
X107971500Y-79395500D01*
X104775000Y-73384900D02*
X104775000Y-76199000D01*
X93553300Y-62163200D02*
X104775000Y-73384900D01*
X140335000Y-108585000D02*
X141790900Y-108585000D01*
%TO.N,WR_33*%
X138879100Y-100274900D02*
X136506200Y-97902000D01*
X138879100Y-111125000D02*
X138879100Y-100274900D01*
X140335000Y-111125000D02*
X138879100Y-111125000D01*
X108197000Y-78738400D02*
X109435300Y-78738400D01*
X107322700Y-77864100D02*
X108197000Y-78738400D01*
X107322700Y-73845300D02*
X107322700Y-77864100D01*
X90805000Y-57327600D02*
X107322700Y-73845300D01*
X90805000Y-55245000D02*
X90805000Y-57327600D01*
%TO.N,SLTSL_33*%
X140335000Y-113665000D02*
X138879100Y-113665000D01*
X138879100Y-114528100D02*
X138879100Y-113665000D01*
X134033400Y-119373800D02*
X138879100Y-114528100D01*
X79680500Y-119373800D02*
X134033400Y-119373800D01*
X72885500Y-112578800D02*
X79680500Y-119373800D01*
%TO.N,BUSDIR*%
X132080000Y-130780100D02*
X132080000Y-139700000D01*
X137073000Y-125787100D02*
X132080000Y-130780100D01*
%TO.N,INT*%
X153416000Y-129413000D02*
X153416000Y-130193900D01*
X151087300Y-132522600D02*
X153416000Y-130193900D01*
X137366700Y-132522600D02*
X151087300Y-132522600D01*
X134620000Y-135269300D02*
X137366700Y-132522600D01*
X134620000Y-139700000D02*
X134620000Y-135269300D01*
%TO.N,WAIT*%
X137564800Y-131155500D02*
X135472500Y-133247800D01*
X147268400Y-131155500D02*
X137564800Y-131155500D01*
X148103000Y-130320900D02*
X147268400Y-131155500D01*
X148103000Y-129540000D02*
X148103000Y-130320900D01*
%TO.N,SLTSL*%
X139438100Y-135372200D02*
X139438100Y-134054000D01*
X139700000Y-135634100D02*
X139438100Y-135372200D01*
X139700000Y-139700000D02*
X139700000Y-135634100D01*
%TO.N,CS12*%
X114114100Y-116645000D02*
X114114100Y-111125000D01*
X114730000Y-117260900D02*
X114114100Y-116645000D01*
X116410100Y-117260900D02*
X114730000Y-117260900D01*
X119102200Y-114568800D02*
X116410100Y-117260900D01*
X119102200Y-110692700D02*
X119102200Y-114568800D01*
X122265800Y-107529100D02*
X119102200Y-110692700D01*
X124030100Y-107529100D02*
X122265800Y-107529100D01*
X129857400Y-113356400D02*
X124030100Y-107529100D01*
X129857400Y-118057500D02*
X129857400Y-113356400D01*
X115570000Y-111125000D02*
X114114100Y-111125000D01*
%TO.N,CS2*%
X142240000Y-135003800D02*
X142240000Y-139700000D01*
X141555700Y-134319500D02*
X142240000Y-135003800D01*
X132407000Y-118298500D02*
X134190000Y-118298500D01*
X130654200Y-116545700D02*
X132407000Y-118298500D01*
X130654200Y-113597000D02*
X130654200Y-116545700D01*
X124166700Y-107109500D02*
X130654200Y-113597000D01*
X121738900Y-107109500D02*
X124166700Y-107109500D01*
X120000100Y-105370700D02*
X121738900Y-107109500D01*
%TO.N,CS1*%
X134221000Y-108189400D02*
X134221000Y-109420300D01*
X133346600Y-107315000D02*
X134221000Y-108189400D01*
X132044500Y-107315000D02*
X133346600Y-107315000D01*
X126964500Y-102235000D02*
X132044500Y-107315000D01*
X120416700Y-102235000D02*
X126964500Y-102235000D01*
%TO.N,RFSH*%
X149742400Y-121541000D02*
X121753300Y-121541000D01*
X154421900Y-126220500D02*
X149742400Y-121541000D01*
X154421900Y-129771600D02*
X154421900Y-126220500D01*
X151287300Y-132906200D02*
X154421900Y-129771600D01*
X139475200Y-132906200D02*
X151287300Y-132906200D01*
X137160000Y-135221400D02*
X139475200Y-132906200D01*
X137160000Y-139700000D02*
X137160000Y-135221400D01*
%TO.N,M1*%
X126661600Y-125928600D02*
X123667600Y-125928600D01*
X129593000Y-128860000D02*
X126661600Y-125928600D01*
%TO.N,A13*%
X111760000Y-139700000D02*
X111760000Y-135634100D01*
X111551200Y-135425300D02*
X111551200Y-134910700D01*
X111760000Y-135634100D02*
X111551200Y-135425300D01*
%TO.N,A8*%
X114300000Y-134872700D02*
X110878200Y-131450900D01*
X114300000Y-139700000D02*
X114300000Y-134872700D01*
%TO.N,A10*%
X119169900Y-135424000D02*
X119169900Y-134245600D01*
X119380000Y-135634100D02*
X119169900Y-135424000D01*
X119380000Y-139700000D02*
X119380000Y-135634100D01*
%TO.N,A15*%
X108746900Y-122064500D02*
X106104600Y-122064500D01*
X121920000Y-135237600D02*
X108746900Y-122064500D01*
X121920000Y-139700000D02*
X121920000Y-135237600D01*
%TO.N,A7*%
X80645000Y-113665000D02*
X79189100Y-113665000D01*
X81256200Y-118712200D02*
X110354900Y-118712200D01*
X79189100Y-116645100D02*
X81256200Y-118712200D01*
X79189100Y-113665000D02*
X79189100Y-116645100D01*
%TO.N,A6*%
X108619500Y-127049800D02*
X94743800Y-127049800D01*
X116840000Y-135270300D02*
X108619500Y-127049800D01*
X116840000Y-139700000D02*
X116840000Y-135270300D01*
%TO.N,A4*%
X104140000Y-139700000D02*
X104140000Y-135634100D01*
X104140000Y-135634100D02*
X104140000Y-134340800D01*
%TO.N,A2*%
X106680000Y-139700000D02*
X106680000Y-135634100D01*
X106431800Y-135385900D02*
X106431800Y-134085700D01*
X106680000Y-135634100D02*
X106431800Y-135385900D01*
%TO.N,D6*%
X93980000Y-139700000D02*
X93980000Y-135634100D01*
X94071200Y-135542900D02*
X94071200Y-134414600D01*
X93980000Y-135634100D02*
X94071200Y-135542900D01*
%TO.N,D4*%
X63500000Y-106045000D02*
X62044100Y-106045000D01*
X96520000Y-135219700D02*
X96520000Y-139700000D01*
X94343200Y-133042900D02*
X96520000Y-135219700D01*
X73441900Y-133042900D02*
X94343200Y-133042900D01*
X66975200Y-126576200D02*
X73441900Y-133042900D01*
X66975200Y-120570600D02*
X66975200Y-126576200D01*
X65405900Y-119001300D02*
X66975200Y-120570600D01*
X63890900Y-119001300D02*
X65405900Y-119001300D01*
X61686600Y-116797000D02*
X63890900Y-119001300D01*
X61686600Y-106402500D02*
X61686600Y-116797000D01*
X62044100Y-106045000D02*
X61686600Y-106402500D01*
%TO.N,D2*%
X64955900Y-111613000D02*
X64955900Y-100965000D01*
X64173900Y-112395000D02*
X64955900Y-111613000D01*
X62873200Y-112395000D02*
X64173900Y-112395000D01*
X62044100Y-113224100D02*
X62873200Y-112395000D01*
X62044100Y-116648900D02*
X62044100Y-113224100D01*
X62979500Y-117584300D02*
X62044100Y-116648900D01*
X64494500Y-117584300D02*
X62979500Y-117584300D01*
X68305200Y-121395000D02*
X64494500Y-117584300D01*
X68305200Y-125902200D02*
X68305200Y-121395000D01*
X70832100Y-128429100D02*
X68305200Y-125902200D01*
X92237600Y-128429100D02*
X70832100Y-128429100D01*
X99060000Y-135251500D02*
X92237600Y-128429100D01*
X99060000Y-139700000D02*
X99060000Y-135251500D01*
X63500000Y-100965000D02*
X64955900Y-100965000D01*
%TO.N,D0*%
X101600000Y-139700000D02*
X101600000Y-134316000D01*
%TO.N,CLOCK*%
X90121600Y-133943800D02*
X82524600Y-133943800D01*
X91440000Y-135262200D02*
X90121600Y-133943800D01*
X91440000Y-139700000D02*
X91440000Y-135262200D01*
X132715000Y-113665000D02*
X131259100Y-113665000D01*
X131259100Y-116645000D02*
X131259100Y-113665000D01*
X131885500Y-117271400D02*
X131259100Y-116645000D01*
X133598100Y-117271400D02*
X131885500Y-117271400D01*
X138313400Y-112556100D02*
X133598100Y-117271400D01*
X141169300Y-112556100D02*
X138313400Y-112556100D01*
X141801000Y-113187800D02*
X141169300Y-112556100D01*
X141801000Y-114124600D02*
X141801000Y-113187800D01*
X141090000Y-114835600D02*
X141801000Y-114124600D01*
X139259000Y-114835600D02*
X141090000Y-114835600D01*
X133725000Y-120369600D02*
X139259000Y-114835600D01*
X99562800Y-120369600D02*
X133725000Y-120369600D01*
X92561400Y-127371000D02*
X99562800Y-120369600D01*
X78890200Y-127371000D02*
X92561400Y-127371000D01*
X78821800Y-127302600D02*
X78890200Y-127371000D01*
%TO.N,WR*%
X130074800Y-109769300D02*
X131259100Y-108585000D01*
X127787100Y-109769300D02*
X130074800Y-109769300D01*
X132715000Y-108585000D02*
X131259100Y-108585000D01*
%TO.N,RD*%
X131260700Y-128111000D02*
X131260700Y-125558700D01*
X127000000Y-132371700D02*
X131260700Y-128111000D01*
X127000000Y-139700000D02*
X127000000Y-132371700D01*
%TO.N,MERQ*%
X129540000Y-134689800D02*
X130196800Y-134033000D01*
X129540000Y-139700000D02*
X129540000Y-134689800D01*
%TO.N,A0*%
X109220000Y-139700000D02*
X109220000Y-132439500D01*
%TO.N,Net-(CON1-SW1)*%
X88900000Y-138430000D02*
X88900000Y-134364100D01*
X87249000Y-134364100D02*
X88900000Y-134364100D01*
X86360000Y-135253100D02*
X87249000Y-134364100D01*
X86360000Y-139700000D02*
X86360000Y-135253100D01*
D29*
%TO.N,+5V*%
X99060000Y-80645000D02*
X100466700Y-80645000D01*
X99060000Y-80645000D02*
X97653300Y-80645000D01*
X71882000Y-120964900D02*
X71882000Y-119858200D01*
X74395100Y-117345100D02*
X74395100Y-116151500D01*
X71882000Y-119858200D02*
X74395100Y-117345100D01*
X101579700Y-81758000D02*
X100466700Y-80645000D01*
X104912000Y-81758000D02*
X101579700Y-81758000D01*
X106025000Y-80645000D02*
X104912000Y-81758000D01*
X94615000Y-77606700D02*
X97653300Y-80645000D01*
X94615000Y-74805900D02*
X94615000Y-77606700D01*
X93819300Y-74010200D02*
X94615000Y-74805900D01*
X92926200Y-74010200D02*
X93819300Y-74010200D01*
X92075000Y-74861400D02*
X92926200Y-74010200D01*
X92075000Y-76364700D02*
X92075000Y-74861400D01*
X90660900Y-77778800D02*
X92075000Y-76364700D01*
X89671000Y-77778800D02*
X90660900Y-77778800D01*
X87428100Y-80021700D02*
X89671000Y-77778800D01*
X83584400Y-80021700D02*
X87428100Y-80021700D01*
%TO.N,GND*%
X73896700Y-97155000D02*
X72626700Y-95885000D01*
X83225000Y-97155000D02*
X73896700Y-97155000D01*
X71120000Y-95885000D02*
X72626700Y-95885000D01*
X100370000Y-107315000D02*
X118150000Y-107315000D01*
X138163400Y-95220100D02*
X138828300Y-95885000D01*
X135295000Y-95220100D02*
X138163400Y-95220100D01*
X140335000Y-95885000D02*
X138828300Y-95885000D01*
X152232300Y-127000000D02*
X152359300Y-126873000D01*
X148103000Y-127000000D02*
X152232300Y-127000000D01*
X153416000Y-126873000D02*
X152359300Y-126873000D01*
X145889600Y-79730000D02*
X153575000Y-79730000D01*
X144716700Y-80902900D02*
X145889600Y-79730000D01*
X144716700Y-81280000D02*
X144716700Y-80902900D01*
X143510000Y-81280000D02*
X144716700Y-81280000D01*
X69613300Y-95885000D02*
X66040000Y-95885000D01*
X71120000Y-95885000D02*
X69613300Y-95885000D01*
X128786700Y-88265000D02*
X135295000Y-88265000D01*
X121801700Y-81280000D02*
X128786700Y-88265000D01*
X120645000Y-81280000D02*
X121801700Y-81280000D01*
X154686000Y-99535500D02*
X154686000Y-104648000D01*
X155814500Y-98407000D02*
X154686000Y-99535500D01*
X155814500Y-96271500D02*
X155814500Y-98407000D01*
X154686000Y-95143000D02*
X155814500Y-96271500D01*
%TO.N,+3.3V*%
X60960000Y-80645000D02*
X67945000Y-80645000D01*
X67945000Y-87670000D02*
X68540000Y-88265000D01*
X67945000Y-80645000D02*
X67945000Y-87670000D01*
X115570000Y-93345000D02*
X105410000Y-93345000D01*
X80645000Y-93345000D02*
X71120000Y-93345000D01*
X97790000Y-93345000D02*
X88265000Y-93345000D01*
X123190000Y-93345000D02*
X132715000Y-93345000D01*
%TO.N,GND*%
X64897000Y-67818000D02*
X62738000Y-67818000D01*
X62738000Y-67818000D02*
X59055000Y-64135000D01*
X70485000Y-75565000D02*
X62738000Y-67818000D01*
X59055000Y-64135000D02*
X59055000Y-64008000D01*
X59055000Y-64008000D02*
X59055000Y-63246000D01*
X59055000Y-65151000D02*
X59055000Y-64008000D01*
X64897000Y-67818000D02*
X95758000Y-67818000D01*
X64897000Y-67818000D02*
X66167000Y-67818000D01*
X59055000Y-63246000D02*
X59055000Y-56515000D01*
X59055000Y-77089000D02*
X59055000Y-65151000D01*
X66040000Y-113665000D02*
X63500000Y-116205000D01*
X135295000Y-113625000D02*
X132715000Y-116205000D01*
X70445000Y-80645000D02*
X70445000Y-75605000D01*
X83225000Y-113625000D02*
X80645000Y-116205000D01*
X66040000Y-88265000D02*
X66040000Y-113665000D01*
X103525000Y-75585000D02*
X103505000Y-75565000D01*
X100370000Y-88265000D02*
X100370000Y-113625000D01*
X59055000Y-56515000D02*
X57785000Y-55245000D01*
X58460000Y-80645000D02*
X58460000Y-77684000D01*
X118150000Y-113625000D02*
X115570000Y-116205000D01*
X70445000Y-75605000D02*
X70485000Y-75565000D01*
X83225000Y-88265000D02*
X83225000Y-113625000D01*
X118150000Y-88265000D02*
X118150000Y-113625000D01*
X103525000Y-80645000D02*
X103525000Y-75585000D01*
X58460000Y-77684000D02*
X59055000Y-77089000D01*
X135295000Y-88265000D02*
X135295000Y-113625000D01*
X100370000Y-113625000D02*
X97790000Y-116205000D01*
%TD*%
M02*
