%TF.GenerationSoftware,KiCad,Pcbnew,7.0.7*%
%TF.CreationDate,2023-11-23T15:50:36-08:00*%
%TF.ProjectId,WonrderTANG,576f6e72-6465-4725-9441-4e472e6b6963,rev?*%
%TF.SameCoordinates,Original*%
%TF.FileFunction,Drillmap*%
%TF.FilePolarity,Positive*%
%FSLAX45Y45*%
G04 Gerber Fmt 4.5, Leading zero omitted, Abs format (unit mm)*
G04 Created by KiCad (PCBNEW 7.0.7) date 2023-11-23 15:50:36*
%MOMM*%
%LPD*%
G01*
G04 APERTURE LIST*
%ADD10C,0.050000*%
%ADD11C,0.200000*%
%ADD12C,0.490000*%
G04 APERTURE END LIST*
D10*
X14478000Y-14287500D02*
X14414500Y-14351000D01*
X10795000Y-5715000D02*
X10439400Y-6057900D01*
X7874000Y-14287500D02*
X7874000Y-13335000D01*
X10795000Y-5334000D02*
X10795000Y-5715000D01*
X15811000Y-7810500D02*
X15811500Y-13335000D01*
X14414500Y-14351000D02*
X7937500Y-14351000D01*
X10795000Y-7810500D02*
X15811000Y-7810500D01*
X7874000Y-13335000D02*
X6667500Y-13335000D01*
X14478000Y-13335000D02*
X14478000Y-14287500D01*
X6667500Y-12065000D02*
X5651500Y-12065000D01*
X6667500Y-13335000D02*
X6667500Y-12065000D01*
X5651500Y-12065000D02*
X5651500Y-5334000D01*
X5651500Y-5334000D02*
X10795000Y-5334000D01*
X10795000Y-7378700D02*
X10795000Y-7810500D01*
X7937500Y-14351000D02*
X7874000Y-14287500D01*
X10439400Y-7035800D02*
X10795000Y-7378700D01*
X15811500Y-13335000D02*
X14478000Y-13335000D01*
X10439400Y-6057900D02*
X10439400Y-7035800D01*
D11*
D12*
X8121000Y-12001500D02*
X8611000Y-12491500D01*
X8611000Y-12001500D02*
X8121000Y-12491500D01*
X13741000Y-12511500D02*
X14231000Y-13001500D01*
X14231000Y-12511500D02*
X13741000Y-13001500D01*
D11*
X5909777Y-14664984D02*
X5909777Y-14464984D01*
X5909777Y-14464984D02*
X5957396Y-14464984D01*
X5957396Y-14464984D02*
X5985967Y-14474508D01*
X5985967Y-14474508D02*
X6005015Y-14493555D01*
X6005015Y-14493555D02*
X6014539Y-14512603D01*
X6014539Y-14512603D02*
X6024062Y-14550698D01*
X6024062Y-14550698D02*
X6024062Y-14579269D01*
X6024062Y-14579269D02*
X6014539Y-14617365D01*
X6014539Y-14617365D02*
X6005015Y-14636412D01*
X6005015Y-14636412D02*
X5985967Y-14655460D01*
X5985967Y-14655460D02*
X5957396Y-14664984D01*
X5957396Y-14664984D02*
X5909777Y-14664984D01*
X6109777Y-14664984D02*
X6109777Y-14531650D01*
X6109777Y-14569746D02*
X6119301Y-14550698D01*
X6119301Y-14550698D02*
X6128824Y-14541174D01*
X6128824Y-14541174D02*
X6147872Y-14531650D01*
X6147872Y-14531650D02*
X6166920Y-14531650D01*
X6233586Y-14664984D02*
X6233586Y-14531650D01*
X6233586Y-14464984D02*
X6224062Y-14474508D01*
X6224062Y-14474508D02*
X6233586Y-14484031D01*
X6233586Y-14484031D02*
X6243110Y-14474508D01*
X6243110Y-14474508D02*
X6233586Y-14464984D01*
X6233586Y-14464984D02*
X6233586Y-14484031D01*
X6357396Y-14664984D02*
X6338348Y-14655460D01*
X6338348Y-14655460D02*
X6328824Y-14636412D01*
X6328824Y-14636412D02*
X6328824Y-14464984D01*
X6462158Y-14664984D02*
X6443110Y-14655460D01*
X6443110Y-14655460D02*
X6433586Y-14636412D01*
X6433586Y-14636412D02*
X6433586Y-14464984D01*
X6690729Y-14664984D02*
X6690729Y-14464984D01*
X6690729Y-14464984D02*
X6757396Y-14607841D01*
X6757396Y-14607841D02*
X6824062Y-14464984D01*
X6824062Y-14464984D02*
X6824062Y-14664984D01*
X7005015Y-14664984D02*
X7005015Y-14560222D01*
X7005015Y-14560222D02*
X6995491Y-14541174D01*
X6995491Y-14541174D02*
X6976443Y-14531650D01*
X6976443Y-14531650D02*
X6938348Y-14531650D01*
X6938348Y-14531650D02*
X6919301Y-14541174D01*
X7005015Y-14655460D02*
X6985967Y-14664984D01*
X6985967Y-14664984D02*
X6938348Y-14664984D01*
X6938348Y-14664984D02*
X6919301Y-14655460D01*
X6919301Y-14655460D02*
X6909777Y-14636412D01*
X6909777Y-14636412D02*
X6909777Y-14617365D01*
X6909777Y-14617365D02*
X6919301Y-14598317D01*
X6919301Y-14598317D02*
X6938348Y-14588793D01*
X6938348Y-14588793D02*
X6985967Y-14588793D01*
X6985967Y-14588793D02*
X7005015Y-14579269D01*
X7100253Y-14531650D02*
X7100253Y-14731650D01*
X7100253Y-14541174D02*
X7119301Y-14531650D01*
X7119301Y-14531650D02*
X7157396Y-14531650D01*
X7157396Y-14531650D02*
X7176443Y-14541174D01*
X7176443Y-14541174D02*
X7185967Y-14550698D01*
X7185967Y-14550698D02*
X7195491Y-14569746D01*
X7195491Y-14569746D02*
X7195491Y-14626888D01*
X7195491Y-14626888D02*
X7185967Y-14645936D01*
X7185967Y-14645936D02*
X7176443Y-14655460D01*
X7176443Y-14655460D02*
X7157396Y-14664984D01*
X7157396Y-14664984D02*
X7119301Y-14664984D01*
X7119301Y-14664984D02*
X7100253Y-14655460D01*
X7281205Y-14645936D02*
X7290729Y-14655460D01*
X7290729Y-14655460D02*
X7281205Y-14664984D01*
X7281205Y-14664984D02*
X7271682Y-14655460D01*
X7271682Y-14655460D02*
X7281205Y-14645936D01*
X7281205Y-14645936D02*
X7281205Y-14664984D01*
X7281205Y-14541174D02*
X7290729Y-14550698D01*
X7290729Y-14550698D02*
X7281205Y-14560222D01*
X7281205Y-14560222D02*
X7271682Y-14550698D01*
X7271682Y-14550698D02*
X7281205Y-14541174D01*
X7281205Y-14541174D02*
X7281205Y-14560222D01*
X5449000Y-14893500D02*
X5649000Y-15093500D01*
X5649000Y-14893500D02*
X5449000Y-15093500D01*
X5995491Y-14951650D02*
X5995491Y-15084984D01*
X5947872Y-14875460D02*
X5900253Y-15018317D01*
X5900253Y-15018317D02*
X6024062Y-15018317D01*
X6100253Y-15065936D02*
X6109777Y-15075460D01*
X6109777Y-15075460D02*
X6100253Y-15084984D01*
X6100253Y-15084984D02*
X6090729Y-15075460D01*
X6090729Y-15075460D02*
X6100253Y-15065936D01*
X6100253Y-15065936D02*
X6100253Y-15084984D01*
X6205015Y-15084984D02*
X6243110Y-15084984D01*
X6243110Y-15084984D02*
X6262158Y-15075460D01*
X6262158Y-15075460D02*
X6271682Y-15065936D01*
X6271682Y-15065936D02*
X6290729Y-15037365D01*
X6290729Y-15037365D02*
X6300253Y-14999269D01*
X6300253Y-14999269D02*
X6300253Y-14923079D01*
X6300253Y-14923079D02*
X6290729Y-14904031D01*
X6290729Y-14904031D02*
X6281205Y-14894508D01*
X6281205Y-14894508D02*
X6262158Y-14884984D01*
X6262158Y-14884984D02*
X6224062Y-14884984D01*
X6224062Y-14884984D02*
X6205015Y-14894508D01*
X6205015Y-14894508D02*
X6195491Y-14904031D01*
X6195491Y-14904031D02*
X6185967Y-14923079D01*
X6185967Y-14923079D02*
X6185967Y-14970698D01*
X6185967Y-14970698D02*
X6195491Y-14989746D01*
X6195491Y-14989746D02*
X6205015Y-14999269D01*
X6205015Y-14999269D02*
X6224062Y-15008793D01*
X6224062Y-15008793D02*
X6262158Y-15008793D01*
X6262158Y-15008793D02*
X6281205Y-14999269D01*
X6281205Y-14999269D02*
X6290729Y-14989746D01*
X6290729Y-14989746D02*
X6300253Y-14970698D01*
X6424062Y-14884984D02*
X6443110Y-14884984D01*
X6443110Y-14884984D02*
X6462158Y-14894508D01*
X6462158Y-14894508D02*
X6471682Y-14904031D01*
X6471682Y-14904031D02*
X6481205Y-14923079D01*
X6481205Y-14923079D02*
X6490729Y-14961174D01*
X6490729Y-14961174D02*
X6490729Y-15008793D01*
X6490729Y-15008793D02*
X6481205Y-15046888D01*
X6481205Y-15046888D02*
X6471682Y-15065936D01*
X6471682Y-15065936D02*
X6462158Y-15075460D01*
X6462158Y-15075460D02*
X6443110Y-15084984D01*
X6443110Y-15084984D02*
X6424062Y-15084984D01*
X6424062Y-15084984D02*
X6405015Y-15075460D01*
X6405015Y-15075460D02*
X6395491Y-15065936D01*
X6395491Y-15065936D02*
X6385967Y-15046888D01*
X6385967Y-15046888D02*
X6376443Y-15008793D01*
X6376443Y-15008793D02*
X6376443Y-14961174D01*
X6376443Y-14961174D02*
X6385967Y-14923079D01*
X6385967Y-14923079D02*
X6395491Y-14904031D01*
X6395491Y-14904031D02*
X6405015Y-14894508D01*
X6405015Y-14894508D02*
X6424062Y-14884984D01*
X6614539Y-14884984D02*
X6633586Y-14884984D01*
X6633586Y-14884984D02*
X6652634Y-14894508D01*
X6652634Y-14894508D02*
X6662158Y-14904031D01*
X6662158Y-14904031D02*
X6671682Y-14923079D01*
X6671682Y-14923079D02*
X6681205Y-14961174D01*
X6681205Y-14961174D02*
X6681205Y-15008793D01*
X6681205Y-15008793D02*
X6671682Y-15046888D01*
X6671682Y-15046888D02*
X6662158Y-15065936D01*
X6662158Y-15065936D02*
X6652634Y-15075460D01*
X6652634Y-15075460D02*
X6633586Y-15084984D01*
X6633586Y-15084984D02*
X6614539Y-15084984D01*
X6614539Y-15084984D02*
X6595491Y-15075460D01*
X6595491Y-15075460D02*
X6585967Y-15065936D01*
X6585967Y-15065936D02*
X6576443Y-15046888D01*
X6576443Y-15046888D02*
X6566920Y-15008793D01*
X6566920Y-15008793D02*
X6566920Y-14961174D01*
X6566920Y-14961174D02*
X6576443Y-14923079D01*
X6576443Y-14923079D02*
X6585967Y-14904031D01*
X6585967Y-14904031D02*
X6595491Y-14894508D01*
X6595491Y-14894508D02*
X6614539Y-14884984D01*
X6766920Y-15084984D02*
X6766920Y-14951650D01*
X6766920Y-14970698D02*
X6776443Y-14961174D01*
X6776443Y-14961174D02*
X6795491Y-14951650D01*
X6795491Y-14951650D02*
X6824063Y-14951650D01*
X6824063Y-14951650D02*
X6843110Y-14961174D01*
X6843110Y-14961174D02*
X6852634Y-14980222D01*
X6852634Y-14980222D02*
X6852634Y-15084984D01*
X6852634Y-14980222D02*
X6862158Y-14961174D01*
X6862158Y-14961174D02*
X6881205Y-14951650D01*
X6881205Y-14951650D02*
X6909777Y-14951650D01*
X6909777Y-14951650D02*
X6928824Y-14961174D01*
X6928824Y-14961174D02*
X6938348Y-14980222D01*
X6938348Y-14980222D02*
X6938348Y-15084984D01*
X7033586Y-15084984D02*
X7033586Y-14951650D01*
X7033586Y-14970698D02*
X7043110Y-14961174D01*
X7043110Y-14961174D02*
X7062158Y-14951650D01*
X7062158Y-14951650D02*
X7090729Y-14951650D01*
X7090729Y-14951650D02*
X7109777Y-14961174D01*
X7109777Y-14961174D02*
X7119301Y-14980222D01*
X7119301Y-14980222D02*
X7119301Y-15084984D01*
X7119301Y-14980222D02*
X7128824Y-14961174D01*
X7128824Y-14961174D02*
X7147872Y-14951650D01*
X7147872Y-14951650D02*
X7176443Y-14951650D01*
X7176443Y-14951650D02*
X7195491Y-14961174D01*
X7195491Y-14961174D02*
X7205015Y-14980222D01*
X7205015Y-14980222D02*
X7205015Y-15084984D01*
X7595491Y-14875460D02*
X7424063Y-15132603D01*
X7852634Y-14884984D02*
X7871682Y-14884984D01*
X7871682Y-14884984D02*
X7890729Y-14894508D01*
X7890729Y-14894508D02*
X7900253Y-14904031D01*
X7900253Y-14904031D02*
X7909777Y-14923079D01*
X7909777Y-14923079D02*
X7919301Y-14961174D01*
X7919301Y-14961174D02*
X7919301Y-15008793D01*
X7919301Y-15008793D02*
X7909777Y-15046888D01*
X7909777Y-15046888D02*
X7900253Y-15065936D01*
X7900253Y-15065936D02*
X7890729Y-15075460D01*
X7890729Y-15075460D02*
X7871682Y-15084984D01*
X7871682Y-15084984D02*
X7852634Y-15084984D01*
X7852634Y-15084984D02*
X7833586Y-15075460D01*
X7833586Y-15075460D02*
X7824063Y-15065936D01*
X7824063Y-15065936D02*
X7814539Y-15046888D01*
X7814539Y-15046888D02*
X7805015Y-15008793D01*
X7805015Y-15008793D02*
X7805015Y-14961174D01*
X7805015Y-14961174D02*
X7814539Y-14923079D01*
X7814539Y-14923079D02*
X7824063Y-14904031D01*
X7824063Y-14904031D02*
X7833586Y-14894508D01*
X7833586Y-14894508D02*
X7852634Y-14884984D01*
X8005015Y-15065936D02*
X8014539Y-15075460D01*
X8014539Y-15075460D02*
X8005015Y-15084984D01*
X8005015Y-15084984D02*
X7995491Y-15075460D01*
X7995491Y-15075460D02*
X8005015Y-15065936D01*
X8005015Y-15065936D02*
X8005015Y-15084984D01*
X8205015Y-15084984D02*
X8090729Y-15084984D01*
X8147872Y-15084984D02*
X8147872Y-14884984D01*
X8147872Y-14884984D02*
X8128825Y-14913555D01*
X8128825Y-14913555D02*
X8109777Y-14932603D01*
X8109777Y-14932603D02*
X8090729Y-14942127D01*
X8300253Y-15084984D02*
X8338348Y-15084984D01*
X8338348Y-15084984D02*
X8357396Y-15075460D01*
X8357396Y-15075460D02*
X8366920Y-15065936D01*
X8366920Y-15065936D02*
X8385967Y-15037365D01*
X8385967Y-15037365D02*
X8395491Y-14999269D01*
X8395491Y-14999269D02*
X8395491Y-14923079D01*
X8395491Y-14923079D02*
X8385967Y-14904031D01*
X8385967Y-14904031D02*
X8376444Y-14894508D01*
X8376444Y-14894508D02*
X8357396Y-14884984D01*
X8357396Y-14884984D02*
X8319301Y-14884984D01*
X8319301Y-14884984D02*
X8300253Y-14894508D01*
X8300253Y-14894508D02*
X8290729Y-14904031D01*
X8290729Y-14904031D02*
X8281206Y-14923079D01*
X8281206Y-14923079D02*
X8281206Y-14970698D01*
X8281206Y-14970698D02*
X8290729Y-14989746D01*
X8290729Y-14989746D02*
X8300253Y-14999269D01*
X8300253Y-14999269D02*
X8319301Y-15008793D01*
X8319301Y-15008793D02*
X8357396Y-15008793D01*
X8357396Y-15008793D02*
X8376444Y-14999269D01*
X8376444Y-14999269D02*
X8385967Y-14989746D01*
X8385967Y-14989746D02*
X8395491Y-14970698D01*
X8471682Y-14904031D02*
X8481206Y-14894508D01*
X8481206Y-14894508D02*
X8500253Y-14884984D01*
X8500253Y-14884984D02*
X8547872Y-14884984D01*
X8547872Y-14884984D02*
X8566920Y-14894508D01*
X8566920Y-14894508D02*
X8576444Y-14904031D01*
X8576444Y-14904031D02*
X8585968Y-14923079D01*
X8585968Y-14923079D02*
X8585968Y-14942127D01*
X8585968Y-14942127D02*
X8576444Y-14970698D01*
X8576444Y-14970698D02*
X8462158Y-15084984D01*
X8462158Y-15084984D02*
X8585968Y-15084984D01*
X8681206Y-15084984D02*
X8719301Y-15084984D01*
X8719301Y-15084984D02*
X8738349Y-15075460D01*
X8738349Y-15075460D02*
X8747872Y-15065936D01*
X8747872Y-15065936D02*
X8766920Y-15037365D01*
X8766920Y-15037365D02*
X8776444Y-14999269D01*
X8776444Y-14999269D02*
X8776444Y-14923079D01*
X8776444Y-14923079D02*
X8766920Y-14904031D01*
X8766920Y-14904031D02*
X8757396Y-14894508D01*
X8757396Y-14894508D02*
X8738349Y-14884984D01*
X8738349Y-14884984D02*
X8700253Y-14884984D01*
X8700253Y-14884984D02*
X8681206Y-14894508D01*
X8681206Y-14894508D02*
X8671682Y-14904031D01*
X8671682Y-14904031D02*
X8662158Y-14923079D01*
X8662158Y-14923079D02*
X8662158Y-14970698D01*
X8662158Y-14970698D02*
X8671682Y-14989746D01*
X8671682Y-14989746D02*
X8681206Y-14999269D01*
X8681206Y-14999269D02*
X8700253Y-15008793D01*
X8700253Y-15008793D02*
X8738349Y-15008793D01*
X8738349Y-15008793D02*
X8757396Y-14999269D01*
X8757396Y-14999269D02*
X8766920Y-14989746D01*
X8766920Y-14989746D02*
X8776444Y-14970698D01*
X8852634Y-14884984D02*
X8852634Y-14923079D01*
X8928825Y-14884984D02*
X8928825Y-14923079D01*
X9224063Y-15161174D02*
X9214539Y-15151650D01*
X9214539Y-15151650D02*
X9195491Y-15123079D01*
X9195491Y-15123079D02*
X9185968Y-15104031D01*
X9185968Y-15104031D02*
X9176444Y-15075460D01*
X9176444Y-15075460D02*
X9166920Y-15027841D01*
X9166920Y-15027841D02*
X9166920Y-14989746D01*
X9166920Y-14989746D02*
X9176444Y-14942127D01*
X9176444Y-14942127D02*
X9185968Y-14913555D01*
X9185968Y-14913555D02*
X9195491Y-14894508D01*
X9195491Y-14894508D02*
X9214539Y-14865936D01*
X9214539Y-14865936D02*
X9224063Y-14856412D01*
X9290730Y-14904031D02*
X9300253Y-14894508D01*
X9300253Y-14894508D02*
X9319301Y-14884984D01*
X9319301Y-14884984D02*
X9366920Y-14884984D01*
X9366920Y-14884984D02*
X9385968Y-14894508D01*
X9385968Y-14894508D02*
X9395491Y-14904031D01*
X9395491Y-14904031D02*
X9405015Y-14923079D01*
X9405015Y-14923079D02*
X9405015Y-14942127D01*
X9405015Y-14942127D02*
X9395491Y-14970698D01*
X9395491Y-14970698D02*
X9281206Y-15084984D01*
X9281206Y-15084984D02*
X9405015Y-15084984D01*
X9643111Y-15084984D02*
X9643111Y-14884984D01*
X9728825Y-15084984D02*
X9728825Y-14980222D01*
X9728825Y-14980222D02*
X9719301Y-14961174D01*
X9719301Y-14961174D02*
X9700253Y-14951650D01*
X9700253Y-14951650D02*
X9671682Y-14951650D01*
X9671682Y-14951650D02*
X9652634Y-14961174D01*
X9652634Y-14961174D02*
X9643111Y-14970698D01*
X9852634Y-15084984D02*
X9833587Y-15075460D01*
X9833587Y-15075460D02*
X9824063Y-15065936D01*
X9824063Y-15065936D02*
X9814539Y-15046888D01*
X9814539Y-15046888D02*
X9814539Y-14989746D01*
X9814539Y-14989746D02*
X9824063Y-14970698D01*
X9824063Y-14970698D02*
X9833587Y-14961174D01*
X9833587Y-14961174D02*
X9852634Y-14951650D01*
X9852634Y-14951650D02*
X9881206Y-14951650D01*
X9881206Y-14951650D02*
X9900253Y-14961174D01*
X9900253Y-14961174D02*
X9909777Y-14970698D01*
X9909777Y-14970698D02*
X9919301Y-14989746D01*
X9919301Y-14989746D02*
X9919301Y-15046888D01*
X9919301Y-15046888D02*
X9909777Y-15065936D01*
X9909777Y-15065936D02*
X9900253Y-15075460D01*
X9900253Y-15075460D02*
X9881206Y-15084984D01*
X9881206Y-15084984D02*
X9852634Y-15084984D01*
X10033587Y-15084984D02*
X10014539Y-15075460D01*
X10014539Y-15075460D02*
X10005015Y-15056412D01*
X10005015Y-15056412D02*
X10005015Y-14884984D01*
X10185968Y-15075460D02*
X10166920Y-15084984D01*
X10166920Y-15084984D02*
X10128825Y-15084984D01*
X10128825Y-15084984D02*
X10109777Y-15075460D01*
X10109777Y-15075460D02*
X10100253Y-15056412D01*
X10100253Y-15056412D02*
X10100253Y-14980222D01*
X10100253Y-14980222D02*
X10109777Y-14961174D01*
X10109777Y-14961174D02*
X10128825Y-14951650D01*
X10128825Y-14951650D02*
X10166920Y-14951650D01*
X10166920Y-14951650D02*
X10185968Y-14961174D01*
X10185968Y-14961174D02*
X10195492Y-14980222D01*
X10195492Y-14980222D02*
X10195492Y-14999269D01*
X10195492Y-14999269D02*
X10100253Y-15018317D01*
X10271682Y-15075460D02*
X10290730Y-15084984D01*
X10290730Y-15084984D02*
X10328825Y-15084984D01*
X10328825Y-15084984D02*
X10347873Y-15075460D01*
X10347873Y-15075460D02*
X10357396Y-15056412D01*
X10357396Y-15056412D02*
X10357396Y-15046888D01*
X10357396Y-15046888D02*
X10347873Y-15027841D01*
X10347873Y-15027841D02*
X10328825Y-15018317D01*
X10328825Y-15018317D02*
X10300253Y-15018317D01*
X10300253Y-15018317D02*
X10281206Y-15008793D01*
X10281206Y-15008793D02*
X10271682Y-14989746D01*
X10271682Y-14989746D02*
X10271682Y-14980222D01*
X10271682Y-14980222D02*
X10281206Y-14961174D01*
X10281206Y-14961174D02*
X10300253Y-14951650D01*
X10300253Y-14951650D02*
X10328825Y-14951650D01*
X10328825Y-14951650D02*
X10347873Y-14961174D01*
X10424063Y-15161174D02*
X10433587Y-15151650D01*
X10433587Y-15151650D02*
X10452634Y-15123079D01*
X10452634Y-15123079D02*
X10462158Y-15104031D01*
X10462158Y-15104031D02*
X10471682Y-15075460D01*
X10471682Y-15075460D02*
X10481206Y-15027841D01*
X10481206Y-15027841D02*
X10481206Y-14989746D01*
X10481206Y-14989746D02*
X10471682Y-14942127D01*
X10471682Y-14942127D02*
X10462158Y-14913555D01*
X10462158Y-14913555D02*
X10452634Y-14894508D01*
X10452634Y-14894508D02*
X10433587Y-14865936D01*
X10433587Y-14865936D02*
X10424063Y-14856412D01*
X10785968Y-15161174D02*
X10776444Y-15151650D01*
X10776444Y-15151650D02*
X10757396Y-15123079D01*
X10757396Y-15123079D02*
X10747873Y-15104031D01*
X10747873Y-15104031D02*
X10738349Y-15075460D01*
X10738349Y-15075460D02*
X10728825Y-15027841D01*
X10728825Y-15027841D02*
X10728825Y-14989746D01*
X10728825Y-14989746D02*
X10738349Y-14942127D01*
X10738349Y-14942127D02*
X10747873Y-14913555D01*
X10747873Y-14913555D02*
X10757396Y-14894508D01*
X10757396Y-14894508D02*
X10776444Y-14865936D01*
X10776444Y-14865936D02*
X10785968Y-14856412D01*
X10862158Y-14951650D02*
X10862158Y-15084984D01*
X10862158Y-14970698D02*
X10871682Y-14961174D01*
X10871682Y-14961174D02*
X10890730Y-14951650D01*
X10890730Y-14951650D02*
X10919301Y-14951650D01*
X10919301Y-14951650D02*
X10938349Y-14961174D01*
X10938349Y-14961174D02*
X10947873Y-14980222D01*
X10947873Y-14980222D02*
X10947873Y-15084984D01*
X11071682Y-15084984D02*
X11052634Y-15075460D01*
X11052634Y-15075460D02*
X11043111Y-15065936D01*
X11043111Y-15065936D02*
X11033587Y-15046888D01*
X11033587Y-15046888D02*
X11033587Y-14989746D01*
X11033587Y-14989746D02*
X11043111Y-14970698D01*
X11043111Y-14970698D02*
X11052634Y-14961174D01*
X11052634Y-14961174D02*
X11071682Y-14951650D01*
X11071682Y-14951650D02*
X11100254Y-14951650D01*
X11100254Y-14951650D02*
X11119301Y-14961174D01*
X11119301Y-14961174D02*
X11128825Y-14970698D01*
X11128825Y-14970698D02*
X11138349Y-14989746D01*
X11138349Y-14989746D02*
X11138349Y-15046888D01*
X11138349Y-15046888D02*
X11128825Y-15065936D01*
X11128825Y-15065936D02*
X11119301Y-15075460D01*
X11119301Y-15075460D02*
X11100254Y-15084984D01*
X11100254Y-15084984D02*
X11071682Y-15084984D01*
X11195492Y-14951650D02*
X11271682Y-14951650D01*
X11224063Y-14884984D02*
X11224063Y-15056412D01*
X11224063Y-15056412D02*
X11233587Y-15075460D01*
X11233587Y-15075460D02*
X11252634Y-15084984D01*
X11252634Y-15084984D02*
X11271682Y-15084984D01*
X11490730Y-14951650D02*
X11490730Y-15151650D01*
X11490730Y-14961174D02*
X11509777Y-14951650D01*
X11509777Y-14951650D02*
X11547873Y-14951650D01*
X11547873Y-14951650D02*
X11566920Y-14961174D01*
X11566920Y-14961174D02*
X11576444Y-14970698D01*
X11576444Y-14970698D02*
X11585968Y-14989746D01*
X11585968Y-14989746D02*
X11585968Y-15046888D01*
X11585968Y-15046888D02*
X11576444Y-15065936D01*
X11576444Y-15065936D02*
X11566920Y-15075460D01*
X11566920Y-15075460D02*
X11547873Y-15084984D01*
X11547873Y-15084984D02*
X11509777Y-15084984D01*
X11509777Y-15084984D02*
X11490730Y-15075460D01*
X11700253Y-15084984D02*
X11681206Y-15075460D01*
X11681206Y-15075460D02*
X11671682Y-15056412D01*
X11671682Y-15056412D02*
X11671682Y-14884984D01*
X11862158Y-15084984D02*
X11862158Y-14980222D01*
X11862158Y-14980222D02*
X11852634Y-14961174D01*
X11852634Y-14961174D02*
X11833587Y-14951650D01*
X11833587Y-14951650D02*
X11795492Y-14951650D01*
X11795492Y-14951650D02*
X11776444Y-14961174D01*
X11862158Y-15075460D02*
X11843111Y-15084984D01*
X11843111Y-15084984D02*
X11795492Y-15084984D01*
X11795492Y-15084984D02*
X11776444Y-15075460D01*
X11776444Y-15075460D02*
X11766920Y-15056412D01*
X11766920Y-15056412D02*
X11766920Y-15037365D01*
X11766920Y-15037365D02*
X11776444Y-15018317D01*
X11776444Y-15018317D02*
X11795492Y-15008793D01*
X11795492Y-15008793D02*
X11843111Y-15008793D01*
X11843111Y-15008793D02*
X11862158Y-14999269D01*
X11928825Y-14951650D02*
X12005015Y-14951650D01*
X11957396Y-14884984D02*
X11957396Y-15056412D01*
X11957396Y-15056412D02*
X11966920Y-15075460D01*
X11966920Y-15075460D02*
X11985968Y-15084984D01*
X11985968Y-15084984D02*
X12005015Y-15084984D01*
X12147873Y-15075460D02*
X12128825Y-15084984D01*
X12128825Y-15084984D02*
X12090730Y-15084984D01*
X12090730Y-15084984D02*
X12071682Y-15075460D01*
X12071682Y-15075460D02*
X12062158Y-15056412D01*
X12062158Y-15056412D02*
X12062158Y-14980222D01*
X12062158Y-14980222D02*
X12071682Y-14961174D01*
X12071682Y-14961174D02*
X12090730Y-14951650D01*
X12090730Y-14951650D02*
X12128825Y-14951650D01*
X12128825Y-14951650D02*
X12147873Y-14961174D01*
X12147873Y-14961174D02*
X12157396Y-14980222D01*
X12157396Y-14980222D02*
X12157396Y-14999269D01*
X12157396Y-14999269D02*
X12062158Y-15018317D01*
X12328825Y-15084984D02*
X12328825Y-14884984D01*
X12328825Y-15075460D02*
X12309777Y-15084984D01*
X12309777Y-15084984D02*
X12271682Y-15084984D01*
X12271682Y-15084984D02*
X12252634Y-15075460D01*
X12252634Y-15075460D02*
X12243111Y-15065936D01*
X12243111Y-15065936D02*
X12233587Y-15046888D01*
X12233587Y-15046888D02*
X12233587Y-14989746D01*
X12233587Y-14989746D02*
X12243111Y-14970698D01*
X12243111Y-14970698D02*
X12252634Y-14961174D01*
X12252634Y-14961174D02*
X12271682Y-14951650D01*
X12271682Y-14951650D02*
X12309777Y-14951650D01*
X12309777Y-14951650D02*
X12328825Y-14961174D01*
X12405015Y-15161174D02*
X12414539Y-15151650D01*
X12414539Y-15151650D02*
X12433587Y-15123079D01*
X12433587Y-15123079D02*
X12443111Y-15104031D01*
X12443111Y-15104031D02*
X12452634Y-15075460D01*
X12452634Y-15075460D02*
X12462158Y-15027841D01*
X12462158Y-15027841D02*
X12462158Y-14989746D01*
X12462158Y-14989746D02*
X12452634Y-14942127D01*
X12452634Y-14942127D02*
X12443111Y-14913555D01*
X12443111Y-14913555D02*
X12433587Y-14894508D01*
X12433587Y-14894508D02*
X12414539Y-14865936D01*
X12414539Y-14865936D02*
X12405015Y-14856412D01*
M02*
