%TF.GenerationSoftware,KiCad,Pcbnew,7.0.7*%
%TF.CreationDate,2024-05-25T22:43:49-07:00*%
%TF.ProjectId,WonrderTANG,576f6e72-6465-4725-9441-4e472e6b6963,rev?*%
%TF.SameCoordinates,Original*%
%TF.FileFunction,Soldermask,Bot*%
%TF.FilePolarity,Negative*%
%FSLAX46Y46*%
G04 Gerber Fmt 4.6, Leading zero omitted, Abs format (unit mm)*
G04 Created by KiCad (PCBNEW 7.0.7) date 2024-05-25 22:43:49*
%MOMM*%
%LPD*%
G01*
G04 APERTURE LIST*
%ADD10C,1.600000*%
%ADD11R,2.200000X2.200000*%
%ADD12O,2.200000X2.200000*%
%ADD13R,1.600000X1.600000*%
%ADD14R,2.400000X1.600000*%
%ADD15O,2.400000X1.600000*%
%ADD16O,1.600000X1.600000*%
%ADD17R,1.700000X1.700000*%
%ADD18O,1.700000X1.700000*%
%ADD19O,2.800000X1.800000*%
%ADD20C,4.900000*%
%ADD21R,1.270000X7.620000*%
%ADD22R,1.500000X1.050000*%
%ADD23O,1.500000X1.050000*%
%ADD24R,1.600000X2.400000*%
%ADD25O,1.600000X2.400000*%
%ADD26R,1.800000X1.800000*%
%ADD27C,1.800000*%
G04 APERTURE END LIST*
D10*
%TO.C,C6*%
X85725000Y-88265000D03*
X83225000Y-88265000D03*
%TD*%
D11*
%TO.C,D2*%
X99060000Y-80645000D03*
D12*
X88900000Y-80645000D03*
%TD*%
D10*
%TO.C,C8*%
X60960000Y-80645000D03*
X58460000Y-80645000D03*
%TD*%
%TO.C,C11*%
X68540000Y-88265000D03*
X66040000Y-88265000D03*
%TD*%
%TO.C,C5*%
X67945000Y-80645000D03*
X70445000Y-80645000D03*
%TD*%
D13*
%TO.C,C3*%
X148590000Y-107136000D03*
D10*
X148590000Y-105136000D03*
%TD*%
D13*
%TO.C,C1*%
X148590000Y-97250000D03*
D10*
X148590000Y-95250000D03*
%TD*%
D14*
%TO.C,U1*%
X80645000Y-93345000D03*
D15*
X80645000Y-95885000D03*
X80645000Y-98425000D03*
X80645000Y-100965000D03*
X80645000Y-103505000D03*
X80645000Y-106045000D03*
X80645000Y-108585000D03*
X80645000Y-111125000D03*
X80645000Y-113665000D03*
X80645000Y-116205000D03*
X88265000Y-116205000D03*
X88265000Y-113665000D03*
X88265000Y-111125000D03*
X88265000Y-108585000D03*
X88265000Y-106045000D03*
X88265000Y-103505000D03*
X88265000Y-100965000D03*
X88265000Y-98425000D03*
X88265000Y-95885000D03*
X88265000Y-93345000D03*
%TD*%
D10*
%TO.C,R5*%
X145669000Y-118979000D03*
D16*
X155829000Y-118979000D03*
%TD*%
D17*
%TO.C,J3*%
X71501000Y-126995000D03*
D18*
X71501000Y-129535000D03*
%TD*%
D10*
%TO.C,R1*%
X128270000Y-81280000D03*
D16*
X138430000Y-81280000D03*
%TD*%
D19*
%TO.C,J2*%
X155575000Y-87630000D03*
X153575000Y-79730000D03*
X155575000Y-82130000D03*
%TD*%
D20*
%TO.C,CON1*%
X83660000Y-122465000D03*
X139860000Y-127565000D03*
D21*
X142240000Y-139700000D03*
X139700000Y-139700000D03*
X137160000Y-139700000D03*
X134620000Y-139700000D03*
X132080000Y-139700000D03*
X129540000Y-139700000D03*
X127000000Y-139700000D03*
X124460000Y-139700000D03*
X121920000Y-139700000D03*
X119380000Y-139700000D03*
X116840000Y-139700000D03*
X114300000Y-139700000D03*
X111760000Y-139700000D03*
X109220000Y-139700000D03*
X106680000Y-139700000D03*
X104140000Y-139700000D03*
X101600000Y-139700000D03*
X99060000Y-139700000D03*
X96520000Y-139700000D03*
X93980000Y-139700000D03*
X91440000Y-139700000D03*
X88900000Y-139700000D03*
X86360000Y-139700000D03*
X83820000Y-139700000D03*
X81280000Y-139700000D03*
%TD*%
D10*
%TO.C,R2*%
X145796000Y-101199000D03*
D16*
X155956000Y-101199000D03*
%TD*%
D13*
%TO.C,C13*%
X71882000Y-120964900D03*
D10*
X71882000Y-122964900D03*
%TD*%
D22*
%TO.C,Q2*%
X153416000Y-126873000D03*
D23*
X153416000Y-128143000D03*
X153416000Y-129413000D03*
%TD*%
D14*
%TO.C,U6*%
X115570000Y-93345000D03*
D15*
X115570000Y-95885000D03*
X115570000Y-98425000D03*
X115570000Y-100965000D03*
X115570000Y-103505000D03*
X115570000Y-106045000D03*
X115570000Y-108585000D03*
X115570000Y-111125000D03*
X115570000Y-113665000D03*
X115570000Y-116205000D03*
X123190000Y-116205000D03*
X123190000Y-113665000D03*
X123190000Y-111125000D03*
X123190000Y-108585000D03*
X123190000Y-106045000D03*
X123190000Y-103505000D03*
X123190000Y-100965000D03*
X123190000Y-98425000D03*
X123190000Y-95885000D03*
X123190000Y-93345000D03*
%TD*%
D10*
%TO.C,R4*%
X155829000Y-115169000D03*
D16*
X145669000Y-115169000D03*
%TD*%
D10*
%TO.C,C2*%
X154686000Y-97643000D03*
X154686000Y-95143000D03*
%TD*%
D14*
%TO.C,U2*%
X132715000Y-93345000D03*
D15*
X132715000Y-95885000D03*
X132715000Y-98425000D03*
X132715000Y-100965000D03*
X132715000Y-103505000D03*
X132715000Y-106045000D03*
X132715000Y-108585000D03*
X132715000Y-111125000D03*
X132715000Y-113665000D03*
X132715000Y-116205000D03*
X140335000Y-116205000D03*
X140335000Y-113665000D03*
X140335000Y-111125000D03*
X140335000Y-108585000D03*
X140335000Y-106045000D03*
X140335000Y-103505000D03*
X140335000Y-100965000D03*
X140335000Y-98425000D03*
X140335000Y-95885000D03*
X140335000Y-93345000D03*
%TD*%
D24*
%TO.C,U5*%
X106045000Y-55245000D03*
D25*
X103505000Y-55245000D03*
X100965000Y-55245000D03*
X98425000Y-55245000D03*
X95885000Y-55245000D03*
X93345000Y-55245000D03*
X90805000Y-55245000D03*
X88265000Y-55245000D03*
X85725000Y-55245000D03*
X83185000Y-55245000D03*
X80645000Y-55245000D03*
X78105000Y-55245000D03*
X75565000Y-55245000D03*
X73025000Y-55245000D03*
X70485000Y-55245000D03*
X67945000Y-55245000D03*
X65405000Y-55245000D03*
X62865000Y-55245000D03*
X60325000Y-55245000D03*
X57785000Y-55245000D03*
X57785000Y-75565000D03*
X60325000Y-75565000D03*
X62865000Y-75565000D03*
X65405000Y-75565000D03*
X67945000Y-75565000D03*
X70485000Y-75565000D03*
X73025000Y-75565000D03*
X75565000Y-75565000D03*
X78105000Y-75565000D03*
X80645000Y-75565000D03*
X83185000Y-75565000D03*
X85725000Y-75565000D03*
X88265000Y-75565000D03*
X90805000Y-75565000D03*
X93345000Y-75565000D03*
X95885000Y-75565000D03*
X98425000Y-75565000D03*
X100965000Y-75565000D03*
X103505000Y-75565000D03*
X106045000Y-75565000D03*
%TD*%
D10*
%TO.C,C7*%
X102870000Y-88265000D03*
X100370000Y-88265000D03*
%TD*%
%TO.C,C10*%
X120650000Y-88265000D03*
X118150000Y-88265000D03*
%TD*%
%TO.C,C9*%
X137795000Y-88265000D03*
X135295000Y-88265000D03*
%TD*%
D26*
%TO.C,D1*%
X143510000Y-81280000D03*
D27*
X146050000Y-81280000D03*
%TD*%
D10*
%TO.C,C12*%
X106025000Y-80645000D03*
X103525000Y-80645000D03*
%TD*%
D14*
%TO.C,U4*%
X63500000Y-93345000D03*
D15*
X63500000Y-95885000D03*
X63500000Y-98425000D03*
X63500000Y-100965000D03*
X63500000Y-103505000D03*
X63500000Y-106045000D03*
X63500000Y-108585000D03*
X63500000Y-111125000D03*
X63500000Y-113665000D03*
X63500000Y-116205000D03*
X71120000Y-116205000D03*
X71120000Y-113665000D03*
X71120000Y-111125000D03*
X71120000Y-108585000D03*
X71120000Y-106045000D03*
X71120000Y-103505000D03*
X71120000Y-100965000D03*
X71120000Y-98425000D03*
X71120000Y-95885000D03*
X71120000Y-93345000D03*
%TD*%
D10*
%TO.C,C4*%
X154686000Y-107148000D03*
X154686000Y-104648000D03*
%TD*%
D14*
%TO.C,U3*%
X97790000Y-93345000D03*
D15*
X97790000Y-95885000D03*
X97790000Y-98425000D03*
X97790000Y-100965000D03*
X97790000Y-103505000D03*
X97790000Y-106045000D03*
X97790000Y-108585000D03*
X97790000Y-111125000D03*
X97790000Y-113665000D03*
X97790000Y-116205000D03*
X105410000Y-116205000D03*
X105410000Y-113665000D03*
X105410000Y-111125000D03*
X105410000Y-108585000D03*
X105410000Y-106045000D03*
X105410000Y-103505000D03*
X105410000Y-100965000D03*
X105410000Y-98425000D03*
X105410000Y-95885000D03*
X105410000Y-93345000D03*
%TD*%
D22*
%TO.C,Q1*%
X148103000Y-127000000D03*
D23*
X148103000Y-128270000D03*
X148103000Y-129540000D03*
%TD*%
D17*
%TO.C,J1*%
X118105000Y-81280000D03*
D18*
X120645000Y-81280000D03*
%TD*%
D10*
%TO.C,R6*%
X145669000Y-122662000D03*
D16*
X155829000Y-122662000D03*
%TD*%
D10*
%TO.C,R3*%
X145669000Y-111359000D03*
D16*
X155829000Y-111359000D03*
%TD*%
M02*
