%TF.GenerationSoftware,KiCad,Pcbnew,7.0.7*%
%TF.CreationDate,2023-11-23T15:50:38-08:00*%
%TF.ProjectId,WonrderTANG,576f6e72-6465-4725-9441-4e472e6b6963,rev?*%
%TF.SameCoordinates,Original*%
%TF.FileFunction,Legend,Bot*%
%TF.FilePolarity,Positive*%
%FSLAX46Y46*%
G04 Gerber Fmt 4.6, Leading zero omitted, Abs format (unit mm)*
G04 Created by KiCad (PCBNEW 7.0.7) date 2023-11-23 15:50:38*
%MOMM*%
%LPD*%
G01*
G04 APERTURE LIST*
%ADD10C,0.150000*%
%ADD11C,1.600000*%
%ADD12R,2.200000X2.200000*%
%ADD13O,2.200000X2.200000*%
%ADD14R,1.600000X1.600000*%
%ADD15R,2.400000X1.600000*%
%ADD16O,2.400000X1.600000*%
%ADD17O,1.600000X1.600000*%
%ADD18R,1.700000X1.700000*%
%ADD19O,1.700000X1.700000*%
%ADD20O,2.800000X1.800000*%
%ADD21C,4.900000*%
%ADD22R,1.270000X7.620000*%
%ADD23R,1.600000X2.400000*%
%ADD24O,1.600000X2.400000*%
%ADD25R,1.800000X1.800000*%
%ADD26C,1.800000*%
%ADD27R,1.500000X1.050000*%
%ADD28O,1.500000X1.050000*%
G04 APERTURE END LIST*
D10*
X141954285Y-134439819D02*
X142525713Y-134439819D01*
X142239999Y-134439819D02*
X142239999Y-133439819D01*
X142239999Y-133439819D02*
X142335237Y-133582676D01*
X142335237Y-133582676D02*
X142430475Y-133677914D01*
X142430475Y-133677914D02*
X142525713Y-133725533D01*
X131625180Y-132378220D02*
X132625180Y-132378220D01*
X132625180Y-132378220D02*
X131910895Y-132044887D01*
X131910895Y-132044887D02*
X132625180Y-131711554D01*
X132625180Y-131711554D02*
X131625180Y-131711554D01*
X131625180Y-130711554D02*
X131625180Y-131282982D01*
X131625180Y-130997268D02*
X132625180Y-130997268D01*
X132625180Y-130997268D02*
X132482323Y-131092506D01*
X132482323Y-131092506D02*
X132387085Y-131187744D01*
X132387085Y-131187744D02*
X132339466Y-131282982D01*
X103970895Y-132425839D02*
X103970895Y-131949649D01*
X103685180Y-132521077D02*
X104685180Y-132187744D01*
X104685180Y-132187744D02*
X103685180Y-131854411D01*
X104685180Y-131044887D02*
X104685180Y-131521077D01*
X104685180Y-131521077D02*
X104208990Y-131568696D01*
X104208990Y-131568696D02*
X104256609Y-131521077D01*
X104256609Y-131521077D02*
X104304228Y-131425839D01*
X104304228Y-131425839D02*
X104304228Y-131187744D01*
X104304228Y-131187744D02*
X104256609Y-131092506D01*
X104256609Y-131092506D02*
X104208990Y-131044887D01*
X104208990Y-131044887D02*
X104113752Y-130997268D01*
X104113752Y-130997268D02*
X103875657Y-130997268D01*
X103875657Y-130997268D02*
X103780419Y-131044887D01*
X103780419Y-131044887D02*
X103732800Y-131092506D01*
X103732800Y-131092506D02*
X103685180Y-131187744D01*
X103685180Y-131187744D02*
X103685180Y-131425839D01*
X103685180Y-131425839D02*
X103732800Y-131521077D01*
X103732800Y-131521077D02*
X103780419Y-131568696D01*
X115061904Y-133535057D02*
X115014285Y-133487438D01*
X115014285Y-133487438D02*
X114919047Y-133439819D01*
X114919047Y-133439819D02*
X114680952Y-133439819D01*
X114680952Y-133439819D02*
X114585714Y-133487438D01*
X114585714Y-133487438D02*
X114538095Y-133535057D01*
X114538095Y-133535057D02*
X114490476Y-133630295D01*
X114490476Y-133630295D02*
X114490476Y-133725533D01*
X114490476Y-133725533D02*
X114538095Y-133868390D01*
X114538095Y-133868390D02*
X115109523Y-134439819D01*
X115109523Y-134439819D02*
X114490476Y-134439819D01*
X114157142Y-133439819D02*
X113538095Y-133439819D01*
X113538095Y-133439819D02*
X113871428Y-133820771D01*
X113871428Y-133820771D02*
X113728571Y-133820771D01*
X113728571Y-133820771D02*
X113633333Y-133868390D01*
X113633333Y-133868390D02*
X113585714Y-133916009D01*
X113585714Y-133916009D02*
X113538095Y-134011247D01*
X113538095Y-134011247D02*
X113538095Y-134249342D01*
X113538095Y-134249342D02*
X113585714Y-134344580D01*
X113585714Y-134344580D02*
X113633333Y-134392200D01*
X113633333Y-134392200D02*
X113728571Y-134439819D01*
X113728571Y-134439819D02*
X114014285Y-134439819D01*
X114014285Y-134439819D02*
X114109523Y-134392200D01*
X114109523Y-134392200D02*
X114157142Y-134344580D01*
X98605180Y-132378220D02*
X99605180Y-132378220D01*
X99605180Y-132378220D02*
X99605180Y-132140125D01*
X99605180Y-132140125D02*
X99557561Y-131997268D01*
X99557561Y-131997268D02*
X99462323Y-131902030D01*
X99462323Y-131902030D02*
X99367085Y-131854411D01*
X99367085Y-131854411D02*
X99176609Y-131806792D01*
X99176609Y-131806792D02*
X99033752Y-131806792D01*
X99033752Y-131806792D02*
X98843276Y-131854411D01*
X98843276Y-131854411D02*
X98748038Y-131902030D01*
X98748038Y-131902030D02*
X98652800Y-131997268D01*
X98652800Y-131997268D02*
X98605180Y-132140125D01*
X98605180Y-132140125D02*
X98605180Y-132378220D01*
X99605180Y-131473458D02*
X99605180Y-130854411D01*
X99605180Y-130854411D02*
X99224228Y-131187744D01*
X99224228Y-131187744D02*
X99224228Y-131044887D01*
X99224228Y-131044887D02*
X99176609Y-130949649D01*
X99176609Y-130949649D02*
X99128990Y-130902030D01*
X99128990Y-130902030D02*
X99033752Y-130854411D01*
X99033752Y-130854411D02*
X98795657Y-130854411D01*
X98795657Y-130854411D02*
X98700419Y-130902030D01*
X98700419Y-130902030D02*
X98652800Y-130949649D01*
X98652800Y-130949649D02*
X98605180Y-131044887D01*
X98605180Y-131044887D02*
X98605180Y-131330601D01*
X98605180Y-131330601D02*
X98652800Y-131425839D01*
X98652800Y-131425839D02*
X98700419Y-131473458D01*
X83746133Y-132378220D02*
X83746133Y-131616316D01*
X83365180Y-131997268D02*
X84127085Y-131997268D01*
X84365180Y-130663935D02*
X84365180Y-131140125D01*
X84365180Y-131140125D02*
X83888990Y-131187744D01*
X83888990Y-131187744D02*
X83936609Y-131140125D01*
X83936609Y-131140125D02*
X83984228Y-131044887D01*
X83984228Y-131044887D02*
X83984228Y-130806792D01*
X83984228Y-130806792D02*
X83936609Y-130711554D01*
X83936609Y-130711554D02*
X83888990Y-130663935D01*
X83888990Y-130663935D02*
X83793752Y-130616316D01*
X83793752Y-130616316D02*
X83555657Y-130616316D01*
X83555657Y-130616316D02*
X83460419Y-130663935D01*
X83460419Y-130663935D02*
X83412800Y-130711554D01*
X83412800Y-130711554D02*
X83365180Y-130806792D01*
X83365180Y-130806792D02*
X83365180Y-131044887D01*
X83365180Y-131044887D02*
X83412800Y-131140125D01*
X83412800Y-131140125D02*
X83460419Y-131187744D01*
X132270475Y-134439819D02*
X132079999Y-134439819D01*
X132079999Y-134439819D02*
X131984761Y-134392200D01*
X131984761Y-134392200D02*
X131937142Y-134344580D01*
X131937142Y-134344580D02*
X131841904Y-134201723D01*
X131841904Y-134201723D02*
X131794285Y-134011247D01*
X131794285Y-134011247D02*
X131794285Y-133630295D01*
X131794285Y-133630295D02*
X131841904Y-133535057D01*
X131841904Y-133535057D02*
X131889523Y-133487438D01*
X131889523Y-133487438D02*
X131984761Y-133439819D01*
X131984761Y-133439819D02*
X132175237Y-133439819D01*
X132175237Y-133439819D02*
X132270475Y-133487438D01*
X132270475Y-133487438D02*
X132318094Y-133535057D01*
X132318094Y-133535057D02*
X132365713Y-133630295D01*
X132365713Y-133630295D02*
X132365713Y-133868390D01*
X132365713Y-133868390D02*
X132318094Y-133963628D01*
X132318094Y-133963628D02*
X132270475Y-134011247D01*
X132270475Y-134011247D02*
X132175237Y-134058866D01*
X132175237Y-134058866D02*
X131984761Y-134058866D01*
X131984761Y-134058866D02*
X131889523Y-134011247D01*
X131889523Y-134011247D02*
X131841904Y-133963628D01*
X131841904Y-133963628D02*
X131794285Y-133868390D01*
X96065180Y-132378220D02*
X97065180Y-132378220D01*
X97065180Y-132378220D02*
X97065180Y-132140125D01*
X97065180Y-132140125D02*
X97017561Y-131997268D01*
X97017561Y-131997268D02*
X96922323Y-131902030D01*
X96922323Y-131902030D02*
X96827085Y-131854411D01*
X96827085Y-131854411D02*
X96636609Y-131806792D01*
X96636609Y-131806792D02*
X96493752Y-131806792D01*
X96493752Y-131806792D02*
X96303276Y-131854411D01*
X96303276Y-131854411D02*
X96208038Y-131902030D01*
X96208038Y-131902030D02*
X96112800Y-131997268D01*
X96112800Y-131997268D02*
X96065180Y-132140125D01*
X96065180Y-132140125D02*
X96065180Y-132378220D01*
X97065180Y-130902030D02*
X97065180Y-131378220D01*
X97065180Y-131378220D02*
X96588990Y-131425839D01*
X96588990Y-131425839D02*
X96636609Y-131378220D01*
X96636609Y-131378220D02*
X96684228Y-131282982D01*
X96684228Y-131282982D02*
X96684228Y-131044887D01*
X96684228Y-131044887D02*
X96636609Y-130949649D01*
X96636609Y-130949649D02*
X96588990Y-130902030D01*
X96588990Y-130902030D02*
X96493752Y-130854411D01*
X96493752Y-130854411D02*
X96255657Y-130854411D01*
X96255657Y-130854411D02*
X96160419Y-130902030D01*
X96160419Y-130902030D02*
X96112800Y-130949649D01*
X96112800Y-130949649D02*
X96065180Y-131044887D01*
X96065180Y-131044887D02*
X96065180Y-131282982D01*
X96065180Y-131282982D02*
X96112800Y-131378220D01*
X96112800Y-131378220D02*
X96160419Y-131425839D01*
X136921904Y-133439819D02*
X137398094Y-133439819D01*
X137398094Y-133439819D02*
X137445713Y-133916009D01*
X137445713Y-133916009D02*
X137398094Y-133868390D01*
X137398094Y-133868390D02*
X137302856Y-133820771D01*
X137302856Y-133820771D02*
X137064761Y-133820771D01*
X137064761Y-133820771D02*
X136969523Y-133868390D01*
X136969523Y-133868390D02*
X136921904Y-133916009D01*
X136921904Y-133916009D02*
X136874285Y-134011247D01*
X136874285Y-134011247D02*
X136874285Y-134249342D01*
X136874285Y-134249342D02*
X136921904Y-134344580D01*
X136921904Y-134344580D02*
X136969523Y-134392200D01*
X136969523Y-134392200D02*
X137064761Y-134439819D01*
X137064761Y-134439819D02*
X137302856Y-134439819D01*
X137302856Y-134439819D02*
X137398094Y-134392200D01*
X137398094Y-134392200D02*
X137445713Y-134344580D01*
X80872800Y-132425839D02*
X80825180Y-132282982D01*
X80825180Y-132282982D02*
X80825180Y-132044887D01*
X80825180Y-132044887D02*
X80872800Y-131949649D01*
X80872800Y-131949649D02*
X80920419Y-131902030D01*
X80920419Y-131902030D02*
X81015657Y-131854411D01*
X81015657Y-131854411D02*
X81110895Y-131854411D01*
X81110895Y-131854411D02*
X81206133Y-131902030D01*
X81206133Y-131902030D02*
X81253752Y-131949649D01*
X81253752Y-131949649D02*
X81301371Y-132044887D01*
X81301371Y-132044887D02*
X81348990Y-132235363D01*
X81348990Y-132235363D02*
X81396609Y-132330601D01*
X81396609Y-132330601D02*
X81444228Y-132378220D01*
X81444228Y-132378220D02*
X81539466Y-132425839D01*
X81539466Y-132425839D02*
X81634704Y-132425839D01*
X81634704Y-132425839D02*
X81729942Y-132378220D01*
X81729942Y-132378220D02*
X81777561Y-132330601D01*
X81777561Y-132330601D02*
X81825180Y-132235363D01*
X81825180Y-132235363D02*
X81825180Y-131997268D01*
X81825180Y-131997268D02*
X81777561Y-131854411D01*
X80825180Y-131425839D02*
X81825180Y-131425839D01*
X81825180Y-131425839D02*
X80825180Y-130854411D01*
X80825180Y-130854411D02*
X81825180Y-130854411D01*
X80825180Y-130378220D02*
X81825180Y-130378220D01*
X81825180Y-130378220D02*
X81825180Y-130140125D01*
X81825180Y-130140125D02*
X81777561Y-129997268D01*
X81777561Y-129997268D02*
X81682323Y-129902030D01*
X81682323Y-129902030D02*
X81587085Y-129854411D01*
X81587085Y-129854411D02*
X81396609Y-129806792D01*
X81396609Y-129806792D02*
X81253752Y-129806792D01*
X81253752Y-129806792D02*
X81063276Y-129854411D01*
X81063276Y-129854411D02*
X80968038Y-129902030D01*
X80968038Y-129902030D02*
X80872800Y-129997268D01*
X80872800Y-129997268D02*
X80825180Y-130140125D01*
X80825180Y-130140125D02*
X80825180Y-130378220D01*
X121750895Y-132425839D02*
X121750895Y-131949649D01*
X121465180Y-132521077D02*
X122465180Y-132187744D01*
X122465180Y-132187744D02*
X121465180Y-131854411D01*
X121465180Y-131473458D02*
X121465180Y-131282982D01*
X121465180Y-131282982D02*
X121512800Y-131187744D01*
X121512800Y-131187744D02*
X121560419Y-131140125D01*
X121560419Y-131140125D02*
X121703276Y-131044887D01*
X121703276Y-131044887D02*
X121893752Y-130997268D01*
X121893752Y-130997268D02*
X122274704Y-130997268D01*
X122274704Y-130997268D02*
X122369942Y-131044887D01*
X122369942Y-131044887D02*
X122417561Y-131092506D01*
X122417561Y-131092506D02*
X122465180Y-131187744D01*
X122465180Y-131187744D02*
X122465180Y-131378220D01*
X122465180Y-131378220D02*
X122417561Y-131473458D01*
X122417561Y-131473458D02*
X122369942Y-131521077D01*
X122369942Y-131521077D02*
X122274704Y-131568696D01*
X122274704Y-131568696D02*
X122036609Y-131568696D01*
X122036609Y-131568696D02*
X121941371Y-131521077D01*
X121941371Y-131521077D02*
X121893752Y-131473458D01*
X121893752Y-131473458D02*
X121846133Y-131378220D01*
X121846133Y-131378220D02*
X121846133Y-131187744D01*
X121846133Y-131187744D02*
X121893752Y-131092506D01*
X121893752Y-131092506D02*
X121941371Y-131044887D01*
X121941371Y-131044887D02*
X122036609Y-130997268D01*
X124005180Y-131806792D02*
X124481371Y-132140125D01*
X124005180Y-132378220D02*
X125005180Y-132378220D01*
X125005180Y-132378220D02*
X125005180Y-131997268D01*
X125005180Y-131997268D02*
X124957561Y-131902030D01*
X124957561Y-131902030D02*
X124909942Y-131854411D01*
X124909942Y-131854411D02*
X124814704Y-131806792D01*
X124814704Y-131806792D02*
X124671847Y-131806792D01*
X124671847Y-131806792D02*
X124576609Y-131854411D01*
X124576609Y-131854411D02*
X124528990Y-131902030D01*
X124528990Y-131902030D02*
X124481371Y-131997268D01*
X124481371Y-131997268D02*
X124481371Y-132378220D01*
X124052800Y-131425839D02*
X124005180Y-131282982D01*
X124005180Y-131282982D02*
X124005180Y-131044887D01*
X124005180Y-131044887D02*
X124052800Y-130949649D01*
X124052800Y-130949649D02*
X124100419Y-130902030D01*
X124100419Y-130902030D02*
X124195657Y-130854411D01*
X124195657Y-130854411D02*
X124290895Y-130854411D01*
X124290895Y-130854411D02*
X124386133Y-130902030D01*
X124386133Y-130902030D02*
X124433752Y-130949649D01*
X124433752Y-130949649D02*
X124481371Y-131044887D01*
X124481371Y-131044887D02*
X124528990Y-131235363D01*
X124528990Y-131235363D02*
X124576609Y-131330601D01*
X124576609Y-131330601D02*
X124624228Y-131378220D01*
X124624228Y-131378220D02*
X124719466Y-131425839D01*
X124719466Y-131425839D02*
X124814704Y-131425839D01*
X124814704Y-131425839D02*
X124909942Y-131378220D01*
X124909942Y-131378220D02*
X124957561Y-131330601D01*
X124957561Y-131330601D02*
X125005180Y-131235363D01*
X125005180Y-131235363D02*
X125005180Y-130997268D01*
X125005180Y-130997268D02*
X124957561Y-130854411D01*
X125005180Y-130568696D02*
X125005180Y-129997268D01*
X124005180Y-130282982D02*
X125005180Y-130282982D01*
X139340419Y-131806792D02*
X139292800Y-131854411D01*
X139292800Y-131854411D02*
X139245180Y-131997268D01*
X139245180Y-131997268D02*
X139245180Y-132092506D01*
X139245180Y-132092506D02*
X139292800Y-132235363D01*
X139292800Y-132235363D02*
X139388038Y-132330601D01*
X139388038Y-132330601D02*
X139483276Y-132378220D01*
X139483276Y-132378220D02*
X139673752Y-132425839D01*
X139673752Y-132425839D02*
X139816609Y-132425839D01*
X139816609Y-132425839D02*
X140007085Y-132378220D01*
X140007085Y-132378220D02*
X140102323Y-132330601D01*
X140102323Y-132330601D02*
X140197561Y-132235363D01*
X140197561Y-132235363D02*
X140245180Y-132092506D01*
X140245180Y-132092506D02*
X140245180Y-131997268D01*
X140245180Y-131997268D02*
X140197561Y-131854411D01*
X140197561Y-131854411D02*
X140149942Y-131806792D01*
X139292800Y-131425839D02*
X139245180Y-131282982D01*
X139245180Y-131282982D02*
X139245180Y-131044887D01*
X139245180Y-131044887D02*
X139292800Y-130949649D01*
X139292800Y-130949649D02*
X139340419Y-130902030D01*
X139340419Y-130902030D02*
X139435657Y-130854411D01*
X139435657Y-130854411D02*
X139530895Y-130854411D01*
X139530895Y-130854411D02*
X139626133Y-130902030D01*
X139626133Y-130902030D02*
X139673752Y-130949649D01*
X139673752Y-130949649D02*
X139721371Y-131044887D01*
X139721371Y-131044887D02*
X139768990Y-131235363D01*
X139768990Y-131235363D02*
X139816609Y-131330601D01*
X139816609Y-131330601D02*
X139864228Y-131378220D01*
X139864228Y-131378220D02*
X139959466Y-131425839D01*
X139959466Y-131425839D02*
X140054704Y-131425839D01*
X140054704Y-131425839D02*
X140149942Y-131378220D01*
X140149942Y-131378220D02*
X140197561Y-131330601D01*
X140197561Y-131330601D02*
X140245180Y-131235363D01*
X140245180Y-131235363D02*
X140245180Y-130997268D01*
X140245180Y-130997268D02*
X140197561Y-130854411D01*
X139245180Y-129902030D02*
X139245180Y-130473458D01*
X139245180Y-130187744D02*
X140245180Y-130187744D01*
X140245180Y-130187744D02*
X140102323Y-130282982D01*
X140102323Y-130282982D02*
X140007085Y-130378220D01*
X140007085Y-130378220D02*
X139959466Y-130473458D01*
X140149942Y-129521077D02*
X140197561Y-129473458D01*
X140197561Y-129473458D02*
X140245180Y-129378220D01*
X140245180Y-129378220D02*
X140245180Y-129140125D01*
X140245180Y-129140125D02*
X140197561Y-129044887D01*
X140197561Y-129044887D02*
X140149942Y-128997268D01*
X140149942Y-128997268D02*
X140054704Y-128949649D01*
X140054704Y-128949649D02*
X139959466Y-128949649D01*
X139959466Y-128949649D02*
X139816609Y-128997268D01*
X139816609Y-128997268D02*
X139245180Y-129568696D01*
X139245180Y-129568696D02*
X139245180Y-128949649D01*
X101145180Y-132378220D02*
X102145180Y-132378220D01*
X102145180Y-132378220D02*
X102145180Y-132140125D01*
X102145180Y-132140125D02*
X102097561Y-131997268D01*
X102097561Y-131997268D02*
X102002323Y-131902030D01*
X102002323Y-131902030D02*
X101907085Y-131854411D01*
X101907085Y-131854411D02*
X101716609Y-131806792D01*
X101716609Y-131806792D02*
X101573752Y-131806792D01*
X101573752Y-131806792D02*
X101383276Y-131854411D01*
X101383276Y-131854411D02*
X101288038Y-131902030D01*
X101288038Y-131902030D02*
X101192800Y-131997268D01*
X101192800Y-131997268D02*
X101145180Y-132140125D01*
X101145180Y-132140125D02*
X101145180Y-132378220D01*
X101145180Y-130854411D02*
X101145180Y-131425839D01*
X101145180Y-131140125D02*
X102145180Y-131140125D01*
X102145180Y-131140125D02*
X102002323Y-131235363D01*
X102002323Y-131235363D02*
X101907085Y-131330601D01*
X101907085Y-131330601D02*
X101859466Y-131425839D01*
X117601904Y-133535057D02*
X117554285Y-133487438D01*
X117554285Y-133487438D02*
X117459047Y-133439819D01*
X117459047Y-133439819D02*
X117220952Y-133439819D01*
X117220952Y-133439819D02*
X117125714Y-133487438D01*
X117125714Y-133487438D02*
X117078095Y-133535057D01*
X117078095Y-133535057D02*
X117030476Y-133630295D01*
X117030476Y-133630295D02*
X117030476Y-133725533D01*
X117030476Y-133725533D02*
X117078095Y-133868390D01*
X117078095Y-133868390D02*
X117649523Y-134439819D01*
X117649523Y-134439819D02*
X117030476Y-134439819D01*
X116078095Y-134439819D02*
X116649523Y-134439819D01*
X116363809Y-134439819D02*
X116363809Y-133439819D01*
X116363809Y-133439819D02*
X116459047Y-133582676D01*
X116459047Y-133582676D02*
X116554285Y-133677914D01*
X116554285Y-133677914D02*
X116649523Y-133725533D01*
X91725714Y-133773152D02*
X91725714Y-134439819D01*
X91963809Y-133392200D02*
X92201904Y-134106485D01*
X92201904Y-134106485D02*
X91582857Y-134106485D01*
X90678095Y-134439819D02*
X91249523Y-134439819D01*
X90963809Y-134439819D02*
X90963809Y-133439819D01*
X90963809Y-133439819D02*
X91059047Y-133582676D01*
X91059047Y-133582676D02*
X91154285Y-133677914D01*
X91154285Y-133677914D02*
X91249523Y-133725533D01*
X94789523Y-133439819D02*
X94170476Y-133439819D01*
X94170476Y-133439819D02*
X94503809Y-133820771D01*
X94503809Y-133820771D02*
X94360952Y-133820771D01*
X94360952Y-133820771D02*
X94265714Y-133868390D01*
X94265714Y-133868390D02*
X94218095Y-133916009D01*
X94218095Y-133916009D02*
X94170476Y-134011247D01*
X94170476Y-134011247D02*
X94170476Y-134249342D01*
X94170476Y-134249342D02*
X94218095Y-134344580D01*
X94218095Y-134344580D02*
X94265714Y-134392200D01*
X94265714Y-134392200D02*
X94360952Y-134439819D01*
X94360952Y-134439819D02*
X94646666Y-134439819D01*
X94646666Y-134439819D02*
X94741904Y-134392200D01*
X94741904Y-134392200D02*
X94789523Y-134344580D01*
X93694285Y-134439819D02*
X93503809Y-134439819D01*
X93503809Y-134439819D02*
X93408571Y-134392200D01*
X93408571Y-134392200D02*
X93360952Y-134344580D01*
X93360952Y-134344580D02*
X93265714Y-134201723D01*
X93265714Y-134201723D02*
X93218095Y-134011247D01*
X93218095Y-134011247D02*
X93218095Y-133630295D01*
X93218095Y-133630295D02*
X93265714Y-133535057D01*
X93265714Y-133535057D02*
X93313333Y-133487438D01*
X93313333Y-133487438D02*
X93408571Y-133439819D01*
X93408571Y-133439819D02*
X93599047Y-133439819D01*
X93599047Y-133439819D02*
X93694285Y-133487438D01*
X93694285Y-133487438D02*
X93741904Y-133535057D01*
X93741904Y-133535057D02*
X93789523Y-133630295D01*
X93789523Y-133630295D02*
X93789523Y-133868390D01*
X93789523Y-133868390D02*
X93741904Y-133963628D01*
X93741904Y-133963628D02*
X93694285Y-134011247D01*
X93694285Y-134011247D02*
X93599047Y-134058866D01*
X93599047Y-134058866D02*
X93408571Y-134058866D01*
X93408571Y-134058866D02*
X93313333Y-134011247D01*
X93313333Y-134011247D02*
X93265714Y-133963628D01*
X93265714Y-133963628D02*
X93218095Y-133868390D01*
X127545180Y-132473458D02*
X126545180Y-132235363D01*
X126545180Y-132235363D02*
X127259466Y-132044887D01*
X127259466Y-132044887D02*
X126545180Y-131854411D01*
X126545180Y-131854411D02*
X127545180Y-131616316D01*
X126545180Y-130663935D02*
X127021371Y-130997268D01*
X126545180Y-131235363D02*
X127545180Y-131235363D01*
X127545180Y-131235363D02*
X127545180Y-130854411D01*
X127545180Y-130854411D02*
X127497561Y-130759173D01*
X127497561Y-130759173D02*
X127449942Y-130711554D01*
X127449942Y-130711554D02*
X127354704Y-130663935D01*
X127354704Y-130663935D02*
X127211847Y-130663935D01*
X127211847Y-130663935D02*
X127116609Y-130711554D01*
X127116609Y-130711554D02*
X127068990Y-130759173D01*
X127068990Y-130759173D02*
X127021371Y-130854411D01*
X127021371Y-130854411D02*
X127021371Y-131235363D01*
X140033332Y-133439819D02*
X139414285Y-133439819D01*
X139414285Y-133439819D02*
X139747618Y-133820771D01*
X139747618Y-133820771D02*
X139604761Y-133820771D01*
X139604761Y-133820771D02*
X139509523Y-133868390D01*
X139509523Y-133868390D02*
X139461904Y-133916009D01*
X139461904Y-133916009D02*
X139414285Y-134011247D01*
X139414285Y-134011247D02*
X139414285Y-134249342D01*
X139414285Y-134249342D02*
X139461904Y-134344580D01*
X139461904Y-134344580D02*
X139509523Y-134392200D01*
X139509523Y-134392200D02*
X139604761Y-134439819D01*
X139604761Y-134439819D02*
X139890475Y-134439819D01*
X139890475Y-134439819D02*
X139985713Y-134392200D01*
X139985713Y-134392200D02*
X140033332Y-134344580D01*
X124650476Y-134439819D02*
X125221904Y-134439819D01*
X124936190Y-134439819D02*
X124936190Y-133439819D01*
X124936190Y-133439819D02*
X125031428Y-133582676D01*
X125031428Y-133582676D02*
X125126666Y-133677914D01*
X125126666Y-133677914D02*
X125221904Y-133725533D01*
X123745714Y-133439819D02*
X124221904Y-133439819D01*
X124221904Y-133439819D02*
X124269523Y-133916009D01*
X124269523Y-133916009D02*
X124221904Y-133868390D01*
X124221904Y-133868390D02*
X124126666Y-133820771D01*
X124126666Y-133820771D02*
X123888571Y-133820771D01*
X123888571Y-133820771D02*
X123793333Y-133868390D01*
X123793333Y-133868390D02*
X123745714Y-133916009D01*
X123745714Y-133916009D02*
X123698095Y-134011247D01*
X123698095Y-134011247D02*
X123698095Y-134249342D01*
X123698095Y-134249342D02*
X123745714Y-134344580D01*
X123745714Y-134344580D02*
X123793333Y-134392200D01*
X123793333Y-134392200D02*
X123888571Y-134439819D01*
X123888571Y-134439819D02*
X124126666Y-134439819D01*
X124126666Y-134439819D02*
X124221904Y-134392200D01*
X124221904Y-134392200D02*
X124269523Y-134344580D01*
X112521904Y-133535057D02*
X112474285Y-133487438D01*
X112474285Y-133487438D02*
X112379047Y-133439819D01*
X112379047Y-133439819D02*
X112140952Y-133439819D01*
X112140952Y-133439819D02*
X112045714Y-133487438D01*
X112045714Y-133487438D02*
X111998095Y-133535057D01*
X111998095Y-133535057D02*
X111950476Y-133630295D01*
X111950476Y-133630295D02*
X111950476Y-133725533D01*
X111950476Y-133725533D02*
X111998095Y-133868390D01*
X111998095Y-133868390D02*
X112569523Y-134439819D01*
X112569523Y-134439819D02*
X111950476Y-134439819D01*
X111045714Y-133439819D02*
X111521904Y-133439819D01*
X111521904Y-133439819D02*
X111569523Y-133916009D01*
X111569523Y-133916009D02*
X111521904Y-133868390D01*
X111521904Y-133868390D02*
X111426666Y-133820771D01*
X111426666Y-133820771D02*
X111188571Y-133820771D01*
X111188571Y-133820771D02*
X111093333Y-133868390D01*
X111093333Y-133868390D02*
X111045714Y-133916009D01*
X111045714Y-133916009D02*
X110998095Y-134011247D01*
X110998095Y-134011247D02*
X110998095Y-134249342D01*
X110998095Y-134249342D02*
X111045714Y-134344580D01*
X111045714Y-134344580D02*
X111093333Y-134392200D01*
X111093333Y-134392200D02*
X111188571Y-134439819D01*
X111188571Y-134439819D02*
X111426666Y-134439819D01*
X111426666Y-134439819D02*
X111521904Y-134392200D01*
X111521904Y-134392200D02*
X111569523Y-134344580D01*
X106510895Y-132425839D02*
X106510895Y-131949649D01*
X106225180Y-132521077D02*
X107225180Y-132187744D01*
X107225180Y-132187744D02*
X106225180Y-131854411D01*
X107225180Y-131616315D02*
X107225180Y-130997268D01*
X107225180Y-130997268D02*
X106844228Y-131330601D01*
X106844228Y-131330601D02*
X106844228Y-131187744D01*
X106844228Y-131187744D02*
X106796609Y-131092506D01*
X106796609Y-131092506D02*
X106748990Y-131044887D01*
X106748990Y-131044887D02*
X106653752Y-130997268D01*
X106653752Y-130997268D02*
X106415657Y-130997268D01*
X106415657Y-130997268D02*
X106320419Y-131044887D01*
X106320419Y-131044887D02*
X106272800Y-131092506D01*
X106272800Y-131092506D02*
X106225180Y-131187744D01*
X106225180Y-131187744D02*
X106225180Y-131473458D01*
X106225180Y-131473458D02*
X106272800Y-131568696D01*
X106272800Y-131568696D02*
X106320419Y-131616315D01*
X127190476Y-134439819D02*
X127761904Y-134439819D01*
X127476190Y-134439819D02*
X127476190Y-133439819D01*
X127476190Y-133439819D02*
X127571428Y-133582676D01*
X127571428Y-133582676D02*
X127666666Y-133677914D01*
X127666666Y-133677914D02*
X127761904Y-133725533D01*
X126857142Y-133439819D02*
X126238095Y-133439819D01*
X126238095Y-133439819D02*
X126571428Y-133820771D01*
X126571428Y-133820771D02*
X126428571Y-133820771D01*
X126428571Y-133820771D02*
X126333333Y-133868390D01*
X126333333Y-133868390D02*
X126285714Y-133916009D01*
X126285714Y-133916009D02*
X126238095Y-134011247D01*
X126238095Y-134011247D02*
X126238095Y-134249342D01*
X126238095Y-134249342D02*
X126285714Y-134344580D01*
X126285714Y-134344580D02*
X126333333Y-134392200D01*
X126333333Y-134392200D02*
X126428571Y-134439819D01*
X126428571Y-134439819D02*
X126714285Y-134439819D01*
X126714285Y-134439819D02*
X126809523Y-134392200D01*
X126809523Y-134392200D02*
X126857142Y-134344580D01*
X89397561Y-131854411D02*
X89445180Y-131949649D01*
X89445180Y-131949649D02*
X89445180Y-132092506D01*
X89445180Y-132092506D02*
X89397561Y-132235363D01*
X89397561Y-132235363D02*
X89302323Y-132330601D01*
X89302323Y-132330601D02*
X89207085Y-132378220D01*
X89207085Y-132378220D02*
X89016609Y-132425839D01*
X89016609Y-132425839D02*
X88873752Y-132425839D01*
X88873752Y-132425839D02*
X88683276Y-132378220D01*
X88683276Y-132378220D02*
X88588038Y-132330601D01*
X88588038Y-132330601D02*
X88492800Y-132235363D01*
X88492800Y-132235363D02*
X88445180Y-132092506D01*
X88445180Y-132092506D02*
X88445180Y-131997268D01*
X88445180Y-131997268D02*
X88492800Y-131854411D01*
X88492800Y-131854411D02*
X88540419Y-131806792D01*
X88540419Y-131806792D02*
X88873752Y-131806792D01*
X88873752Y-131806792D02*
X88873752Y-131997268D01*
X88445180Y-131378220D02*
X89445180Y-131378220D01*
X89445180Y-131378220D02*
X88445180Y-130806792D01*
X88445180Y-130806792D02*
X89445180Y-130806792D01*
X88445180Y-130330601D02*
X89445180Y-130330601D01*
X89445180Y-130330601D02*
X89445180Y-130092506D01*
X89445180Y-130092506D02*
X89397561Y-129949649D01*
X89397561Y-129949649D02*
X89302323Y-129854411D01*
X89302323Y-129854411D02*
X89207085Y-129806792D01*
X89207085Y-129806792D02*
X89016609Y-129759173D01*
X89016609Y-129759173D02*
X88873752Y-129759173D01*
X88873752Y-129759173D02*
X88683276Y-129806792D01*
X88683276Y-129806792D02*
X88588038Y-129854411D01*
X88588038Y-129854411D02*
X88492800Y-129949649D01*
X88492800Y-129949649D02*
X88445180Y-130092506D01*
X88445180Y-130092506D02*
X88445180Y-130330601D01*
X141880419Y-131806792D02*
X141832800Y-131854411D01*
X141832800Y-131854411D02*
X141785180Y-131997268D01*
X141785180Y-131997268D02*
X141785180Y-132092506D01*
X141785180Y-132092506D02*
X141832800Y-132235363D01*
X141832800Y-132235363D02*
X141928038Y-132330601D01*
X141928038Y-132330601D02*
X142023276Y-132378220D01*
X142023276Y-132378220D02*
X142213752Y-132425839D01*
X142213752Y-132425839D02*
X142356609Y-132425839D01*
X142356609Y-132425839D02*
X142547085Y-132378220D01*
X142547085Y-132378220D02*
X142642323Y-132330601D01*
X142642323Y-132330601D02*
X142737561Y-132235363D01*
X142737561Y-132235363D02*
X142785180Y-132092506D01*
X142785180Y-132092506D02*
X142785180Y-131997268D01*
X142785180Y-131997268D02*
X142737561Y-131854411D01*
X142737561Y-131854411D02*
X142689942Y-131806792D01*
X141832800Y-131425839D02*
X141785180Y-131282982D01*
X141785180Y-131282982D02*
X141785180Y-131044887D01*
X141785180Y-131044887D02*
X141832800Y-130949649D01*
X141832800Y-130949649D02*
X141880419Y-130902030D01*
X141880419Y-130902030D02*
X141975657Y-130854411D01*
X141975657Y-130854411D02*
X142070895Y-130854411D01*
X142070895Y-130854411D02*
X142166133Y-130902030D01*
X142166133Y-130902030D02*
X142213752Y-130949649D01*
X142213752Y-130949649D02*
X142261371Y-131044887D01*
X142261371Y-131044887D02*
X142308990Y-131235363D01*
X142308990Y-131235363D02*
X142356609Y-131330601D01*
X142356609Y-131330601D02*
X142404228Y-131378220D01*
X142404228Y-131378220D02*
X142499466Y-131425839D01*
X142499466Y-131425839D02*
X142594704Y-131425839D01*
X142594704Y-131425839D02*
X142689942Y-131378220D01*
X142689942Y-131378220D02*
X142737561Y-131330601D01*
X142737561Y-131330601D02*
X142785180Y-131235363D01*
X142785180Y-131235363D02*
X142785180Y-130997268D01*
X142785180Y-130997268D02*
X142737561Y-130854411D01*
X141785180Y-129902030D02*
X141785180Y-130473458D01*
X141785180Y-130187744D02*
X142785180Y-130187744D01*
X142785180Y-130187744D02*
X142642323Y-130282982D01*
X142642323Y-130282982D02*
X142547085Y-130378220D01*
X142547085Y-130378220D02*
X142499466Y-130473458D01*
X116670895Y-132425839D02*
X116670895Y-131949649D01*
X116385180Y-132521077D02*
X117385180Y-132187744D01*
X117385180Y-132187744D02*
X116385180Y-131854411D01*
X117385180Y-131616315D02*
X117385180Y-130949649D01*
X117385180Y-130949649D02*
X116385180Y-131378220D01*
X86645714Y-133773152D02*
X86645714Y-134439819D01*
X86883809Y-133392200D02*
X87121904Y-134106485D01*
X87121904Y-134106485D02*
X86502857Y-134106485D01*
X85645714Y-133439819D02*
X86121904Y-133439819D01*
X86121904Y-133439819D02*
X86169523Y-133916009D01*
X86169523Y-133916009D02*
X86121904Y-133868390D01*
X86121904Y-133868390D02*
X86026666Y-133820771D01*
X86026666Y-133820771D02*
X85788571Y-133820771D01*
X85788571Y-133820771D02*
X85693333Y-133868390D01*
X85693333Y-133868390D02*
X85645714Y-133916009D01*
X85645714Y-133916009D02*
X85598095Y-134011247D01*
X85598095Y-134011247D02*
X85598095Y-134249342D01*
X85598095Y-134249342D02*
X85645714Y-134344580D01*
X85645714Y-134344580D02*
X85693333Y-134392200D01*
X85693333Y-134392200D02*
X85788571Y-134439819D01*
X85788571Y-134439819D02*
X86026666Y-134439819D01*
X86026666Y-134439819D02*
X86121904Y-134392200D01*
X86121904Y-134392200D02*
X86169523Y-134344580D01*
X134953332Y-133439819D02*
X134286666Y-133439819D01*
X134286666Y-133439819D02*
X134715237Y-134439819D01*
X129085180Y-132378220D02*
X130085180Y-132378220D01*
X129085180Y-131330602D02*
X129561371Y-131663935D01*
X129085180Y-131902030D02*
X130085180Y-131902030D01*
X130085180Y-131902030D02*
X130085180Y-131521078D01*
X130085180Y-131521078D02*
X130037561Y-131425840D01*
X130037561Y-131425840D02*
X129989942Y-131378221D01*
X129989942Y-131378221D02*
X129894704Y-131330602D01*
X129894704Y-131330602D02*
X129751847Y-131330602D01*
X129751847Y-131330602D02*
X129656609Y-131378221D01*
X129656609Y-131378221D02*
X129608990Y-131425840D01*
X129608990Y-131425840D02*
X129561371Y-131521078D01*
X129561371Y-131521078D02*
X129561371Y-131902030D01*
X128989942Y-130235364D02*
X129037561Y-130330602D01*
X129037561Y-130330602D02*
X129132800Y-130425840D01*
X129132800Y-130425840D02*
X129275657Y-130568697D01*
X129275657Y-130568697D02*
X129323276Y-130663935D01*
X129323276Y-130663935D02*
X129323276Y-130759173D01*
X129085180Y-130711554D02*
X129132800Y-130806792D01*
X129132800Y-130806792D02*
X129228038Y-130902030D01*
X129228038Y-130902030D02*
X129418514Y-130949649D01*
X129418514Y-130949649D02*
X129751847Y-130949649D01*
X129751847Y-130949649D02*
X129942323Y-130902030D01*
X129942323Y-130902030D02*
X130037561Y-130806792D01*
X130037561Y-130806792D02*
X130085180Y-130711554D01*
X130085180Y-130711554D02*
X130085180Y-130521078D01*
X130085180Y-130521078D02*
X130037561Y-130425840D01*
X130037561Y-130425840D02*
X129942323Y-130330602D01*
X129942323Y-130330602D02*
X129751847Y-130282983D01*
X129751847Y-130282983D02*
X129418514Y-130282983D01*
X129418514Y-130282983D02*
X129228038Y-130330602D01*
X129228038Y-130330602D02*
X129132800Y-130425840D01*
X129132800Y-130425840D02*
X129085180Y-130521078D01*
X129085180Y-130521078D02*
X129085180Y-130711554D01*
X104949523Y-133439819D02*
X104330476Y-133439819D01*
X104330476Y-133439819D02*
X104663809Y-133820771D01*
X104663809Y-133820771D02*
X104520952Y-133820771D01*
X104520952Y-133820771D02*
X104425714Y-133868390D01*
X104425714Y-133868390D02*
X104378095Y-133916009D01*
X104378095Y-133916009D02*
X104330476Y-134011247D01*
X104330476Y-134011247D02*
X104330476Y-134249342D01*
X104330476Y-134249342D02*
X104378095Y-134344580D01*
X104378095Y-134344580D02*
X104425714Y-134392200D01*
X104425714Y-134392200D02*
X104520952Y-134439819D01*
X104520952Y-134439819D02*
X104806666Y-134439819D01*
X104806666Y-134439819D02*
X104901904Y-134392200D01*
X104901904Y-134392200D02*
X104949523Y-134344580D01*
X103378095Y-134439819D02*
X103949523Y-134439819D01*
X103663809Y-134439819D02*
X103663809Y-133439819D01*
X103663809Y-133439819D02*
X103759047Y-133582676D01*
X103759047Y-133582676D02*
X103854285Y-133677914D01*
X103854285Y-133677914D02*
X103949523Y-133725533D01*
X111590895Y-132425839D02*
X111590895Y-131949649D01*
X111305180Y-132521077D02*
X112305180Y-132187744D01*
X112305180Y-132187744D02*
X111305180Y-131854411D01*
X111305180Y-130997268D02*
X111305180Y-131568696D01*
X111305180Y-131282982D02*
X112305180Y-131282982D01*
X112305180Y-131282982D02*
X112162323Y-131378220D01*
X112162323Y-131378220D02*
X112067085Y-131473458D01*
X112067085Y-131473458D02*
X112019466Y-131568696D01*
X111971847Y-130140125D02*
X111305180Y-130140125D01*
X112352800Y-130378220D02*
X111638514Y-130616315D01*
X111638514Y-130616315D02*
X111638514Y-129997268D01*
X114130895Y-132425839D02*
X114130895Y-131949649D01*
X113845180Y-132521077D02*
X114845180Y-132187744D01*
X114845180Y-132187744D02*
X113845180Y-131854411D01*
X113845180Y-130997268D02*
X113845180Y-131568696D01*
X113845180Y-131282982D02*
X114845180Y-131282982D01*
X114845180Y-131282982D02*
X114702323Y-131378220D01*
X114702323Y-131378220D02*
X114607085Y-131473458D01*
X114607085Y-131473458D02*
X114559466Y-131568696D01*
X114749942Y-130616315D02*
X114797561Y-130568696D01*
X114797561Y-130568696D02*
X114845180Y-130473458D01*
X114845180Y-130473458D02*
X114845180Y-130235363D01*
X114845180Y-130235363D02*
X114797561Y-130140125D01*
X114797561Y-130140125D02*
X114749942Y-130092506D01*
X114749942Y-130092506D02*
X114654704Y-130044887D01*
X114654704Y-130044887D02*
X114559466Y-130044887D01*
X114559466Y-130044887D02*
X114416609Y-130092506D01*
X114416609Y-130092506D02*
X113845180Y-130663934D01*
X113845180Y-130663934D02*
X113845180Y-130044887D01*
X109050895Y-132425839D02*
X109050895Y-131949649D01*
X108765180Y-132521077D02*
X109765180Y-132187744D01*
X109765180Y-132187744D02*
X108765180Y-131854411D01*
X108765180Y-130997268D02*
X108765180Y-131568696D01*
X108765180Y-131282982D02*
X109765180Y-131282982D01*
X109765180Y-131282982D02*
X109622323Y-131378220D01*
X109622323Y-131378220D02*
X109527085Y-131473458D01*
X109527085Y-131473458D02*
X109479466Y-131568696D01*
X91937561Y-131854411D02*
X91985180Y-131949649D01*
X91985180Y-131949649D02*
X91985180Y-132092506D01*
X91985180Y-132092506D02*
X91937561Y-132235363D01*
X91937561Y-132235363D02*
X91842323Y-132330601D01*
X91842323Y-132330601D02*
X91747085Y-132378220D01*
X91747085Y-132378220D02*
X91556609Y-132425839D01*
X91556609Y-132425839D02*
X91413752Y-132425839D01*
X91413752Y-132425839D02*
X91223276Y-132378220D01*
X91223276Y-132378220D02*
X91128038Y-132330601D01*
X91128038Y-132330601D02*
X91032800Y-132235363D01*
X91032800Y-132235363D02*
X90985180Y-132092506D01*
X90985180Y-132092506D02*
X90985180Y-131997268D01*
X90985180Y-131997268D02*
X91032800Y-131854411D01*
X91032800Y-131854411D02*
X91080419Y-131806792D01*
X91080419Y-131806792D02*
X91413752Y-131806792D01*
X91413752Y-131806792D02*
X91413752Y-131997268D01*
X90985180Y-131378220D02*
X91985180Y-131378220D01*
X91985180Y-131378220D02*
X90985180Y-130806792D01*
X90985180Y-130806792D02*
X91985180Y-130806792D01*
X90985180Y-130330601D02*
X91985180Y-130330601D01*
X91985180Y-130330601D02*
X91985180Y-130092506D01*
X91985180Y-130092506D02*
X91937561Y-129949649D01*
X91937561Y-129949649D02*
X91842323Y-129854411D01*
X91842323Y-129854411D02*
X91747085Y-129806792D01*
X91747085Y-129806792D02*
X91556609Y-129759173D01*
X91556609Y-129759173D02*
X91413752Y-129759173D01*
X91413752Y-129759173D02*
X91223276Y-129806792D01*
X91223276Y-129806792D02*
X91128038Y-129854411D01*
X91128038Y-129854411D02*
X91032800Y-129949649D01*
X91032800Y-129949649D02*
X90985180Y-130092506D01*
X90985180Y-130092506D02*
X90985180Y-130330601D01*
X102409523Y-133439819D02*
X101790476Y-133439819D01*
X101790476Y-133439819D02*
X102123809Y-133820771D01*
X102123809Y-133820771D02*
X101980952Y-133820771D01*
X101980952Y-133820771D02*
X101885714Y-133868390D01*
X101885714Y-133868390D02*
X101838095Y-133916009D01*
X101838095Y-133916009D02*
X101790476Y-134011247D01*
X101790476Y-134011247D02*
X101790476Y-134249342D01*
X101790476Y-134249342D02*
X101838095Y-134344580D01*
X101838095Y-134344580D02*
X101885714Y-134392200D01*
X101885714Y-134392200D02*
X101980952Y-134439819D01*
X101980952Y-134439819D02*
X102266666Y-134439819D01*
X102266666Y-134439819D02*
X102361904Y-134392200D01*
X102361904Y-134392200D02*
X102409523Y-134344580D01*
X101457142Y-133439819D02*
X100838095Y-133439819D01*
X100838095Y-133439819D02*
X101171428Y-133820771D01*
X101171428Y-133820771D02*
X101028571Y-133820771D01*
X101028571Y-133820771D02*
X100933333Y-133868390D01*
X100933333Y-133868390D02*
X100885714Y-133916009D01*
X100885714Y-133916009D02*
X100838095Y-134011247D01*
X100838095Y-134011247D02*
X100838095Y-134249342D01*
X100838095Y-134249342D02*
X100885714Y-134344580D01*
X100885714Y-134344580D02*
X100933333Y-134392200D01*
X100933333Y-134392200D02*
X101028571Y-134439819D01*
X101028571Y-134439819D02*
X101314285Y-134439819D01*
X101314285Y-134439819D02*
X101409523Y-134392200D01*
X101409523Y-134392200D02*
X101457142Y-134344580D01*
X99869523Y-133439819D02*
X99250476Y-133439819D01*
X99250476Y-133439819D02*
X99583809Y-133820771D01*
X99583809Y-133820771D02*
X99440952Y-133820771D01*
X99440952Y-133820771D02*
X99345714Y-133868390D01*
X99345714Y-133868390D02*
X99298095Y-133916009D01*
X99298095Y-133916009D02*
X99250476Y-134011247D01*
X99250476Y-134011247D02*
X99250476Y-134249342D01*
X99250476Y-134249342D02*
X99298095Y-134344580D01*
X99298095Y-134344580D02*
X99345714Y-134392200D01*
X99345714Y-134392200D02*
X99440952Y-134439819D01*
X99440952Y-134439819D02*
X99726666Y-134439819D01*
X99726666Y-134439819D02*
X99821904Y-134392200D01*
X99821904Y-134392200D02*
X99869523Y-134344580D01*
X98345714Y-133439819D02*
X98821904Y-133439819D01*
X98821904Y-133439819D02*
X98869523Y-133916009D01*
X98869523Y-133916009D02*
X98821904Y-133868390D01*
X98821904Y-133868390D02*
X98726666Y-133820771D01*
X98726666Y-133820771D02*
X98488571Y-133820771D01*
X98488571Y-133820771D02*
X98393333Y-133868390D01*
X98393333Y-133868390D02*
X98345714Y-133916009D01*
X98345714Y-133916009D02*
X98298095Y-134011247D01*
X98298095Y-134011247D02*
X98298095Y-134249342D01*
X98298095Y-134249342D02*
X98345714Y-134344580D01*
X98345714Y-134344580D02*
X98393333Y-134392200D01*
X98393333Y-134392200D02*
X98488571Y-134439819D01*
X98488571Y-134439819D02*
X98726666Y-134439819D01*
X98726666Y-134439819D02*
X98821904Y-134392200D01*
X98821904Y-134392200D02*
X98869523Y-134344580D01*
X97329523Y-133439819D02*
X96710476Y-133439819D01*
X96710476Y-133439819D02*
X97043809Y-133820771D01*
X97043809Y-133820771D02*
X96900952Y-133820771D01*
X96900952Y-133820771D02*
X96805714Y-133868390D01*
X96805714Y-133868390D02*
X96758095Y-133916009D01*
X96758095Y-133916009D02*
X96710476Y-134011247D01*
X96710476Y-134011247D02*
X96710476Y-134249342D01*
X96710476Y-134249342D02*
X96758095Y-134344580D01*
X96758095Y-134344580D02*
X96805714Y-134392200D01*
X96805714Y-134392200D02*
X96900952Y-134439819D01*
X96900952Y-134439819D02*
X97186666Y-134439819D01*
X97186666Y-134439819D02*
X97281904Y-134392200D01*
X97281904Y-134392200D02*
X97329523Y-134344580D01*
X96377142Y-133439819D02*
X95710476Y-133439819D01*
X95710476Y-133439819D02*
X96139047Y-134439819D01*
X119210895Y-132425839D02*
X119210895Y-131949649D01*
X118925180Y-132521077D02*
X119925180Y-132187744D01*
X119925180Y-132187744D02*
X118925180Y-131854411D01*
X118925180Y-130997268D02*
X118925180Y-131568696D01*
X118925180Y-131282982D02*
X119925180Y-131282982D01*
X119925180Y-131282982D02*
X119782323Y-131378220D01*
X119782323Y-131378220D02*
X119687085Y-131473458D01*
X119687085Y-131473458D02*
X119639466Y-131568696D01*
X118925180Y-130044887D02*
X118925180Y-130616315D01*
X118925180Y-130330601D02*
X119925180Y-130330601D01*
X119925180Y-130330601D02*
X119782323Y-130425839D01*
X119782323Y-130425839D02*
X119687085Y-130521077D01*
X119687085Y-130521077D02*
X119639466Y-130616315D01*
X135165180Y-132473458D02*
X134165180Y-132235363D01*
X134165180Y-132235363D02*
X134879466Y-132044887D01*
X134879466Y-132044887D02*
X134165180Y-131854411D01*
X134165180Y-131854411D02*
X135165180Y-131616316D01*
X134450895Y-131282982D02*
X134450895Y-130806792D01*
X134165180Y-131378220D02*
X135165180Y-131044887D01*
X135165180Y-131044887D02*
X134165180Y-130711554D01*
X134165180Y-130378220D02*
X135165180Y-130378220D01*
X135165180Y-130044887D02*
X135165180Y-129473459D01*
X134165180Y-129759173D02*
X135165180Y-129759173D01*
X129730476Y-134439819D02*
X130301904Y-134439819D01*
X130016190Y-134439819D02*
X130016190Y-133439819D01*
X130016190Y-133439819D02*
X130111428Y-133582676D01*
X130111428Y-133582676D02*
X130206666Y-133677914D01*
X130206666Y-133677914D02*
X130301904Y-133725533D01*
X128778095Y-134439819D02*
X129349523Y-134439819D01*
X129063809Y-134439819D02*
X129063809Y-133439819D01*
X129063809Y-133439819D02*
X129159047Y-133582676D01*
X129159047Y-133582676D02*
X129254285Y-133677914D01*
X129254285Y-133677914D02*
X129349523Y-133725533D01*
X84105714Y-133773152D02*
X84105714Y-134439819D01*
X84343809Y-133392200D02*
X84581904Y-134106485D01*
X84581904Y-134106485D02*
X83962857Y-134106485D01*
X83677142Y-133439819D02*
X83010476Y-133439819D01*
X83010476Y-133439819D02*
X83439047Y-134439819D01*
X122110476Y-134439819D02*
X122681904Y-134439819D01*
X122396190Y-134439819D02*
X122396190Y-133439819D01*
X122396190Y-133439819D02*
X122491428Y-133582676D01*
X122491428Y-133582676D02*
X122586666Y-133677914D01*
X122586666Y-133677914D02*
X122681904Y-133725533D01*
X121777142Y-133439819D02*
X121110476Y-133439819D01*
X121110476Y-133439819D02*
X121539047Y-134439819D01*
X119570476Y-134439819D02*
X120141904Y-134439819D01*
X119856190Y-134439819D02*
X119856190Y-133439819D01*
X119856190Y-133439819D02*
X119951428Y-133582676D01*
X119951428Y-133582676D02*
X120046666Y-133677914D01*
X120046666Y-133677914D02*
X120141904Y-133725533D01*
X119094285Y-134439819D02*
X118903809Y-134439819D01*
X118903809Y-134439819D02*
X118808571Y-134392200D01*
X118808571Y-134392200D02*
X118760952Y-134344580D01*
X118760952Y-134344580D02*
X118665714Y-134201723D01*
X118665714Y-134201723D02*
X118618095Y-134011247D01*
X118618095Y-134011247D02*
X118618095Y-133630295D01*
X118618095Y-133630295D02*
X118665714Y-133535057D01*
X118665714Y-133535057D02*
X118713333Y-133487438D01*
X118713333Y-133487438D02*
X118808571Y-133439819D01*
X118808571Y-133439819D02*
X118999047Y-133439819D01*
X118999047Y-133439819D02*
X119094285Y-133487438D01*
X119094285Y-133487438D02*
X119141904Y-133535057D01*
X119141904Y-133535057D02*
X119189523Y-133630295D01*
X119189523Y-133630295D02*
X119189523Y-133868390D01*
X119189523Y-133868390D02*
X119141904Y-133963628D01*
X119141904Y-133963628D02*
X119094285Y-134011247D01*
X119094285Y-134011247D02*
X118999047Y-134058866D01*
X118999047Y-134058866D02*
X118808571Y-134058866D01*
X118808571Y-134058866D02*
X118713333Y-134011247D01*
X118713333Y-134011247D02*
X118665714Y-133963628D01*
X118665714Y-133963628D02*
X118618095Y-133868390D01*
X86286133Y-132378220D02*
X86286133Y-131616316D01*
X85905180Y-131997268D02*
X86667085Y-131997268D01*
X86905180Y-130663935D02*
X86905180Y-131140125D01*
X86905180Y-131140125D02*
X86428990Y-131187744D01*
X86428990Y-131187744D02*
X86476609Y-131140125D01*
X86476609Y-131140125D02*
X86524228Y-131044887D01*
X86524228Y-131044887D02*
X86524228Y-130806792D01*
X86524228Y-130806792D02*
X86476609Y-130711554D01*
X86476609Y-130711554D02*
X86428990Y-130663935D01*
X86428990Y-130663935D02*
X86333752Y-130616316D01*
X86333752Y-130616316D02*
X86095657Y-130616316D01*
X86095657Y-130616316D02*
X86000419Y-130663935D01*
X86000419Y-130663935D02*
X85952800Y-130711554D01*
X85952800Y-130711554D02*
X85905180Y-130806792D01*
X85905180Y-130806792D02*
X85905180Y-131044887D01*
X85905180Y-131044887D02*
X85952800Y-131140125D01*
X85952800Y-131140125D02*
X86000419Y-131187744D01*
X81565714Y-133773152D02*
X81565714Y-134439819D01*
X81803809Y-133392200D02*
X82041904Y-134106485D01*
X82041904Y-134106485D02*
X81422857Y-134106485D01*
X80994285Y-134439819D02*
X80803809Y-134439819D01*
X80803809Y-134439819D02*
X80708571Y-134392200D01*
X80708571Y-134392200D02*
X80660952Y-134344580D01*
X80660952Y-134344580D02*
X80565714Y-134201723D01*
X80565714Y-134201723D02*
X80518095Y-134011247D01*
X80518095Y-134011247D02*
X80518095Y-133630295D01*
X80518095Y-133630295D02*
X80565714Y-133535057D01*
X80565714Y-133535057D02*
X80613333Y-133487438D01*
X80613333Y-133487438D02*
X80708571Y-133439819D01*
X80708571Y-133439819D02*
X80899047Y-133439819D01*
X80899047Y-133439819D02*
X80994285Y-133487438D01*
X80994285Y-133487438D02*
X81041904Y-133535057D01*
X81041904Y-133535057D02*
X81089523Y-133630295D01*
X81089523Y-133630295D02*
X81089523Y-133868390D01*
X81089523Y-133868390D02*
X81041904Y-133963628D01*
X81041904Y-133963628D02*
X80994285Y-134011247D01*
X80994285Y-134011247D02*
X80899047Y-134058866D01*
X80899047Y-134058866D02*
X80708571Y-134058866D01*
X80708571Y-134058866D02*
X80613333Y-134011247D01*
X80613333Y-134011247D02*
X80565714Y-133963628D01*
X80565714Y-133963628D02*
X80518095Y-133868390D01*
X109981904Y-133535057D02*
X109934285Y-133487438D01*
X109934285Y-133487438D02*
X109839047Y-133439819D01*
X109839047Y-133439819D02*
X109600952Y-133439819D01*
X109600952Y-133439819D02*
X109505714Y-133487438D01*
X109505714Y-133487438D02*
X109458095Y-133535057D01*
X109458095Y-133535057D02*
X109410476Y-133630295D01*
X109410476Y-133630295D02*
X109410476Y-133725533D01*
X109410476Y-133725533D02*
X109458095Y-133868390D01*
X109458095Y-133868390D02*
X110029523Y-134439819D01*
X110029523Y-134439819D02*
X109410476Y-134439819D01*
X109077142Y-133439819D02*
X108410476Y-133439819D01*
X108410476Y-133439819D02*
X108839047Y-134439819D01*
X107441904Y-133535057D02*
X107394285Y-133487438D01*
X107394285Y-133487438D02*
X107299047Y-133439819D01*
X107299047Y-133439819D02*
X107060952Y-133439819D01*
X107060952Y-133439819D02*
X106965714Y-133487438D01*
X106965714Y-133487438D02*
X106918095Y-133535057D01*
X106918095Y-133535057D02*
X106870476Y-133630295D01*
X106870476Y-133630295D02*
X106870476Y-133725533D01*
X106870476Y-133725533D02*
X106918095Y-133868390D01*
X106918095Y-133868390D02*
X107489523Y-134439819D01*
X107489523Y-134439819D02*
X106870476Y-134439819D01*
X106394285Y-134439819D02*
X106203809Y-134439819D01*
X106203809Y-134439819D02*
X106108571Y-134392200D01*
X106108571Y-134392200D02*
X106060952Y-134344580D01*
X106060952Y-134344580D02*
X105965714Y-134201723D01*
X105965714Y-134201723D02*
X105918095Y-134011247D01*
X105918095Y-134011247D02*
X105918095Y-133630295D01*
X105918095Y-133630295D02*
X105965714Y-133535057D01*
X105965714Y-133535057D02*
X106013333Y-133487438D01*
X106013333Y-133487438D02*
X106108571Y-133439819D01*
X106108571Y-133439819D02*
X106299047Y-133439819D01*
X106299047Y-133439819D02*
X106394285Y-133487438D01*
X106394285Y-133487438D02*
X106441904Y-133535057D01*
X106441904Y-133535057D02*
X106489523Y-133630295D01*
X106489523Y-133630295D02*
X106489523Y-133868390D01*
X106489523Y-133868390D02*
X106441904Y-133963628D01*
X106441904Y-133963628D02*
X106394285Y-134011247D01*
X106394285Y-134011247D02*
X106299047Y-134058866D01*
X106299047Y-134058866D02*
X106108571Y-134058866D01*
X106108571Y-134058866D02*
X106013333Y-134011247D01*
X106013333Y-134011247D02*
X105965714Y-133963628D01*
X105965714Y-133963628D02*
X105918095Y-133868390D01*
X93525180Y-132378220D02*
X94525180Y-132378220D01*
X94525180Y-132378220D02*
X94525180Y-132140125D01*
X94525180Y-132140125D02*
X94477561Y-131997268D01*
X94477561Y-131997268D02*
X94382323Y-131902030D01*
X94382323Y-131902030D02*
X94287085Y-131854411D01*
X94287085Y-131854411D02*
X94096609Y-131806792D01*
X94096609Y-131806792D02*
X93953752Y-131806792D01*
X93953752Y-131806792D02*
X93763276Y-131854411D01*
X93763276Y-131854411D02*
X93668038Y-131902030D01*
X93668038Y-131902030D02*
X93572800Y-131997268D01*
X93572800Y-131997268D02*
X93525180Y-132140125D01*
X93525180Y-132140125D02*
X93525180Y-132378220D01*
X94525180Y-131473458D02*
X94525180Y-130806792D01*
X94525180Y-130806792D02*
X93525180Y-131235363D01*
%LPC*%
D11*
%TO.C,C6*%
X85725000Y-88265000D03*
X83225000Y-88265000D03*
%TD*%
D12*
%TO.C,D2*%
X99060000Y-80645000D03*
D13*
X88900000Y-80645000D03*
%TD*%
D11*
%TO.C,C8*%
X60960000Y-80645000D03*
X58460000Y-80645000D03*
%TD*%
%TO.C,C11*%
X68540000Y-88265000D03*
X66040000Y-88265000D03*
%TD*%
%TO.C,C5*%
X67945000Y-80645000D03*
X70445000Y-80645000D03*
%TD*%
D14*
%TO.C,C3*%
X148590000Y-110585000D03*
D11*
X148590000Y-108585000D03*
%TD*%
D14*
%TO.C,C1*%
X148590000Y-104394000D03*
D11*
X148590000Y-102394000D03*
%TD*%
D15*
%TO.C,U1*%
X80645000Y-93345000D03*
D16*
X80645000Y-95885000D03*
X80645000Y-98425000D03*
X80645000Y-100965000D03*
X80645000Y-103505000D03*
X80645000Y-106045000D03*
X80645000Y-108585000D03*
X80645000Y-111125000D03*
X80645000Y-113665000D03*
X80645000Y-116205000D03*
X88265000Y-116205000D03*
X88265000Y-113665000D03*
X88265000Y-111125000D03*
X88265000Y-108585000D03*
X88265000Y-106045000D03*
X88265000Y-103505000D03*
X88265000Y-100965000D03*
X88265000Y-98425000D03*
X88265000Y-95885000D03*
X88265000Y-93345000D03*
%TD*%
D11*
%TO.C,R5*%
X145415000Y-124079000D03*
D17*
X155575000Y-124079000D03*
%TD*%
D18*
%TO.C,J3*%
X71501000Y-126995000D03*
D19*
X71501000Y-129535000D03*
%TD*%
D11*
%TO.C,R1*%
X128270000Y-81280000D03*
D17*
X138430000Y-81280000D03*
%TD*%
D20*
%TO.C,J2*%
X155575000Y-87630000D03*
X153575000Y-79730000D03*
X155575000Y-82130000D03*
%TD*%
D21*
%TO.C,CON1*%
X83660000Y-122465000D03*
X139860000Y-127565000D03*
D22*
X142240000Y-139700000D03*
X139700000Y-139700000D03*
X137160000Y-139700000D03*
X134620000Y-139700000D03*
X132080000Y-139700000D03*
X129540000Y-139700000D03*
X127000000Y-139700000D03*
X124460000Y-139700000D03*
X121920000Y-139700000D03*
X119380000Y-139700000D03*
X116840000Y-139700000D03*
X114300000Y-139700000D03*
X111760000Y-139700000D03*
X109220000Y-139700000D03*
X106680000Y-139700000D03*
X104140000Y-139700000D03*
X101600000Y-139700000D03*
X99060000Y-139700000D03*
X96520000Y-139700000D03*
X93980000Y-139700000D03*
X91440000Y-139700000D03*
X88900000Y-139700000D03*
X86360000Y-139700000D03*
X83820000Y-139700000D03*
X81280000Y-139700000D03*
%TD*%
D11*
%TO.C,R2*%
X145415000Y-98679000D03*
D17*
X155575000Y-98679000D03*
%TD*%
D14*
%TO.C,C13*%
X71882000Y-120964900D03*
D11*
X71882000Y-122964900D03*
%TD*%
D15*
%TO.C,U6*%
X115570000Y-93345000D03*
D16*
X115570000Y-95885000D03*
X115570000Y-98425000D03*
X115570000Y-100965000D03*
X115570000Y-103505000D03*
X115570000Y-106045000D03*
X115570000Y-108585000D03*
X115570000Y-111125000D03*
X115570000Y-113665000D03*
X115570000Y-116205000D03*
X123190000Y-116205000D03*
X123190000Y-113665000D03*
X123190000Y-111125000D03*
X123190000Y-108585000D03*
X123190000Y-106045000D03*
X123190000Y-103505000D03*
X123190000Y-100965000D03*
X123190000Y-98425000D03*
X123190000Y-95885000D03*
X123190000Y-93345000D03*
%TD*%
D11*
%TO.C,R4*%
X155575000Y-120650000D03*
D17*
X145415000Y-120650000D03*
%TD*%
D11*
%TO.C,C2*%
X151765000Y-95504000D03*
X149265000Y-95504000D03*
%TD*%
D15*
%TO.C,U2*%
X132715000Y-93345000D03*
D16*
X132715000Y-95885000D03*
X132715000Y-98425000D03*
X132715000Y-100965000D03*
X132715000Y-103505000D03*
X132715000Y-106045000D03*
X132715000Y-108585000D03*
X132715000Y-111125000D03*
X132715000Y-113665000D03*
X132715000Y-116205000D03*
X140335000Y-116205000D03*
X140335000Y-113665000D03*
X140335000Y-111125000D03*
X140335000Y-108585000D03*
X140335000Y-106045000D03*
X140335000Y-103505000D03*
X140335000Y-100965000D03*
X140335000Y-98425000D03*
X140335000Y-95885000D03*
X140335000Y-93345000D03*
%TD*%
D23*
%TO.C,U5*%
X106045000Y-55245000D03*
D24*
X103505000Y-55245000D03*
X100965000Y-55245000D03*
X98425000Y-55245000D03*
X95885000Y-55245000D03*
X93345000Y-55245000D03*
X90805000Y-55245000D03*
X88265000Y-55245000D03*
X85725000Y-55245000D03*
X83185000Y-55245000D03*
X80645000Y-55245000D03*
X78105000Y-55245000D03*
X75565000Y-55245000D03*
X73025000Y-55245000D03*
X70485000Y-55245000D03*
X67945000Y-55245000D03*
X65405000Y-55245000D03*
X62865000Y-55245000D03*
X60325000Y-55245000D03*
X57785000Y-55245000D03*
X57785000Y-75565000D03*
X60325000Y-75565000D03*
X62865000Y-75565000D03*
X65405000Y-75565000D03*
X67945000Y-75565000D03*
X70485000Y-75565000D03*
X73025000Y-75565000D03*
X75565000Y-75565000D03*
X78105000Y-75565000D03*
X80645000Y-75565000D03*
X83185000Y-75565000D03*
X85725000Y-75565000D03*
X88265000Y-75565000D03*
X90805000Y-75565000D03*
X93345000Y-75565000D03*
X95885000Y-75565000D03*
X98425000Y-75565000D03*
X100965000Y-75565000D03*
X103505000Y-75565000D03*
X106045000Y-75565000D03*
%TD*%
D11*
%TO.C,C7*%
X102870000Y-88265000D03*
X100370000Y-88265000D03*
%TD*%
%TO.C,C10*%
X120650000Y-88265000D03*
X118150000Y-88265000D03*
%TD*%
%TO.C,C9*%
X137795000Y-88265000D03*
X135295000Y-88265000D03*
%TD*%
D25*
%TO.C,D1*%
X143510000Y-81280000D03*
D26*
X146050000Y-81280000D03*
%TD*%
D11*
%TO.C,C12*%
X106025000Y-80645000D03*
X103525000Y-80645000D03*
%TD*%
D15*
%TO.C,U4*%
X63500000Y-93345000D03*
D16*
X63500000Y-95885000D03*
X63500000Y-98425000D03*
X63500000Y-100965000D03*
X63500000Y-103505000D03*
X63500000Y-106045000D03*
X63500000Y-108585000D03*
X63500000Y-111125000D03*
X63500000Y-113665000D03*
X63500000Y-116205000D03*
X71120000Y-116205000D03*
X71120000Y-113665000D03*
X71120000Y-111125000D03*
X71120000Y-108585000D03*
X71120000Y-106045000D03*
X71120000Y-103505000D03*
X71120000Y-100965000D03*
X71120000Y-98425000D03*
X71120000Y-95885000D03*
X71120000Y-93345000D03*
%TD*%
D11*
%TO.C,C4*%
X151745000Y-114300000D03*
X149245000Y-114300000D03*
%TD*%
D15*
%TO.C,U3*%
X97790000Y-93345000D03*
D16*
X97790000Y-95885000D03*
X97790000Y-98425000D03*
X97790000Y-100965000D03*
X97790000Y-103505000D03*
X97790000Y-106045000D03*
X97790000Y-108585000D03*
X97790000Y-111125000D03*
X97790000Y-113665000D03*
X97790000Y-116205000D03*
X105410000Y-116205000D03*
X105410000Y-113665000D03*
X105410000Y-111125000D03*
X105410000Y-108585000D03*
X105410000Y-106045000D03*
X105410000Y-103505000D03*
X105410000Y-100965000D03*
X105410000Y-98425000D03*
X105410000Y-95885000D03*
X105410000Y-93345000D03*
%TD*%
D27*
%TO.C,Q1*%
X148463000Y-128016000D03*
D28*
X148463000Y-129286000D03*
X148463000Y-130556000D03*
%TD*%
D18*
%TO.C,J1*%
X118105000Y-81280000D03*
D19*
X120645000Y-81280000D03*
%TD*%
D11*
%TO.C,R3*%
X145415000Y-117475000D03*
D17*
X155575000Y-117475000D03*
%TD*%
%LPD*%
M02*
