M48
; DRILL file {KiCad 7.0.7} date Sat May 25 22:43:26 2024
; FORMAT={-:-/ absolute / inch / decimal}
; #@! TF.CreationDate,2024-05-25T22:43:26-07:00
; #@! TF.GenerationSoftware,Kicad,Pcbnew,7.0.7
; #@! TF.FileFunction,Plated,1,2,PTH
FMAT,2
INCH
; #@! TA.AperFunction,Plated,PTH,ViaDrill
T1C0.0150
; #@! TA.AperFunction,Plated,PTH,ComponentDrill
T2C0.0295
; #@! TA.AperFunction,Plated,PTH,ComponentDrill
T3C0.0315
; #@! TA.AperFunction,Plated,PTH,ComponentDrill
T4C0.0354
; #@! TA.AperFunction,Plated,PTH,ComponentDrill
T5C0.0394
; #@! TA.AperFunction,Plated,PTH,ComponentDrill
T6C0.0433
%
G90
G05
T1
X2.8695Y-4.4322
X2.8728Y-3.83
X2.907Y-3.2528
X2.9289Y-4.5729
X2.933Y-3.3389
X3.0726Y-4.6773
X3.1032Y-5.0119
X3.1541Y-4.989
X3.2453Y-3.1536
X3.249Y-5.2734
X3.2596Y-3.0998
X3.2907Y-3.1505
X3.2965Y-3.208
X3.2967Y-3.0866
X3.4177Y-3.9403
X3.5531Y-3.9989
X3.6832Y-2.4474
X3.7036Y-5.2919
X3.7077Y-3.4331
X3.7301Y-5.002
X3.77Y-2.67
X3.7829Y-3.0445
X3.7915Y-2.7334
X3.8766Y-2.8161
X3.9219Y-3.813
X4.0Y-5.288
X4.0136Y-3.3311
X4.1Y-5.289
X4.1773Y-4.8057
X4.1902Y-5.279
X4.3Y-5.2142
X4.3085Y-3.0999
X4.3447Y-4.6737
X4.3653Y-5.1752
X4.3918Y-5.3114
X4.6917Y-5.2853
X4.7244Y-4.1485
X4.7408Y-4.025
X4.7934Y-4.7851
X4.8688Y-4.9578
X5.031Y-4.3216
X5.1021Y-5.0732
X5.1125Y-4.6479
X5.1259Y-5.2769
X5.1677Y-4.9433
X5.2831Y-4.6574
X5.2843Y-4.3079
X5.3336Y-5.246
X5.3743Y-3.8544
X5.3966Y-4.9522
X5.4897Y-5.2777
X5.5731Y-5.2882
T2
X5.8308Y-5.0
X5.8308Y-5.05
X5.8308Y-5.1
X6.04Y-4.995
X6.04Y-5.045
X6.04Y-5.095
T3
X2.275Y-2.175
X2.275Y-2.975
X2.3016Y-3.175
X2.375Y-2.175
X2.375Y-2.975
X2.4Y-3.175
X2.475Y-2.175
X2.475Y-2.975
X2.5Y-3.675
X2.5Y-3.775
X2.5Y-3.875
X2.5Y-3.975
X2.5Y-4.075
X2.5Y-4.175
X2.5Y-4.275
X2.5Y-4.375
X2.5Y-4.475
X2.5Y-4.575
X2.575Y-2.175
X2.575Y-2.975
X2.6Y-3.475
X2.675Y-2.175
X2.675Y-2.975
X2.675Y-3.175
X2.6984Y-3.475
X2.7734Y-3.175
X2.775Y-2.175
X2.775Y-2.975
X2.8Y-3.675
X2.8Y-3.775
X2.8Y-3.875
X2.8Y-3.975
X2.8Y-4.075
X2.8Y-4.175
X2.8Y-4.275
X2.8Y-4.375
X2.8Y-4.475
X2.8Y-4.575
X2.83Y-4.7624
X2.83Y-4.8411
X2.875Y-2.175
X2.875Y-2.975
X2.975Y-2.175
X2.975Y-2.975
X3.075Y-2.175
X3.075Y-2.975
X3.175Y-2.175
X3.175Y-2.975
X3.175Y-3.675
X3.175Y-3.775
X3.175Y-3.875
X3.175Y-3.975
X3.175Y-4.075
X3.175Y-4.175
X3.175Y-4.275
X3.175Y-4.375
X3.175Y-4.475
X3.175Y-4.575
X3.275Y-2.175
X3.275Y-2.975
X3.2766Y-3.475
X3.375Y-2.175
X3.375Y-2.975
X3.375Y-3.475
X3.475Y-2.175
X3.475Y-2.975
X3.475Y-3.675
X3.475Y-3.775
X3.475Y-3.875
X3.475Y-3.975
X3.475Y-4.075
X3.475Y-4.175
X3.475Y-4.275
X3.475Y-4.375
X3.475Y-4.475
X3.475Y-4.575
X3.575Y-2.175
X3.575Y-2.975
X3.675Y-2.175
X3.675Y-2.975
X3.775Y-2.175
X3.775Y-2.975
X3.85Y-3.675
X3.85Y-3.775
X3.85Y-3.875
X3.85Y-3.975
X3.85Y-4.075
X3.85Y-4.175
X3.85Y-4.275
X3.85Y-4.375
X3.85Y-4.475
X3.85Y-4.575
X3.875Y-2.175
X3.875Y-2.975
X3.9516Y-3.475
X3.975Y-2.175
X3.975Y-2.975
X4.05Y-3.475
X4.075Y-2.175
X4.075Y-2.975
X4.0758Y-3.175
X4.15Y-3.675
X4.15Y-3.775
X4.15Y-3.875
X4.15Y-3.975
X4.15Y-4.075
X4.15Y-4.175
X4.15Y-4.275
X4.15Y-4.375
X4.15Y-4.475
X4.15Y-4.575
X4.1742Y-3.175
X4.175Y-2.175
X4.175Y-2.975
X4.55Y-3.675
X4.55Y-3.775
X4.55Y-3.875
X4.55Y-3.975
X4.55Y-4.075
X4.55Y-4.175
X4.55Y-4.275
X4.55Y-4.375
X4.55Y-4.475
X4.55Y-4.575
X4.6516Y-3.475
X4.75Y-3.475
X4.85Y-3.675
X4.85Y-3.775
X4.85Y-3.875
X4.85Y-3.975
X4.85Y-4.075
X4.85Y-4.175
X4.85Y-4.275
X4.85Y-4.375
X4.85Y-4.475
X4.85Y-4.575
X5.05Y-3.2
X5.225Y-3.675
X5.225Y-3.775
X5.225Y-3.875
X5.225Y-3.975
X5.225Y-4.075
X5.225Y-4.175
X5.225Y-4.275
X5.225Y-4.375
X5.225Y-4.475
X5.225Y-4.575
X5.3266Y-3.475
X5.425Y-3.475
X5.45Y-3.2
X5.525Y-3.675
X5.525Y-3.775
X5.525Y-3.875
X5.525Y-3.975
X5.525Y-4.075
X5.525Y-4.175
X5.525Y-4.275
X5.525Y-4.375
X5.525Y-4.475
X5.525Y-4.575
X5.735Y-4.3842
X5.735Y-4.5342
X5.735Y-4.6842
X5.735Y-4.8292
X5.74Y-3.9842
X5.85Y-3.75
X5.85Y-3.8287
X5.85Y-4.1392
X5.85Y-4.218
X6.09Y-3.7458
X6.09Y-3.8442
X6.09Y-4.12
X6.09Y-4.2184
X6.135Y-4.3842
X6.135Y-4.5342
X6.135Y-4.6842
X6.135Y-4.8292
X6.14Y-3.9842
T4
X5.65Y-3.2
X5.75Y-3.2
T5
X2.815Y-4.9998
X2.815Y-5.0998
X4.6498Y-3.2
X4.7498Y-3.2
T6
X3.5Y-3.175
X3.9Y-3.175
T5
G00X6.0266Y-3.139
M15
G01X6.0659Y-3.139
M16
G05
G00X6.1053Y-3.2335
M15
G01X6.1447Y-3.2335
M16
G05
G00X6.1053Y-3.45
M15
G01X6.1447Y-3.45
M16
G05
T0
M30
