M48
; DRILL file {KiCad 8.0.3} date 2024-06-18T14:48:26-0700
; FORMAT={-:-/ absolute / inch / decimal}
; #@! TF.CreationDate,2024-06-18T14:48:26-07:00
; #@! TF.GenerationSoftware,Kicad,Pcbnew,8.0.3
; #@! TF.FileFunction,Plated,1,2,PTH
FMAT,2
INCH
; #@! TA.AperFunction,Plated,PTH,ViaDrill
T1C0.0150
; #@! TA.AperFunction,Plated,PTH,ComponentDrill
T2C0.0157
; #@! TA.AperFunction,Plated,PTH,ComponentDrill
T3C0.0315
; #@! TA.AperFunction,Plated,PTH,ComponentDrill
T4C0.0354
; #@! TA.AperFunction,Plated,PTH,ComponentDrill
T5C0.0394
; #@! TA.AperFunction,Plated,PTH,ComponentDrill
T6C0.0433
%
G90
G05
T1
X3.575Y-2.0519
X3.9264Y-3.6854
X3.943Y-3.9823
X3.9696Y-2.3665
X4.0606Y-2.0401
X4.08Y-2.08
X4.1315Y-3.9222
X4.168Y-3.8841
X4.2717Y-2.7522
X4.3131Y-2.8974
X4.3541Y-2.0404
X4.3562Y-4.5886
X4.3714Y-4.6738
X4.3855Y-3.4738
X4.4621Y-2.0517
X4.4718Y-4.553
X4.5122Y-2.0362
X4.6149Y-4.1145
X4.6741Y-2.6618
X4.746Y-2.6442
X4.751Y-4.7233
X4.809Y-2.6591
X4.8249Y-2.5898
X4.8273Y-3.3207
X4.8509Y-3.5238
X4.8601Y-4.2625
X4.9254Y-2.5136
X4.9772Y-2.7995
X5.0437Y-4.5803
X5.1928Y-4.7347
X5.3965Y-2.7982
X5.5112Y-3.73
X5.5423Y-3.8238
X5.7825Y-3.0856
X5.83Y-4.7274
X5.9Y-4.733
X5.9508Y-3.0999
X6.1Y-4.703
X6.1129Y-3.8935
X6.1267Y-4.1314
X6.1872Y-4.7523
X6.2009Y-3.9462
X6.3Y-4.6306
T3
X3.075Y-1.6238
X3.075Y-2.4238
X3.1274Y-2.65
X3.175Y-1.6238
X3.175Y-2.4238
X3.2258Y-2.65
X3.275Y-1.6238
X3.275Y-2.4238
X3.3262Y-3.1238
X3.3262Y-3.2238
X3.3262Y-3.3238
X3.3262Y-3.4238
X3.3262Y-3.5238
X3.3262Y-3.6238
X3.3262Y-3.7238
X3.3262Y-3.8238
X3.3262Y-3.9238
X3.3262Y-4.0238
X3.375Y-1.6238
X3.375Y-2.4238
X3.4262Y-2.9238
X3.475Y-1.6238
X3.475Y-2.4238
X3.5008Y-2.65
X3.5246Y-2.9238
X3.575Y-1.6238
X3.575Y-2.4238
X3.5992Y-2.65
X3.6262Y-3.1238
X3.6262Y-3.2238
X3.6262Y-3.3238
X3.6262Y-3.4238
X3.6262Y-3.5238
X3.6262Y-3.6238
X3.6262Y-3.7238
X3.6262Y-3.8238
X3.6262Y-3.9238
X3.6262Y-4.0238
X3.6316Y-4.4
X3.675Y-1.6238
X3.675Y-2.4238
X3.73Y-4.4
X3.775Y-1.6238
X3.775Y-2.4238
X3.875Y-1.6238
X3.875Y-2.4238
X3.975Y-1.6238
X4.0012Y-3.1238
X4.0012Y-3.2238
X4.0012Y-3.3238
X4.0012Y-3.4238
X4.0012Y-3.5238
X4.0012Y-3.6238
X4.0012Y-3.7238
X4.0012Y-3.8238
X4.0012Y-3.9238
X4.0012Y-4.0238
X4.075Y-1.6238
X4.075Y-2.4238
X4.1028Y-2.9238
X4.175Y-1.6238
X4.2012Y-2.9238
X4.275Y-1.6238
X4.3012Y-3.1238
X4.3012Y-3.2238
X4.3012Y-3.3238
X4.3012Y-3.4238
X4.3012Y-3.5238
X4.3012Y-3.6238
X4.3012Y-3.7238
X4.3012Y-3.8238
X4.3012Y-3.9238
X4.3012Y-4.0238
X4.375Y-1.6238
X4.475Y-1.6238
X4.475Y-2.4238
X4.575Y-1.6238
X4.575Y-2.4238
X4.6Y-2.6224
X4.6Y-2.7011
X4.675Y-1.6238
X4.675Y-2.4238
X4.6762Y-3.1238
X4.6762Y-3.2238
X4.6762Y-3.3238
X4.6762Y-3.4238
X4.6762Y-3.5238
X4.6762Y-3.6238
X4.6762Y-3.7238
X4.6762Y-3.8238
X4.6762Y-3.9238
X4.6762Y-4.0238
X4.775Y-1.6238
X4.775Y-2.4238
X4.7778Y-2.9238
X4.875Y-1.6238
X4.875Y-2.4238
X4.8762Y-2.9238
X4.8816Y-2.65
X4.975Y-1.6238
X4.975Y-2.4238
X4.9762Y-3.1238
X4.9762Y-3.2238
X4.9762Y-3.3238
X4.9762Y-3.4238
X4.9762Y-3.5238
X4.9762Y-3.6238
X4.9762Y-3.7238
X4.9762Y-3.8238
X4.9762Y-3.9238
X4.9762Y-4.0238
X4.98Y-2.65
X5.3762Y-3.1238
X5.3762Y-3.2238
X5.3762Y-3.3238
X5.3762Y-3.4238
X5.3762Y-3.5238
X5.3762Y-3.6238
X5.3762Y-3.7238
X5.3762Y-3.8238
X5.3762Y-3.9238
X5.3762Y-4.0238
X5.4543Y-2.65
X5.4778Y-2.9238
X5.5762Y-2.9238
X5.6762Y-3.1238
X5.6762Y-3.2238
X5.6762Y-3.3238
X5.6762Y-3.4238
X5.6762Y-3.5238
X5.6762Y-3.6238
X5.6762Y-3.7238
X5.6762Y-3.8238
X5.6762Y-3.9238
X5.6762Y-4.0238
X5.8543Y-2.65
X6.0512Y-3.1238
X6.0512Y-3.2238
X6.0512Y-3.3238
X6.0512Y-3.4238
X6.0512Y-3.5238
X6.0512Y-3.6238
X6.0512Y-3.7238
X6.0512Y-3.8238
X6.0512Y-3.9238
X6.0512Y-4.0238
X6.1528Y-2.9238
X6.2512Y-2.9238
X6.3512Y-3.1238
X6.3512Y-3.2238
X6.3512Y-3.3238
X6.3512Y-3.4238
X6.3512Y-3.5238
X6.3512Y-3.6238
X6.3512Y-3.7238
X6.3512Y-3.8238
X6.3512Y-3.9238
X6.3512Y-4.0238
X6.54Y-3.46
X6.54Y-3.65
X6.54Y-3.84
X6.7026Y-3.23
X6.7258Y-3.99
X6.7258Y-4.09
X6.7258Y-4.19
X6.7258Y-4.34
X6.7258Y-4.44
X6.7258Y-4.54
X6.801Y-3.23
X6.94Y-3.46
X6.94Y-3.65
X6.94Y-3.84
T4
X6.175Y-2.65
X6.275Y-2.65
T5
X4.24Y-1.91
X4.34Y-1.91
T6
X3.8935Y-2.664
X4.2935Y-2.664
T2
G00X6.5813Y-2.874
M15
G01X6.5813Y-2.9134
M16
G05
G00X6.7978Y-2.6969
M15
G01X6.7585Y-2.6969
M16
G05
G00X6.975Y-2.9134
M15
G01X6.975Y-2.874
M16
G05
M30
