%TF.GenerationSoftware,KiCad,Pcbnew,7.0.7*%
%TF.CreationDate,2023-09-28T21:36:23-07:00*%
%TF.ProjectId,WonrderTANG,576f6e72-6465-4725-9441-4e472e6b6963,rev?*%
%TF.SameCoordinates,Original*%
%TF.FileFunction,Drillmap*%
%TF.FilePolarity,Positive*%
%FSLAX45Y45*%
G04 Gerber Fmt 4.5, Leading zero omitted, Abs format (unit mm)*
G04 Created by KiCad (PCBNEW 7.0.7) date 2023-09-28 21:36:23*
%MOMM*%
%LPD*%
G01*
G04 APERTURE LIST*
%ADD10C,0.050000*%
%ADD11C,0.200000*%
%ADD12C,0.038100*%
%ADD13C,0.070000*%
%ADD14C,0.080000*%
%ADD15C,0.090000*%
%ADD16C,0.100000*%
%ADD17C,0.110000*%
G04 APERTURE END LIST*
D10*
X14478000Y-14287500D02*
X14414500Y-14351000D01*
X7874000Y-14287500D02*
X7874000Y-13335000D01*
X10795000Y-5334000D02*
X10795000Y-7810500D01*
X15811000Y-7816500D02*
X15811500Y-13335000D01*
X14414500Y-14351000D02*
X7937500Y-14351000D01*
X10795000Y-7810500D02*
X15811000Y-7816500D01*
X7874000Y-13335000D02*
X6667500Y-13335000D01*
X14478000Y-13335000D02*
X14478000Y-14287500D01*
X6667500Y-12065000D02*
X5651500Y-12065000D01*
X6667500Y-13335000D02*
X6667500Y-12065000D01*
X5651500Y-12065000D02*
X5651500Y-5334000D01*
X5651500Y-5334000D02*
X10795000Y-5334000D01*
X7937500Y-14351000D02*
X7874000Y-14287500D01*
X15811500Y-13335000D02*
X14478000Y-13335000D01*
D11*
D12*
X6544380Y-11015300D02*
X6582480Y-11053400D01*
X6582480Y-11015300D02*
X6544380Y-11053400D01*
X6911970Y-11708580D02*
X6950070Y-11746680D01*
X6950070Y-11708580D02*
X6911970Y-11746680D01*
X7021400Y-12128760D02*
X7059500Y-12166860D01*
X7059500Y-12128760D02*
X7021400Y-12166860D01*
X7026630Y-9442450D02*
X7064730Y-9480550D01*
X7064730Y-9442450D02*
X7026630Y-9480550D01*
X7424790Y-7976900D02*
X7462890Y-8015000D01*
X7462890Y-7976900D02*
X7424790Y-8015000D01*
X8538150Y-8761570D02*
X8576250Y-8799670D01*
X8576250Y-8761570D02*
X8538150Y-8799670D01*
X8677840Y-10826960D02*
X8715940Y-10865060D01*
X8715940Y-10826960D02*
X8677840Y-10865060D01*
X8797470Y-8436400D02*
X8835570Y-8474500D01*
X8835570Y-8436400D02*
X8797470Y-8474500D01*
X8936550Y-12613820D02*
X8974650Y-12651920D01*
X8974650Y-12613820D02*
X8936550Y-12651920D01*
X9016540Y-12421040D02*
X9054640Y-12459140D01*
X9054640Y-12421040D02*
X9016540Y-12459140D01*
X9096410Y-12715280D02*
X9134510Y-12753380D01*
X9134510Y-12715280D02*
X9096410Y-12753380D01*
X9258860Y-13261130D02*
X9296960Y-13299230D01*
X9296960Y-13261130D02*
X9258860Y-13299230D01*
X9311370Y-12995430D02*
X9349470Y-13033530D01*
X9349470Y-12995430D02*
X9311370Y-13033530D01*
X9413650Y-13004060D02*
X9451750Y-13042160D01*
X9451750Y-13004060D02*
X9413650Y-13042160D01*
X9753810Y-13106430D02*
X9791910Y-13144530D01*
X9791910Y-13106430D02*
X9753810Y-13144530D01*
X9864250Y-11397660D02*
X9902350Y-11435760D01*
X9902350Y-11397660D02*
X9864250Y-11435760D01*
X9897190Y-8459290D02*
X9935290Y-8497390D01*
X9935290Y-8459290D02*
X9897190Y-8497390D01*
X9926670Y-11745130D02*
X9964770Y-11783230D01*
X9964770Y-11745130D02*
X9926670Y-11783230D01*
X10002410Y-11687250D02*
X10040510Y-11725350D01*
X10040510Y-11687250D02*
X10002410Y-11725350D01*
X10008920Y-13212510D02*
X10047020Y-13250610D01*
X10047020Y-13212510D02*
X10008920Y-13250610D01*
X10019660Y-13118280D02*
X10057760Y-13156380D01*
X10057760Y-13118280D02*
X10019660Y-13156380D01*
X10198120Y-12389850D02*
X10236220Y-12427950D01*
X10236220Y-12389850D02*
X10198120Y-12427950D01*
X10208420Y-12064200D02*
X10246520Y-12102300D01*
X10246520Y-12064200D02*
X10208420Y-12102300D01*
X10249190Y-11971790D02*
X10287290Y-12009890D01*
X10287290Y-11971790D02*
X10249190Y-12009890D01*
X10408660Y-7754910D02*
X10446760Y-7793010D01*
X10446760Y-7754910D02*
X10408660Y-7793010D01*
X10445490Y-7900750D02*
X10483590Y-7938850D01*
X10483590Y-7900750D02*
X10445490Y-7938850D01*
X10531230Y-13027220D02*
X10569330Y-13065320D01*
X10569330Y-13027220D02*
X10531230Y-13065320D01*
X10538560Y-10910990D02*
X10576660Y-10949090D01*
X10576660Y-10910990D02*
X10538560Y-10949090D01*
X10607280Y-11196830D02*
X10645380Y-11234930D01*
X10645380Y-11196830D02*
X10607280Y-11234930D01*
X10617070Y-12824700D02*
X10655170Y-12862800D01*
X10655170Y-12824700D02*
X10617070Y-12862800D01*
X10629370Y-11883580D02*
X10667470Y-11921680D01*
X10667470Y-11883580D02*
X10629370Y-11921680D01*
X10768960Y-13161150D02*
X10807060Y-13199250D01*
X10807060Y-13161150D02*
X10768960Y-13199250D01*
X10986020Y-10886980D02*
X11024120Y-10925080D01*
X11024120Y-10886980D02*
X10986020Y-10925080D01*
X11081700Y-10441570D02*
X11119800Y-10479670D01*
X11119800Y-10441570D02*
X11081700Y-10479670D01*
X11196750Y-8551240D02*
X11234850Y-8589340D01*
X11234850Y-8551240D02*
X11196750Y-8589340D01*
X11202670Y-11915730D02*
X11240770Y-11953830D01*
X11240770Y-11915730D02*
X11202670Y-11953830D01*
X11224780Y-12321330D02*
X11262880Y-12359430D01*
X11262880Y-12321330D02*
X11224780Y-12359430D01*
X11455860Y-12062030D02*
X11493960Y-12100130D01*
X11493960Y-12062030D02*
X11455860Y-12100130D01*
X11691320Y-8093930D02*
X11729420Y-8132030D01*
X11729420Y-8093930D02*
X11691320Y-8132030D01*
X11693410Y-12898200D02*
X11731510Y-12936300D01*
X11731510Y-12898200D02*
X11693410Y-12936300D01*
X11705360Y-12166170D02*
X11743460Y-12204270D01*
X11743460Y-12166170D02*
X11705360Y-12204270D01*
X11725360Y-12380650D02*
X11763460Y-12418750D01*
X11763460Y-12380650D02*
X11725360Y-12418750D01*
X11783620Y-13221120D02*
X11821720Y-13259220D01*
X11821720Y-13221120D02*
X11783620Y-13259220D01*
X11930800Y-9579570D02*
X11968900Y-9617670D01*
X11968900Y-9579570D02*
X11930800Y-9617670D01*
X11984500Y-8611710D02*
X12022600Y-8649810D01*
X12022600Y-8611710D02*
X11984500Y-8649810D01*
X12205850Y-9663650D02*
X12243950Y-9701750D01*
X12243950Y-9663650D02*
X12205850Y-9701750D01*
X12652670Y-11195690D02*
X12690770Y-11233790D01*
X12690770Y-11195690D02*
X12652670Y-11233790D01*
X12680950Y-13005390D02*
X12719050Y-13043490D01*
X12719050Y-13005390D02*
X12680950Y-13043490D01*
X12796280Y-12103730D02*
X12834380Y-12141830D01*
X12834380Y-12103730D02*
X12796280Y-12141830D01*
X12812560Y-12755680D02*
X12850660Y-12793780D01*
X12850660Y-12755680D02*
X12812560Y-12793780D01*
X13308380Y-13247240D02*
X13346480Y-13285340D01*
X13346480Y-13247240D02*
X13308380Y-13285340D01*
X13367950Y-12687110D02*
X13406050Y-12725210D01*
X13406050Y-12687110D02*
X13367950Y-12725210D01*
X13376550Y-10299280D02*
X13414650Y-10337380D01*
X13414650Y-10299280D02*
X13376550Y-10337380D01*
X13421750Y-12937280D02*
X13459850Y-12975380D01*
X13459850Y-12937280D02*
X13421750Y-12975380D01*
X13594230Y-12816670D02*
X13632330Y-12854770D01*
X13632330Y-12816670D02*
X13594230Y-12854770D01*
X13652910Y-12658190D02*
X13691010Y-12696290D01*
X13691010Y-12658190D02*
X13652910Y-12696290D01*
D13*
X14259000Y-8610600D02*
G75*
G03*
X14259000Y-8610600I-35000J0D01*
G01*
X14767000Y-8610600D02*
G75*
G03*
X14767000Y-8610600I-35000J0D01*
G01*
X15084500Y-9588500D02*
G75*
G03*
X15084500Y-9588500I-35000J0D01*
G01*
X15097200Y-9880600D02*
G75*
G03*
X15097200Y-9880600I-35000J0D01*
G01*
X15097200Y-11557000D02*
G75*
G03*
X15097200Y-11557000I-35000J0D01*
G01*
X15097200Y-12065000D02*
G75*
G03*
X15097200Y-12065000I-35000J0D01*
G01*
X15097200Y-12547600D02*
G75*
G03*
X15097200Y-12547600I-35000J0D01*
G01*
X15592500Y-9588500D02*
G75*
G03*
X15592500Y-9588500I-35000J0D01*
G01*
X15605200Y-9880600D02*
G75*
G03*
X15605200Y-9880600I-35000J0D01*
G01*
X15605200Y-11557000D02*
G75*
G03*
X15605200Y-11557000I-35000J0D01*
G01*
X15605200Y-12065000D02*
G75*
G03*
X15605200Y-12065000I-35000J0D01*
G01*
X15605200Y-12547600D02*
G75*
G03*
X15605200Y-12547600I-35000J0D01*
G01*
D14*
X5778500Y-5548000D02*
X5778500Y-5628000D01*
X5738500Y-5588000D02*
X5818500Y-5588000D01*
X5778500Y-7580000D02*
X5778500Y-7660000D01*
X5738500Y-7620000D02*
X5818500Y-7620000D01*
X5846000Y-8138800D02*
X5846000Y-8218800D01*
X5806000Y-8178800D02*
X5886000Y-8178800D01*
X6032500Y-5548000D02*
X6032500Y-5628000D01*
X5992500Y-5588000D02*
X6072500Y-5588000D01*
X6032500Y-7580000D02*
X6032500Y-7660000D01*
X5992500Y-7620000D02*
X6072500Y-7620000D01*
X6096000Y-8138800D02*
X6096000Y-8218800D01*
X6056000Y-8178800D02*
X6136000Y-8178800D01*
X6286500Y-5548000D02*
X6286500Y-5628000D01*
X6246500Y-5588000D02*
X6326500Y-5588000D01*
X6286500Y-7580000D02*
X6286500Y-7660000D01*
X6246500Y-7620000D02*
X6326500Y-7620000D01*
X6540500Y-5548000D02*
X6540500Y-5628000D01*
X6500500Y-5588000D02*
X6580500Y-5588000D01*
X6540500Y-7580000D02*
X6540500Y-7660000D01*
X6500500Y-7620000D02*
X6580500Y-7620000D01*
X6794500Y-5548000D02*
X6794500Y-5628000D01*
X6754500Y-5588000D02*
X6834500Y-5588000D01*
X6794500Y-7580000D02*
X6794500Y-7660000D01*
X6754500Y-7620000D02*
X6834500Y-7620000D01*
X6858000Y-9231000D02*
X6858000Y-9311000D01*
X6818000Y-9271000D02*
X6898000Y-9271000D01*
X6858000Y-9485000D02*
X6858000Y-9565000D01*
X6818000Y-9525000D02*
X6898000Y-9525000D01*
X6858000Y-9739000D02*
X6858000Y-9819000D01*
X6818000Y-9779000D02*
X6898000Y-9779000D01*
X6858000Y-9993000D02*
X6858000Y-10073000D01*
X6818000Y-10033000D02*
X6898000Y-10033000D01*
X6858000Y-10247000D02*
X6858000Y-10327000D01*
X6818000Y-10287000D02*
X6898000Y-10287000D01*
X6858000Y-10501000D02*
X6858000Y-10581000D01*
X6818000Y-10541000D02*
X6898000Y-10541000D01*
X6858000Y-10755000D02*
X6858000Y-10835000D01*
X6818000Y-10795000D02*
X6898000Y-10795000D01*
X6858000Y-11009000D02*
X6858000Y-11089000D01*
X6818000Y-11049000D02*
X6898000Y-11049000D01*
X6858000Y-11263000D02*
X6858000Y-11343000D01*
X6818000Y-11303000D02*
X6898000Y-11303000D01*
X6858000Y-11517000D02*
X6858000Y-11597000D01*
X6818000Y-11557000D02*
X6898000Y-11557000D01*
X7048500Y-5548000D02*
X7048500Y-5628000D01*
X7008500Y-5588000D02*
X7088500Y-5588000D01*
X7048500Y-7580000D02*
X7048500Y-7660000D01*
X7008500Y-7620000D02*
X7088500Y-7620000D01*
X7112000Y-8138800D02*
X7112000Y-8218800D01*
X7072000Y-8178800D02*
X7152000Y-8178800D01*
X7116000Y-8723000D02*
X7116000Y-8803000D01*
X7076000Y-8763000D02*
X7156000Y-8763000D01*
X7302500Y-5548000D02*
X7302500Y-5628000D01*
X7262500Y-5588000D02*
X7342500Y-5588000D01*
X7302500Y-7580000D02*
X7302500Y-7660000D01*
X7262500Y-7620000D02*
X7342500Y-7620000D01*
X7362000Y-8138800D02*
X7362000Y-8218800D01*
X7322000Y-8178800D02*
X7402000Y-8178800D01*
X7366000Y-8723000D02*
X7366000Y-8803000D01*
X7326000Y-8763000D02*
X7406000Y-8763000D01*
X7556500Y-5548000D02*
X7556500Y-5628000D01*
X7516500Y-5588000D02*
X7596500Y-5588000D01*
X7556500Y-7580000D02*
X7556500Y-7660000D01*
X7516500Y-7620000D02*
X7596500Y-7620000D01*
X7620000Y-9231000D02*
X7620000Y-9311000D01*
X7580000Y-9271000D02*
X7660000Y-9271000D01*
X7620000Y-9485000D02*
X7620000Y-9565000D01*
X7580000Y-9525000D02*
X7660000Y-9525000D01*
X7620000Y-9739000D02*
X7620000Y-9819000D01*
X7580000Y-9779000D02*
X7660000Y-9779000D01*
X7620000Y-9993000D02*
X7620000Y-10073000D01*
X7580000Y-10033000D02*
X7660000Y-10033000D01*
X7620000Y-10247000D02*
X7620000Y-10327000D01*
X7580000Y-10287000D02*
X7660000Y-10287000D01*
X7620000Y-10501000D02*
X7620000Y-10581000D01*
X7580000Y-10541000D02*
X7660000Y-10541000D01*
X7620000Y-10755000D02*
X7620000Y-10835000D01*
X7580000Y-10795000D02*
X7660000Y-10795000D01*
X7620000Y-11009000D02*
X7620000Y-11089000D01*
X7580000Y-11049000D02*
X7660000Y-11049000D01*
X7620000Y-11263000D02*
X7620000Y-11343000D01*
X7580000Y-11303000D02*
X7660000Y-11303000D01*
X7620000Y-11517000D02*
X7620000Y-11597000D01*
X7580000Y-11557000D02*
X7660000Y-11557000D01*
X7810500Y-5548000D02*
X7810500Y-5628000D01*
X7770500Y-5588000D02*
X7850500Y-5588000D01*
X7810500Y-7580000D02*
X7810500Y-7660000D01*
X7770500Y-7620000D02*
X7850500Y-7620000D01*
X8064500Y-5548000D02*
X8064500Y-5628000D01*
X8024500Y-5588000D02*
X8104500Y-5588000D01*
X8064500Y-7580000D02*
X8064500Y-7660000D01*
X8024500Y-7620000D02*
X8104500Y-7620000D01*
X8318500Y-5548000D02*
X8318500Y-5628000D01*
X8278500Y-5588000D02*
X8358500Y-5588000D01*
X8318500Y-7580000D02*
X8318500Y-7660000D01*
X8278500Y-7620000D02*
X8358500Y-7620000D01*
X8445500Y-9231000D02*
X8445500Y-9311000D01*
X8405500Y-9271000D02*
X8485500Y-9271000D01*
X8445500Y-9485000D02*
X8445500Y-9565000D01*
X8405500Y-9525000D02*
X8485500Y-9525000D01*
X8445500Y-9739000D02*
X8445500Y-9819000D01*
X8405500Y-9779000D02*
X8485500Y-9779000D01*
X8445500Y-9993000D02*
X8445500Y-10073000D01*
X8405500Y-10033000D02*
X8485500Y-10033000D01*
X8445500Y-10247000D02*
X8445500Y-10327000D01*
X8405500Y-10287000D02*
X8485500Y-10287000D01*
X8445500Y-10501000D02*
X8445500Y-10581000D01*
X8405500Y-10541000D02*
X8485500Y-10541000D01*
X8445500Y-10755000D02*
X8445500Y-10835000D01*
X8405500Y-10795000D02*
X8485500Y-10795000D01*
X8445500Y-11009000D02*
X8445500Y-11089000D01*
X8405500Y-11049000D02*
X8485500Y-11049000D01*
X8445500Y-11263000D02*
X8445500Y-11343000D01*
X8405500Y-11303000D02*
X8485500Y-11303000D01*
X8445500Y-11517000D02*
X8445500Y-11597000D01*
X8405500Y-11557000D02*
X8485500Y-11557000D01*
X8572500Y-5548000D02*
X8572500Y-5628000D01*
X8532500Y-5588000D02*
X8612500Y-5588000D01*
X8572500Y-7580000D02*
X8572500Y-7660000D01*
X8532500Y-7620000D02*
X8612500Y-7620000D01*
X8767000Y-8723000D02*
X8767000Y-8803000D01*
X8727000Y-8763000D02*
X8807000Y-8763000D01*
X8826500Y-5548000D02*
X8826500Y-5628000D01*
X8786500Y-5588000D02*
X8866500Y-5588000D01*
X8826500Y-7580000D02*
X8826500Y-7660000D01*
X8786500Y-7620000D02*
X8866500Y-7620000D01*
X9017000Y-8723000D02*
X9017000Y-8803000D01*
X8977000Y-8763000D02*
X9057000Y-8763000D01*
X9080500Y-5548000D02*
X9080500Y-5628000D01*
X9040500Y-5588000D02*
X9120500Y-5588000D01*
X9080500Y-7580000D02*
X9080500Y-7660000D01*
X9040500Y-7620000D02*
X9120500Y-7620000D01*
X9207500Y-9231000D02*
X9207500Y-9311000D01*
X9167500Y-9271000D02*
X9247500Y-9271000D01*
X9207500Y-9485000D02*
X9207500Y-9565000D01*
X9167500Y-9525000D02*
X9247500Y-9525000D01*
X9207500Y-9739000D02*
X9207500Y-9819000D01*
X9167500Y-9779000D02*
X9247500Y-9779000D01*
X9207500Y-9993000D02*
X9207500Y-10073000D01*
X9167500Y-10033000D02*
X9247500Y-10033000D01*
X9207500Y-10247000D02*
X9207500Y-10327000D01*
X9167500Y-10287000D02*
X9247500Y-10287000D01*
X9207500Y-10501000D02*
X9207500Y-10581000D01*
X9167500Y-10541000D02*
X9247500Y-10541000D01*
X9207500Y-10755000D02*
X9207500Y-10835000D01*
X9167500Y-10795000D02*
X9247500Y-10795000D01*
X9207500Y-11009000D02*
X9207500Y-11089000D01*
X9167500Y-11049000D02*
X9247500Y-11049000D01*
X9207500Y-11263000D02*
X9207500Y-11343000D01*
X9167500Y-11303000D02*
X9247500Y-11303000D01*
X9207500Y-11517000D02*
X9207500Y-11597000D01*
X9167500Y-11557000D02*
X9247500Y-11557000D01*
X9334500Y-5548000D02*
X9334500Y-5628000D01*
X9294500Y-5588000D02*
X9374500Y-5588000D01*
X9334500Y-7580000D02*
X9334500Y-7660000D01*
X9294500Y-7620000D02*
X9374500Y-7620000D01*
X9588500Y-5548000D02*
X9588500Y-5628000D01*
X9548500Y-5588000D02*
X9628500Y-5588000D01*
X9588500Y-7580000D02*
X9588500Y-7660000D01*
X9548500Y-7620000D02*
X9628500Y-7620000D01*
X9842500Y-5548000D02*
X9842500Y-5628000D01*
X9802500Y-5588000D02*
X9882500Y-5588000D01*
X9842500Y-7580000D02*
X9842500Y-7660000D01*
X9802500Y-7620000D02*
X9882500Y-7620000D01*
X10033000Y-9231000D02*
X10033000Y-9311000D01*
X9993000Y-9271000D02*
X10073000Y-9271000D01*
X10033000Y-9485000D02*
X10033000Y-9565000D01*
X9993000Y-9525000D02*
X10073000Y-9525000D01*
X10033000Y-9739000D02*
X10033000Y-9819000D01*
X9993000Y-9779000D02*
X10073000Y-9779000D01*
X10033000Y-9993000D02*
X10033000Y-10073000D01*
X9993000Y-10033000D02*
X10073000Y-10033000D01*
X10033000Y-10247000D02*
X10033000Y-10327000D01*
X9993000Y-10287000D02*
X10073000Y-10287000D01*
X10033000Y-10501000D02*
X10033000Y-10581000D01*
X9993000Y-10541000D02*
X10073000Y-10541000D01*
X10033000Y-10755000D02*
X10033000Y-10835000D01*
X9993000Y-10795000D02*
X10073000Y-10795000D01*
X10033000Y-11009000D02*
X10033000Y-11089000D01*
X9993000Y-11049000D02*
X10073000Y-11049000D01*
X10033000Y-11263000D02*
X10033000Y-11343000D01*
X9993000Y-11303000D02*
X10073000Y-11303000D01*
X10033000Y-11517000D02*
X10033000Y-11597000D01*
X9993000Y-11557000D02*
X10073000Y-11557000D01*
X10096500Y-5548000D02*
X10096500Y-5628000D01*
X10056500Y-5588000D02*
X10136500Y-5588000D01*
X10096500Y-7580000D02*
X10096500Y-7660000D01*
X10056500Y-7620000D02*
X10136500Y-7620000D01*
X10289000Y-8138800D02*
X10289000Y-8218800D01*
X10249000Y-8178800D02*
X10329000Y-8178800D01*
X10291000Y-8723000D02*
X10291000Y-8803000D01*
X10251000Y-8763000D02*
X10331000Y-8763000D01*
X10350500Y-5548000D02*
X10350500Y-5628000D01*
X10310500Y-5588000D02*
X10390500Y-5588000D01*
X10350500Y-7580000D02*
X10350500Y-7660000D01*
X10310500Y-7620000D02*
X10390500Y-7620000D01*
X10539000Y-8138800D02*
X10539000Y-8218800D01*
X10499000Y-8178800D02*
X10579000Y-8178800D01*
X10541000Y-8723000D02*
X10541000Y-8803000D01*
X10501000Y-8763000D02*
X10581000Y-8763000D01*
X10604500Y-5548000D02*
X10604500Y-5628000D01*
X10564500Y-5588000D02*
X10644500Y-5588000D01*
X10604500Y-7580000D02*
X10604500Y-7660000D01*
X10564500Y-7620000D02*
X10644500Y-7620000D01*
X10795000Y-9231000D02*
X10795000Y-9311000D01*
X10755000Y-9271000D02*
X10835000Y-9271000D01*
X10795000Y-9485000D02*
X10795000Y-9565000D01*
X10755000Y-9525000D02*
X10835000Y-9525000D01*
X10795000Y-9739000D02*
X10795000Y-9819000D01*
X10755000Y-9779000D02*
X10835000Y-9779000D01*
X10795000Y-9993000D02*
X10795000Y-10073000D01*
X10755000Y-10033000D02*
X10835000Y-10033000D01*
X10795000Y-10247000D02*
X10795000Y-10327000D01*
X10755000Y-10287000D02*
X10835000Y-10287000D01*
X10795000Y-10501000D02*
X10795000Y-10581000D01*
X10755000Y-10541000D02*
X10835000Y-10541000D01*
X10795000Y-10755000D02*
X10795000Y-10835000D01*
X10755000Y-10795000D02*
X10835000Y-10795000D01*
X10795000Y-11009000D02*
X10795000Y-11089000D01*
X10755000Y-11049000D02*
X10835000Y-11049000D01*
X10795000Y-11263000D02*
X10795000Y-11343000D01*
X10755000Y-11303000D02*
X10835000Y-11303000D01*
X10795000Y-11517000D02*
X10795000Y-11597000D01*
X10755000Y-11557000D02*
X10835000Y-11557000D01*
X11620500Y-9231000D02*
X11620500Y-9311000D01*
X11580500Y-9271000D02*
X11660500Y-9271000D01*
X11620500Y-9485000D02*
X11620500Y-9565000D01*
X11580500Y-9525000D02*
X11660500Y-9525000D01*
X11620500Y-9739000D02*
X11620500Y-9819000D01*
X11580500Y-9779000D02*
X11660500Y-9779000D01*
X11620500Y-9993000D02*
X11620500Y-10073000D01*
X11580500Y-10033000D02*
X11660500Y-10033000D01*
X11620500Y-10247000D02*
X11620500Y-10327000D01*
X11580500Y-10287000D02*
X11660500Y-10287000D01*
X11620500Y-10501000D02*
X11620500Y-10581000D01*
X11580500Y-10541000D02*
X11660500Y-10541000D01*
X11620500Y-10755000D02*
X11620500Y-10835000D01*
X11580500Y-10795000D02*
X11660500Y-10795000D01*
X11620500Y-11009000D02*
X11620500Y-11089000D01*
X11580500Y-11049000D02*
X11660500Y-11049000D01*
X11620500Y-11263000D02*
X11620500Y-11343000D01*
X11580500Y-11303000D02*
X11660500Y-11303000D01*
X11620500Y-11517000D02*
X11620500Y-11597000D01*
X11580500Y-11557000D02*
X11660500Y-11557000D01*
X11878500Y-8723000D02*
X11878500Y-8803000D01*
X11838500Y-8763000D02*
X11918500Y-8763000D01*
X12128500Y-8723000D02*
X12128500Y-8803000D01*
X12088500Y-8763000D02*
X12168500Y-8763000D01*
X12382500Y-9231000D02*
X12382500Y-9311000D01*
X12342500Y-9271000D02*
X12422500Y-9271000D01*
X12382500Y-9485000D02*
X12382500Y-9565000D01*
X12342500Y-9525000D02*
X12422500Y-9525000D01*
X12382500Y-9739000D02*
X12382500Y-9819000D01*
X12342500Y-9779000D02*
X12422500Y-9779000D01*
X12382500Y-9993000D02*
X12382500Y-10073000D01*
X12342500Y-10033000D02*
X12422500Y-10033000D01*
X12382500Y-10247000D02*
X12382500Y-10327000D01*
X12342500Y-10287000D02*
X12422500Y-10287000D01*
X12382500Y-10501000D02*
X12382500Y-10581000D01*
X12342500Y-10541000D02*
X12422500Y-10541000D01*
X12382500Y-10755000D02*
X12382500Y-10835000D01*
X12342500Y-10795000D02*
X12422500Y-10795000D01*
X12382500Y-11009000D02*
X12382500Y-11089000D01*
X12342500Y-11049000D02*
X12422500Y-11049000D01*
X12382500Y-11263000D02*
X12382500Y-11343000D01*
X12342500Y-11303000D02*
X12422500Y-11303000D01*
X12382500Y-11517000D02*
X12382500Y-11597000D01*
X12342500Y-11557000D02*
X12422500Y-11557000D01*
X13208000Y-9231000D02*
X13208000Y-9311000D01*
X13168000Y-9271000D02*
X13248000Y-9271000D01*
X13208000Y-9485000D02*
X13208000Y-9565000D01*
X13168000Y-9525000D02*
X13248000Y-9525000D01*
X13208000Y-9739000D02*
X13208000Y-9819000D01*
X13168000Y-9779000D02*
X13248000Y-9779000D01*
X13208000Y-9993000D02*
X13208000Y-10073000D01*
X13168000Y-10033000D02*
X13248000Y-10033000D01*
X13208000Y-10247000D02*
X13208000Y-10327000D01*
X13168000Y-10287000D02*
X13248000Y-10287000D01*
X13208000Y-10501000D02*
X13208000Y-10581000D01*
X13168000Y-10541000D02*
X13248000Y-10541000D01*
X13208000Y-10755000D02*
X13208000Y-10835000D01*
X13168000Y-10795000D02*
X13248000Y-10795000D01*
X13208000Y-11009000D02*
X13208000Y-11089000D01*
X13168000Y-11049000D02*
X13248000Y-11049000D01*
X13208000Y-11263000D02*
X13208000Y-11343000D01*
X13168000Y-11303000D02*
X13248000Y-11303000D01*
X13208000Y-11517000D02*
X13208000Y-11597000D01*
X13168000Y-11557000D02*
X13248000Y-11557000D01*
X13466000Y-8723000D02*
X13466000Y-8803000D01*
X13426000Y-8763000D02*
X13506000Y-8763000D01*
X13716000Y-8723000D02*
X13716000Y-8803000D01*
X13676000Y-8763000D02*
X13756000Y-8763000D01*
X13970000Y-9231000D02*
X13970000Y-9311000D01*
X13930000Y-9271000D02*
X14010000Y-9271000D01*
X13970000Y-9485000D02*
X13970000Y-9565000D01*
X13930000Y-9525000D02*
X14010000Y-9525000D01*
X13970000Y-9739000D02*
X13970000Y-9819000D01*
X13930000Y-9779000D02*
X14010000Y-9779000D01*
X13970000Y-9993000D02*
X13970000Y-10073000D01*
X13930000Y-10033000D02*
X14010000Y-10033000D01*
X13970000Y-10247000D02*
X13970000Y-10327000D01*
X13930000Y-10287000D02*
X14010000Y-10287000D01*
X13970000Y-10501000D02*
X13970000Y-10581000D01*
X13930000Y-10541000D02*
X14010000Y-10541000D01*
X13970000Y-10755000D02*
X13970000Y-10835000D01*
X13930000Y-10795000D02*
X14010000Y-10795000D01*
X13970000Y-11009000D02*
X13970000Y-11089000D01*
X13930000Y-11049000D02*
X14010000Y-11049000D01*
X13970000Y-11263000D02*
X13970000Y-11343000D01*
X13930000Y-11303000D02*
X14010000Y-11303000D01*
X13970000Y-11517000D02*
X13970000Y-11597000D01*
X13930000Y-11557000D02*
X14010000Y-11557000D01*
X14528800Y-12507600D02*
X14528800Y-12587600D01*
X14488800Y-12547600D02*
X14568800Y-12547600D01*
X14541500Y-11517000D02*
X14541500Y-11597000D01*
X14501500Y-11557000D02*
X14581500Y-11557000D01*
X14541500Y-12025000D02*
X14541500Y-12105000D01*
X14501500Y-12065000D02*
X14581500Y-12065000D01*
X14655800Y-9586600D02*
X14655800Y-9666600D01*
X14615800Y-9626600D02*
X14695800Y-9626600D01*
X14655800Y-9786600D02*
X14655800Y-9866600D01*
X14615800Y-9826600D02*
X14695800Y-9826600D01*
X14668500Y-10247000D02*
X14668500Y-10327000D01*
X14628500Y-10287000D02*
X14708500Y-10287000D01*
X14668500Y-10501000D02*
X14668500Y-10581000D01*
X14628500Y-10541000D02*
X14708500Y-10541000D01*
X14668500Y-10755000D02*
X14668500Y-10835000D01*
X14628500Y-10795000D02*
X14708500Y-10795000D01*
X14668500Y-11009000D02*
X14668500Y-11089000D01*
X14628500Y-11049000D02*
X14708500Y-11049000D01*
X14778800Y-12507600D02*
X14778800Y-12587600D01*
X14738800Y-12547600D02*
X14818800Y-12547600D01*
X14791500Y-11517000D02*
X14791500Y-11597000D01*
X14751500Y-11557000D02*
X14831500Y-11557000D01*
X14791500Y-12025000D02*
X14791500Y-12105000D01*
X14751500Y-12065000D02*
X14831500Y-12065000D01*
X15430500Y-10247000D02*
X15430500Y-10327000D01*
X15390500Y-10287000D02*
X15470500Y-10287000D01*
X15430500Y-10501000D02*
X15430500Y-10581000D01*
X15390500Y-10541000D02*
X15470500Y-10541000D01*
X15430500Y-10755000D02*
X15430500Y-10835000D01*
X15390500Y-10795000D02*
X15470500Y-10795000D01*
X15430500Y-11009000D02*
X15430500Y-11089000D01*
X15390500Y-11049000D02*
X15470500Y-11049000D01*
D15*
X14382820Y-8223320D02*
X14382820Y-8159680D01*
X14319180Y-8159680D01*
X14319180Y-8223320D01*
X14382820Y-8223320D01*
X14636820Y-8223320D02*
X14636820Y-8159680D01*
X14573180Y-8159680D01*
X14573180Y-8223320D01*
X14636820Y-8223320D01*
D16*
X6985000Y-12369000D02*
X7035000Y-12319000D01*
X6985000Y-12269000D01*
X6935000Y-12319000D01*
X6985000Y-12369000D01*
X6985000Y-12623000D02*
X7035000Y-12573000D01*
X6985000Y-12523000D01*
X6935000Y-12573000D01*
X6985000Y-12623000D01*
X6985000Y-12877000D02*
X7035000Y-12827000D01*
X6985000Y-12777000D01*
X6935000Y-12827000D01*
X6985000Y-12877000D01*
X7239000Y-12369000D02*
X7289000Y-12319000D01*
X7239000Y-12269000D01*
X7189000Y-12319000D01*
X7239000Y-12369000D01*
X7239000Y-12623000D02*
X7289000Y-12573000D01*
X7239000Y-12523000D01*
X7189000Y-12573000D01*
X7239000Y-12623000D01*
X7239000Y-12877000D02*
X7289000Y-12827000D01*
X7239000Y-12777000D01*
X7189000Y-12827000D01*
X7239000Y-12877000D01*
X15357500Y-8023000D02*
X15407500Y-7973000D01*
X15357500Y-7923000D01*
X15307500Y-7973000D01*
X15357500Y-8023000D01*
D11*
X15307500Y-8023000D02*
X15407500Y-8023000D01*
X15407500Y-8023000D02*
G75*
G03*
X15407500Y-7923000I0J50000D01*
G01*
X15407500Y-7923000D02*
X15307500Y-7923000D01*
X15307500Y-7923000D02*
G75*
G03*
X15307500Y-8023000I0J-50000D01*
G01*
D16*
X15557500Y-8263000D02*
X15607500Y-8213000D01*
X15557500Y-8163000D01*
X15507500Y-8213000D01*
X15557500Y-8263000D01*
D11*
X15507500Y-8263000D02*
X15607500Y-8263000D01*
X15607500Y-8263000D02*
G75*
G03*
X15607500Y-8163000I0J50000D01*
G01*
X15607500Y-8163000D02*
X15507500Y-8163000D01*
X15507500Y-8163000D02*
G75*
G03*
X15507500Y-8263000I0J-50000D01*
G01*
D16*
X15557500Y-8813000D02*
X15607500Y-8763000D01*
X15557500Y-8713000D01*
X15507500Y-8763000D01*
X15557500Y-8813000D01*
D11*
X15507500Y-8813000D02*
X15607500Y-8813000D01*
X15607500Y-8813000D02*
G75*
G03*
X15607500Y-8713000I0J50000D01*
G01*
X15607500Y-8713000D02*
X15507500Y-8713000D01*
X15507500Y-8713000D02*
G75*
G03*
X15507500Y-8813000I0J-50000D01*
G01*
D17*
X8835000Y-8123800D02*
X8945000Y-8233800D01*
X8945000Y-8123800D02*
X8835000Y-8233800D01*
X8945000Y-8178800D02*
G75*
G03*
X8945000Y-8178800I-55000J0D01*
G01*
X9851000Y-8123800D02*
X9961000Y-8233800D01*
X9961000Y-8123800D02*
X9851000Y-8233800D01*
X9961000Y-8178800D02*
G75*
G03*
X9961000Y-8178800I-55000J0D01*
G01*
D11*
X5909777Y-14664984D02*
X5909777Y-14464984D01*
X5909777Y-14464984D02*
X5957396Y-14464984D01*
X5957396Y-14464984D02*
X5985967Y-14474508D01*
X5985967Y-14474508D02*
X6005015Y-14493555D01*
X6005015Y-14493555D02*
X6014539Y-14512603D01*
X6014539Y-14512603D02*
X6024062Y-14550698D01*
X6024062Y-14550698D02*
X6024062Y-14579269D01*
X6024062Y-14579269D02*
X6014539Y-14617365D01*
X6014539Y-14617365D02*
X6005015Y-14636412D01*
X6005015Y-14636412D02*
X5985967Y-14655460D01*
X5985967Y-14655460D02*
X5957396Y-14664984D01*
X5957396Y-14664984D02*
X5909777Y-14664984D01*
X6109777Y-14664984D02*
X6109777Y-14531650D01*
X6109777Y-14569746D02*
X6119301Y-14550698D01*
X6119301Y-14550698D02*
X6128824Y-14541174D01*
X6128824Y-14541174D02*
X6147872Y-14531650D01*
X6147872Y-14531650D02*
X6166920Y-14531650D01*
X6233586Y-14664984D02*
X6233586Y-14531650D01*
X6233586Y-14464984D02*
X6224062Y-14474508D01*
X6224062Y-14474508D02*
X6233586Y-14484031D01*
X6233586Y-14484031D02*
X6243110Y-14474508D01*
X6243110Y-14474508D02*
X6233586Y-14464984D01*
X6233586Y-14464984D02*
X6233586Y-14484031D01*
X6357396Y-14664984D02*
X6338348Y-14655460D01*
X6338348Y-14655460D02*
X6328824Y-14636412D01*
X6328824Y-14636412D02*
X6328824Y-14464984D01*
X6462158Y-14664984D02*
X6443110Y-14655460D01*
X6443110Y-14655460D02*
X6433586Y-14636412D01*
X6433586Y-14636412D02*
X6433586Y-14464984D01*
X6690729Y-14664984D02*
X6690729Y-14464984D01*
X6690729Y-14464984D02*
X6757396Y-14607841D01*
X6757396Y-14607841D02*
X6824062Y-14464984D01*
X6824062Y-14464984D02*
X6824062Y-14664984D01*
X7005015Y-14664984D02*
X7005015Y-14560222D01*
X7005015Y-14560222D02*
X6995491Y-14541174D01*
X6995491Y-14541174D02*
X6976443Y-14531650D01*
X6976443Y-14531650D02*
X6938348Y-14531650D01*
X6938348Y-14531650D02*
X6919301Y-14541174D01*
X7005015Y-14655460D02*
X6985967Y-14664984D01*
X6985967Y-14664984D02*
X6938348Y-14664984D01*
X6938348Y-14664984D02*
X6919301Y-14655460D01*
X6919301Y-14655460D02*
X6909777Y-14636412D01*
X6909777Y-14636412D02*
X6909777Y-14617365D01*
X6909777Y-14617365D02*
X6919301Y-14598317D01*
X6919301Y-14598317D02*
X6938348Y-14588793D01*
X6938348Y-14588793D02*
X6985967Y-14588793D01*
X6985967Y-14588793D02*
X7005015Y-14579269D01*
X7100253Y-14531650D02*
X7100253Y-14731650D01*
X7100253Y-14541174D02*
X7119301Y-14531650D01*
X7119301Y-14531650D02*
X7157396Y-14531650D01*
X7157396Y-14531650D02*
X7176443Y-14541174D01*
X7176443Y-14541174D02*
X7185967Y-14550698D01*
X7185967Y-14550698D02*
X7195491Y-14569746D01*
X7195491Y-14569746D02*
X7195491Y-14626888D01*
X7195491Y-14626888D02*
X7185967Y-14645936D01*
X7185967Y-14645936D02*
X7176443Y-14655460D01*
X7176443Y-14655460D02*
X7157396Y-14664984D01*
X7157396Y-14664984D02*
X7119301Y-14664984D01*
X7119301Y-14664984D02*
X7100253Y-14655460D01*
X7281205Y-14645936D02*
X7290729Y-14655460D01*
X7290729Y-14655460D02*
X7281205Y-14664984D01*
X7281205Y-14664984D02*
X7271682Y-14655460D01*
X7271682Y-14655460D02*
X7281205Y-14645936D01*
X7281205Y-14645936D02*
X7281205Y-14664984D01*
X7281205Y-14541174D02*
X7290729Y-14550698D01*
X7290729Y-14550698D02*
X7281205Y-14560222D01*
X7281205Y-14560222D02*
X7271682Y-14550698D01*
X7271682Y-14550698D02*
X7281205Y-14541174D01*
X7281205Y-14541174D02*
X7281205Y-14560222D01*
D12*
X5610900Y-14974450D02*
X5649000Y-15012550D01*
X5649000Y-14974450D02*
X5610900Y-15012550D01*
D11*
X5947872Y-14884984D02*
X5966920Y-14884984D01*
X5966920Y-14884984D02*
X5985967Y-14894508D01*
X5985967Y-14894508D02*
X5995491Y-14904031D01*
X5995491Y-14904031D02*
X6005015Y-14923079D01*
X6005015Y-14923079D02*
X6014539Y-14961174D01*
X6014539Y-14961174D02*
X6014539Y-15008793D01*
X6014539Y-15008793D02*
X6005015Y-15046888D01*
X6005015Y-15046888D02*
X5995491Y-15065936D01*
X5995491Y-15065936D02*
X5985967Y-15075460D01*
X5985967Y-15075460D02*
X5966920Y-15084984D01*
X5966920Y-15084984D02*
X5947872Y-15084984D01*
X5947872Y-15084984D02*
X5928824Y-15075460D01*
X5928824Y-15075460D02*
X5919301Y-15065936D01*
X5919301Y-15065936D02*
X5909777Y-15046888D01*
X5909777Y-15046888D02*
X5900253Y-15008793D01*
X5900253Y-15008793D02*
X5900253Y-14961174D01*
X5900253Y-14961174D02*
X5909777Y-14923079D01*
X5909777Y-14923079D02*
X5919301Y-14904031D01*
X5919301Y-14904031D02*
X5928824Y-14894508D01*
X5928824Y-14894508D02*
X5947872Y-14884984D01*
X6100253Y-15065936D02*
X6109777Y-15075460D01*
X6109777Y-15075460D02*
X6100253Y-15084984D01*
X6100253Y-15084984D02*
X6090729Y-15075460D01*
X6090729Y-15075460D02*
X6100253Y-15065936D01*
X6100253Y-15065936D02*
X6100253Y-15084984D01*
X6176443Y-14884984D02*
X6300253Y-14884984D01*
X6300253Y-14884984D02*
X6233586Y-14961174D01*
X6233586Y-14961174D02*
X6262158Y-14961174D01*
X6262158Y-14961174D02*
X6281205Y-14970698D01*
X6281205Y-14970698D02*
X6290729Y-14980222D01*
X6290729Y-14980222D02*
X6300253Y-14999269D01*
X6300253Y-14999269D02*
X6300253Y-15046888D01*
X6300253Y-15046888D02*
X6290729Y-15065936D01*
X6290729Y-15065936D02*
X6281205Y-15075460D01*
X6281205Y-15075460D02*
X6262158Y-15084984D01*
X6262158Y-15084984D02*
X6205015Y-15084984D01*
X6205015Y-15084984D02*
X6185967Y-15075460D01*
X6185967Y-15075460D02*
X6176443Y-15065936D01*
X6414539Y-14970698D02*
X6395491Y-14961174D01*
X6395491Y-14961174D02*
X6385967Y-14951650D01*
X6385967Y-14951650D02*
X6376443Y-14932603D01*
X6376443Y-14932603D02*
X6376443Y-14923079D01*
X6376443Y-14923079D02*
X6385967Y-14904031D01*
X6385967Y-14904031D02*
X6395491Y-14894508D01*
X6395491Y-14894508D02*
X6414539Y-14884984D01*
X6414539Y-14884984D02*
X6452634Y-14884984D01*
X6452634Y-14884984D02*
X6471682Y-14894508D01*
X6471682Y-14894508D02*
X6481205Y-14904031D01*
X6481205Y-14904031D02*
X6490729Y-14923079D01*
X6490729Y-14923079D02*
X6490729Y-14932603D01*
X6490729Y-14932603D02*
X6481205Y-14951650D01*
X6481205Y-14951650D02*
X6471682Y-14961174D01*
X6471682Y-14961174D02*
X6452634Y-14970698D01*
X6452634Y-14970698D02*
X6414539Y-14970698D01*
X6414539Y-14970698D02*
X6395491Y-14980222D01*
X6395491Y-14980222D02*
X6385967Y-14989746D01*
X6385967Y-14989746D02*
X6376443Y-15008793D01*
X6376443Y-15008793D02*
X6376443Y-15046888D01*
X6376443Y-15046888D02*
X6385967Y-15065936D01*
X6385967Y-15065936D02*
X6395491Y-15075460D01*
X6395491Y-15075460D02*
X6414539Y-15084984D01*
X6414539Y-15084984D02*
X6452634Y-15084984D01*
X6452634Y-15084984D02*
X6471682Y-15075460D01*
X6471682Y-15075460D02*
X6481205Y-15065936D01*
X6481205Y-15065936D02*
X6490729Y-15046888D01*
X6490729Y-15046888D02*
X6490729Y-15008793D01*
X6490729Y-15008793D02*
X6481205Y-14989746D01*
X6481205Y-14989746D02*
X6471682Y-14980222D01*
X6471682Y-14980222D02*
X6452634Y-14970698D01*
X6681205Y-15084984D02*
X6566920Y-15084984D01*
X6624062Y-15084984D02*
X6624062Y-14884984D01*
X6624062Y-14884984D02*
X6605015Y-14913555D01*
X6605015Y-14913555D02*
X6585967Y-14932603D01*
X6585967Y-14932603D02*
X6566920Y-14942127D01*
X6766920Y-15084984D02*
X6766920Y-14951650D01*
X6766920Y-14970698D02*
X6776443Y-14961174D01*
X6776443Y-14961174D02*
X6795491Y-14951650D01*
X6795491Y-14951650D02*
X6824063Y-14951650D01*
X6824063Y-14951650D02*
X6843110Y-14961174D01*
X6843110Y-14961174D02*
X6852634Y-14980222D01*
X6852634Y-14980222D02*
X6852634Y-15084984D01*
X6852634Y-14980222D02*
X6862158Y-14961174D01*
X6862158Y-14961174D02*
X6881205Y-14951650D01*
X6881205Y-14951650D02*
X6909777Y-14951650D01*
X6909777Y-14951650D02*
X6928824Y-14961174D01*
X6928824Y-14961174D02*
X6938348Y-14980222D01*
X6938348Y-14980222D02*
X6938348Y-15084984D01*
X7033586Y-15084984D02*
X7033586Y-14951650D01*
X7033586Y-14970698D02*
X7043110Y-14961174D01*
X7043110Y-14961174D02*
X7062158Y-14951650D01*
X7062158Y-14951650D02*
X7090729Y-14951650D01*
X7090729Y-14951650D02*
X7109777Y-14961174D01*
X7109777Y-14961174D02*
X7119301Y-14980222D01*
X7119301Y-14980222D02*
X7119301Y-15084984D01*
X7119301Y-14980222D02*
X7128824Y-14961174D01*
X7128824Y-14961174D02*
X7147872Y-14951650D01*
X7147872Y-14951650D02*
X7176443Y-14951650D01*
X7176443Y-14951650D02*
X7195491Y-14961174D01*
X7195491Y-14961174D02*
X7205015Y-14980222D01*
X7205015Y-14980222D02*
X7205015Y-15084984D01*
X7595491Y-14875460D02*
X7424063Y-15132603D01*
X7852634Y-14884984D02*
X7871682Y-14884984D01*
X7871682Y-14884984D02*
X7890729Y-14894508D01*
X7890729Y-14894508D02*
X7900253Y-14904031D01*
X7900253Y-14904031D02*
X7909777Y-14923079D01*
X7909777Y-14923079D02*
X7919301Y-14961174D01*
X7919301Y-14961174D02*
X7919301Y-15008793D01*
X7919301Y-15008793D02*
X7909777Y-15046888D01*
X7909777Y-15046888D02*
X7900253Y-15065936D01*
X7900253Y-15065936D02*
X7890729Y-15075460D01*
X7890729Y-15075460D02*
X7871682Y-15084984D01*
X7871682Y-15084984D02*
X7852634Y-15084984D01*
X7852634Y-15084984D02*
X7833586Y-15075460D01*
X7833586Y-15075460D02*
X7824063Y-15065936D01*
X7824063Y-15065936D02*
X7814539Y-15046888D01*
X7814539Y-15046888D02*
X7805015Y-15008793D01*
X7805015Y-15008793D02*
X7805015Y-14961174D01*
X7805015Y-14961174D02*
X7814539Y-14923079D01*
X7814539Y-14923079D02*
X7824063Y-14904031D01*
X7824063Y-14904031D02*
X7833586Y-14894508D01*
X7833586Y-14894508D02*
X7852634Y-14884984D01*
X8005015Y-15065936D02*
X8014539Y-15075460D01*
X8014539Y-15075460D02*
X8005015Y-15084984D01*
X8005015Y-15084984D02*
X7995491Y-15075460D01*
X7995491Y-15075460D02*
X8005015Y-15065936D01*
X8005015Y-15065936D02*
X8005015Y-15084984D01*
X8138348Y-14884984D02*
X8157396Y-14884984D01*
X8157396Y-14884984D02*
X8176444Y-14894508D01*
X8176444Y-14894508D02*
X8185967Y-14904031D01*
X8185967Y-14904031D02*
X8195491Y-14923079D01*
X8195491Y-14923079D02*
X8205015Y-14961174D01*
X8205015Y-14961174D02*
X8205015Y-15008793D01*
X8205015Y-15008793D02*
X8195491Y-15046888D01*
X8195491Y-15046888D02*
X8185967Y-15065936D01*
X8185967Y-15065936D02*
X8176444Y-15075460D01*
X8176444Y-15075460D02*
X8157396Y-15084984D01*
X8157396Y-15084984D02*
X8138348Y-15084984D01*
X8138348Y-15084984D02*
X8119301Y-15075460D01*
X8119301Y-15075460D02*
X8109777Y-15065936D01*
X8109777Y-15065936D02*
X8100253Y-15046888D01*
X8100253Y-15046888D02*
X8090729Y-15008793D01*
X8090729Y-15008793D02*
X8090729Y-14961174D01*
X8090729Y-14961174D02*
X8100253Y-14923079D01*
X8100253Y-14923079D02*
X8109777Y-14904031D01*
X8109777Y-14904031D02*
X8119301Y-14894508D01*
X8119301Y-14894508D02*
X8138348Y-14884984D01*
X8395491Y-15084984D02*
X8281206Y-15084984D01*
X8338348Y-15084984D02*
X8338348Y-14884984D01*
X8338348Y-14884984D02*
X8319301Y-14913555D01*
X8319301Y-14913555D02*
X8300253Y-14932603D01*
X8300253Y-14932603D02*
X8281206Y-14942127D01*
X8576444Y-14884984D02*
X8481206Y-14884984D01*
X8481206Y-14884984D02*
X8471682Y-14980222D01*
X8471682Y-14980222D02*
X8481206Y-14970698D01*
X8481206Y-14970698D02*
X8500253Y-14961174D01*
X8500253Y-14961174D02*
X8547872Y-14961174D01*
X8547872Y-14961174D02*
X8566920Y-14970698D01*
X8566920Y-14970698D02*
X8576444Y-14980222D01*
X8576444Y-14980222D02*
X8585968Y-14999269D01*
X8585968Y-14999269D02*
X8585968Y-15046888D01*
X8585968Y-15046888D02*
X8576444Y-15065936D01*
X8576444Y-15065936D02*
X8566920Y-15075460D01*
X8566920Y-15075460D02*
X8547872Y-15084984D01*
X8547872Y-15084984D02*
X8500253Y-15084984D01*
X8500253Y-15084984D02*
X8481206Y-15075460D01*
X8481206Y-15075460D02*
X8471682Y-15065936D01*
X8709777Y-14884984D02*
X8728825Y-14884984D01*
X8728825Y-14884984D02*
X8747872Y-14894508D01*
X8747872Y-14894508D02*
X8757396Y-14904031D01*
X8757396Y-14904031D02*
X8766920Y-14923079D01*
X8766920Y-14923079D02*
X8776444Y-14961174D01*
X8776444Y-14961174D02*
X8776444Y-15008793D01*
X8776444Y-15008793D02*
X8766920Y-15046888D01*
X8766920Y-15046888D02*
X8757396Y-15065936D01*
X8757396Y-15065936D02*
X8747872Y-15075460D01*
X8747872Y-15075460D02*
X8728825Y-15084984D01*
X8728825Y-15084984D02*
X8709777Y-15084984D01*
X8709777Y-15084984D02*
X8690729Y-15075460D01*
X8690729Y-15075460D02*
X8681206Y-15065936D01*
X8681206Y-15065936D02*
X8671682Y-15046888D01*
X8671682Y-15046888D02*
X8662158Y-15008793D01*
X8662158Y-15008793D02*
X8662158Y-14961174D01*
X8662158Y-14961174D02*
X8671682Y-14923079D01*
X8671682Y-14923079D02*
X8681206Y-14904031D01*
X8681206Y-14904031D02*
X8690729Y-14894508D01*
X8690729Y-14894508D02*
X8709777Y-14884984D01*
X8852634Y-14884984D02*
X8852634Y-14923079D01*
X8928825Y-14884984D02*
X8928825Y-14923079D01*
X9224063Y-15161174D02*
X9214539Y-15151650D01*
X9214539Y-15151650D02*
X9195491Y-15123079D01*
X9195491Y-15123079D02*
X9185968Y-15104031D01*
X9185968Y-15104031D02*
X9176444Y-15075460D01*
X9176444Y-15075460D02*
X9166920Y-15027841D01*
X9166920Y-15027841D02*
X9166920Y-14989746D01*
X9166920Y-14989746D02*
X9176444Y-14942127D01*
X9176444Y-14942127D02*
X9185968Y-14913555D01*
X9185968Y-14913555D02*
X9195491Y-14894508D01*
X9195491Y-14894508D02*
X9214539Y-14865936D01*
X9214539Y-14865936D02*
X9224063Y-14856412D01*
X9395491Y-14884984D02*
X9300253Y-14884984D01*
X9300253Y-14884984D02*
X9290730Y-14980222D01*
X9290730Y-14980222D02*
X9300253Y-14970698D01*
X9300253Y-14970698D02*
X9319301Y-14961174D01*
X9319301Y-14961174D02*
X9366920Y-14961174D01*
X9366920Y-14961174D02*
X9385968Y-14970698D01*
X9385968Y-14970698D02*
X9395491Y-14980222D01*
X9395491Y-14980222D02*
X9405015Y-14999269D01*
X9405015Y-14999269D02*
X9405015Y-15046888D01*
X9405015Y-15046888D02*
X9395491Y-15065936D01*
X9395491Y-15065936D02*
X9385968Y-15075460D01*
X9385968Y-15075460D02*
X9366920Y-15084984D01*
X9366920Y-15084984D02*
X9319301Y-15084984D01*
X9319301Y-15084984D02*
X9300253Y-15075460D01*
X9300253Y-15075460D02*
X9290730Y-15065936D01*
X9576444Y-14884984D02*
X9538349Y-14884984D01*
X9538349Y-14884984D02*
X9519301Y-14894508D01*
X9519301Y-14894508D02*
X9509777Y-14904031D01*
X9509777Y-14904031D02*
X9490730Y-14932603D01*
X9490730Y-14932603D02*
X9481206Y-14970698D01*
X9481206Y-14970698D02*
X9481206Y-15046888D01*
X9481206Y-15046888D02*
X9490730Y-15065936D01*
X9490730Y-15065936D02*
X9500253Y-15075460D01*
X9500253Y-15075460D02*
X9519301Y-15084984D01*
X9519301Y-15084984D02*
X9557396Y-15084984D01*
X9557396Y-15084984D02*
X9576444Y-15075460D01*
X9576444Y-15075460D02*
X9585968Y-15065936D01*
X9585968Y-15065936D02*
X9595491Y-15046888D01*
X9595491Y-15046888D02*
X9595491Y-14999269D01*
X9595491Y-14999269D02*
X9585968Y-14980222D01*
X9585968Y-14980222D02*
X9576444Y-14970698D01*
X9576444Y-14970698D02*
X9557396Y-14961174D01*
X9557396Y-14961174D02*
X9519301Y-14961174D01*
X9519301Y-14961174D02*
X9500253Y-14970698D01*
X9500253Y-14970698D02*
X9490730Y-14980222D01*
X9490730Y-14980222D02*
X9481206Y-14999269D01*
X9833587Y-15084984D02*
X9833587Y-14884984D01*
X9919301Y-15084984D02*
X9919301Y-14980222D01*
X9919301Y-14980222D02*
X9909777Y-14961174D01*
X9909777Y-14961174D02*
X9890730Y-14951650D01*
X9890730Y-14951650D02*
X9862158Y-14951650D01*
X9862158Y-14951650D02*
X9843111Y-14961174D01*
X9843111Y-14961174D02*
X9833587Y-14970698D01*
X10043111Y-15084984D02*
X10024063Y-15075460D01*
X10024063Y-15075460D02*
X10014539Y-15065936D01*
X10014539Y-15065936D02*
X10005015Y-15046888D01*
X10005015Y-15046888D02*
X10005015Y-14989746D01*
X10005015Y-14989746D02*
X10014539Y-14970698D01*
X10014539Y-14970698D02*
X10024063Y-14961174D01*
X10024063Y-14961174D02*
X10043111Y-14951650D01*
X10043111Y-14951650D02*
X10071682Y-14951650D01*
X10071682Y-14951650D02*
X10090730Y-14961174D01*
X10090730Y-14961174D02*
X10100253Y-14970698D01*
X10100253Y-14970698D02*
X10109777Y-14989746D01*
X10109777Y-14989746D02*
X10109777Y-15046888D01*
X10109777Y-15046888D02*
X10100253Y-15065936D01*
X10100253Y-15065936D02*
X10090730Y-15075460D01*
X10090730Y-15075460D02*
X10071682Y-15084984D01*
X10071682Y-15084984D02*
X10043111Y-15084984D01*
X10224063Y-15084984D02*
X10205015Y-15075460D01*
X10205015Y-15075460D02*
X10195492Y-15056412D01*
X10195492Y-15056412D02*
X10195492Y-14884984D01*
X10376444Y-15075460D02*
X10357396Y-15084984D01*
X10357396Y-15084984D02*
X10319301Y-15084984D01*
X10319301Y-15084984D02*
X10300253Y-15075460D01*
X10300253Y-15075460D02*
X10290730Y-15056412D01*
X10290730Y-15056412D02*
X10290730Y-14980222D01*
X10290730Y-14980222D02*
X10300253Y-14961174D01*
X10300253Y-14961174D02*
X10319301Y-14951650D01*
X10319301Y-14951650D02*
X10357396Y-14951650D01*
X10357396Y-14951650D02*
X10376444Y-14961174D01*
X10376444Y-14961174D02*
X10385968Y-14980222D01*
X10385968Y-14980222D02*
X10385968Y-14999269D01*
X10385968Y-14999269D02*
X10290730Y-15018317D01*
X10462158Y-15075460D02*
X10481206Y-15084984D01*
X10481206Y-15084984D02*
X10519301Y-15084984D01*
X10519301Y-15084984D02*
X10538349Y-15075460D01*
X10538349Y-15075460D02*
X10547873Y-15056412D01*
X10547873Y-15056412D02*
X10547873Y-15046888D01*
X10547873Y-15046888D02*
X10538349Y-15027841D01*
X10538349Y-15027841D02*
X10519301Y-15018317D01*
X10519301Y-15018317D02*
X10490730Y-15018317D01*
X10490730Y-15018317D02*
X10471682Y-15008793D01*
X10471682Y-15008793D02*
X10462158Y-14989746D01*
X10462158Y-14989746D02*
X10462158Y-14980222D01*
X10462158Y-14980222D02*
X10471682Y-14961174D01*
X10471682Y-14961174D02*
X10490730Y-14951650D01*
X10490730Y-14951650D02*
X10519301Y-14951650D01*
X10519301Y-14951650D02*
X10538349Y-14961174D01*
X10614539Y-15161174D02*
X10624063Y-15151650D01*
X10624063Y-15151650D02*
X10643111Y-15123079D01*
X10643111Y-15123079D02*
X10652634Y-15104031D01*
X10652634Y-15104031D02*
X10662158Y-15075460D01*
X10662158Y-15075460D02*
X10671682Y-15027841D01*
X10671682Y-15027841D02*
X10671682Y-14989746D01*
X10671682Y-14989746D02*
X10662158Y-14942127D01*
X10662158Y-14942127D02*
X10652634Y-14913555D01*
X10652634Y-14913555D02*
X10643111Y-14894508D01*
X10643111Y-14894508D02*
X10624063Y-14865936D01*
X10624063Y-14865936D02*
X10614539Y-14856412D01*
D13*
X5649000Y-15257500D02*
G75*
G03*
X5649000Y-15257500I-35000J0D01*
G01*
D11*
X5947872Y-15148984D02*
X5966920Y-15148984D01*
X5966920Y-15148984D02*
X5985967Y-15158508D01*
X5985967Y-15158508D02*
X5995491Y-15168031D01*
X5995491Y-15168031D02*
X6005015Y-15187079D01*
X6005015Y-15187079D02*
X6014539Y-15225174D01*
X6014539Y-15225174D02*
X6014539Y-15272793D01*
X6014539Y-15272793D02*
X6005015Y-15310888D01*
X6005015Y-15310888D02*
X5995491Y-15329936D01*
X5995491Y-15329936D02*
X5985967Y-15339460D01*
X5985967Y-15339460D02*
X5966920Y-15348984D01*
X5966920Y-15348984D02*
X5947872Y-15348984D01*
X5947872Y-15348984D02*
X5928824Y-15339460D01*
X5928824Y-15339460D02*
X5919301Y-15329936D01*
X5919301Y-15329936D02*
X5909777Y-15310888D01*
X5909777Y-15310888D02*
X5900253Y-15272793D01*
X5900253Y-15272793D02*
X5900253Y-15225174D01*
X5900253Y-15225174D02*
X5909777Y-15187079D01*
X5909777Y-15187079D02*
X5919301Y-15168031D01*
X5919301Y-15168031D02*
X5928824Y-15158508D01*
X5928824Y-15158508D02*
X5947872Y-15148984D01*
X6100253Y-15329936D02*
X6109777Y-15339460D01*
X6109777Y-15339460D02*
X6100253Y-15348984D01*
X6100253Y-15348984D02*
X6090729Y-15339460D01*
X6090729Y-15339460D02*
X6100253Y-15329936D01*
X6100253Y-15329936D02*
X6100253Y-15348984D01*
X6176443Y-15148984D02*
X6309777Y-15148984D01*
X6309777Y-15148984D02*
X6224062Y-15348984D01*
X6424062Y-15148984D02*
X6443110Y-15148984D01*
X6443110Y-15148984D02*
X6462158Y-15158508D01*
X6462158Y-15158508D02*
X6471682Y-15168031D01*
X6471682Y-15168031D02*
X6481205Y-15187079D01*
X6481205Y-15187079D02*
X6490729Y-15225174D01*
X6490729Y-15225174D02*
X6490729Y-15272793D01*
X6490729Y-15272793D02*
X6481205Y-15310888D01*
X6481205Y-15310888D02*
X6471682Y-15329936D01*
X6471682Y-15329936D02*
X6462158Y-15339460D01*
X6462158Y-15339460D02*
X6443110Y-15348984D01*
X6443110Y-15348984D02*
X6424062Y-15348984D01*
X6424062Y-15348984D02*
X6405015Y-15339460D01*
X6405015Y-15339460D02*
X6395491Y-15329936D01*
X6395491Y-15329936D02*
X6385967Y-15310888D01*
X6385967Y-15310888D02*
X6376443Y-15272793D01*
X6376443Y-15272793D02*
X6376443Y-15225174D01*
X6376443Y-15225174D02*
X6385967Y-15187079D01*
X6385967Y-15187079D02*
X6395491Y-15168031D01*
X6395491Y-15168031D02*
X6405015Y-15158508D01*
X6405015Y-15158508D02*
X6424062Y-15148984D01*
X6614539Y-15148984D02*
X6633586Y-15148984D01*
X6633586Y-15148984D02*
X6652634Y-15158508D01*
X6652634Y-15158508D02*
X6662158Y-15168031D01*
X6662158Y-15168031D02*
X6671682Y-15187079D01*
X6671682Y-15187079D02*
X6681205Y-15225174D01*
X6681205Y-15225174D02*
X6681205Y-15272793D01*
X6681205Y-15272793D02*
X6671682Y-15310888D01*
X6671682Y-15310888D02*
X6662158Y-15329936D01*
X6662158Y-15329936D02*
X6652634Y-15339460D01*
X6652634Y-15339460D02*
X6633586Y-15348984D01*
X6633586Y-15348984D02*
X6614539Y-15348984D01*
X6614539Y-15348984D02*
X6595491Y-15339460D01*
X6595491Y-15339460D02*
X6585967Y-15329936D01*
X6585967Y-15329936D02*
X6576443Y-15310888D01*
X6576443Y-15310888D02*
X6566920Y-15272793D01*
X6566920Y-15272793D02*
X6566920Y-15225174D01*
X6566920Y-15225174D02*
X6576443Y-15187079D01*
X6576443Y-15187079D02*
X6585967Y-15168031D01*
X6585967Y-15168031D02*
X6595491Y-15158508D01*
X6595491Y-15158508D02*
X6614539Y-15148984D01*
X6766920Y-15348984D02*
X6766920Y-15215650D01*
X6766920Y-15234698D02*
X6776443Y-15225174D01*
X6776443Y-15225174D02*
X6795491Y-15215650D01*
X6795491Y-15215650D02*
X6824063Y-15215650D01*
X6824063Y-15215650D02*
X6843110Y-15225174D01*
X6843110Y-15225174D02*
X6852634Y-15244222D01*
X6852634Y-15244222D02*
X6852634Y-15348984D01*
X6852634Y-15244222D02*
X6862158Y-15225174D01*
X6862158Y-15225174D02*
X6881205Y-15215650D01*
X6881205Y-15215650D02*
X6909777Y-15215650D01*
X6909777Y-15215650D02*
X6928824Y-15225174D01*
X6928824Y-15225174D02*
X6938348Y-15244222D01*
X6938348Y-15244222D02*
X6938348Y-15348984D01*
X7033586Y-15348984D02*
X7033586Y-15215650D01*
X7033586Y-15234698D02*
X7043110Y-15225174D01*
X7043110Y-15225174D02*
X7062158Y-15215650D01*
X7062158Y-15215650D02*
X7090729Y-15215650D01*
X7090729Y-15215650D02*
X7109777Y-15225174D01*
X7109777Y-15225174D02*
X7119301Y-15244222D01*
X7119301Y-15244222D02*
X7119301Y-15348984D01*
X7119301Y-15244222D02*
X7128824Y-15225174D01*
X7128824Y-15225174D02*
X7147872Y-15215650D01*
X7147872Y-15215650D02*
X7176443Y-15215650D01*
X7176443Y-15215650D02*
X7195491Y-15225174D01*
X7195491Y-15225174D02*
X7205015Y-15244222D01*
X7205015Y-15244222D02*
X7205015Y-15348984D01*
X7595491Y-15139460D02*
X7424063Y-15396603D01*
X7852634Y-15148984D02*
X7871682Y-15148984D01*
X7871682Y-15148984D02*
X7890729Y-15158508D01*
X7890729Y-15158508D02*
X7900253Y-15168031D01*
X7900253Y-15168031D02*
X7909777Y-15187079D01*
X7909777Y-15187079D02*
X7919301Y-15225174D01*
X7919301Y-15225174D02*
X7919301Y-15272793D01*
X7919301Y-15272793D02*
X7909777Y-15310888D01*
X7909777Y-15310888D02*
X7900253Y-15329936D01*
X7900253Y-15329936D02*
X7890729Y-15339460D01*
X7890729Y-15339460D02*
X7871682Y-15348984D01*
X7871682Y-15348984D02*
X7852634Y-15348984D01*
X7852634Y-15348984D02*
X7833586Y-15339460D01*
X7833586Y-15339460D02*
X7824063Y-15329936D01*
X7824063Y-15329936D02*
X7814539Y-15310888D01*
X7814539Y-15310888D02*
X7805015Y-15272793D01*
X7805015Y-15272793D02*
X7805015Y-15225174D01*
X7805015Y-15225174D02*
X7814539Y-15187079D01*
X7814539Y-15187079D02*
X7824063Y-15168031D01*
X7824063Y-15168031D02*
X7833586Y-15158508D01*
X7833586Y-15158508D02*
X7852634Y-15148984D01*
X8005015Y-15329936D02*
X8014539Y-15339460D01*
X8014539Y-15339460D02*
X8005015Y-15348984D01*
X8005015Y-15348984D02*
X7995491Y-15339460D01*
X7995491Y-15339460D02*
X8005015Y-15329936D01*
X8005015Y-15329936D02*
X8005015Y-15348984D01*
X8138348Y-15148984D02*
X8157396Y-15148984D01*
X8157396Y-15148984D02*
X8176444Y-15158508D01*
X8176444Y-15158508D02*
X8185967Y-15168031D01*
X8185967Y-15168031D02*
X8195491Y-15187079D01*
X8195491Y-15187079D02*
X8205015Y-15225174D01*
X8205015Y-15225174D02*
X8205015Y-15272793D01*
X8205015Y-15272793D02*
X8195491Y-15310888D01*
X8195491Y-15310888D02*
X8185967Y-15329936D01*
X8185967Y-15329936D02*
X8176444Y-15339460D01*
X8176444Y-15339460D02*
X8157396Y-15348984D01*
X8157396Y-15348984D02*
X8138348Y-15348984D01*
X8138348Y-15348984D02*
X8119301Y-15339460D01*
X8119301Y-15339460D02*
X8109777Y-15329936D01*
X8109777Y-15329936D02*
X8100253Y-15310888D01*
X8100253Y-15310888D02*
X8090729Y-15272793D01*
X8090729Y-15272793D02*
X8090729Y-15225174D01*
X8090729Y-15225174D02*
X8100253Y-15187079D01*
X8100253Y-15187079D02*
X8109777Y-15168031D01*
X8109777Y-15168031D02*
X8119301Y-15158508D01*
X8119301Y-15158508D02*
X8138348Y-15148984D01*
X8281206Y-15168031D02*
X8290729Y-15158508D01*
X8290729Y-15158508D02*
X8309777Y-15148984D01*
X8309777Y-15148984D02*
X8357396Y-15148984D01*
X8357396Y-15148984D02*
X8376444Y-15158508D01*
X8376444Y-15158508D02*
X8385967Y-15168031D01*
X8385967Y-15168031D02*
X8395491Y-15187079D01*
X8395491Y-15187079D02*
X8395491Y-15206127D01*
X8395491Y-15206127D02*
X8385967Y-15234698D01*
X8385967Y-15234698D02*
X8271682Y-15348984D01*
X8271682Y-15348984D02*
X8395491Y-15348984D01*
X8462158Y-15148984D02*
X8595491Y-15148984D01*
X8595491Y-15148984D02*
X8509777Y-15348984D01*
X8757396Y-15148984D02*
X8719301Y-15148984D01*
X8719301Y-15148984D02*
X8700253Y-15158508D01*
X8700253Y-15158508D02*
X8690729Y-15168031D01*
X8690729Y-15168031D02*
X8671682Y-15196603D01*
X8671682Y-15196603D02*
X8662158Y-15234698D01*
X8662158Y-15234698D02*
X8662158Y-15310888D01*
X8662158Y-15310888D02*
X8671682Y-15329936D01*
X8671682Y-15329936D02*
X8681206Y-15339460D01*
X8681206Y-15339460D02*
X8700253Y-15348984D01*
X8700253Y-15348984D02*
X8738349Y-15348984D01*
X8738349Y-15348984D02*
X8757396Y-15339460D01*
X8757396Y-15339460D02*
X8766920Y-15329936D01*
X8766920Y-15329936D02*
X8776444Y-15310888D01*
X8776444Y-15310888D02*
X8776444Y-15263269D01*
X8776444Y-15263269D02*
X8766920Y-15244222D01*
X8766920Y-15244222D02*
X8757396Y-15234698D01*
X8757396Y-15234698D02*
X8738349Y-15225174D01*
X8738349Y-15225174D02*
X8700253Y-15225174D01*
X8700253Y-15225174D02*
X8681206Y-15234698D01*
X8681206Y-15234698D02*
X8671682Y-15244222D01*
X8671682Y-15244222D02*
X8662158Y-15263269D01*
X8852634Y-15148984D02*
X8852634Y-15187079D01*
X8928825Y-15148984D02*
X8928825Y-15187079D01*
X9224063Y-15425174D02*
X9214539Y-15415650D01*
X9214539Y-15415650D02*
X9195491Y-15387079D01*
X9195491Y-15387079D02*
X9185968Y-15368031D01*
X9185968Y-15368031D02*
X9176444Y-15339460D01*
X9176444Y-15339460D02*
X9166920Y-15291841D01*
X9166920Y-15291841D02*
X9166920Y-15253746D01*
X9166920Y-15253746D02*
X9176444Y-15206127D01*
X9176444Y-15206127D02*
X9185968Y-15177555D01*
X9185968Y-15177555D02*
X9195491Y-15158508D01*
X9195491Y-15158508D02*
X9214539Y-15129936D01*
X9214539Y-15129936D02*
X9224063Y-15120412D01*
X9405015Y-15348984D02*
X9290730Y-15348984D01*
X9347872Y-15348984D02*
X9347872Y-15148984D01*
X9347872Y-15148984D02*
X9328825Y-15177555D01*
X9328825Y-15177555D02*
X9309777Y-15196603D01*
X9309777Y-15196603D02*
X9290730Y-15206127D01*
X9481206Y-15168031D02*
X9490730Y-15158508D01*
X9490730Y-15158508D02*
X9509777Y-15148984D01*
X9509777Y-15148984D02*
X9557396Y-15148984D01*
X9557396Y-15148984D02*
X9576444Y-15158508D01*
X9576444Y-15158508D02*
X9585968Y-15168031D01*
X9585968Y-15168031D02*
X9595491Y-15187079D01*
X9595491Y-15187079D02*
X9595491Y-15206127D01*
X9595491Y-15206127D02*
X9585968Y-15234698D01*
X9585968Y-15234698D02*
X9471682Y-15348984D01*
X9471682Y-15348984D02*
X9595491Y-15348984D01*
X9833587Y-15348984D02*
X9833587Y-15148984D01*
X9919301Y-15348984D02*
X9919301Y-15244222D01*
X9919301Y-15244222D02*
X9909777Y-15225174D01*
X9909777Y-15225174D02*
X9890730Y-15215650D01*
X9890730Y-15215650D02*
X9862158Y-15215650D01*
X9862158Y-15215650D02*
X9843111Y-15225174D01*
X9843111Y-15225174D02*
X9833587Y-15234698D01*
X10043111Y-15348984D02*
X10024063Y-15339460D01*
X10024063Y-15339460D02*
X10014539Y-15329936D01*
X10014539Y-15329936D02*
X10005015Y-15310888D01*
X10005015Y-15310888D02*
X10005015Y-15253746D01*
X10005015Y-15253746D02*
X10014539Y-15234698D01*
X10014539Y-15234698D02*
X10024063Y-15225174D01*
X10024063Y-15225174D02*
X10043111Y-15215650D01*
X10043111Y-15215650D02*
X10071682Y-15215650D01*
X10071682Y-15215650D02*
X10090730Y-15225174D01*
X10090730Y-15225174D02*
X10100253Y-15234698D01*
X10100253Y-15234698D02*
X10109777Y-15253746D01*
X10109777Y-15253746D02*
X10109777Y-15310888D01*
X10109777Y-15310888D02*
X10100253Y-15329936D01*
X10100253Y-15329936D02*
X10090730Y-15339460D01*
X10090730Y-15339460D02*
X10071682Y-15348984D01*
X10071682Y-15348984D02*
X10043111Y-15348984D01*
X10224063Y-15348984D02*
X10205015Y-15339460D01*
X10205015Y-15339460D02*
X10195492Y-15320412D01*
X10195492Y-15320412D02*
X10195492Y-15148984D01*
X10376444Y-15339460D02*
X10357396Y-15348984D01*
X10357396Y-15348984D02*
X10319301Y-15348984D01*
X10319301Y-15348984D02*
X10300253Y-15339460D01*
X10300253Y-15339460D02*
X10290730Y-15320412D01*
X10290730Y-15320412D02*
X10290730Y-15244222D01*
X10290730Y-15244222D02*
X10300253Y-15225174D01*
X10300253Y-15225174D02*
X10319301Y-15215650D01*
X10319301Y-15215650D02*
X10357396Y-15215650D01*
X10357396Y-15215650D02*
X10376444Y-15225174D01*
X10376444Y-15225174D02*
X10385968Y-15244222D01*
X10385968Y-15244222D02*
X10385968Y-15263269D01*
X10385968Y-15263269D02*
X10290730Y-15282317D01*
X10462158Y-15339460D02*
X10481206Y-15348984D01*
X10481206Y-15348984D02*
X10519301Y-15348984D01*
X10519301Y-15348984D02*
X10538349Y-15339460D01*
X10538349Y-15339460D02*
X10547873Y-15320412D01*
X10547873Y-15320412D02*
X10547873Y-15310888D01*
X10547873Y-15310888D02*
X10538349Y-15291841D01*
X10538349Y-15291841D02*
X10519301Y-15282317D01*
X10519301Y-15282317D02*
X10490730Y-15282317D01*
X10490730Y-15282317D02*
X10471682Y-15272793D01*
X10471682Y-15272793D02*
X10462158Y-15253746D01*
X10462158Y-15253746D02*
X10462158Y-15244222D01*
X10462158Y-15244222D02*
X10471682Y-15225174D01*
X10471682Y-15225174D02*
X10490730Y-15215650D01*
X10490730Y-15215650D02*
X10519301Y-15215650D01*
X10519301Y-15215650D02*
X10538349Y-15225174D01*
X10614539Y-15425174D02*
X10624063Y-15415650D01*
X10624063Y-15415650D02*
X10643111Y-15387079D01*
X10643111Y-15387079D02*
X10652634Y-15368031D01*
X10652634Y-15368031D02*
X10662158Y-15339460D01*
X10662158Y-15339460D02*
X10671682Y-15291841D01*
X10671682Y-15291841D02*
X10671682Y-15253746D01*
X10671682Y-15253746D02*
X10662158Y-15206127D01*
X10662158Y-15206127D02*
X10652634Y-15177555D01*
X10652634Y-15177555D02*
X10643111Y-15158508D01*
X10643111Y-15158508D02*
X10624063Y-15129936D01*
X10624063Y-15129936D02*
X10614539Y-15120412D01*
D14*
X5609000Y-15481500D02*
X5609000Y-15561500D01*
X5569000Y-15521500D02*
X5649000Y-15521500D01*
D11*
X5947872Y-15412984D02*
X5966920Y-15412984D01*
X5966920Y-15412984D02*
X5985967Y-15422508D01*
X5985967Y-15422508D02*
X5995491Y-15432031D01*
X5995491Y-15432031D02*
X6005015Y-15451079D01*
X6005015Y-15451079D02*
X6014539Y-15489174D01*
X6014539Y-15489174D02*
X6014539Y-15536793D01*
X6014539Y-15536793D02*
X6005015Y-15574888D01*
X6005015Y-15574888D02*
X5995491Y-15593936D01*
X5995491Y-15593936D02*
X5985967Y-15603460D01*
X5985967Y-15603460D02*
X5966920Y-15612984D01*
X5966920Y-15612984D02*
X5947872Y-15612984D01*
X5947872Y-15612984D02*
X5928824Y-15603460D01*
X5928824Y-15603460D02*
X5919301Y-15593936D01*
X5919301Y-15593936D02*
X5909777Y-15574888D01*
X5909777Y-15574888D02*
X5900253Y-15536793D01*
X5900253Y-15536793D02*
X5900253Y-15489174D01*
X5900253Y-15489174D02*
X5909777Y-15451079D01*
X5909777Y-15451079D02*
X5919301Y-15432031D01*
X5919301Y-15432031D02*
X5928824Y-15422508D01*
X5928824Y-15422508D02*
X5947872Y-15412984D01*
X6100253Y-15593936D02*
X6109777Y-15603460D01*
X6109777Y-15603460D02*
X6100253Y-15612984D01*
X6100253Y-15612984D02*
X6090729Y-15603460D01*
X6090729Y-15603460D02*
X6100253Y-15593936D01*
X6100253Y-15593936D02*
X6100253Y-15612984D01*
X6224062Y-15498698D02*
X6205015Y-15489174D01*
X6205015Y-15489174D02*
X6195491Y-15479650D01*
X6195491Y-15479650D02*
X6185967Y-15460603D01*
X6185967Y-15460603D02*
X6185967Y-15451079D01*
X6185967Y-15451079D02*
X6195491Y-15432031D01*
X6195491Y-15432031D02*
X6205015Y-15422508D01*
X6205015Y-15422508D02*
X6224062Y-15412984D01*
X6224062Y-15412984D02*
X6262158Y-15412984D01*
X6262158Y-15412984D02*
X6281205Y-15422508D01*
X6281205Y-15422508D02*
X6290729Y-15432031D01*
X6290729Y-15432031D02*
X6300253Y-15451079D01*
X6300253Y-15451079D02*
X6300253Y-15460603D01*
X6300253Y-15460603D02*
X6290729Y-15479650D01*
X6290729Y-15479650D02*
X6281205Y-15489174D01*
X6281205Y-15489174D02*
X6262158Y-15498698D01*
X6262158Y-15498698D02*
X6224062Y-15498698D01*
X6224062Y-15498698D02*
X6205015Y-15508222D01*
X6205015Y-15508222D02*
X6195491Y-15517746D01*
X6195491Y-15517746D02*
X6185967Y-15536793D01*
X6185967Y-15536793D02*
X6185967Y-15574888D01*
X6185967Y-15574888D02*
X6195491Y-15593936D01*
X6195491Y-15593936D02*
X6205015Y-15603460D01*
X6205015Y-15603460D02*
X6224062Y-15612984D01*
X6224062Y-15612984D02*
X6262158Y-15612984D01*
X6262158Y-15612984D02*
X6281205Y-15603460D01*
X6281205Y-15603460D02*
X6290729Y-15593936D01*
X6290729Y-15593936D02*
X6300253Y-15574888D01*
X6300253Y-15574888D02*
X6300253Y-15536793D01*
X6300253Y-15536793D02*
X6290729Y-15517746D01*
X6290729Y-15517746D02*
X6281205Y-15508222D01*
X6281205Y-15508222D02*
X6262158Y-15498698D01*
X6424062Y-15412984D02*
X6443110Y-15412984D01*
X6443110Y-15412984D02*
X6462158Y-15422508D01*
X6462158Y-15422508D02*
X6471682Y-15432031D01*
X6471682Y-15432031D02*
X6481205Y-15451079D01*
X6481205Y-15451079D02*
X6490729Y-15489174D01*
X6490729Y-15489174D02*
X6490729Y-15536793D01*
X6490729Y-15536793D02*
X6481205Y-15574888D01*
X6481205Y-15574888D02*
X6471682Y-15593936D01*
X6471682Y-15593936D02*
X6462158Y-15603460D01*
X6462158Y-15603460D02*
X6443110Y-15612984D01*
X6443110Y-15612984D02*
X6424062Y-15612984D01*
X6424062Y-15612984D02*
X6405015Y-15603460D01*
X6405015Y-15603460D02*
X6395491Y-15593936D01*
X6395491Y-15593936D02*
X6385967Y-15574888D01*
X6385967Y-15574888D02*
X6376443Y-15536793D01*
X6376443Y-15536793D02*
X6376443Y-15489174D01*
X6376443Y-15489174D02*
X6385967Y-15451079D01*
X6385967Y-15451079D02*
X6395491Y-15432031D01*
X6395491Y-15432031D02*
X6405015Y-15422508D01*
X6405015Y-15422508D02*
X6424062Y-15412984D01*
X6614539Y-15412984D02*
X6633586Y-15412984D01*
X6633586Y-15412984D02*
X6652634Y-15422508D01*
X6652634Y-15422508D02*
X6662158Y-15432031D01*
X6662158Y-15432031D02*
X6671682Y-15451079D01*
X6671682Y-15451079D02*
X6681205Y-15489174D01*
X6681205Y-15489174D02*
X6681205Y-15536793D01*
X6681205Y-15536793D02*
X6671682Y-15574888D01*
X6671682Y-15574888D02*
X6662158Y-15593936D01*
X6662158Y-15593936D02*
X6652634Y-15603460D01*
X6652634Y-15603460D02*
X6633586Y-15612984D01*
X6633586Y-15612984D02*
X6614539Y-15612984D01*
X6614539Y-15612984D02*
X6595491Y-15603460D01*
X6595491Y-15603460D02*
X6585967Y-15593936D01*
X6585967Y-15593936D02*
X6576443Y-15574888D01*
X6576443Y-15574888D02*
X6566920Y-15536793D01*
X6566920Y-15536793D02*
X6566920Y-15489174D01*
X6566920Y-15489174D02*
X6576443Y-15451079D01*
X6576443Y-15451079D02*
X6585967Y-15432031D01*
X6585967Y-15432031D02*
X6595491Y-15422508D01*
X6595491Y-15422508D02*
X6614539Y-15412984D01*
X6766920Y-15612984D02*
X6766920Y-15479650D01*
X6766920Y-15498698D02*
X6776443Y-15489174D01*
X6776443Y-15489174D02*
X6795491Y-15479650D01*
X6795491Y-15479650D02*
X6824063Y-15479650D01*
X6824063Y-15479650D02*
X6843110Y-15489174D01*
X6843110Y-15489174D02*
X6852634Y-15508222D01*
X6852634Y-15508222D02*
X6852634Y-15612984D01*
X6852634Y-15508222D02*
X6862158Y-15489174D01*
X6862158Y-15489174D02*
X6881205Y-15479650D01*
X6881205Y-15479650D02*
X6909777Y-15479650D01*
X6909777Y-15479650D02*
X6928824Y-15489174D01*
X6928824Y-15489174D02*
X6938348Y-15508222D01*
X6938348Y-15508222D02*
X6938348Y-15612984D01*
X7033586Y-15612984D02*
X7033586Y-15479650D01*
X7033586Y-15498698D02*
X7043110Y-15489174D01*
X7043110Y-15489174D02*
X7062158Y-15479650D01*
X7062158Y-15479650D02*
X7090729Y-15479650D01*
X7090729Y-15479650D02*
X7109777Y-15489174D01*
X7109777Y-15489174D02*
X7119301Y-15508222D01*
X7119301Y-15508222D02*
X7119301Y-15612984D01*
X7119301Y-15508222D02*
X7128824Y-15489174D01*
X7128824Y-15489174D02*
X7147872Y-15479650D01*
X7147872Y-15479650D02*
X7176443Y-15479650D01*
X7176443Y-15479650D02*
X7195491Y-15489174D01*
X7195491Y-15489174D02*
X7205015Y-15508222D01*
X7205015Y-15508222D02*
X7205015Y-15612984D01*
X7595491Y-15403460D02*
X7424063Y-15660603D01*
X7852634Y-15412984D02*
X7871682Y-15412984D01*
X7871682Y-15412984D02*
X7890729Y-15422508D01*
X7890729Y-15422508D02*
X7900253Y-15432031D01*
X7900253Y-15432031D02*
X7909777Y-15451079D01*
X7909777Y-15451079D02*
X7919301Y-15489174D01*
X7919301Y-15489174D02*
X7919301Y-15536793D01*
X7919301Y-15536793D02*
X7909777Y-15574888D01*
X7909777Y-15574888D02*
X7900253Y-15593936D01*
X7900253Y-15593936D02*
X7890729Y-15603460D01*
X7890729Y-15603460D02*
X7871682Y-15612984D01*
X7871682Y-15612984D02*
X7852634Y-15612984D01*
X7852634Y-15612984D02*
X7833586Y-15603460D01*
X7833586Y-15603460D02*
X7824063Y-15593936D01*
X7824063Y-15593936D02*
X7814539Y-15574888D01*
X7814539Y-15574888D02*
X7805015Y-15536793D01*
X7805015Y-15536793D02*
X7805015Y-15489174D01*
X7805015Y-15489174D02*
X7814539Y-15451079D01*
X7814539Y-15451079D02*
X7824063Y-15432031D01*
X7824063Y-15432031D02*
X7833586Y-15422508D01*
X7833586Y-15422508D02*
X7852634Y-15412984D01*
X8005015Y-15593936D02*
X8014539Y-15603460D01*
X8014539Y-15603460D02*
X8005015Y-15612984D01*
X8005015Y-15612984D02*
X7995491Y-15603460D01*
X7995491Y-15603460D02*
X8005015Y-15593936D01*
X8005015Y-15593936D02*
X8005015Y-15612984D01*
X8138348Y-15412984D02*
X8157396Y-15412984D01*
X8157396Y-15412984D02*
X8176444Y-15422508D01*
X8176444Y-15422508D02*
X8185967Y-15432031D01*
X8185967Y-15432031D02*
X8195491Y-15451079D01*
X8195491Y-15451079D02*
X8205015Y-15489174D01*
X8205015Y-15489174D02*
X8205015Y-15536793D01*
X8205015Y-15536793D02*
X8195491Y-15574888D01*
X8195491Y-15574888D02*
X8185967Y-15593936D01*
X8185967Y-15593936D02*
X8176444Y-15603460D01*
X8176444Y-15603460D02*
X8157396Y-15612984D01*
X8157396Y-15612984D02*
X8138348Y-15612984D01*
X8138348Y-15612984D02*
X8119301Y-15603460D01*
X8119301Y-15603460D02*
X8109777Y-15593936D01*
X8109777Y-15593936D02*
X8100253Y-15574888D01*
X8100253Y-15574888D02*
X8090729Y-15536793D01*
X8090729Y-15536793D02*
X8090729Y-15489174D01*
X8090729Y-15489174D02*
X8100253Y-15451079D01*
X8100253Y-15451079D02*
X8109777Y-15432031D01*
X8109777Y-15432031D02*
X8119301Y-15422508D01*
X8119301Y-15422508D02*
X8138348Y-15412984D01*
X8271682Y-15412984D02*
X8395491Y-15412984D01*
X8395491Y-15412984D02*
X8328825Y-15489174D01*
X8328825Y-15489174D02*
X8357396Y-15489174D01*
X8357396Y-15489174D02*
X8376444Y-15498698D01*
X8376444Y-15498698D02*
X8385967Y-15508222D01*
X8385967Y-15508222D02*
X8395491Y-15527269D01*
X8395491Y-15527269D02*
X8395491Y-15574888D01*
X8395491Y-15574888D02*
X8385967Y-15593936D01*
X8385967Y-15593936D02*
X8376444Y-15603460D01*
X8376444Y-15603460D02*
X8357396Y-15612984D01*
X8357396Y-15612984D02*
X8300253Y-15612984D01*
X8300253Y-15612984D02*
X8281206Y-15603460D01*
X8281206Y-15603460D02*
X8271682Y-15593936D01*
X8585968Y-15612984D02*
X8471682Y-15612984D01*
X8528825Y-15612984D02*
X8528825Y-15412984D01*
X8528825Y-15412984D02*
X8509777Y-15441555D01*
X8509777Y-15441555D02*
X8490729Y-15460603D01*
X8490729Y-15460603D02*
X8471682Y-15470127D01*
X8766920Y-15412984D02*
X8671682Y-15412984D01*
X8671682Y-15412984D02*
X8662158Y-15508222D01*
X8662158Y-15508222D02*
X8671682Y-15498698D01*
X8671682Y-15498698D02*
X8690729Y-15489174D01*
X8690729Y-15489174D02*
X8738349Y-15489174D01*
X8738349Y-15489174D02*
X8757396Y-15498698D01*
X8757396Y-15498698D02*
X8766920Y-15508222D01*
X8766920Y-15508222D02*
X8776444Y-15527269D01*
X8776444Y-15527269D02*
X8776444Y-15574888D01*
X8776444Y-15574888D02*
X8766920Y-15593936D01*
X8766920Y-15593936D02*
X8757396Y-15603460D01*
X8757396Y-15603460D02*
X8738349Y-15612984D01*
X8738349Y-15612984D02*
X8690729Y-15612984D01*
X8690729Y-15612984D02*
X8671682Y-15603460D01*
X8671682Y-15603460D02*
X8662158Y-15593936D01*
X8852634Y-15412984D02*
X8852634Y-15451079D01*
X8928825Y-15412984D02*
X8928825Y-15451079D01*
X9224063Y-15689174D02*
X9214539Y-15679650D01*
X9214539Y-15679650D02*
X9195491Y-15651079D01*
X9195491Y-15651079D02*
X9185968Y-15632031D01*
X9185968Y-15632031D02*
X9176444Y-15603460D01*
X9176444Y-15603460D02*
X9166920Y-15555841D01*
X9166920Y-15555841D02*
X9166920Y-15517746D01*
X9166920Y-15517746D02*
X9176444Y-15470127D01*
X9176444Y-15470127D02*
X9185968Y-15441555D01*
X9185968Y-15441555D02*
X9195491Y-15422508D01*
X9195491Y-15422508D02*
X9214539Y-15393936D01*
X9214539Y-15393936D02*
X9224063Y-15384412D01*
X9405015Y-15612984D02*
X9290730Y-15612984D01*
X9347872Y-15612984D02*
X9347872Y-15412984D01*
X9347872Y-15412984D02*
X9328825Y-15441555D01*
X9328825Y-15441555D02*
X9309777Y-15460603D01*
X9309777Y-15460603D02*
X9290730Y-15470127D01*
X9471682Y-15412984D02*
X9605015Y-15412984D01*
X9605015Y-15412984D02*
X9519301Y-15612984D01*
X9671682Y-15432031D02*
X9681206Y-15422508D01*
X9681206Y-15422508D02*
X9700253Y-15412984D01*
X9700253Y-15412984D02*
X9747872Y-15412984D01*
X9747872Y-15412984D02*
X9766920Y-15422508D01*
X9766920Y-15422508D02*
X9776444Y-15432031D01*
X9776444Y-15432031D02*
X9785968Y-15451079D01*
X9785968Y-15451079D02*
X9785968Y-15470127D01*
X9785968Y-15470127D02*
X9776444Y-15498698D01*
X9776444Y-15498698D02*
X9662158Y-15612984D01*
X9662158Y-15612984D02*
X9785968Y-15612984D01*
X10024063Y-15612984D02*
X10024063Y-15412984D01*
X10109777Y-15612984D02*
X10109777Y-15508222D01*
X10109777Y-15508222D02*
X10100253Y-15489174D01*
X10100253Y-15489174D02*
X10081206Y-15479650D01*
X10081206Y-15479650D02*
X10052634Y-15479650D01*
X10052634Y-15479650D02*
X10033587Y-15489174D01*
X10033587Y-15489174D02*
X10024063Y-15498698D01*
X10233587Y-15612984D02*
X10214539Y-15603460D01*
X10214539Y-15603460D02*
X10205015Y-15593936D01*
X10205015Y-15593936D02*
X10195492Y-15574888D01*
X10195492Y-15574888D02*
X10195492Y-15517746D01*
X10195492Y-15517746D02*
X10205015Y-15498698D01*
X10205015Y-15498698D02*
X10214539Y-15489174D01*
X10214539Y-15489174D02*
X10233587Y-15479650D01*
X10233587Y-15479650D02*
X10262158Y-15479650D01*
X10262158Y-15479650D02*
X10281206Y-15489174D01*
X10281206Y-15489174D02*
X10290730Y-15498698D01*
X10290730Y-15498698D02*
X10300253Y-15517746D01*
X10300253Y-15517746D02*
X10300253Y-15574888D01*
X10300253Y-15574888D02*
X10290730Y-15593936D01*
X10290730Y-15593936D02*
X10281206Y-15603460D01*
X10281206Y-15603460D02*
X10262158Y-15612984D01*
X10262158Y-15612984D02*
X10233587Y-15612984D01*
X10414539Y-15612984D02*
X10395492Y-15603460D01*
X10395492Y-15603460D02*
X10385968Y-15584412D01*
X10385968Y-15584412D02*
X10385968Y-15412984D01*
X10566920Y-15603460D02*
X10547873Y-15612984D01*
X10547873Y-15612984D02*
X10509777Y-15612984D01*
X10509777Y-15612984D02*
X10490730Y-15603460D01*
X10490730Y-15603460D02*
X10481206Y-15584412D01*
X10481206Y-15584412D02*
X10481206Y-15508222D01*
X10481206Y-15508222D02*
X10490730Y-15489174D01*
X10490730Y-15489174D02*
X10509777Y-15479650D01*
X10509777Y-15479650D02*
X10547873Y-15479650D01*
X10547873Y-15479650D02*
X10566920Y-15489174D01*
X10566920Y-15489174D02*
X10576444Y-15508222D01*
X10576444Y-15508222D02*
X10576444Y-15527269D01*
X10576444Y-15527269D02*
X10481206Y-15546317D01*
X10652634Y-15603460D02*
X10671682Y-15612984D01*
X10671682Y-15612984D02*
X10709777Y-15612984D01*
X10709777Y-15612984D02*
X10728825Y-15603460D01*
X10728825Y-15603460D02*
X10738349Y-15584412D01*
X10738349Y-15584412D02*
X10738349Y-15574888D01*
X10738349Y-15574888D02*
X10728825Y-15555841D01*
X10728825Y-15555841D02*
X10709777Y-15546317D01*
X10709777Y-15546317D02*
X10681206Y-15546317D01*
X10681206Y-15546317D02*
X10662158Y-15536793D01*
X10662158Y-15536793D02*
X10652634Y-15517746D01*
X10652634Y-15517746D02*
X10652634Y-15508222D01*
X10652634Y-15508222D02*
X10662158Y-15489174D01*
X10662158Y-15489174D02*
X10681206Y-15479650D01*
X10681206Y-15479650D02*
X10709777Y-15479650D01*
X10709777Y-15479650D02*
X10728825Y-15489174D01*
X10805015Y-15689174D02*
X10814539Y-15679650D01*
X10814539Y-15679650D02*
X10833587Y-15651079D01*
X10833587Y-15651079D02*
X10843111Y-15632031D01*
X10843111Y-15632031D02*
X10852634Y-15603460D01*
X10852634Y-15603460D02*
X10862158Y-15555841D01*
X10862158Y-15555841D02*
X10862158Y-15517746D01*
X10862158Y-15517746D02*
X10852634Y-15470127D01*
X10852634Y-15470127D02*
X10843111Y-15441555D01*
X10843111Y-15441555D02*
X10833587Y-15422508D01*
X10833587Y-15422508D02*
X10814539Y-15393936D01*
X10814539Y-15393936D02*
X10805015Y-15384412D01*
D15*
X5635820Y-15817320D02*
X5635820Y-15753680D01*
X5572180Y-15753680D01*
X5572180Y-15817320D01*
X5635820Y-15817320D01*
D11*
X5947872Y-15676984D02*
X5966920Y-15676984D01*
X5966920Y-15676984D02*
X5985967Y-15686508D01*
X5985967Y-15686508D02*
X5995491Y-15696031D01*
X5995491Y-15696031D02*
X6005015Y-15715079D01*
X6005015Y-15715079D02*
X6014539Y-15753174D01*
X6014539Y-15753174D02*
X6014539Y-15800793D01*
X6014539Y-15800793D02*
X6005015Y-15838888D01*
X6005015Y-15838888D02*
X5995491Y-15857936D01*
X5995491Y-15857936D02*
X5985967Y-15867460D01*
X5985967Y-15867460D02*
X5966920Y-15876984D01*
X5966920Y-15876984D02*
X5947872Y-15876984D01*
X5947872Y-15876984D02*
X5928824Y-15867460D01*
X5928824Y-15867460D02*
X5919301Y-15857936D01*
X5919301Y-15857936D02*
X5909777Y-15838888D01*
X5909777Y-15838888D02*
X5900253Y-15800793D01*
X5900253Y-15800793D02*
X5900253Y-15753174D01*
X5900253Y-15753174D02*
X5909777Y-15715079D01*
X5909777Y-15715079D02*
X5919301Y-15696031D01*
X5919301Y-15696031D02*
X5928824Y-15686508D01*
X5928824Y-15686508D02*
X5947872Y-15676984D01*
X6100253Y-15857936D02*
X6109777Y-15867460D01*
X6109777Y-15867460D02*
X6100253Y-15876984D01*
X6100253Y-15876984D02*
X6090729Y-15867460D01*
X6090729Y-15867460D02*
X6100253Y-15857936D01*
X6100253Y-15857936D02*
X6100253Y-15876984D01*
X6205015Y-15876984D02*
X6243110Y-15876984D01*
X6243110Y-15876984D02*
X6262158Y-15867460D01*
X6262158Y-15867460D02*
X6271682Y-15857936D01*
X6271682Y-15857936D02*
X6290729Y-15829365D01*
X6290729Y-15829365D02*
X6300253Y-15791269D01*
X6300253Y-15791269D02*
X6300253Y-15715079D01*
X6300253Y-15715079D02*
X6290729Y-15696031D01*
X6290729Y-15696031D02*
X6281205Y-15686508D01*
X6281205Y-15686508D02*
X6262158Y-15676984D01*
X6262158Y-15676984D02*
X6224062Y-15676984D01*
X6224062Y-15676984D02*
X6205015Y-15686508D01*
X6205015Y-15686508D02*
X6195491Y-15696031D01*
X6195491Y-15696031D02*
X6185967Y-15715079D01*
X6185967Y-15715079D02*
X6185967Y-15762698D01*
X6185967Y-15762698D02*
X6195491Y-15781746D01*
X6195491Y-15781746D02*
X6205015Y-15791269D01*
X6205015Y-15791269D02*
X6224062Y-15800793D01*
X6224062Y-15800793D02*
X6262158Y-15800793D01*
X6262158Y-15800793D02*
X6281205Y-15791269D01*
X6281205Y-15791269D02*
X6290729Y-15781746D01*
X6290729Y-15781746D02*
X6300253Y-15762698D01*
X6424062Y-15676984D02*
X6443110Y-15676984D01*
X6443110Y-15676984D02*
X6462158Y-15686508D01*
X6462158Y-15686508D02*
X6471682Y-15696031D01*
X6471682Y-15696031D02*
X6481205Y-15715079D01*
X6481205Y-15715079D02*
X6490729Y-15753174D01*
X6490729Y-15753174D02*
X6490729Y-15800793D01*
X6490729Y-15800793D02*
X6481205Y-15838888D01*
X6481205Y-15838888D02*
X6471682Y-15857936D01*
X6471682Y-15857936D02*
X6462158Y-15867460D01*
X6462158Y-15867460D02*
X6443110Y-15876984D01*
X6443110Y-15876984D02*
X6424062Y-15876984D01*
X6424062Y-15876984D02*
X6405015Y-15867460D01*
X6405015Y-15867460D02*
X6395491Y-15857936D01*
X6395491Y-15857936D02*
X6385967Y-15838888D01*
X6385967Y-15838888D02*
X6376443Y-15800793D01*
X6376443Y-15800793D02*
X6376443Y-15753174D01*
X6376443Y-15753174D02*
X6385967Y-15715079D01*
X6385967Y-15715079D02*
X6395491Y-15696031D01*
X6395491Y-15696031D02*
X6405015Y-15686508D01*
X6405015Y-15686508D02*
X6424062Y-15676984D01*
X6614539Y-15676984D02*
X6633586Y-15676984D01*
X6633586Y-15676984D02*
X6652634Y-15686508D01*
X6652634Y-15686508D02*
X6662158Y-15696031D01*
X6662158Y-15696031D02*
X6671682Y-15715079D01*
X6671682Y-15715079D02*
X6681205Y-15753174D01*
X6681205Y-15753174D02*
X6681205Y-15800793D01*
X6681205Y-15800793D02*
X6671682Y-15838888D01*
X6671682Y-15838888D02*
X6662158Y-15857936D01*
X6662158Y-15857936D02*
X6652634Y-15867460D01*
X6652634Y-15867460D02*
X6633586Y-15876984D01*
X6633586Y-15876984D02*
X6614539Y-15876984D01*
X6614539Y-15876984D02*
X6595491Y-15867460D01*
X6595491Y-15867460D02*
X6585967Y-15857936D01*
X6585967Y-15857936D02*
X6576443Y-15838888D01*
X6576443Y-15838888D02*
X6566920Y-15800793D01*
X6566920Y-15800793D02*
X6566920Y-15753174D01*
X6566920Y-15753174D02*
X6576443Y-15715079D01*
X6576443Y-15715079D02*
X6585967Y-15696031D01*
X6585967Y-15696031D02*
X6595491Y-15686508D01*
X6595491Y-15686508D02*
X6614539Y-15676984D01*
X6766920Y-15876984D02*
X6766920Y-15743650D01*
X6766920Y-15762698D02*
X6776443Y-15753174D01*
X6776443Y-15753174D02*
X6795491Y-15743650D01*
X6795491Y-15743650D02*
X6824063Y-15743650D01*
X6824063Y-15743650D02*
X6843110Y-15753174D01*
X6843110Y-15753174D02*
X6852634Y-15772222D01*
X6852634Y-15772222D02*
X6852634Y-15876984D01*
X6852634Y-15772222D02*
X6862158Y-15753174D01*
X6862158Y-15753174D02*
X6881205Y-15743650D01*
X6881205Y-15743650D02*
X6909777Y-15743650D01*
X6909777Y-15743650D02*
X6928824Y-15753174D01*
X6928824Y-15753174D02*
X6938348Y-15772222D01*
X6938348Y-15772222D02*
X6938348Y-15876984D01*
X7033586Y-15876984D02*
X7033586Y-15743650D01*
X7033586Y-15762698D02*
X7043110Y-15753174D01*
X7043110Y-15753174D02*
X7062158Y-15743650D01*
X7062158Y-15743650D02*
X7090729Y-15743650D01*
X7090729Y-15743650D02*
X7109777Y-15753174D01*
X7109777Y-15753174D02*
X7119301Y-15772222D01*
X7119301Y-15772222D02*
X7119301Y-15876984D01*
X7119301Y-15772222D02*
X7128824Y-15753174D01*
X7128824Y-15753174D02*
X7147872Y-15743650D01*
X7147872Y-15743650D02*
X7176443Y-15743650D01*
X7176443Y-15743650D02*
X7195491Y-15753174D01*
X7195491Y-15753174D02*
X7205015Y-15772222D01*
X7205015Y-15772222D02*
X7205015Y-15876984D01*
X7595491Y-15667460D02*
X7424063Y-15924603D01*
X7852634Y-15676984D02*
X7871682Y-15676984D01*
X7871682Y-15676984D02*
X7890729Y-15686508D01*
X7890729Y-15686508D02*
X7900253Y-15696031D01*
X7900253Y-15696031D02*
X7909777Y-15715079D01*
X7909777Y-15715079D02*
X7919301Y-15753174D01*
X7919301Y-15753174D02*
X7919301Y-15800793D01*
X7919301Y-15800793D02*
X7909777Y-15838888D01*
X7909777Y-15838888D02*
X7900253Y-15857936D01*
X7900253Y-15857936D02*
X7890729Y-15867460D01*
X7890729Y-15867460D02*
X7871682Y-15876984D01*
X7871682Y-15876984D02*
X7852634Y-15876984D01*
X7852634Y-15876984D02*
X7833586Y-15867460D01*
X7833586Y-15867460D02*
X7824063Y-15857936D01*
X7824063Y-15857936D02*
X7814539Y-15838888D01*
X7814539Y-15838888D02*
X7805015Y-15800793D01*
X7805015Y-15800793D02*
X7805015Y-15753174D01*
X7805015Y-15753174D02*
X7814539Y-15715079D01*
X7814539Y-15715079D02*
X7824063Y-15696031D01*
X7824063Y-15696031D02*
X7833586Y-15686508D01*
X7833586Y-15686508D02*
X7852634Y-15676984D01*
X8005015Y-15857936D02*
X8014539Y-15867460D01*
X8014539Y-15867460D02*
X8005015Y-15876984D01*
X8005015Y-15876984D02*
X7995491Y-15867460D01*
X7995491Y-15867460D02*
X8005015Y-15857936D01*
X8005015Y-15857936D02*
X8005015Y-15876984D01*
X8138348Y-15676984D02*
X8157396Y-15676984D01*
X8157396Y-15676984D02*
X8176444Y-15686508D01*
X8176444Y-15686508D02*
X8185967Y-15696031D01*
X8185967Y-15696031D02*
X8195491Y-15715079D01*
X8195491Y-15715079D02*
X8205015Y-15753174D01*
X8205015Y-15753174D02*
X8205015Y-15800793D01*
X8205015Y-15800793D02*
X8195491Y-15838888D01*
X8195491Y-15838888D02*
X8185967Y-15857936D01*
X8185967Y-15857936D02*
X8176444Y-15867460D01*
X8176444Y-15867460D02*
X8157396Y-15876984D01*
X8157396Y-15876984D02*
X8138348Y-15876984D01*
X8138348Y-15876984D02*
X8119301Y-15867460D01*
X8119301Y-15867460D02*
X8109777Y-15857936D01*
X8109777Y-15857936D02*
X8100253Y-15838888D01*
X8100253Y-15838888D02*
X8090729Y-15800793D01*
X8090729Y-15800793D02*
X8090729Y-15753174D01*
X8090729Y-15753174D02*
X8100253Y-15715079D01*
X8100253Y-15715079D02*
X8109777Y-15696031D01*
X8109777Y-15696031D02*
X8119301Y-15686508D01*
X8119301Y-15686508D02*
X8138348Y-15676984D01*
X8271682Y-15676984D02*
X8395491Y-15676984D01*
X8395491Y-15676984D02*
X8328825Y-15753174D01*
X8328825Y-15753174D02*
X8357396Y-15753174D01*
X8357396Y-15753174D02*
X8376444Y-15762698D01*
X8376444Y-15762698D02*
X8385967Y-15772222D01*
X8385967Y-15772222D02*
X8395491Y-15791269D01*
X8395491Y-15791269D02*
X8395491Y-15838888D01*
X8395491Y-15838888D02*
X8385967Y-15857936D01*
X8385967Y-15857936D02*
X8376444Y-15867460D01*
X8376444Y-15867460D02*
X8357396Y-15876984D01*
X8357396Y-15876984D02*
X8300253Y-15876984D01*
X8300253Y-15876984D02*
X8281206Y-15867460D01*
X8281206Y-15867460D02*
X8271682Y-15857936D01*
X8576444Y-15676984D02*
X8481206Y-15676984D01*
X8481206Y-15676984D02*
X8471682Y-15772222D01*
X8471682Y-15772222D02*
X8481206Y-15762698D01*
X8481206Y-15762698D02*
X8500253Y-15753174D01*
X8500253Y-15753174D02*
X8547872Y-15753174D01*
X8547872Y-15753174D02*
X8566920Y-15762698D01*
X8566920Y-15762698D02*
X8576444Y-15772222D01*
X8576444Y-15772222D02*
X8585968Y-15791269D01*
X8585968Y-15791269D02*
X8585968Y-15838888D01*
X8585968Y-15838888D02*
X8576444Y-15857936D01*
X8576444Y-15857936D02*
X8566920Y-15867460D01*
X8566920Y-15867460D02*
X8547872Y-15876984D01*
X8547872Y-15876984D02*
X8500253Y-15876984D01*
X8500253Y-15876984D02*
X8481206Y-15867460D01*
X8481206Y-15867460D02*
X8471682Y-15857936D01*
X8757396Y-15743650D02*
X8757396Y-15876984D01*
X8709777Y-15667460D02*
X8662158Y-15810317D01*
X8662158Y-15810317D02*
X8785968Y-15810317D01*
X8852634Y-15676984D02*
X8852634Y-15715079D01*
X8928825Y-15676984D02*
X8928825Y-15715079D01*
X9224063Y-15953174D02*
X9214539Y-15943650D01*
X9214539Y-15943650D02*
X9195491Y-15915079D01*
X9195491Y-15915079D02*
X9185968Y-15896031D01*
X9185968Y-15896031D02*
X9176444Y-15867460D01*
X9176444Y-15867460D02*
X9166920Y-15819841D01*
X9166920Y-15819841D02*
X9166920Y-15781746D01*
X9166920Y-15781746D02*
X9176444Y-15734127D01*
X9176444Y-15734127D02*
X9185968Y-15705555D01*
X9185968Y-15705555D02*
X9195491Y-15686508D01*
X9195491Y-15686508D02*
X9214539Y-15657936D01*
X9214539Y-15657936D02*
X9224063Y-15648412D01*
X9290730Y-15696031D02*
X9300253Y-15686508D01*
X9300253Y-15686508D02*
X9319301Y-15676984D01*
X9319301Y-15676984D02*
X9366920Y-15676984D01*
X9366920Y-15676984D02*
X9385968Y-15686508D01*
X9385968Y-15686508D02*
X9395491Y-15696031D01*
X9395491Y-15696031D02*
X9405015Y-15715079D01*
X9405015Y-15715079D02*
X9405015Y-15734127D01*
X9405015Y-15734127D02*
X9395491Y-15762698D01*
X9395491Y-15762698D02*
X9281206Y-15876984D01*
X9281206Y-15876984D02*
X9405015Y-15876984D01*
X9643111Y-15876984D02*
X9643111Y-15676984D01*
X9728825Y-15876984D02*
X9728825Y-15772222D01*
X9728825Y-15772222D02*
X9719301Y-15753174D01*
X9719301Y-15753174D02*
X9700253Y-15743650D01*
X9700253Y-15743650D02*
X9671682Y-15743650D01*
X9671682Y-15743650D02*
X9652634Y-15753174D01*
X9652634Y-15753174D02*
X9643111Y-15762698D01*
X9852634Y-15876984D02*
X9833587Y-15867460D01*
X9833587Y-15867460D02*
X9824063Y-15857936D01*
X9824063Y-15857936D02*
X9814539Y-15838888D01*
X9814539Y-15838888D02*
X9814539Y-15781746D01*
X9814539Y-15781746D02*
X9824063Y-15762698D01*
X9824063Y-15762698D02*
X9833587Y-15753174D01*
X9833587Y-15753174D02*
X9852634Y-15743650D01*
X9852634Y-15743650D02*
X9881206Y-15743650D01*
X9881206Y-15743650D02*
X9900253Y-15753174D01*
X9900253Y-15753174D02*
X9909777Y-15762698D01*
X9909777Y-15762698D02*
X9919301Y-15781746D01*
X9919301Y-15781746D02*
X9919301Y-15838888D01*
X9919301Y-15838888D02*
X9909777Y-15857936D01*
X9909777Y-15857936D02*
X9900253Y-15867460D01*
X9900253Y-15867460D02*
X9881206Y-15876984D01*
X9881206Y-15876984D02*
X9852634Y-15876984D01*
X10033587Y-15876984D02*
X10014539Y-15867460D01*
X10014539Y-15867460D02*
X10005015Y-15848412D01*
X10005015Y-15848412D02*
X10005015Y-15676984D01*
X10185968Y-15867460D02*
X10166920Y-15876984D01*
X10166920Y-15876984D02*
X10128825Y-15876984D01*
X10128825Y-15876984D02*
X10109777Y-15867460D01*
X10109777Y-15867460D02*
X10100253Y-15848412D01*
X10100253Y-15848412D02*
X10100253Y-15772222D01*
X10100253Y-15772222D02*
X10109777Y-15753174D01*
X10109777Y-15753174D02*
X10128825Y-15743650D01*
X10128825Y-15743650D02*
X10166920Y-15743650D01*
X10166920Y-15743650D02*
X10185968Y-15753174D01*
X10185968Y-15753174D02*
X10195492Y-15772222D01*
X10195492Y-15772222D02*
X10195492Y-15791269D01*
X10195492Y-15791269D02*
X10100253Y-15810317D01*
X10271682Y-15867460D02*
X10290730Y-15876984D01*
X10290730Y-15876984D02*
X10328825Y-15876984D01*
X10328825Y-15876984D02*
X10347873Y-15867460D01*
X10347873Y-15867460D02*
X10357396Y-15848412D01*
X10357396Y-15848412D02*
X10357396Y-15838888D01*
X10357396Y-15838888D02*
X10347873Y-15819841D01*
X10347873Y-15819841D02*
X10328825Y-15810317D01*
X10328825Y-15810317D02*
X10300253Y-15810317D01*
X10300253Y-15810317D02*
X10281206Y-15800793D01*
X10281206Y-15800793D02*
X10271682Y-15781746D01*
X10271682Y-15781746D02*
X10271682Y-15772222D01*
X10271682Y-15772222D02*
X10281206Y-15753174D01*
X10281206Y-15753174D02*
X10300253Y-15743650D01*
X10300253Y-15743650D02*
X10328825Y-15743650D01*
X10328825Y-15743650D02*
X10347873Y-15753174D01*
X10424063Y-15953174D02*
X10433587Y-15943650D01*
X10433587Y-15943650D02*
X10452634Y-15915079D01*
X10452634Y-15915079D02*
X10462158Y-15896031D01*
X10462158Y-15896031D02*
X10471682Y-15867460D01*
X10471682Y-15867460D02*
X10481206Y-15819841D01*
X10481206Y-15819841D02*
X10481206Y-15781746D01*
X10481206Y-15781746D02*
X10471682Y-15734127D01*
X10471682Y-15734127D02*
X10462158Y-15705555D01*
X10462158Y-15705555D02*
X10452634Y-15686508D01*
X10452634Y-15686508D02*
X10433587Y-15657936D01*
X10433587Y-15657936D02*
X10424063Y-15648412D01*
D16*
X5599000Y-16099500D02*
X5649000Y-16049500D01*
X5599000Y-15999500D01*
X5549000Y-16049500D01*
X5599000Y-16099500D01*
D11*
X6014539Y-16140984D02*
X5900253Y-16140984D01*
X5957396Y-16140984D02*
X5957396Y-15940984D01*
X5957396Y-15940984D02*
X5938348Y-15969555D01*
X5938348Y-15969555D02*
X5919301Y-15988603D01*
X5919301Y-15988603D02*
X5900253Y-15998127D01*
X6100253Y-16121936D02*
X6109777Y-16131460D01*
X6109777Y-16131460D02*
X6100253Y-16140984D01*
X6100253Y-16140984D02*
X6090729Y-16131460D01*
X6090729Y-16131460D02*
X6100253Y-16121936D01*
X6100253Y-16121936D02*
X6100253Y-16140984D01*
X6233586Y-15940984D02*
X6252634Y-15940984D01*
X6252634Y-15940984D02*
X6271682Y-15950508D01*
X6271682Y-15950508D02*
X6281205Y-15960031D01*
X6281205Y-15960031D02*
X6290729Y-15979079D01*
X6290729Y-15979079D02*
X6300253Y-16017174D01*
X6300253Y-16017174D02*
X6300253Y-16064793D01*
X6300253Y-16064793D02*
X6290729Y-16102888D01*
X6290729Y-16102888D02*
X6281205Y-16121936D01*
X6281205Y-16121936D02*
X6271682Y-16131460D01*
X6271682Y-16131460D02*
X6252634Y-16140984D01*
X6252634Y-16140984D02*
X6233586Y-16140984D01*
X6233586Y-16140984D02*
X6214539Y-16131460D01*
X6214539Y-16131460D02*
X6205015Y-16121936D01*
X6205015Y-16121936D02*
X6195491Y-16102888D01*
X6195491Y-16102888D02*
X6185967Y-16064793D01*
X6185967Y-16064793D02*
X6185967Y-16017174D01*
X6185967Y-16017174D02*
X6195491Y-15979079D01*
X6195491Y-15979079D02*
X6205015Y-15960031D01*
X6205015Y-15960031D02*
X6214539Y-15950508D01*
X6214539Y-15950508D02*
X6233586Y-15940984D01*
X6424062Y-15940984D02*
X6443110Y-15940984D01*
X6443110Y-15940984D02*
X6462158Y-15950508D01*
X6462158Y-15950508D02*
X6471682Y-15960031D01*
X6471682Y-15960031D02*
X6481205Y-15979079D01*
X6481205Y-15979079D02*
X6490729Y-16017174D01*
X6490729Y-16017174D02*
X6490729Y-16064793D01*
X6490729Y-16064793D02*
X6481205Y-16102888D01*
X6481205Y-16102888D02*
X6471682Y-16121936D01*
X6471682Y-16121936D02*
X6462158Y-16131460D01*
X6462158Y-16131460D02*
X6443110Y-16140984D01*
X6443110Y-16140984D02*
X6424062Y-16140984D01*
X6424062Y-16140984D02*
X6405015Y-16131460D01*
X6405015Y-16131460D02*
X6395491Y-16121936D01*
X6395491Y-16121936D02*
X6385967Y-16102888D01*
X6385967Y-16102888D02*
X6376443Y-16064793D01*
X6376443Y-16064793D02*
X6376443Y-16017174D01*
X6376443Y-16017174D02*
X6385967Y-15979079D01*
X6385967Y-15979079D02*
X6395491Y-15960031D01*
X6395491Y-15960031D02*
X6405015Y-15950508D01*
X6405015Y-15950508D02*
X6424062Y-15940984D01*
X6614539Y-15940984D02*
X6633586Y-15940984D01*
X6633586Y-15940984D02*
X6652634Y-15950508D01*
X6652634Y-15950508D02*
X6662158Y-15960031D01*
X6662158Y-15960031D02*
X6671682Y-15979079D01*
X6671682Y-15979079D02*
X6681205Y-16017174D01*
X6681205Y-16017174D02*
X6681205Y-16064793D01*
X6681205Y-16064793D02*
X6671682Y-16102888D01*
X6671682Y-16102888D02*
X6662158Y-16121936D01*
X6662158Y-16121936D02*
X6652634Y-16131460D01*
X6652634Y-16131460D02*
X6633586Y-16140984D01*
X6633586Y-16140984D02*
X6614539Y-16140984D01*
X6614539Y-16140984D02*
X6595491Y-16131460D01*
X6595491Y-16131460D02*
X6585967Y-16121936D01*
X6585967Y-16121936D02*
X6576443Y-16102888D01*
X6576443Y-16102888D02*
X6566920Y-16064793D01*
X6566920Y-16064793D02*
X6566920Y-16017174D01*
X6566920Y-16017174D02*
X6576443Y-15979079D01*
X6576443Y-15979079D02*
X6585967Y-15960031D01*
X6585967Y-15960031D02*
X6595491Y-15950508D01*
X6595491Y-15950508D02*
X6614539Y-15940984D01*
X6766920Y-16140984D02*
X6766920Y-16007650D01*
X6766920Y-16026698D02*
X6776443Y-16017174D01*
X6776443Y-16017174D02*
X6795491Y-16007650D01*
X6795491Y-16007650D02*
X6824063Y-16007650D01*
X6824063Y-16007650D02*
X6843110Y-16017174D01*
X6843110Y-16017174D02*
X6852634Y-16036222D01*
X6852634Y-16036222D02*
X6852634Y-16140984D01*
X6852634Y-16036222D02*
X6862158Y-16017174D01*
X6862158Y-16017174D02*
X6881205Y-16007650D01*
X6881205Y-16007650D02*
X6909777Y-16007650D01*
X6909777Y-16007650D02*
X6928824Y-16017174D01*
X6928824Y-16017174D02*
X6938348Y-16036222D01*
X6938348Y-16036222D02*
X6938348Y-16140984D01*
X7033586Y-16140984D02*
X7033586Y-16007650D01*
X7033586Y-16026698D02*
X7043110Y-16017174D01*
X7043110Y-16017174D02*
X7062158Y-16007650D01*
X7062158Y-16007650D02*
X7090729Y-16007650D01*
X7090729Y-16007650D02*
X7109777Y-16017174D01*
X7109777Y-16017174D02*
X7119301Y-16036222D01*
X7119301Y-16036222D02*
X7119301Y-16140984D01*
X7119301Y-16036222D02*
X7128824Y-16017174D01*
X7128824Y-16017174D02*
X7147872Y-16007650D01*
X7147872Y-16007650D02*
X7176443Y-16007650D01*
X7176443Y-16007650D02*
X7195491Y-16017174D01*
X7195491Y-16017174D02*
X7205015Y-16036222D01*
X7205015Y-16036222D02*
X7205015Y-16140984D01*
X7595491Y-15931460D02*
X7424063Y-16188603D01*
X7852634Y-15940984D02*
X7871682Y-15940984D01*
X7871682Y-15940984D02*
X7890729Y-15950508D01*
X7890729Y-15950508D02*
X7900253Y-15960031D01*
X7900253Y-15960031D02*
X7909777Y-15979079D01*
X7909777Y-15979079D02*
X7919301Y-16017174D01*
X7919301Y-16017174D02*
X7919301Y-16064793D01*
X7919301Y-16064793D02*
X7909777Y-16102888D01*
X7909777Y-16102888D02*
X7900253Y-16121936D01*
X7900253Y-16121936D02*
X7890729Y-16131460D01*
X7890729Y-16131460D02*
X7871682Y-16140984D01*
X7871682Y-16140984D02*
X7852634Y-16140984D01*
X7852634Y-16140984D02*
X7833586Y-16131460D01*
X7833586Y-16131460D02*
X7824063Y-16121936D01*
X7824063Y-16121936D02*
X7814539Y-16102888D01*
X7814539Y-16102888D02*
X7805015Y-16064793D01*
X7805015Y-16064793D02*
X7805015Y-16017174D01*
X7805015Y-16017174D02*
X7814539Y-15979079D01*
X7814539Y-15979079D02*
X7824063Y-15960031D01*
X7824063Y-15960031D02*
X7833586Y-15950508D01*
X7833586Y-15950508D02*
X7852634Y-15940984D01*
X8005015Y-16121936D02*
X8014539Y-16131460D01*
X8014539Y-16131460D02*
X8005015Y-16140984D01*
X8005015Y-16140984D02*
X7995491Y-16131460D01*
X7995491Y-16131460D02*
X8005015Y-16121936D01*
X8005015Y-16121936D02*
X8005015Y-16140984D01*
X8138348Y-15940984D02*
X8157396Y-15940984D01*
X8157396Y-15940984D02*
X8176444Y-15950508D01*
X8176444Y-15950508D02*
X8185967Y-15960031D01*
X8185967Y-15960031D02*
X8195491Y-15979079D01*
X8195491Y-15979079D02*
X8205015Y-16017174D01*
X8205015Y-16017174D02*
X8205015Y-16064793D01*
X8205015Y-16064793D02*
X8195491Y-16102888D01*
X8195491Y-16102888D02*
X8185967Y-16121936D01*
X8185967Y-16121936D02*
X8176444Y-16131460D01*
X8176444Y-16131460D02*
X8157396Y-16140984D01*
X8157396Y-16140984D02*
X8138348Y-16140984D01*
X8138348Y-16140984D02*
X8119301Y-16131460D01*
X8119301Y-16131460D02*
X8109777Y-16121936D01*
X8109777Y-16121936D02*
X8100253Y-16102888D01*
X8100253Y-16102888D02*
X8090729Y-16064793D01*
X8090729Y-16064793D02*
X8090729Y-16017174D01*
X8090729Y-16017174D02*
X8100253Y-15979079D01*
X8100253Y-15979079D02*
X8109777Y-15960031D01*
X8109777Y-15960031D02*
X8119301Y-15950508D01*
X8119301Y-15950508D02*
X8138348Y-15940984D01*
X8271682Y-15940984D02*
X8395491Y-15940984D01*
X8395491Y-15940984D02*
X8328825Y-16017174D01*
X8328825Y-16017174D02*
X8357396Y-16017174D01*
X8357396Y-16017174D02*
X8376444Y-16026698D01*
X8376444Y-16026698D02*
X8385967Y-16036222D01*
X8385967Y-16036222D02*
X8395491Y-16055269D01*
X8395491Y-16055269D02*
X8395491Y-16102888D01*
X8395491Y-16102888D02*
X8385967Y-16121936D01*
X8385967Y-16121936D02*
X8376444Y-16131460D01*
X8376444Y-16131460D02*
X8357396Y-16140984D01*
X8357396Y-16140984D02*
X8300253Y-16140984D01*
X8300253Y-16140984D02*
X8281206Y-16131460D01*
X8281206Y-16131460D02*
X8271682Y-16121936D01*
X8490729Y-16140984D02*
X8528825Y-16140984D01*
X8528825Y-16140984D02*
X8547872Y-16131460D01*
X8547872Y-16131460D02*
X8557396Y-16121936D01*
X8557396Y-16121936D02*
X8576444Y-16093365D01*
X8576444Y-16093365D02*
X8585968Y-16055269D01*
X8585968Y-16055269D02*
X8585968Y-15979079D01*
X8585968Y-15979079D02*
X8576444Y-15960031D01*
X8576444Y-15960031D02*
X8566920Y-15950508D01*
X8566920Y-15950508D02*
X8547872Y-15940984D01*
X8547872Y-15940984D02*
X8509777Y-15940984D01*
X8509777Y-15940984D02*
X8490729Y-15950508D01*
X8490729Y-15950508D02*
X8481206Y-15960031D01*
X8481206Y-15960031D02*
X8471682Y-15979079D01*
X8471682Y-15979079D02*
X8471682Y-16026698D01*
X8471682Y-16026698D02*
X8481206Y-16045746D01*
X8481206Y-16045746D02*
X8490729Y-16055269D01*
X8490729Y-16055269D02*
X8509777Y-16064793D01*
X8509777Y-16064793D02*
X8547872Y-16064793D01*
X8547872Y-16064793D02*
X8566920Y-16055269D01*
X8566920Y-16055269D02*
X8576444Y-16045746D01*
X8576444Y-16045746D02*
X8585968Y-16026698D01*
X8757396Y-16007650D02*
X8757396Y-16140984D01*
X8709777Y-15931460D02*
X8662158Y-16074317D01*
X8662158Y-16074317D02*
X8785968Y-16074317D01*
X8852634Y-15940984D02*
X8852634Y-15979079D01*
X8928825Y-15940984D02*
X8928825Y-15979079D01*
X9224063Y-16217174D02*
X9214539Y-16207650D01*
X9214539Y-16207650D02*
X9195491Y-16179079D01*
X9195491Y-16179079D02*
X9185968Y-16160031D01*
X9185968Y-16160031D02*
X9176444Y-16131460D01*
X9176444Y-16131460D02*
X9166920Y-16083841D01*
X9166920Y-16083841D02*
X9166920Y-16045746D01*
X9166920Y-16045746D02*
X9176444Y-15998127D01*
X9176444Y-15998127D02*
X9185968Y-15969555D01*
X9185968Y-15969555D02*
X9195491Y-15950508D01*
X9195491Y-15950508D02*
X9214539Y-15921936D01*
X9214539Y-15921936D02*
X9224063Y-15912412D01*
X9385968Y-15940984D02*
X9347872Y-15940984D01*
X9347872Y-15940984D02*
X9328825Y-15950508D01*
X9328825Y-15950508D02*
X9319301Y-15960031D01*
X9319301Y-15960031D02*
X9300253Y-15988603D01*
X9300253Y-15988603D02*
X9290730Y-16026698D01*
X9290730Y-16026698D02*
X9290730Y-16102888D01*
X9290730Y-16102888D02*
X9300253Y-16121936D01*
X9300253Y-16121936D02*
X9309777Y-16131460D01*
X9309777Y-16131460D02*
X9328825Y-16140984D01*
X9328825Y-16140984D02*
X9366920Y-16140984D01*
X9366920Y-16140984D02*
X9385968Y-16131460D01*
X9385968Y-16131460D02*
X9395491Y-16121936D01*
X9395491Y-16121936D02*
X9405015Y-16102888D01*
X9405015Y-16102888D02*
X9405015Y-16055269D01*
X9405015Y-16055269D02*
X9395491Y-16036222D01*
X9395491Y-16036222D02*
X9385968Y-16026698D01*
X9385968Y-16026698D02*
X9366920Y-16017174D01*
X9366920Y-16017174D02*
X9328825Y-16017174D01*
X9328825Y-16017174D02*
X9309777Y-16026698D01*
X9309777Y-16026698D02*
X9300253Y-16036222D01*
X9300253Y-16036222D02*
X9290730Y-16055269D01*
X9643111Y-16140984D02*
X9643111Y-15940984D01*
X9728825Y-16140984D02*
X9728825Y-16036222D01*
X9728825Y-16036222D02*
X9719301Y-16017174D01*
X9719301Y-16017174D02*
X9700253Y-16007650D01*
X9700253Y-16007650D02*
X9671682Y-16007650D01*
X9671682Y-16007650D02*
X9652634Y-16017174D01*
X9652634Y-16017174D02*
X9643111Y-16026698D01*
X9852634Y-16140984D02*
X9833587Y-16131460D01*
X9833587Y-16131460D02*
X9824063Y-16121936D01*
X9824063Y-16121936D02*
X9814539Y-16102888D01*
X9814539Y-16102888D02*
X9814539Y-16045746D01*
X9814539Y-16045746D02*
X9824063Y-16026698D01*
X9824063Y-16026698D02*
X9833587Y-16017174D01*
X9833587Y-16017174D02*
X9852634Y-16007650D01*
X9852634Y-16007650D02*
X9881206Y-16007650D01*
X9881206Y-16007650D02*
X9900253Y-16017174D01*
X9900253Y-16017174D02*
X9909777Y-16026698D01*
X9909777Y-16026698D02*
X9919301Y-16045746D01*
X9919301Y-16045746D02*
X9919301Y-16102888D01*
X9919301Y-16102888D02*
X9909777Y-16121936D01*
X9909777Y-16121936D02*
X9900253Y-16131460D01*
X9900253Y-16131460D02*
X9881206Y-16140984D01*
X9881206Y-16140984D02*
X9852634Y-16140984D01*
X10033587Y-16140984D02*
X10014539Y-16131460D01*
X10014539Y-16131460D02*
X10005015Y-16112412D01*
X10005015Y-16112412D02*
X10005015Y-15940984D01*
X10185968Y-16131460D02*
X10166920Y-16140984D01*
X10166920Y-16140984D02*
X10128825Y-16140984D01*
X10128825Y-16140984D02*
X10109777Y-16131460D01*
X10109777Y-16131460D02*
X10100253Y-16112412D01*
X10100253Y-16112412D02*
X10100253Y-16036222D01*
X10100253Y-16036222D02*
X10109777Y-16017174D01*
X10109777Y-16017174D02*
X10128825Y-16007650D01*
X10128825Y-16007650D02*
X10166920Y-16007650D01*
X10166920Y-16007650D02*
X10185968Y-16017174D01*
X10185968Y-16017174D02*
X10195492Y-16036222D01*
X10195492Y-16036222D02*
X10195492Y-16055269D01*
X10195492Y-16055269D02*
X10100253Y-16074317D01*
X10271682Y-16131460D02*
X10290730Y-16140984D01*
X10290730Y-16140984D02*
X10328825Y-16140984D01*
X10328825Y-16140984D02*
X10347873Y-16131460D01*
X10347873Y-16131460D02*
X10357396Y-16112412D01*
X10357396Y-16112412D02*
X10357396Y-16102888D01*
X10357396Y-16102888D02*
X10347873Y-16083841D01*
X10347873Y-16083841D02*
X10328825Y-16074317D01*
X10328825Y-16074317D02*
X10300253Y-16074317D01*
X10300253Y-16074317D02*
X10281206Y-16064793D01*
X10281206Y-16064793D02*
X10271682Y-16045746D01*
X10271682Y-16045746D02*
X10271682Y-16036222D01*
X10271682Y-16036222D02*
X10281206Y-16017174D01*
X10281206Y-16017174D02*
X10300253Y-16007650D01*
X10300253Y-16007650D02*
X10328825Y-16007650D01*
X10328825Y-16007650D02*
X10347873Y-16017174D01*
X10595492Y-16064793D02*
X10747873Y-16064793D01*
X10671682Y-16140984D02*
X10671682Y-15988603D01*
X10976444Y-15940984D02*
X11100254Y-15940984D01*
X11100254Y-15940984D02*
X11033587Y-16017174D01*
X11033587Y-16017174D02*
X11062158Y-16017174D01*
X11062158Y-16017174D02*
X11081206Y-16026698D01*
X11081206Y-16026698D02*
X11090730Y-16036222D01*
X11090730Y-16036222D02*
X11100254Y-16055269D01*
X11100254Y-16055269D02*
X11100254Y-16102888D01*
X11100254Y-16102888D02*
X11090730Y-16121936D01*
X11090730Y-16121936D02*
X11081206Y-16131460D01*
X11081206Y-16131460D02*
X11062158Y-16140984D01*
X11062158Y-16140984D02*
X11005015Y-16140984D01*
X11005015Y-16140984D02*
X10985968Y-16131460D01*
X10985968Y-16131460D02*
X10976444Y-16121936D01*
X11328825Y-16131460D02*
X11347873Y-16140984D01*
X11347873Y-16140984D02*
X11385968Y-16140984D01*
X11385968Y-16140984D02*
X11405015Y-16131460D01*
X11405015Y-16131460D02*
X11414539Y-16112412D01*
X11414539Y-16112412D02*
X11414539Y-16102888D01*
X11414539Y-16102888D02*
X11405015Y-16083841D01*
X11405015Y-16083841D02*
X11385968Y-16074317D01*
X11385968Y-16074317D02*
X11357396Y-16074317D01*
X11357396Y-16074317D02*
X11338349Y-16064793D01*
X11338349Y-16064793D02*
X11328825Y-16045746D01*
X11328825Y-16045746D02*
X11328825Y-16036222D01*
X11328825Y-16036222D02*
X11338349Y-16017174D01*
X11338349Y-16017174D02*
X11357396Y-16007650D01*
X11357396Y-16007650D02*
X11385968Y-16007650D01*
X11385968Y-16007650D02*
X11405015Y-16017174D01*
X11528825Y-16140984D02*
X11509777Y-16131460D01*
X11509777Y-16131460D02*
X11500254Y-16112412D01*
X11500254Y-16112412D02*
X11500254Y-15940984D01*
X11633587Y-16140984D02*
X11614539Y-16131460D01*
X11614539Y-16131460D02*
X11605015Y-16121936D01*
X11605015Y-16121936D02*
X11595492Y-16102888D01*
X11595492Y-16102888D02*
X11595492Y-16045746D01*
X11595492Y-16045746D02*
X11605015Y-16026698D01*
X11605015Y-16026698D02*
X11614539Y-16017174D01*
X11614539Y-16017174D02*
X11633587Y-16007650D01*
X11633587Y-16007650D02*
X11662158Y-16007650D01*
X11662158Y-16007650D02*
X11681206Y-16017174D01*
X11681206Y-16017174D02*
X11690730Y-16026698D01*
X11690730Y-16026698D02*
X11700254Y-16045746D01*
X11700254Y-16045746D02*
X11700254Y-16102888D01*
X11700254Y-16102888D02*
X11690730Y-16121936D01*
X11690730Y-16121936D02*
X11681206Y-16131460D01*
X11681206Y-16131460D02*
X11662158Y-16140984D01*
X11662158Y-16140984D02*
X11633587Y-16140984D01*
X11757396Y-16007650D02*
X11833587Y-16007650D01*
X11785968Y-15940984D02*
X11785968Y-16112412D01*
X11785968Y-16112412D02*
X11795492Y-16131460D01*
X11795492Y-16131460D02*
X11814539Y-16140984D01*
X11814539Y-16140984D02*
X11833587Y-16140984D01*
X11890730Y-16131460D02*
X11909777Y-16140984D01*
X11909777Y-16140984D02*
X11947873Y-16140984D01*
X11947873Y-16140984D02*
X11966920Y-16131460D01*
X11966920Y-16131460D02*
X11976444Y-16112412D01*
X11976444Y-16112412D02*
X11976444Y-16102888D01*
X11976444Y-16102888D02*
X11966920Y-16083841D01*
X11966920Y-16083841D02*
X11947873Y-16074317D01*
X11947873Y-16074317D02*
X11919301Y-16074317D01*
X11919301Y-16074317D02*
X11900254Y-16064793D01*
X11900254Y-16064793D02*
X11890730Y-16045746D01*
X11890730Y-16045746D02*
X11890730Y-16036222D01*
X11890730Y-16036222D02*
X11900254Y-16017174D01*
X11900254Y-16017174D02*
X11919301Y-16007650D01*
X11919301Y-16007650D02*
X11947873Y-16007650D01*
X11947873Y-16007650D02*
X11966920Y-16017174D01*
X12043111Y-16217174D02*
X12052635Y-16207650D01*
X12052635Y-16207650D02*
X12071682Y-16179079D01*
X12071682Y-16179079D02*
X12081206Y-16160031D01*
X12081206Y-16160031D02*
X12090730Y-16131460D01*
X12090730Y-16131460D02*
X12100254Y-16083841D01*
X12100254Y-16083841D02*
X12100254Y-16045746D01*
X12100254Y-16045746D02*
X12090730Y-15998127D01*
X12090730Y-15998127D02*
X12081206Y-15969555D01*
X12081206Y-15969555D02*
X12071682Y-15950508D01*
X12071682Y-15950508D02*
X12052635Y-15921936D01*
X12052635Y-15921936D02*
X12043111Y-15912412D01*
D17*
X5539000Y-16258500D02*
X5649000Y-16368500D01*
X5649000Y-16258500D02*
X5539000Y-16368500D01*
X5649000Y-16313500D02*
G75*
G03*
X5649000Y-16313500I-55000J0D01*
G01*
D11*
X6014539Y-16404984D02*
X5900253Y-16404984D01*
X5957396Y-16404984D02*
X5957396Y-16204984D01*
X5957396Y-16204984D02*
X5938348Y-16233555D01*
X5938348Y-16233555D02*
X5919301Y-16252603D01*
X5919301Y-16252603D02*
X5900253Y-16262127D01*
X6100253Y-16385936D02*
X6109777Y-16395460D01*
X6109777Y-16395460D02*
X6100253Y-16404984D01*
X6100253Y-16404984D02*
X6090729Y-16395460D01*
X6090729Y-16395460D02*
X6100253Y-16385936D01*
X6100253Y-16385936D02*
X6100253Y-16404984D01*
X6300253Y-16404984D02*
X6185967Y-16404984D01*
X6243110Y-16404984D02*
X6243110Y-16204984D01*
X6243110Y-16204984D02*
X6224062Y-16233555D01*
X6224062Y-16233555D02*
X6205015Y-16252603D01*
X6205015Y-16252603D02*
X6185967Y-16262127D01*
X6424062Y-16204984D02*
X6443110Y-16204984D01*
X6443110Y-16204984D02*
X6462158Y-16214508D01*
X6462158Y-16214508D02*
X6471682Y-16224031D01*
X6471682Y-16224031D02*
X6481205Y-16243079D01*
X6481205Y-16243079D02*
X6490729Y-16281174D01*
X6490729Y-16281174D02*
X6490729Y-16328793D01*
X6490729Y-16328793D02*
X6481205Y-16366888D01*
X6481205Y-16366888D02*
X6471682Y-16385936D01*
X6471682Y-16385936D02*
X6462158Y-16395460D01*
X6462158Y-16395460D02*
X6443110Y-16404984D01*
X6443110Y-16404984D02*
X6424062Y-16404984D01*
X6424062Y-16404984D02*
X6405015Y-16395460D01*
X6405015Y-16395460D02*
X6395491Y-16385936D01*
X6395491Y-16385936D02*
X6385967Y-16366888D01*
X6385967Y-16366888D02*
X6376443Y-16328793D01*
X6376443Y-16328793D02*
X6376443Y-16281174D01*
X6376443Y-16281174D02*
X6385967Y-16243079D01*
X6385967Y-16243079D02*
X6395491Y-16224031D01*
X6395491Y-16224031D02*
X6405015Y-16214508D01*
X6405015Y-16214508D02*
X6424062Y-16204984D01*
X6614539Y-16204984D02*
X6633586Y-16204984D01*
X6633586Y-16204984D02*
X6652634Y-16214508D01*
X6652634Y-16214508D02*
X6662158Y-16224031D01*
X6662158Y-16224031D02*
X6671682Y-16243079D01*
X6671682Y-16243079D02*
X6681205Y-16281174D01*
X6681205Y-16281174D02*
X6681205Y-16328793D01*
X6681205Y-16328793D02*
X6671682Y-16366888D01*
X6671682Y-16366888D02*
X6662158Y-16385936D01*
X6662158Y-16385936D02*
X6652634Y-16395460D01*
X6652634Y-16395460D02*
X6633586Y-16404984D01*
X6633586Y-16404984D02*
X6614539Y-16404984D01*
X6614539Y-16404984D02*
X6595491Y-16395460D01*
X6595491Y-16395460D02*
X6585967Y-16385936D01*
X6585967Y-16385936D02*
X6576443Y-16366888D01*
X6576443Y-16366888D02*
X6566920Y-16328793D01*
X6566920Y-16328793D02*
X6566920Y-16281174D01*
X6566920Y-16281174D02*
X6576443Y-16243079D01*
X6576443Y-16243079D02*
X6585967Y-16224031D01*
X6585967Y-16224031D02*
X6595491Y-16214508D01*
X6595491Y-16214508D02*
X6614539Y-16204984D01*
X6766920Y-16404984D02*
X6766920Y-16271650D01*
X6766920Y-16290698D02*
X6776443Y-16281174D01*
X6776443Y-16281174D02*
X6795491Y-16271650D01*
X6795491Y-16271650D02*
X6824063Y-16271650D01*
X6824063Y-16271650D02*
X6843110Y-16281174D01*
X6843110Y-16281174D02*
X6852634Y-16300222D01*
X6852634Y-16300222D02*
X6852634Y-16404984D01*
X6852634Y-16300222D02*
X6862158Y-16281174D01*
X6862158Y-16281174D02*
X6881205Y-16271650D01*
X6881205Y-16271650D02*
X6909777Y-16271650D01*
X6909777Y-16271650D02*
X6928824Y-16281174D01*
X6928824Y-16281174D02*
X6938348Y-16300222D01*
X6938348Y-16300222D02*
X6938348Y-16404984D01*
X7033586Y-16404984D02*
X7033586Y-16271650D01*
X7033586Y-16290698D02*
X7043110Y-16281174D01*
X7043110Y-16281174D02*
X7062158Y-16271650D01*
X7062158Y-16271650D02*
X7090729Y-16271650D01*
X7090729Y-16271650D02*
X7109777Y-16281174D01*
X7109777Y-16281174D02*
X7119301Y-16300222D01*
X7119301Y-16300222D02*
X7119301Y-16404984D01*
X7119301Y-16300222D02*
X7128824Y-16281174D01*
X7128824Y-16281174D02*
X7147872Y-16271650D01*
X7147872Y-16271650D02*
X7176443Y-16271650D01*
X7176443Y-16271650D02*
X7195491Y-16281174D01*
X7195491Y-16281174D02*
X7205015Y-16300222D01*
X7205015Y-16300222D02*
X7205015Y-16404984D01*
X7595491Y-16195460D02*
X7424063Y-16452603D01*
X7852634Y-16204984D02*
X7871682Y-16204984D01*
X7871682Y-16204984D02*
X7890729Y-16214508D01*
X7890729Y-16214508D02*
X7900253Y-16224031D01*
X7900253Y-16224031D02*
X7909777Y-16243079D01*
X7909777Y-16243079D02*
X7919301Y-16281174D01*
X7919301Y-16281174D02*
X7919301Y-16328793D01*
X7919301Y-16328793D02*
X7909777Y-16366888D01*
X7909777Y-16366888D02*
X7900253Y-16385936D01*
X7900253Y-16385936D02*
X7890729Y-16395460D01*
X7890729Y-16395460D02*
X7871682Y-16404984D01*
X7871682Y-16404984D02*
X7852634Y-16404984D01*
X7852634Y-16404984D02*
X7833586Y-16395460D01*
X7833586Y-16395460D02*
X7824063Y-16385936D01*
X7824063Y-16385936D02*
X7814539Y-16366888D01*
X7814539Y-16366888D02*
X7805015Y-16328793D01*
X7805015Y-16328793D02*
X7805015Y-16281174D01*
X7805015Y-16281174D02*
X7814539Y-16243079D01*
X7814539Y-16243079D02*
X7824063Y-16224031D01*
X7824063Y-16224031D02*
X7833586Y-16214508D01*
X7833586Y-16214508D02*
X7852634Y-16204984D01*
X8005015Y-16385936D02*
X8014539Y-16395460D01*
X8014539Y-16395460D02*
X8005015Y-16404984D01*
X8005015Y-16404984D02*
X7995491Y-16395460D01*
X7995491Y-16395460D02*
X8005015Y-16385936D01*
X8005015Y-16385936D02*
X8005015Y-16404984D01*
X8138348Y-16204984D02*
X8157396Y-16204984D01*
X8157396Y-16204984D02*
X8176444Y-16214508D01*
X8176444Y-16214508D02*
X8185967Y-16224031D01*
X8185967Y-16224031D02*
X8195491Y-16243079D01*
X8195491Y-16243079D02*
X8205015Y-16281174D01*
X8205015Y-16281174D02*
X8205015Y-16328793D01*
X8205015Y-16328793D02*
X8195491Y-16366888D01*
X8195491Y-16366888D02*
X8185967Y-16385936D01*
X8185967Y-16385936D02*
X8176444Y-16395460D01*
X8176444Y-16395460D02*
X8157396Y-16404984D01*
X8157396Y-16404984D02*
X8138348Y-16404984D01*
X8138348Y-16404984D02*
X8119301Y-16395460D01*
X8119301Y-16395460D02*
X8109777Y-16385936D01*
X8109777Y-16385936D02*
X8100253Y-16366888D01*
X8100253Y-16366888D02*
X8090729Y-16328793D01*
X8090729Y-16328793D02*
X8090729Y-16281174D01*
X8090729Y-16281174D02*
X8100253Y-16243079D01*
X8100253Y-16243079D02*
X8109777Y-16224031D01*
X8109777Y-16224031D02*
X8119301Y-16214508D01*
X8119301Y-16214508D02*
X8138348Y-16204984D01*
X8376444Y-16271650D02*
X8376444Y-16404984D01*
X8328825Y-16195460D02*
X8281206Y-16338317D01*
X8281206Y-16338317D02*
X8405015Y-16338317D01*
X8462158Y-16204984D02*
X8585968Y-16204984D01*
X8585968Y-16204984D02*
X8519301Y-16281174D01*
X8519301Y-16281174D02*
X8547872Y-16281174D01*
X8547872Y-16281174D02*
X8566920Y-16290698D01*
X8566920Y-16290698D02*
X8576444Y-16300222D01*
X8576444Y-16300222D02*
X8585968Y-16319269D01*
X8585968Y-16319269D02*
X8585968Y-16366888D01*
X8585968Y-16366888D02*
X8576444Y-16385936D01*
X8576444Y-16385936D02*
X8566920Y-16395460D01*
X8566920Y-16395460D02*
X8547872Y-16404984D01*
X8547872Y-16404984D02*
X8490729Y-16404984D01*
X8490729Y-16404984D02*
X8471682Y-16395460D01*
X8471682Y-16395460D02*
X8462158Y-16385936D01*
X8652634Y-16204984D02*
X8776444Y-16204984D01*
X8776444Y-16204984D02*
X8709777Y-16281174D01*
X8709777Y-16281174D02*
X8738349Y-16281174D01*
X8738349Y-16281174D02*
X8757396Y-16290698D01*
X8757396Y-16290698D02*
X8766920Y-16300222D01*
X8766920Y-16300222D02*
X8776444Y-16319269D01*
X8776444Y-16319269D02*
X8776444Y-16366888D01*
X8776444Y-16366888D02*
X8766920Y-16385936D01*
X8766920Y-16385936D02*
X8757396Y-16395460D01*
X8757396Y-16395460D02*
X8738349Y-16404984D01*
X8738349Y-16404984D02*
X8681206Y-16404984D01*
X8681206Y-16404984D02*
X8662158Y-16395460D01*
X8662158Y-16395460D02*
X8652634Y-16385936D01*
X8852634Y-16204984D02*
X8852634Y-16243079D01*
X8928825Y-16204984D02*
X8928825Y-16243079D01*
X9224063Y-16481174D02*
X9214539Y-16471650D01*
X9214539Y-16471650D02*
X9195491Y-16443079D01*
X9195491Y-16443079D02*
X9185968Y-16424031D01*
X9185968Y-16424031D02*
X9176444Y-16395460D01*
X9176444Y-16395460D02*
X9166920Y-16347841D01*
X9166920Y-16347841D02*
X9166920Y-16309746D01*
X9166920Y-16309746D02*
X9176444Y-16262127D01*
X9176444Y-16262127D02*
X9185968Y-16233555D01*
X9185968Y-16233555D02*
X9195491Y-16214508D01*
X9195491Y-16214508D02*
X9214539Y-16185936D01*
X9214539Y-16185936D02*
X9224063Y-16176412D01*
X9290730Y-16224031D02*
X9300253Y-16214508D01*
X9300253Y-16214508D02*
X9319301Y-16204984D01*
X9319301Y-16204984D02*
X9366920Y-16204984D01*
X9366920Y-16204984D02*
X9385968Y-16214508D01*
X9385968Y-16214508D02*
X9395491Y-16224031D01*
X9395491Y-16224031D02*
X9405015Y-16243079D01*
X9405015Y-16243079D02*
X9405015Y-16262127D01*
X9405015Y-16262127D02*
X9395491Y-16290698D01*
X9395491Y-16290698D02*
X9281206Y-16404984D01*
X9281206Y-16404984D02*
X9405015Y-16404984D01*
X9643111Y-16404984D02*
X9643111Y-16204984D01*
X9728825Y-16404984D02*
X9728825Y-16300222D01*
X9728825Y-16300222D02*
X9719301Y-16281174D01*
X9719301Y-16281174D02*
X9700253Y-16271650D01*
X9700253Y-16271650D02*
X9671682Y-16271650D01*
X9671682Y-16271650D02*
X9652634Y-16281174D01*
X9652634Y-16281174D02*
X9643111Y-16290698D01*
X9852634Y-16404984D02*
X9833587Y-16395460D01*
X9833587Y-16395460D02*
X9824063Y-16385936D01*
X9824063Y-16385936D02*
X9814539Y-16366888D01*
X9814539Y-16366888D02*
X9814539Y-16309746D01*
X9814539Y-16309746D02*
X9824063Y-16290698D01*
X9824063Y-16290698D02*
X9833587Y-16281174D01*
X9833587Y-16281174D02*
X9852634Y-16271650D01*
X9852634Y-16271650D02*
X9881206Y-16271650D01*
X9881206Y-16271650D02*
X9900253Y-16281174D01*
X9900253Y-16281174D02*
X9909777Y-16290698D01*
X9909777Y-16290698D02*
X9919301Y-16309746D01*
X9919301Y-16309746D02*
X9919301Y-16366888D01*
X9919301Y-16366888D02*
X9909777Y-16385936D01*
X9909777Y-16385936D02*
X9900253Y-16395460D01*
X9900253Y-16395460D02*
X9881206Y-16404984D01*
X9881206Y-16404984D02*
X9852634Y-16404984D01*
X10033587Y-16404984D02*
X10014539Y-16395460D01*
X10014539Y-16395460D02*
X10005015Y-16376412D01*
X10005015Y-16376412D02*
X10005015Y-16204984D01*
X10185968Y-16395460D02*
X10166920Y-16404984D01*
X10166920Y-16404984D02*
X10128825Y-16404984D01*
X10128825Y-16404984D02*
X10109777Y-16395460D01*
X10109777Y-16395460D02*
X10100253Y-16376412D01*
X10100253Y-16376412D02*
X10100253Y-16300222D01*
X10100253Y-16300222D02*
X10109777Y-16281174D01*
X10109777Y-16281174D02*
X10128825Y-16271650D01*
X10128825Y-16271650D02*
X10166920Y-16271650D01*
X10166920Y-16271650D02*
X10185968Y-16281174D01*
X10185968Y-16281174D02*
X10195492Y-16300222D01*
X10195492Y-16300222D02*
X10195492Y-16319269D01*
X10195492Y-16319269D02*
X10100253Y-16338317D01*
X10271682Y-16395460D02*
X10290730Y-16404984D01*
X10290730Y-16404984D02*
X10328825Y-16404984D01*
X10328825Y-16404984D02*
X10347873Y-16395460D01*
X10347873Y-16395460D02*
X10357396Y-16376412D01*
X10357396Y-16376412D02*
X10357396Y-16366888D01*
X10357396Y-16366888D02*
X10347873Y-16347841D01*
X10347873Y-16347841D02*
X10328825Y-16338317D01*
X10328825Y-16338317D02*
X10300253Y-16338317D01*
X10300253Y-16338317D02*
X10281206Y-16328793D01*
X10281206Y-16328793D02*
X10271682Y-16309746D01*
X10271682Y-16309746D02*
X10271682Y-16300222D01*
X10271682Y-16300222D02*
X10281206Y-16281174D01*
X10281206Y-16281174D02*
X10300253Y-16271650D01*
X10300253Y-16271650D02*
X10328825Y-16271650D01*
X10328825Y-16271650D02*
X10347873Y-16281174D01*
X10424063Y-16481174D02*
X10433587Y-16471650D01*
X10433587Y-16471650D02*
X10452634Y-16443079D01*
X10452634Y-16443079D02*
X10462158Y-16424031D01*
X10462158Y-16424031D02*
X10471682Y-16395460D01*
X10471682Y-16395460D02*
X10481206Y-16347841D01*
X10481206Y-16347841D02*
X10481206Y-16309746D01*
X10481206Y-16309746D02*
X10471682Y-16262127D01*
X10471682Y-16262127D02*
X10462158Y-16233555D01*
X10462158Y-16233555D02*
X10452634Y-16214508D01*
X10452634Y-16214508D02*
X10433587Y-16185936D01*
X10433587Y-16185936D02*
X10424063Y-16176412D01*
M02*
