%TF.GenerationSoftware,KiCad,Pcbnew,8.0.3*%
%TF.CreationDate,2024-06-18T14:48:34-07:00*%
%TF.ProjectId,WonrderTANG,576f6e72-6465-4725-9441-4e472e6b6963,rev?*%
%TF.SameCoordinates,Original*%
%TF.FileFunction,Soldermask,Bot*%
%TF.FilePolarity,Negative*%
%FSLAX46Y46*%
G04 Gerber Fmt 4.6, Leading zero omitted, Abs format (unit mm)*
G04 Created by KiCad (PCBNEW 8.0.3) date 2024-06-18 14:48:34*
%MOMM*%
%LPD*%
G01*
G04 APERTURE LIST*
%ADD10C,1.600000*%
%ADD11R,1.600000X1.600000*%
%ADD12R,2.200000X2.200000*%
%ADD13O,2.200000X2.200000*%
%ADD14R,2.400000X1.600000*%
%ADD15O,2.400000X1.600000*%
%ADD16O,1.600000X1.600000*%
%ADD17R,1.700000X1.700000*%
%ADD18O,1.700000X1.700000*%
%ADD19C,1.200000*%
%ADD20O,1.200000X2.200000*%
%ADD21O,2.200000X1.200000*%
%ADD22C,4.900000*%
%ADD23R,1.270000X7.620000*%
%ADD24R,1.500000X1.500000*%
%ADD25C,1.500000*%
%ADD26R,1.600000X2.400000*%
%ADD27O,1.600000X2.400000*%
%ADD28R,1.800000X1.800000*%
%ADD29C,1.800000*%
G04 APERTURE END LIST*
D10*
%TO.C,C6*%
X106710000Y-74265000D03*
X104210000Y-74265000D03*
%TD*%
D11*
%TO.C,C1*%
X92242000Y-111760000D03*
D10*
X94742000Y-111760000D03*
%TD*%
D12*
%TO.C,D2*%
X109055000Y-67665000D03*
D13*
X98895000Y-67665000D03*
%TD*%
D10*
%TO.C,C8*%
X81935000Y-67310000D03*
X79435000Y-67310000D03*
%TD*%
%TO.C,C11*%
X89525000Y-74265000D03*
X87025000Y-74265000D03*
%TD*%
%TO.C,C5*%
X88920000Y-67310000D03*
X91420000Y-67310000D03*
%TD*%
D14*
%TO.C,U1*%
X101630000Y-79345000D03*
D15*
X101630000Y-81885000D03*
X101630000Y-84425000D03*
X101630000Y-86965000D03*
X101630000Y-89505000D03*
X101630000Y-92045000D03*
X101630000Y-94585000D03*
X101630000Y-97125000D03*
X101630000Y-99665000D03*
X101630000Y-102205000D03*
X109250000Y-102205000D03*
X109250000Y-99665000D03*
X109250000Y-97125000D03*
X109250000Y-94585000D03*
X109250000Y-92045000D03*
X109250000Y-89505000D03*
X109250000Y-86965000D03*
X109250000Y-84425000D03*
X109250000Y-81885000D03*
X109250000Y-79345000D03*
%TD*%
D10*
%TO.C,R5*%
X166116000Y-92710000D03*
D16*
X176276000Y-92710000D03*
%TD*%
D17*
%TO.C,J3*%
X107696000Y-48514000D03*
D18*
X110236000Y-48514000D03*
%TD*%
D10*
%TO.C,R1*%
X138540000Y-67310000D03*
D16*
X148700000Y-67310000D03*
%TD*%
D19*
%TO.C,J2*%
X177165000Y-68500000D03*
X177165000Y-66000000D03*
X172165000Y-73500000D03*
X167165000Y-68500000D03*
X167165000Y-66000000D03*
D20*
X177165000Y-73500000D03*
D21*
X172165000Y-68500000D03*
D20*
X167165000Y-73500000D03*
%TD*%
D22*
%TO.C,CON1*%
X103980000Y-107860000D03*
X160180000Y-112960000D03*
D23*
X162560000Y-125095000D03*
X160020000Y-125095000D03*
X157480000Y-125095000D03*
X154940000Y-125095000D03*
X152400000Y-125095000D03*
X149860000Y-125095000D03*
X147320000Y-125095000D03*
X144780000Y-125095000D03*
X142240000Y-125095000D03*
X139700000Y-125095000D03*
X137160000Y-125095000D03*
X134620000Y-125095000D03*
X132080000Y-125095000D03*
X129540000Y-125095000D03*
X127000000Y-125095000D03*
X124460000Y-125095000D03*
X121920000Y-125095000D03*
X119380000Y-125095000D03*
X116840000Y-125095000D03*
X114300000Y-125095000D03*
X111760000Y-125095000D03*
X109220000Y-125095000D03*
X106680000Y-125095000D03*
X104140000Y-125095000D03*
X101600000Y-125095000D03*
%TD*%
D11*
%TO.C,C13*%
X116840000Y-66608900D03*
D10*
X116840000Y-68608900D03*
%TD*%
D24*
%TO.C,Q2*%
X170836000Y-110236000D03*
D25*
X170836000Y-112776000D03*
X170836000Y-115316000D03*
%TD*%
D14*
%TO.C,U6*%
X136555000Y-79345000D03*
D15*
X136555000Y-81885000D03*
X136555000Y-84425000D03*
X136555000Y-86965000D03*
X136555000Y-89505000D03*
X136555000Y-92045000D03*
X136555000Y-94585000D03*
X136555000Y-97125000D03*
X136555000Y-99665000D03*
X136555000Y-102205000D03*
X144175000Y-102205000D03*
X144175000Y-99665000D03*
X144175000Y-97125000D03*
X144175000Y-94585000D03*
X144175000Y-92045000D03*
X144175000Y-89505000D03*
X144175000Y-86965000D03*
X144175000Y-84425000D03*
X144175000Y-81885000D03*
X144175000Y-79345000D03*
%TD*%
D10*
%TO.C,R4*%
X176276000Y-87884000D03*
D16*
X166116000Y-87884000D03*
%TD*%
D14*
%TO.C,U2*%
X153700000Y-79345000D03*
D15*
X153700000Y-81885000D03*
X153700000Y-84425000D03*
X153700000Y-86965000D03*
X153700000Y-89505000D03*
X153700000Y-92045000D03*
X153700000Y-94585000D03*
X153700000Y-97125000D03*
X153700000Y-99665000D03*
X153700000Y-102205000D03*
X161320000Y-102205000D03*
X161320000Y-99665000D03*
X161320000Y-97125000D03*
X161320000Y-94585000D03*
X161320000Y-92045000D03*
X161320000Y-89505000D03*
X161320000Y-86965000D03*
X161320000Y-84425000D03*
X161320000Y-81885000D03*
X161320000Y-79345000D03*
%TD*%
D26*
%TO.C,U5*%
X126365000Y-41245000D03*
D27*
X123825000Y-41245000D03*
X121285000Y-41245000D03*
X118745000Y-41245000D03*
X116205000Y-41245000D03*
X113665000Y-41245000D03*
X111125000Y-41245000D03*
X108585000Y-41245000D03*
X106045000Y-41245000D03*
X103505000Y-41245000D03*
X100965000Y-41245000D03*
X98425000Y-41245000D03*
X95885000Y-41245000D03*
X93345000Y-41245000D03*
X90805000Y-41245000D03*
X88265000Y-41245000D03*
X85725000Y-41245000D03*
X83185000Y-41245000D03*
X80645000Y-41245000D03*
X78105000Y-41245000D03*
X78105000Y-61565000D03*
X80645000Y-61565000D03*
X83185000Y-61565000D03*
X85725000Y-61565000D03*
X88265000Y-61565000D03*
X90805000Y-61565000D03*
X93345000Y-61565000D03*
X95885000Y-61565000D03*
X98425000Y-61565000D03*
X103505000Y-61565000D03*
X113665000Y-61565000D03*
X116205000Y-61565000D03*
X118745000Y-61565000D03*
X121285000Y-61565000D03*
X123825000Y-61565000D03*
X126365000Y-61565000D03*
%TD*%
D10*
%TO.C,C7*%
X123855000Y-74265000D03*
X121355000Y-74265000D03*
%TD*%
%TO.C,C10*%
X141635000Y-74265000D03*
X139135000Y-74265000D03*
%TD*%
%TO.C,C9*%
X158780000Y-74265000D03*
X156280000Y-74265000D03*
%TD*%
D28*
%TO.C,D1*%
X159385000Y-67310000D03*
D29*
X156845000Y-67310000D03*
%TD*%
D10*
%TO.C,C12*%
X126492000Y-67310000D03*
X123992000Y-67310000D03*
%TD*%
D14*
%TO.C,U4*%
X84485000Y-79345000D03*
D15*
X84485000Y-81885000D03*
X84485000Y-84425000D03*
X84485000Y-86965000D03*
X84485000Y-89505000D03*
X84485000Y-92045000D03*
X84485000Y-94585000D03*
X84485000Y-97125000D03*
X84485000Y-99665000D03*
X84485000Y-102205000D03*
X92105000Y-102205000D03*
X92105000Y-99665000D03*
X92105000Y-97125000D03*
X92105000Y-94585000D03*
X92105000Y-92045000D03*
X92105000Y-89505000D03*
X92105000Y-86965000D03*
X92105000Y-84425000D03*
X92105000Y-81885000D03*
X92105000Y-79345000D03*
%TD*%
D14*
%TO.C,U3*%
X118775000Y-79345000D03*
D15*
X118775000Y-81885000D03*
X118775000Y-84425000D03*
X118775000Y-86965000D03*
X118775000Y-89505000D03*
X118775000Y-92045000D03*
X118775000Y-94585000D03*
X118775000Y-97125000D03*
X118775000Y-99665000D03*
X118775000Y-102205000D03*
X126395000Y-102205000D03*
X126395000Y-99665000D03*
X126395000Y-97125000D03*
X126395000Y-94585000D03*
X126395000Y-92045000D03*
X126395000Y-89505000D03*
X126395000Y-86965000D03*
X126395000Y-84425000D03*
X126395000Y-81885000D03*
X126395000Y-79345000D03*
%TD*%
D11*
%TO.C,C2*%
X170244900Y-82042000D03*
D10*
X172744900Y-82042000D03*
%TD*%
D24*
%TO.C,Q1*%
X170836000Y-101346000D03*
D25*
X170836000Y-103886000D03*
X170836000Y-106426000D03*
%TD*%
D10*
%TO.C,R6*%
X166116000Y-97536000D03*
D16*
X176276000Y-97536000D03*
%TD*%
M02*
