%TF.GenerationSoftware,KiCad,Pcbnew,7.0.7*%
%TF.CreationDate,2023-09-28T21:36:31-07:00*%
%TF.ProjectId,WonrderTANG,576f6e72-6465-4725-9441-4e472e6b6963,rev?*%
%TF.SameCoordinates,Original*%
%TF.FileFunction,Copper,L2,Bot*%
%TF.FilePolarity,Positive*%
%FSLAX46Y46*%
G04 Gerber Fmt 4.6, Leading zero omitted, Abs format (unit mm)*
G04 Created by KiCad (PCBNEW 7.0.7) date 2023-09-28 21:36:31*
%MOMM*%
%LPD*%
G01*
G04 APERTURE LIST*
%TA.AperFunction,ComponentPad*%
%ADD10C,1.600000*%
%TD*%
%TA.AperFunction,ComponentPad*%
%ADD11R,2.200000X2.200000*%
%TD*%
%TA.AperFunction,ComponentPad*%
%ADD12O,2.200000X2.200000*%
%TD*%
%TA.AperFunction,ComponentPad*%
%ADD13R,2.400000X1.600000*%
%TD*%
%TA.AperFunction,ComponentPad*%
%ADD14O,2.400000X1.600000*%
%TD*%
%TA.AperFunction,ComponentPad*%
%ADD15C,1.400000*%
%TD*%
%TA.AperFunction,ComponentPad*%
%ADD16O,1.400000X1.400000*%
%TD*%
%TA.AperFunction,ComponentPad*%
%ADD17O,2.800000X1.800000*%
%TD*%
%TA.AperFunction,SMDPad,CuDef*%
%ADD18R,1.270000X7.620000*%
%TD*%
%TA.AperFunction,ComponentPad*%
%ADD19R,1.600000X2.400000*%
%TD*%
%TA.AperFunction,ComponentPad*%
%ADD20O,1.600000X2.400000*%
%TD*%
%TA.AperFunction,ComponentPad*%
%ADD21R,1.600000X1.600000*%
%TD*%
%TA.AperFunction,ComponentPad*%
%ADD22R,1.800000X1.800000*%
%TD*%
%TA.AperFunction,ComponentPad*%
%ADD23C,1.800000*%
%TD*%
%TA.AperFunction,ComponentPad*%
%ADD24R,1.700000X1.700000*%
%TD*%
%TA.AperFunction,ComponentPad*%
%ADD25O,1.700000X1.700000*%
%TD*%
%TA.AperFunction,ViaPad*%
%ADD26C,0.787400*%
%TD*%
%TA.AperFunction,Conductor*%
%ADD27C,0.304800*%
%TD*%
%TA.AperFunction,Conductor*%
%ADD28C,0.203200*%
%TD*%
G04 APERTURE END LIST*
D10*
%TO.P,C12,1*%
%TO.N,+5V*%
X147915000Y-115570000D03*
%TO.P,C12,2*%
%TO.N,GND*%
X145415000Y-115570000D03*
%TD*%
%TO.P,C6,1*%
%TO.N,+3.3V*%
X73660000Y-87630000D03*
%TO.P,C6,2*%
%TO.N,GND*%
X71160000Y-87630000D03*
%TD*%
D11*
%TO.P,D2,1,K*%
%TO.N,+5V*%
X99060000Y-81788000D03*
D12*
%TO.P,D2,2,A*%
%TO.N,Net-(CON1-5V@1)*%
X88900000Y-81788000D03*
%TD*%
D10*
%TO.P,C8,1*%
%TO.N,+3.3V*%
X60960000Y-81788000D03*
%TO.P,C8,2*%
%TO.N,GND*%
X58460000Y-81788000D03*
%TD*%
%TO.P,C11,1*%
%TO.N,+5V*%
X105390000Y-81788000D03*
%TO.P,C11,2*%
%TO.N,GND*%
X102890000Y-81788000D03*
%TD*%
%TO.P,C5,1*%
%TO.N,+3.3V*%
X71120000Y-81788000D03*
%TO.P,C5,2*%
%TO.N,GND*%
X73620000Y-81788000D03*
%TD*%
%TO.P,C3,1*%
%TO.N,Net-(U4-+)*%
X147788000Y-125476000D03*
%TO.P,C3,2*%
%TO.N,GND*%
X145288000Y-125476000D03*
%TD*%
%TO.P,C1,1*%
%TO.N,SOUND_33*%
X147915000Y-120650000D03*
%TO.P,C1,2*%
%TO.N,Net-(C1-Pad2)*%
X145415000Y-120650000D03*
%TD*%
D13*
%TO.P,U1,1,A->B*%
%TO.N,+3.3V*%
X68580000Y-92710000D03*
D14*
%TO.P,U1,2,A0*%
%TO.N,A0*%
X68580000Y-95250000D03*
%TO.P,U1,3,A1*%
%TO.N,A1*%
X68580000Y-97790000D03*
%TO.P,U1,4,A2*%
%TO.N,A2*%
X68580000Y-100330000D03*
%TO.P,U1,5,A3*%
%TO.N,A3*%
X68580000Y-102870000D03*
%TO.P,U1,6,A4*%
%TO.N,A4*%
X68580000Y-105410000D03*
%TO.P,U1,7,A5*%
%TO.N,A5*%
X68580000Y-107950000D03*
%TO.P,U1,8,A6*%
%TO.N,A6*%
X68580000Y-110490000D03*
%TO.P,U1,9,A7*%
%TO.N,A7*%
X68580000Y-113030000D03*
%TO.P,U1,10,GND*%
%TO.N,GND*%
X68580000Y-115570000D03*
%TO.P,U1,11,B7*%
%TO.N,MP7_33*%
X76200000Y-115570000D03*
%TO.P,U1,12,B6*%
%TO.N,MP6_33*%
X76200000Y-113030000D03*
%TO.P,U1,13,B5*%
%TO.N,MP5_33*%
X76200000Y-110490000D03*
%TO.P,U1,14,B4*%
%TO.N,MP4_33*%
X76200000Y-107950000D03*
%TO.P,U1,15,B3*%
%TO.N,MP3_33*%
X76200000Y-105410000D03*
%TO.P,U1,16,B2*%
%TO.N,MP2_33*%
X76200000Y-102870000D03*
%TO.P,U1,17,B1*%
%TO.N,MP1_33*%
X76200000Y-100330000D03*
%TO.P,U1,18,B0*%
%TO.N,MP0_33*%
X76200000Y-97790000D03*
%TO.P,U1,19,CE*%
%TO.N,MSEL0_33*%
X76200000Y-95250000D03*
%TO.P,U1,20,VCC*%
%TO.N,+3.3V*%
X76200000Y-92710000D03*
%TD*%
D15*
%TO.P,R1,1*%
%TO.N,LED*%
X142240000Y-86106000D03*
D16*
%TO.P,R1,2*%
%TO.N,Net-(D1-A)*%
X147320000Y-86106000D03*
%TD*%
D17*
%TO.P,J2,R*%
%TO.N,SOUNDOUT*%
X155575000Y-87630000D03*
%TO.P,J2,S*%
X153575000Y-79730000D03*
%TO.P,J2,T*%
%TO.N,GND*%
X155575000Y-82130000D03*
%TD*%
D18*
%TO.P,CON1,1,~{CS1}*%
%TO.N,CS1*%
X142240000Y-139700000D03*
%TO.P,CON1,3,~{CS12}*%
%TO.N,CS12*%
X139700000Y-139700000D03*
%TO.P,CON1,5,RSV@1*%
%TO.N,unconnected-(CON1-RSV@1-Pad5)*%
X137160000Y-139700000D03*
%TO.P,CON1,7,/WAIT*%
%TO.N,WAIT*%
X134620000Y-139700000D03*
%TO.P,CON1,9,M1*%
%TO.N,M1*%
X132080000Y-139700000D03*
%TO.P,CON1,11,~{IORQ}*%
%TO.N,IORQ*%
X129540000Y-139700000D03*
%TO.P,CON1,13,~{WR}*%
%TO.N,WR*%
X127000000Y-139700000D03*
%TO.P,CON1,15,~{RESET}*%
%TO.N,RESET*%
X124460000Y-139700000D03*
%TO.P,CON1,17,A9*%
%TO.N,A9*%
X121920000Y-139700000D03*
%TO.P,CON1,19,A11*%
%TO.N,A11*%
X119380000Y-139700000D03*
%TO.P,CON1,21,A7*%
%TO.N,A7*%
X116840000Y-139700000D03*
%TO.P,CON1,23,A12*%
%TO.N,A12*%
X114300000Y-139700000D03*
%TO.P,CON1,25,A14*%
%TO.N,A14*%
X111760000Y-139700000D03*
%TO.P,CON1,27,A1*%
%TO.N,A1*%
X109220000Y-139700000D03*
%TO.P,CON1,29,A3*%
%TO.N,A3*%
X106680000Y-139700000D03*
%TO.P,CON1,31,A5*%
%TO.N,A5*%
X104140000Y-139700000D03*
%TO.P,CON1,33,D1*%
%TO.N,D1*%
X101600000Y-139700000D03*
%TO.P,CON1,35,D3*%
%TO.N,D3*%
X99060000Y-139700000D03*
%TO.P,CON1,37,D5*%
%TO.N,D5*%
X96520000Y-139700000D03*
%TO.P,CON1,39,D7*%
%TO.N,D7*%
X93980000Y-139700000D03*
%TO.P,CON1,41,GND@1*%
%TO.N,GND*%
X91440000Y-139700000D03*
%TO.P,CON1,43,GND@2*%
X88900000Y-139700000D03*
%TO.P,CON1,45,5V@1*%
%TO.N,Net-(CON1-5V@1)*%
X86360000Y-139700000D03*
%TO.P,CON1,47,5V@2*%
X83820000Y-139700000D03*
%TO.P,CON1,49,SOUNDIN*%
%TO.N,SOUNDIN*%
X81280000Y-139700000D03*
%TD*%
D15*
%TO.P,R2,1*%
%TO.N,SOUND_33*%
X150622000Y-115570000D03*
D16*
%TO.P,R2,2*%
%TO.N,Net-(C1-Pad2)*%
X155702000Y-115570000D03*
%TD*%
D19*
%TO.P,U6,1,73_IOT40A*%
%TO.N,INT_33*%
X106045000Y-55880000D03*
D20*
%TO.P,U6,2,74_IOT34B*%
%TO.N,BUSDIR_33*%
X103505000Y-55880000D03*
%TO.P,U6,3,75_IOT34A*%
%TO.N,unconnected-(U6-75_IOT34A-Pad3)*%
X100965000Y-55880000D03*
%TO.P,U6,4,85_IOT4B*%
%TO.N,unconnected-(U6-85_IOT4B-Pad4)*%
X98425000Y-55880000D03*
%TO.P,U6,5,77_IOT30A*%
%TO.N,MP0_33*%
X95885000Y-55880000D03*
%TO.P,U6,6,15_IOL47A_LED0*%
%TO.N,RD_33*%
X93345000Y-55880000D03*
%TO.P,U6,7,16_IOL47B_LED1*%
%TO.N,WR_33*%
X90805000Y-55880000D03*
%TO.P,U6,8,27_IOB8A*%
%TO.N,MP1_33*%
X88265000Y-55880000D03*
%TO.P,U6,9,28_IOB8B*%
%TO.N,MP2_33*%
X85725000Y-55880000D03*
%TO.P,U6,10,25_IOB6A*%
%TO.N,MP3_33*%
X83185000Y-55880000D03*
%TO.P,U6,11,26_IOB6B*%
%TO.N,MP4_33*%
X80645000Y-55880000D03*
%TO.P,U6,12,29_IOB14A*%
%TO.N,MP5_33*%
X78105000Y-55880000D03*
%TO.P,U6,13,30_IOB14B*%
%TO.N,MP6_33*%
X75565000Y-55880000D03*
%TO.P,U6,14,31_IOB29A*%
%TO.N,MP7_33*%
X73025000Y-55880000D03*
%TO.P,U6,15,17_IOL49A_LED2*%
%TO.N,MSEL0_33*%
X70485000Y-55880000D03*
%TO.P,U6,16,20_IOL51B_LED5*%
%TO.N,MSEL1_33*%
X67945000Y-55880000D03*
%TO.P,U6,17,19_IOL51A_LED4*%
%TO.N,MSEL2_33*%
X65405000Y-55880000D03*
%TO.P,U6,18,18_IOL49B_LED3*%
%TO.N,SLTSL_33*%
X62865000Y-55880000D03*
%TO.P,U6,19,3V3*%
%TO.N,+3.3V*%
X60325000Y-55880000D03*
%TO.P,U6,20,GND*%
%TO.N,GND*%
X57785000Y-55880000D03*
%TO.P,U6,21,52_IOR39A*%
%TO.N,DATADIR*%
X57785000Y-76200000D03*
%TO.P,U6,22,53_IOR38B*%
%TO.N,JP0*%
X60325000Y-76200000D03*
%TO.P,U6,23,71_IOT44A*%
%TO.N,D5_33*%
X62865000Y-76200000D03*
%TO.P,U6,24,72_IOT40B*%
%TO.N,D4_33*%
X65405000Y-76200000D03*
%TO.P,U6,25,3V3*%
%TO.N,+3.3V*%
X67945000Y-76200000D03*
%TO.P,U6,26,GND*%
%TO.N,GND*%
X70485000Y-76200000D03*
%TO.P,U6,27,79_IOT27B*%
%TO.N,D3_33*%
X73025000Y-76200000D03*
%TO.P,U6,28,86_IOT4A*%
%TO.N,LED*%
X75565000Y-76200000D03*
%TO.P,U6,29,49_IOR49A*%
%TO.N,SOUND_33*%
X78105000Y-76200000D03*
%TO.P,U6,30,55_IOR36B*%
%TO.N,D7_33*%
X80645000Y-76200000D03*
%TO.P,U6,31,48_IOR49B*%
%TO.N,D0_33*%
X83185000Y-76200000D03*
%TO.P,U6,32,51_IOR45A*%
%TO.N,D6_33*%
X85725000Y-76200000D03*
%TO.P,U6,33,54_IOR38A*%
%TO.N,D2_33*%
X88265000Y-76200000D03*
%TO.P,U6,34,56_IOR36A*%
%TO.N,D1_33*%
X90805000Y-76200000D03*
%TO.P,U6,35,41_IOB43A*%
%TO.N,JP1*%
X93345000Y-76200000D03*
%TO.P,U6,36,42_IOB42B*%
%TO.N,WAIT_33*%
X95885000Y-76200000D03*
%TO.P,U6,37,80_IOT27A*%
%TO.N,unconnected-(U6-80_IOT27A-Pad37)*%
X98425000Y-76200000D03*
%TO.P,U6,38,76_IOT30B*%
%TO.N,CLOCK_33*%
X100965000Y-76200000D03*
%TO.P,U6,39,GND*%
%TO.N,GND*%
X103505000Y-76200000D03*
%TO.P,U6,40,5V*%
%TO.N,+5V*%
X106045000Y-76200000D03*
%TD*%
D13*
%TO.P,U4,1,NC*%
%TO.N,unconnected-(U4-NC-Pad1)*%
X146685000Y-102870000D03*
D14*
%TO.P,U4,2,-*%
%TO.N,SOUND_33*%
X146685000Y-105410000D03*
%TO.P,U4,3,+*%
%TO.N,Net-(U4-+)*%
X146685000Y-107950000D03*
%TO.P,U4,4,V-*%
%TO.N,GND*%
X146685000Y-110490000D03*
%TO.P,U4,5,NC*%
%TO.N,unconnected-(U4-NC-Pad5)*%
X154305000Y-110490000D03*
%TO.P,U4,6*%
%TO.N,Net-(C1-Pad2)*%
X154305000Y-107950000D03*
%TO.P,U4,7,V+*%
%TO.N,+5V*%
X154305000Y-105410000D03*
%TO.P,U4,8,NC*%
%TO.N,unconnected-(U4-NC-Pad8)*%
X154305000Y-102870000D03*
%TD*%
D21*
%TO.P,C2,1*%
%TO.N,Net-(C2-Pad1)*%
X146558000Y-98266000D03*
D10*
%TO.P,C2,2*%
%TO.N,SOUNDOUT*%
X146558000Y-96266000D03*
%TD*%
D13*
%TO.P,U5,1,A->B*%
%TO.N,DATADIR*%
X116205000Y-92710000D03*
D14*
%TO.P,U5,2,A0*%
%TO.N,D0*%
X116205000Y-95250000D03*
%TO.P,U5,3,A1*%
%TO.N,D1*%
X116205000Y-97790000D03*
%TO.P,U5,4,A2*%
%TO.N,D2*%
X116205000Y-100330000D03*
%TO.P,U5,5,A3*%
%TO.N,D3*%
X116205000Y-102870000D03*
%TO.P,U5,6,A4*%
%TO.N,D4*%
X116205000Y-105410000D03*
%TO.P,U5,7,A5*%
%TO.N,D5*%
X116205000Y-107950000D03*
%TO.P,U5,8,A6*%
%TO.N,D6*%
X116205000Y-110490000D03*
%TO.P,U5,9,A7*%
%TO.N,D7*%
X116205000Y-113030000D03*
%TO.P,U5,10,GND*%
%TO.N,GND*%
X116205000Y-115570000D03*
%TO.P,U5,11,B7*%
%TO.N,D7_33*%
X123825000Y-115570000D03*
%TO.P,U5,12,B6*%
%TO.N,D6_33*%
X123825000Y-113030000D03*
%TO.P,U5,13,B5*%
%TO.N,D5_33*%
X123825000Y-110490000D03*
%TO.P,U5,14,B4*%
%TO.N,D4_33*%
X123825000Y-107950000D03*
%TO.P,U5,15,B3*%
%TO.N,D3_33*%
X123825000Y-105410000D03*
%TO.P,U5,16,B2*%
%TO.N,D2_33*%
X123825000Y-102870000D03*
%TO.P,U5,17,B1*%
%TO.N,D1_33*%
X123825000Y-100330000D03*
%TO.P,U5,18,B0*%
%TO.N,D0_33*%
X123825000Y-97790000D03*
%TO.P,U5,19,CE*%
%TO.N,GND*%
X123825000Y-95250000D03*
%TO.P,U5,20,VCC*%
%TO.N,+3.3V*%
X123825000Y-92710000D03*
%TD*%
D10*
%TO.P,C7,1*%
%TO.N,+3.3V*%
X90170000Y-87630000D03*
%TO.P,C7,2*%
%TO.N,GND*%
X87670000Y-87630000D03*
%TD*%
%TO.P,C10,1*%
%TO.N,+3.3V*%
X137160000Y-87630000D03*
%TO.P,C10,2*%
%TO.N,GND*%
X134660000Y-87630000D03*
%TD*%
D15*
%TO.P,R3,1*%
%TO.N,Net-(U4-+)*%
X150622000Y-120650000D03*
D16*
%TO.P,R3,2*%
%TO.N,+5V*%
X155702000Y-120650000D03*
%TD*%
D10*
%TO.P,C9,1*%
%TO.N,+3.3V*%
X105410000Y-87630000D03*
%TO.P,C9,2*%
%TO.N,GND*%
X102910000Y-87630000D03*
%TD*%
D22*
%TO.P,D1,1,K*%
%TO.N,GND*%
X143510000Y-81915000D03*
D23*
%TO.P,D1,2,A*%
%TO.N,Net-(D1-A)*%
X146050000Y-81915000D03*
%TD*%
D24*
%TO.P,J3,1,Pin_1*%
%TO.N,JP0*%
X69850000Y-123190000D03*
D25*
%TO.P,J3,2,Pin_2*%
%TO.N,GND*%
X72390000Y-123190000D03*
%TO.P,J3,3,Pin_3*%
%TO.N,JP1*%
X69850000Y-125730000D03*
%TO.P,J3,4,Pin_4*%
%TO.N,GND*%
X72390000Y-125730000D03*
%TO.P,J3,5,Pin_5*%
%TO.N,SOUNDOUT*%
X69850000Y-128270000D03*
%TO.P,J3,6,Pin_6*%
%TO.N,SOUNDIN*%
X72390000Y-128270000D03*
%TD*%
D10*
%TO.P,C4,1*%
%TO.N,+3.3V*%
X121285000Y-87630000D03*
%TO.P,C4,2*%
%TO.N,GND*%
X118785000Y-87630000D03*
%TD*%
D13*
%TO.P,U3,1,A->B*%
%TO.N,+3.3V*%
X84455000Y-92710000D03*
D14*
%TO.P,U3,2,A0*%
%TO.N,A8*%
X84455000Y-95250000D03*
%TO.P,U3,3,A1*%
%TO.N,A9*%
X84455000Y-97790000D03*
%TO.P,U3,4,A2*%
%TO.N,A10*%
X84455000Y-100330000D03*
%TO.P,U3,5,A3*%
%TO.N,A11*%
X84455000Y-102870000D03*
%TO.P,U3,6,A4*%
%TO.N,A12*%
X84455000Y-105410000D03*
%TO.P,U3,7,A5*%
%TO.N,A13*%
X84455000Y-107950000D03*
%TO.P,U3,8,A6*%
%TO.N,A14*%
X84455000Y-110490000D03*
%TO.P,U3,9,A7*%
%TO.N,A15*%
X84455000Y-113030000D03*
%TO.P,U3,10,GND*%
%TO.N,GND*%
X84455000Y-115570000D03*
%TO.P,U3,11,B7*%
%TO.N,MP7_33*%
X92075000Y-115570000D03*
%TO.P,U3,12,B6*%
%TO.N,MP6_33*%
X92075000Y-113030000D03*
%TO.P,U3,13,B5*%
%TO.N,MP5_33*%
X92075000Y-110490000D03*
%TO.P,U3,14,B4*%
%TO.N,MP4_33*%
X92075000Y-107950000D03*
%TO.P,U3,15,B3*%
%TO.N,MP3_33*%
X92075000Y-105410000D03*
%TO.P,U3,16,B2*%
%TO.N,MP2_33*%
X92075000Y-102870000D03*
%TO.P,U3,17,B1*%
%TO.N,MP1_33*%
X92075000Y-100330000D03*
%TO.P,U3,18,B0*%
%TO.N,MP0_33*%
X92075000Y-97790000D03*
%TO.P,U3,19,CE*%
%TO.N,MSEL1_33*%
X92075000Y-95250000D03*
%TO.P,U3,20,VCC*%
%TO.N,+3.3V*%
X92075000Y-92710000D03*
%TD*%
D15*
%TO.P,R5,1*%
%TO.N,GND*%
X150622000Y-125476000D03*
D16*
%TO.P,R5,2*%
%TO.N,Net-(U4-+)*%
X155702000Y-125476000D03*
%TD*%
D15*
%TO.P,R4,1*%
%TO.N,Net-(C1-Pad2)*%
X155702000Y-98806000D03*
D16*
%TO.P,R4,2*%
%TO.N,Net-(C2-Pad1)*%
X150622000Y-98806000D03*
%TD*%
D15*
%TO.P,R6,1*%
%TO.N,SOUNDOUT*%
X150495000Y-95885000D03*
D16*
%TO.P,R6,2*%
%TO.N,GND*%
X155575000Y-95885000D03*
%TD*%
D13*
%TO.P,U2,1,A->B*%
%TO.N,+3.3V*%
X132080000Y-92710000D03*
D14*
%TO.P,U2,2,A0*%
%TO.N,INT_33*%
X132080000Y-95250000D03*
%TO.P,U2,3,A1*%
%TO.N,BUSDIR_33*%
X132080000Y-97790000D03*
%TO.P,U2,4,A2*%
%TO.N,WAIT_33*%
X132080000Y-100330000D03*
%TO.P,U2,5,A3*%
%TO.N,unconnected-(U2-A3-Pad5)*%
X132080000Y-102870000D03*
%TO.P,U2,6,A4*%
%TO.N,RD*%
X132080000Y-105410000D03*
%TO.P,U2,7,A5*%
%TO.N,WR*%
X132080000Y-107950000D03*
%TO.P,U2,8,A6*%
%TO.N,SLTSL*%
X132080000Y-110490000D03*
%TO.P,U2,9,A7*%
%TO.N,CLOCK*%
X132080000Y-113030000D03*
%TO.P,U2,10,GND*%
%TO.N,GND*%
X132080000Y-115570000D03*
%TO.P,U2,11,B7*%
%TO.N,CLOCK_33*%
X139700000Y-115570000D03*
%TO.P,U2,12,B6*%
%TO.N,SLTSL_33*%
X139700000Y-113030000D03*
%TO.P,U2,13,B5*%
%TO.N,WR_33*%
X139700000Y-110490000D03*
%TO.P,U2,14,B4*%
%TO.N,RD_33*%
X139700000Y-107950000D03*
%TO.P,U2,15,B3*%
%TO.N,unconnected-(U2-B3-Pad15)*%
X139700000Y-105410000D03*
%TO.P,U2,16,B2*%
%TO.N,WAIT*%
X139700000Y-102870000D03*
%TO.P,U2,17,B1*%
%TO.N,BUSDIR*%
X139700000Y-100330000D03*
%TO.P,U2,18,B0*%
%TO.N,INT*%
X139700000Y-97790000D03*
%TO.P,U2,19,CE*%
%TO.N,GND*%
X139700000Y-95250000D03*
%TO.P,U2,20,VCC*%
%TO.N,+3.3V*%
X139700000Y-92710000D03*
%TD*%
D13*
%TO.P,U7,1,A->B*%
%TO.N,+3.3V*%
X100330000Y-92710000D03*
D14*
%TO.P,U7,2,A0*%
%TO.N,MERQ*%
X100330000Y-95250000D03*
%TO.P,U7,3,A1*%
%TO.N,IORQ*%
X100330000Y-97790000D03*
%TO.P,U7,4,A2*%
%TO.N,CS1*%
X100330000Y-100330000D03*
%TO.P,U7,5,A3*%
%TO.N,CS2*%
X100330000Y-102870000D03*
%TO.P,U7,6,A4*%
%TO.N,RESET*%
X100330000Y-105410000D03*
%TO.P,U7,7,A5*%
%TO.N,RFSH*%
X100330000Y-107950000D03*
%TO.P,U7,8,A6*%
%TO.N,CS12*%
X100330000Y-110490000D03*
%TO.P,U7,9,A7*%
%TO.N,M1*%
X100330000Y-113030000D03*
%TO.P,U7,10,GND*%
%TO.N,GND*%
X100330000Y-115570000D03*
%TO.P,U7,11,B7*%
%TO.N,MP7_33*%
X107950000Y-115570000D03*
%TO.P,U7,12,B6*%
%TO.N,MP6_33*%
X107950000Y-113030000D03*
%TO.P,U7,13,B5*%
%TO.N,MP5_33*%
X107950000Y-110490000D03*
%TO.P,U7,14,B4*%
%TO.N,MP4_33*%
X107950000Y-107950000D03*
%TO.P,U7,15,B3*%
%TO.N,MP3_33*%
X107950000Y-105410000D03*
%TO.P,U7,16,B2*%
%TO.N,MP2_33*%
X107950000Y-102870000D03*
%TO.P,U7,17,B1*%
%TO.N,MP1_33*%
X107950000Y-100330000D03*
%TO.P,U7,18,B0*%
%TO.N,MP0_33*%
X107950000Y-97790000D03*
%TO.P,U7,19,CE*%
%TO.N,MSEL2_33*%
X107950000Y-95250000D03*
%TO.P,U7,20,VCC*%
%TO.N,+3.3V*%
X107950000Y-92710000D03*
%TD*%
D26*
%TO.N,MERQ*%
X99457200Y-117641800D03*
%TO.N,IORQ*%
X128316100Y-127747300D03*
X100214600Y-117063000D03*
%TO.N,RD*%
X127000000Y-130244400D03*
%TO.N,RESET*%
X111007500Y-104606200D03*
%TO.N,CLOCK*%
X102171700Y-124089000D03*
X117444100Y-123997000D03*
X92779100Y-132801800D03*
%TO.N,D0*%
X100387100Y-131373300D03*
%TO.N,D2*%
X100279700Y-132315600D03*
%TO.N,D4*%
X97728600Y-131254800D03*
X112217200Y-119347800D03*
X102682400Y-119908400D03*
%TO.N,D5*%
X105576100Y-109300400D03*
%TO.N,D6*%
X102274700Y-120832500D03*
X94327000Y-130231100D03*
X114749100Y-120810800D03*
%TO.N,A1*%
X107880100Y-131802000D03*
X65634300Y-110343500D03*
%TO.N,A3*%
X106361200Y-128437500D03*
%TO.N,A4*%
X70404500Y-121478100D03*
%TO.N,A5*%
X105502800Y-130462700D03*
%TO.N,A7*%
X117124600Y-129172500D03*
%TO.N,A9*%
X86968900Y-108460100D03*
X110050700Y-109060300D03*
%TO.N,A11*%
X90355900Y-124400900D03*
X118026700Y-132401700D03*
%TO.N,A12*%
X112438300Y-123403800D03*
%TO.N,A8*%
X89556000Y-126328700D03*
%TO.N,A14*%
X106263300Y-112158800D03*
%TO.N,A13*%
X91154600Y-127343300D03*
%TO.N,M1*%
X128153300Y-121227800D03*
%TO.N,RFSH*%
X98833000Y-114167100D03*
%TO.N,CS1*%
X136719600Y-126772400D03*
%TO.N,CS12*%
X136132800Y-128357200D03*
%TO.N,SLTSL*%
X133870000Y-127061600D03*
%TO.N,INT*%
X134408000Y-129563300D03*
%TO.N,BUSDIR*%
X133274300Y-132662900D03*
%TO.N,SLTSL_33*%
X70456800Y-94615000D03*
%TO.N,CLOCK_33*%
X104277100Y-77739600D03*
X126717200Y-112147400D03*
%TO.N,WR_33*%
X117103700Y-81129800D03*
%TO.N,RD_33*%
X133956000Y-103183300D03*
%TO.N,D7_33*%
X112158000Y-85702900D03*
%TO.N,D6_33*%
X104645400Y-79198000D03*
%TO.N,D5_33*%
X117244100Y-121852200D03*
X69310200Y-117276300D03*
%TO.N,D4_33*%
X88165200Y-84554500D03*
X119498500Y-95986200D03*
X85572000Y-87806200D03*
%TO.N,D2_33*%
X122249000Y-96827000D03*
%TO.N,MP7_33*%
X106484200Y-119026300D03*
%TO.N,MSEL1_33*%
X74438400Y-79959500D03*
%TO.N,WAIT_33*%
X99162400Y-84783400D03*
%TO.N,SOUNDOUT*%
X93304200Y-130144800D03*
X120035500Y-86307600D03*
%TD*%
D27*
%TO.N,+3.3V*%
X120367500Y-87630000D02*
X121285000Y-87630000D01*
X107950000Y-92710000D02*
X109456700Y-92710000D01*
X69992500Y-91647500D02*
X69992500Y-82915500D01*
X109456700Y-92710000D02*
X115657300Y-86509400D01*
X69992500Y-82915500D02*
X71120000Y-81788000D01*
X70086700Y-92710000D02*
X70086700Y-91741700D01*
X70086700Y-91741700D02*
X69992500Y-91647500D01*
X68580000Y-92710000D02*
X70086700Y-92710000D01*
X115657300Y-86509400D02*
X119246900Y-86509400D01*
X119246900Y-86509400D02*
X120367500Y-87630000D01*
X100330000Y-92710000D02*
X92075000Y-92710000D01*
%TO.N,GND*%
X102910000Y-79321500D02*
X102910000Y-87630000D01*
X134660000Y-87630000D02*
X134660000Y-112990000D01*
X70485000Y-76200000D02*
X70485000Y-77089000D01*
X102910000Y-87630000D02*
X102910000Y-112990000D01*
X72390000Y-123190000D02*
X72390000Y-122033300D01*
X137907500Y-95535800D02*
X138193300Y-95250000D01*
X99439400Y-118833300D02*
X100918200Y-117354500D01*
X87438900Y-112922600D02*
X87438900Y-112586100D01*
X88900000Y-139700000D02*
X88900000Y-135583300D01*
X71160000Y-87630000D02*
X71160000Y-112990000D01*
X93349600Y-118833300D02*
X99439400Y-118833300D01*
X157332600Y-93120700D02*
X157332600Y-85094300D01*
X91862300Y-120320600D02*
X91862300Y-135161000D01*
X93349600Y-118833300D02*
X91862300Y-120320600D01*
X139700000Y-95250000D02*
X138193300Y-95250000D01*
X102890000Y-76815000D02*
X103505000Y-76200000D01*
X71160000Y-112990000D02*
X68580000Y-115570000D01*
X58460000Y-78700000D02*
X59055000Y-78105000D01*
X59055000Y-78105000D02*
X59055000Y-57150000D01*
X157332600Y-85094300D02*
X155575000Y-83336700D01*
X93349600Y-118833300D02*
X87438900Y-112922600D01*
X72390000Y-122033300D02*
X72390000Y-115586600D01*
X155575000Y-95885000D02*
X155575000Y-94878300D01*
X102890000Y-81788000D02*
X102890000Y-76815000D01*
X88900000Y-135583300D02*
X91440000Y-135583300D01*
X72390000Y-125730000D02*
X72390000Y-123190000D01*
X59055000Y-57150000D02*
X57785000Y-55880000D01*
X72390000Y-115586600D02*
X70476700Y-113673300D01*
X73620000Y-80304000D02*
X73620000Y-81788000D01*
X100918200Y-115539600D02*
X100639300Y-115260700D01*
X87670000Y-87630000D02*
X87670000Y-112355000D01*
X118785000Y-112990000D02*
X116205000Y-115570000D01*
X134660000Y-95535800D02*
X137907500Y-95535800D01*
X87670000Y-112355000D02*
X84455000Y-115570000D01*
X73660000Y-80264000D02*
X73620000Y-80304000D01*
X118785000Y-87630000D02*
X118785000Y-112990000D01*
X102890000Y-79301500D02*
X102910000Y-79321500D01*
X71160000Y-87630000D02*
X71160000Y-84248000D01*
X118785000Y-95250000D02*
X123825000Y-95250000D01*
X58460000Y-81788000D02*
X58460000Y-78700000D01*
X100918200Y-117354500D02*
X100918200Y-115539600D01*
X91862300Y-135161000D02*
X91440000Y-135583300D01*
X71160000Y-84248000D02*
X73620000Y-81788000D01*
X91440000Y-139700000D02*
X91440000Y-135583300D01*
X102910000Y-112990000D02*
X100330000Y-115570000D01*
X155575000Y-82130000D02*
X155575000Y-83336700D01*
X155575000Y-94878300D02*
X157332600Y-93120700D01*
X134660000Y-112990000D02*
X132080000Y-115570000D01*
X70485000Y-77089000D02*
X73660000Y-80264000D01*
%TO.N,+5V*%
X155702000Y-120650000D02*
X155702000Y-119216700D01*
X152798300Y-105410000D02*
X152798300Y-110686700D01*
X154305000Y-105410000D02*
X152798300Y-105410000D01*
X155702000Y-119216700D02*
X149985200Y-113499800D01*
X149985200Y-113499800D02*
X147915000Y-115570000D01*
X152798300Y-110686700D02*
X149985200Y-113499800D01*
D28*
%TO.N,MERQ*%
X100330000Y-95250000D02*
X98874100Y-95250000D01*
X97797300Y-96326800D02*
X97797300Y-115981900D01*
X97797300Y-115981900D02*
X99457200Y-117641800D01*
X98874100Y-95250000D02*
X97797300Y-96326800D01*
%TO.N,IORQ*%
X98168600Y-115324600D02*
X99907000Y-117063000D01*
X100330000Y-97790000D02*
X98874100Y-97790000D01*
X99907000Y-117063000D02*
X100214600Y-117063000D01*
X98168600Y-98495500D02*
X98168600Y-115324600D01*
X129540000Y-135634100D02*
X128316100Y-134410200D01*
X98874100Y-97790000D02*
X98168600Y-98495500D01*
X129540000Y-139700000D02*
X129540000Y-135634100D01*
X128316100Y-134410200D02*
X128316100Y-127747300D01*
%TO.N,RD*%
X130624100Y-105410000D02*
X127769600Y-108264500D01*
X127769600Y-108264500D02*
X127769600Y-112929800D01*
X132080000Y-105410000D02*
X130624100Y-105410000D01*
X127769600Y-112929800D02*
X127000000Y-113699400D01*
X127000000Y-113699400D02*
X127000000Y-130244400D01*
%TO.N,WR*%
X127000000Y-135634100D02*
X127662500Y-134971600D01*
X132080000Y-107950000D02*
X130624100Y-107950000D01*
X129997100Y-118296100D02*
X129997100Y-108577000D01*
X127662500Y-134971600D02*
X127662500Y-121677000D01*
X129997100Y-108577000D02*
X130624100Y-107950000D01*
X127000000Y-139700000D02*
X127000000Y-135634100D01*
X127488600Y-120804600D02*
X129997100Y-118296100D01*
X127488600Y-121503100D02*
X127488600Y-120804600D01*
X127662500Y-121677000D02*
X127488600Y-121503100D01*
%TO.N,RESET*%
X111007500Y-104606200D02*
X111007500Y-119056600D01*
X124460000Y-132509100D02*
X124460000Y-139700000D01*
X111007500Y-119056600D02*
X124460000Y-132509100D01*
%TO.N,CLOCK*%
X92779100Y-132801800D02*
X93458900Y-132801800D01*
X131194200Y-104334300D02*
X127367800Y-108160700D01*
X132080000Y-113030000D02*
X133535900Y-113030000D01*
X93458900Y-132801800D02*
X102171700Y-124089000D01*
X127367800Y-112523100D02*
X126351900Y-113539000D01*
X126351900Y-115089200D02*
X117444100Y-123997000D01*
X133535900Y-113030000D02*
X133535900Y-104918400D01*
X132951800Y-104334300D02*
X131194200Y-104334300D01*
X127367800Y-108160700D02*
X127367800Y-112523100D01*
X126351900Y-113539000D02*
X126351900Y-115089200D01*
X133535900Y-104918400D02*
X132951800Y-104334300D01*
%TO.N,D0*%
X116205000Y-95250000D02*
X114749100Y-95250000D01*
X104081400Y-102271200D02*
X104081400Y-117476900D01*
X104081400Y-117476900D02*
X103689600Y-117868700D01*
X114749100Y-95250000D02*
X110939100Y-99060000D01*
X103689600Y-128070800D02*
X100387100Y-131373300D01*
X107292600Y-99060000D02*
X104081400Y-102271200D01*
X103689600Y-117868700D02*
X103689600Y-128070800D01*
X110939100Y-99060000D02*
X107292600Y-99060000D01*
%TO.N,D1*%
X110357900Y-104337200D02*
X110738500Y-103956600D01*
X105477100Y-118609200D02*
X105559000Y-118527300D01*
X117660900Y-103330000D02*
X117660900Y-97790000D01*
X106491700Y-108791700D02*
X106491700Y-107513200D01*
X106583200Y-108883200D02*
X106491700Y-108791700D01*
X107324900Y-106680000D02*
X108596400Y-106680000D01*
X101600000Y-139700000D02*
X101600000Y-133446200D01*
X105477100Y-129569100D02*
X105477100Y-118609200D01*
X110738500Y-103956600D02*
X117034300Y-103956600D01*
X101600000Y-133446200D02*
X105477100Y-129569100D01*
X105559000Y-118527300D02*
X105559000Y-110741800D01*
X117034300Y-103956600D02*
X117660900Y-103330000D01*
X106491700Y-107513200D02*
X107324900Y-106680000D01*
X106583200Y-109717600D02*
X106583200Y-108883200D01*
X105559000Y-110741800D02*
X106583200Y-109717600D01*
X108596400Y-106680000D02*
X110357900Y-104918500D01*
X110357900Y-104918500D02*
X110357900Y-104337200D01*
X116205000Y-97790000D02*
X117660900Y-97790000D01*
%TO.N,D2*%
X100367200Y-132315600D02*
X100279700Y-132315600D01*
X116205000Y-100330000D02*
X114749100Y-100330000D01*
X104467600Y-117596300D02*
X104047100Y-118016800D01*
X113622500Y-101456600D02*
X107449000Y-101456600D01*
X104467600Y-104438000D02*
X104467600Y-117596300D01*
X104047100Y-118016800D02*
X104047100Y-128635700D01*
X114749100Y-100330000D02*
X113622500Y-101456600D01*
X107449000Y-101456600D02*
X104467600Y-104438000D01*
X104047100Y-128635700D02*
X100367200Y-132315600D01*
%TO.N,D3*%
X106134200Y-108939800D02*
X106134200Y-105327800D01*
X105201500Y-118379200D02*
X105201500Y-110593700D01*
X105119600Y-118461100D02*
X105201500Y-118379200D01*
X106225700Y-109569500D02*
X106225700Y-109031300D01*
X105201500Y-110593700D02*
X106225700Y-109569500D01*
X105119600Y-128987900D02*
X105119600Y-118461100D01*
X99060000Y-139700000D02*
X99060000Y-135634100D01*
X99060000Y-135634100D02*
X99060000Y-135047500D01*
X107499400Y-103962600D02*
X109860000Y-103962600D01*
X109860000Y-103962600D02*
X110952600Y-102870000D01*
X106225700Y-109031300D02*
X106134200Y-108939800D01*
X110952600Y-102870000D02*
X116205000Y-102870000D01*
X99060000Y-135047500D02*
X105119600Y-128987900D01*
X106134200Y-105327800D02*
X107499400Y-103962600D01*
%TO.N,D4*%
X97728600Y-131254800D02*
X102970000Y-126013400D01*
X116205000Y-105410000D02*
X114749100Y-105410000D01*
X102970000Y-126013400D02*
X102970000Y-120196000D01*
X112217200Y-107941900D02*
X114749100Y-105410000D01*
X112217200Y-119347800D02*
X112217200Y-107941900D01*
X102970000Y-120196000D02*
X102682400Y-119908400D01*
%TO.N,D5*%
X104825100Y-110051400D02*
X105576100Y-109300400D01*
X104647000Y-118174100D02*
X104825100Y-117996000D01*
X104647000Y-128954900D02*
X104647000Y-118174100D01*
X97967800Y-135634100D02*
X104647000Y-128954900D01*
X96520000Y-135634100D02*
X97967800Y-135634100D01*
X96520000Y-139700000D02*
X96520000Y-135634100D01*
X104825100Y-117996000D02*
X104825100Y-110051400D01*
%TO.N,D6*%
X116205000Y-110490000D02*
X114749100Y-110490000D01*
X94327000Y-128780200D02*
X102274700Y-120832500D01*
X114749100Y-110490000D02*
X114749100Y-120810800D01*
X94327000Y-130231100D02*
X94327000Y-128780200D01*
%TO.N,D7*%
X103692500Y-117360200D02*
X103332100Y-117720600D01*
X118029900Y-95171000D02*
X117040800Y-94181900D01*
X118029900Y-112661000D02*
X118029900Y-95171000D01*
X116205000Y-113030000D02*
X117660900Y-113030000D01*
X114778900Y-94181900D02*
X112440800Y-96520000D01*
X103332100Y-117720600D02*
X103332100Y-126570000D01*
X117040800Y-94181900D02*
X114778900Y-94181900D01*
X94268000Y-135634100D02*
X93980000Y-135634100D01*
X112440800Y-96520000D02*
X107291400Y-96520000D01*
X103692500Y-100118900D02*
X103692500Y-117360200D01*
X93980000Y-139700000D02*
X93980000Y-135634100D01*
X103332100Y-126570000D02*
X94268000Y-135634100D01*
X107291400Y-96520000D02*
X103692500Y-100118900D01*
X117660900Y-113030000D02*
X118029900Y-112661000D01*
%TO.N,A1*%
X109220000Y-139700000D02*
X109220000Y-135634100D01*
X109220000Y-135634100D02*
X107880100Y-134294200D01*
X65634300Y-99279800D02*
X65634300Y-110343500D01*
X67124100Y-97790000D02*
X65634300Y-99279800D01*
X107880100Y-134294200D02*
X107880100Y-131802000D01*
X68580000Y-97790000D02*
X67124100Y-97790000D01*
%TO.N,A3*%
X106680000Y-139700000D02*
X106680000Y-128756300D01*
X106680000Y-128756300D02*
X106361200Y-128437500D01*
%TO.N,A4*%
X70404500Y-117451900D02*
X69579300Y-116626700D01*
X68580000Y-105410000D02*
X67124100Y-105410000D01*
X70404500Y-121478100D02*
X70404500Y-117451900D01*
X69579300Y-116626700D02*
X67743500Y-116626700D01*
X67743500Y-116626700D02*
X67124100Y-116007300D01*
X67124100Y-116007300D02*
X67124100Y-105410000D01*
%TO.N,A5*%
X104140000Y-131825500D02*
X105502800Y-130462700D01*
X104140000Y-139700000D02*
X104140000Y-131825500D01*
%TO.N,A7*%
X116840000Y-129457100D02*
X117124600Y-129172500D01*
X116840000Y-139700000D02*
X116840000Y-129457100D01*
%TO.N,A9*%
X110050700Y-118605400D02*
X121920000Y-130474700D01*
X84455000Y-97790000D02*
X85910900Y-97790000D01*
X121920000Y-130474700D02*
X121920000Y-135634100D01*
X121920000Y-139700000D02*
X121920000Y-135634100D01*
X85910900Y-107402100D02*
X86968900Y-108460100D01*
X110050700Y-109060300D02*
X110050700Y-118605400D01*
X85910900Y-97790000D02*
X85910900Y-107402100D01*
%TO.N,A11*%
X119380000Y-135634100D02*
X118026700Y-134280800D01*
X82621500Y-103247600D02*
X82999100Y-102870000D01*
X119380000Y-139700000D02*
X119380000Y-135634100D01*
X118026700Y-134280800D02*
X118026700Y-132401700D01*
X84455000Y-102870000D02*
X82999100Y-102870000D01*
X82621500Y-116666500D02*
X82621500Y-103247600D01*
X90355900Y-124400900D02*
X82621500Y-116666500D01*
%TO.N,A12*%
X114300000Y-139700000D02*
X114300000Y-135634100D01*
X112438300Y-133772400D02*
X112438300Y-123403800D01*
X114300000Y-135634100D02*
X112438300Y-133772400D01*
%TO.N,A8*%
X82264000Y-116865800D02*
X89556000Y-124157800D01*
X84455000Y-95250000D02*
X82999100Y-95250000D01*
X82999100Y-95250000D02*
X82264000Y-95985100D01*
X82264000Y-95985100D02*
X82264000Y-116865800D01*
X89556000Y-124157800D02*
X89556000Y-126328700D01*
%TO.N,A14*%
X111760000Y-125220600D02*
X105834600Y-119295200D01*
X105916500Y-112505600D02*
X106263300Y-112158800D01*
X105834600Y-118757300D02*
X105916500Y-118675400D01*
X111760000Y-135634100D02*
X111760000Y-125220600D01*
X105916500Y-118675400D02*
X105916500Y-112505600D01*
X111760000Y-139700000D02*
X111760000Y-135634100D01*
X105834600Y-119295200D02*
X105834600Y-118757300D01*
%TO.N,A13*%
X84455000Y-107950000D02*
X82999100Y-107950000D01*
X91154600Y-124174800D02*
X91154600Y-127343300D01*
X82999100Y-116019300D02*
X91154600Y-124174800D01*
X82999100Y-107950000D02*
X82999100Y-116019300D01*
%TO.N,M1*%
X132080000Y-139700000D02*
X132080000Y-135634100D01*
X132080000Y-135634100D02*
X132080000Y-125154500D01*
X132080000Y-125154500D02*
X128153300Y-121227800D01*
%TO.N,RFSH*%
X98833000Y-107991100D02*
X98874100Y-107950000D01*
X100330000Y-107950000D02*
X98874100Y-107950000D01*
X98833000Y-114167100D02*
X98833000Y-107991100D01*
%TO.N,CS1*%
X136782400Y-130176500D02*
X136782400Y-126835200D01*
X142240000Y-135634100D02*
X136782400Y-130176500D01*
X142240000Y-139700000D02*
X142240000Y-135634100D01*
X136782400Y-126835200D02*
X136719600Y-126772400D01*
%TO.N,CS12*%
X139700000Y-135634100D02*
X136132800Y-132066900D01*
X139700000Y-139700000D02*
X139700000Y-135634100D01*
X136132800Y-132066900D02*
X136132800Y-128357200D01*
%TO.N,SLTSL*%
X133870000Y-119253300D02*
X133870000Y-127061600D01*
X130624100Y-110490000D02*
X130624100Y-116007400D01*
X132080000Y-110490000D02*
X130624100Y-110490000D01*
X130624100Y-116007400D02*
X133870000Y-119253300D01*
%TO.N,WAIT*%
X134620000Y-139700000D02*
X134620000Y-135634100D01*
X135451700Y-126091400D02*
X138244100Y-123299000D01*
X135451700Y-134802400D02*
X135451700Y-126091400D01*
X138244100Y-123299000D02*
X138244100Y-102870000D01*
X134620000Y-135634100D02*
X135451700Y-134802400D01*
X139700000Y-102870000D02*
X138244100Y-102870000D01*
%TO.N,INT*%
X138244100Y-97790000D02*
X135552100Y-100482000D01*
X134519600Y-116818800D02*
X134519600Y-129451700D01*
X135552100Y-115786300D02*
X134519600Y-116818800D01*
X139700000Y-97790000D02*
X138244100Y-97790000D01*
X134519600Y-129451700D02*
X134408000Y-129563300D01*
X135552100Y-100482000D02*
X135552100Y-115786300D01*
%TO.N,BUSDIR*%
X139700000Y-100330000D02*
X138244100Y-100330000D01*
X135061300Y-130875900D02*
X133274300Y-132662900D01*
X138244100Y-100330000D02*
X136887100Y-101687000D01*
X135061300Y-120832800D02*
X135061300Y-130875900D01*
X136887100Y-119007000D02*
X135061300Y-120832800D01*
X136887100Y-101687000D02*
X136887100Y-119007000D01*
%TO.N,SLTSL_33*%
X62865000Y-57335900D02*
X66541600Y-61012500D01*
X67212300Y-93765900D02*
X69607700Y-93765900D01*
X66541600Y-93095200D02*
X67212300Y-93765900D01*
X66541600Y-61012500D02*
X66541600Y-93095200D01*
X62865000Y-55880000D02*
X62865000Y-57335900D01*
X69607700Y-93765900D02*
X70456800Y-94615000D01*
%TO.N,CLOCK_33*%
X123376700Y-88753600D02*
X126717200Y-92094100D01*
X123376700Y-87215200D02*
X123376700Y-88753600D01*
X104277100Y-77739600D02*
X111072200Y-84534700D01*
X111072200Y-84534700D02*
X120696200Y-84534700D01*
X120696200Y-84534700D02*
X123376700Y-87215200D01*
X126717200Y-92094100D02*
X126717200Y-112147400D01*
%TO.N,WR_33*%
X139045400Y-93980000D02*
X140347000Y-93980000D01*
X140347000Y-93980000D02*
X141155900Y-94788900D01*
X135910000Y-90844600D02*
X139045400Y-93980000D01*
X117103700Y-81129800D02*
X129654900Y-81129800D01*
X139700000Y-110490000D02*
X141155900Y-110490000D01*
X135910000Y-87384900D02*
X135910000Y-90844600D01*
X141155900Y-94788900D02*
X141155900Y-110490000D01*
X129654900Y-81129800D02*
X135910000Y-87384900D01*
%TO.N,RD_33*%
X130266600Y-100432100D02*
X131361100Y-101526600D01*
X131361100Y-101526600D02*
X132653800Y-101526600D01*
X93345000Y-55880000D02*
X93345000Y-54424100D01*
X130266600Y-94859900D02*
X130266600Y-100432100D01*
X123912100Y-87245000D02*
X123912100Y-88505400D01*
X123912100Y-88505400D02*
X130266600Y-94859900D01*
X104775000Y-76823800D02*
X111772400Y-83821200D01*
X120488300Y-83821200D02*
X123912100Y-87245000D01*
X132653800Y-101526600D02*
X133956000Y-102828800D01*
X111772400Y-83821200D02*
X120488300Y-83821200D01*
X96330100Y-54424100D02*
X97062500Y-55156500D01*
X97062500Y-66100300D02*
X104775000Y-73812800D01*
X104775000Y-73812800D02*
X104775000Y-76823800D01*
X93345000Y-54424100D02*
X96330100Y-54424100D01*
X97062500Y-55156500D02*
X97062500Y-66100300D01*
X133956000Y-102828800D02*
X133956000Y-103183300D01*
%TO.N,D7_33*%
X123019000Y-87363100D02*
X120929900Y-85274000D01*
X120929900Y-85274000D02*
X112586900Y-85274000D01*
X123019000Y-89187300D02*
X123019000Y-87363100D01*
X125280900Y-115570000D02*
X125676100Y-115174800D01*
X125676100Y-115174800D02*
X125676100Y-91844400D01*
X112586900Y-85274000D02*
X112158000Y-85702900D01*
X123825000Y-115570000D02*
X125280900Y-115570000D01*
X125676100Y-91844400D02*
X123019000Y-89187300D01*
%TO.N,D6_33*%
X122661500Y-89335400D02*
X125280900Y-91954800D01*
X123825000Y-113030000D02*
X125280900Y-113030000D01*
X122661500Y-87511200D02*
X122661500Y-89335400D01*
X114466000Y-85650600D02*
X120800900Y-85650600D01*
X120800900Y-85650600D02*
X122661500Y-87511200D01*
X111838500Y-86391100D02*
X113725500Y-86391100D01*
X125280900Y-91954800D02*
X125280900Y-113030000D01*
X113725500Y-86391100D02*
X114466000Y-85650600D01*
X104645400Y-79198000D02*
X111838500Y-86391100D01*
%TO.N,D5_33*%
X122369100Y-110490000D02*
X122369100Y-116727200D01*
X122369100Y-116727200D02*
X117244100Y-121852200D01*
X62865000Y-77655900D02*
X62865000Y-112265400D01*
X62865000Y-76200000D02*
X62865000Y-77655900D01*
X67875900Y-117276300D02*
X69310200Y-117276300D01*
X123825000Y-110490000D02*
X122369100Y-110490000D01*
X62865000Y-112265400D02*
X67875900Y-117276300D01*
%TO.N,D4_33*%
X122369100Y-107950000D02*
X119498500Y-105079400D01*
X85572000Y-87806200D02*
X88165200Y-85213000D01*
X123825000Y-107950000D02*
X122369100Y-107950000D01*
X119498500Y-105079400D02*
X119498500Y-95986200D01*
X88165200Y-85213000D02*
X88165200Y-84554500D01*
%TO.N,D2_33*%
X122249000Y-102749900D02*
X122369100Y-102870000D01*
X123825000Y-102870000D02*
X122369100Y-102870000D01*
X122249000Y-96827000D02*
X122249000Y-102749900D01*
%TO.N,SOUND_33*%
X150622000Y-117943000D02*
X147915000Y-120650000D01*
X150622000Y-115570000D02*
X150622000Y-117943000D01*
%TO.N,MP7_33*%
X74480900Y-78773400D02*
X75099100Y-79391600D01*
X73025000Y-57335900D02*
X74480900Y-58791800D01*
X107950000Y-115570000D02*
X106494100Y-115570000D01*
X74480900Y-58791800D02*
X74480900Y-78773400D01*
X106494100Y-119016400D02*
X106494100Y-115570000D01*
X106484200Y-119026300D02*
X106494100Y-119016400D01*
X76200000Y-115570000D02*
X74744100Y-115570000D01*
X73670900Y-114496800D02*
X74744100Y-115570000D01*
X73025000Y-55880000D02*
X73025000Y-57335900D01*
X75099100Y-79391600D02*
X75099100Y-88423100D01*
X75099100Y-88423100D02*
X73670900Y-89851300D01*
X73670900Y-89851300D02*
X73670900Y-114496800D01*
%TO.N,MP6_33*%
X75565000Y-55880000D02*
X75565000Y-57335900D01*
X76200000Y-113030000D02*
X74744100Y-113030000D01*
X74028400Y-92988300D02*
X74028400Y-112314300D01*
X74028400Y-112314300D02*
X74744100Y-113030000D01*
X76647900Y-58418800D02*
X76647900Y-90368800D01*
X76647900Y-90368800D02*
X74028400Y-92988300D01*
X75565000Y-57335900D02*
X76647900Y-58418800D01*
%TO.N,MP5_33*%
X76200000Y-110490000D02*
X74744100Y-110490000D01*
X79192200Y-58423100D02*
X79192200Y-96700400D01*
X78105000Y-55880000D02*
X78105000Y-57335900D01*
X79192200Y-96700400D02*
X76832600Y-99060000D01*
X76832600Y-99060000D02*
X75528200Y-99060000D01*
X74385900Y-100202300D02*
X74385900Y-110131800D01*
X75528200Y-99060000D02*
X74385900Y-100202300D01*
X74385900Y-110131800D02*
X74744100Y-110490000D01*
X78105000Y-57335900D02*
X79192200Y-58423100D01*
%TO.N,MP4_33*%
X79582300Y-58398600D02*
X79582300Y-101400500D01*
X79582300Y-101400500D02*
X76842800Y-104140000D01*
X75543600Y-104140000D02*
X74744100Y-104939500D01*
X74744100Y-104939500D02*
X74744100Y-107950000D01*
X80645000Y-57335900D02*
X79582300Y-58398600D01*
X80645000Y-55880000D02*
X80645000Y-57335900D01*
X76842800Y-104140000D02*
X75543600Y-104140000D01*
X76200000Y-107950000D02*
X74744100Y-107950000D01*
%TO.N,MP3_33*%
X83185000Y-57335900D02*
X82041000Y-58479900D01*
X82041000Y-76697200D02*
X80850800Y-77887400D01*
X76200000Y-105410000D02*
X77655900Y-105410000D01*
X83185000Y-55880000D02*
X83185000Y-57335900D01*
X80850800Y-102215100D02*
X77655900Y-105410000D01*
X82041000Y-58479900D02*
X82041000Y-76697200D01*
X80850800Y-77887400D02*
X80850800Y-102215100D01*
%TO.N,MP2_33*%
X85725000Y-55880000D02*
X85725000Y-57335900D01*
X85725000Y-57335900D02*
X87180900Y-58791800D01*
X89111000Y-101361900D02*
X90619100Y-102870000D01*
X90268300Y-80855500D02*
X90268300Y-82371700D01*
X90268300Y-82371700D02*
X89111000Y-83529000D01*
X87180900Y-77768100D02*
X90268300Y-80855500D01*
X92075000Y-102870000D02*
X90619100Y-102870000D01*
X87180900Y-58791800D02*
X87180900Y-77768100D01*
X89111000Y-83529000D02*
X89111000Y-101361900D01*
%TO.N,MP1_33*%
X90248400Y-91413200D02*
X91865800Y-89795800D01*
X90619100Y-100330000D02*
X90248400Y-99959300D01*
X91865800Y-89795800D02*
X91865800Y-60936700D01*
X88265000Y-55880000D02*
X88265000Y-57335900D01*
X92075000Y-100330000D02*
X90619100Y-100330000D01*
X91865800Y-60936700D02*
X88265000Y-57335900D01*
X90248400Y-99959300D02*
X90248400Y-91413200D01*
%TO.N,MP0_33*%
X94471600Y-87914400D02*
X94471600Y-58749300D01*
X95885000Y-55880000D02*
X95885000Y-57335900D01*
X90619100Y-91766900D02*
X94471600Y-87914400D01*
X90619100Y-97790000D02*
X90619100Y-91766900D01*
X94471600Y-58749300D02*
X95885000Y-57335900D01*
X92075000Y-97790000D02*
X90619100Y-97790000D01*
%TO.N,MSEL0_33*%
X76002400Y-54424100D02*
X70485000Y-54424100D01*
X77655900Y-95250000D02*
X77655900Y-83408300D01*
X77033900Y-55455600D02*
X76002400Y-54424100D01*
X77655900Y-83408300D02*
X77033900Y-82786300D01*
X70485000Y-55880000D02*
X70485000Y-54424100D01*
X77033900Y-82786300D02*
X77033900Y-55455600D01*
X76200000Y-95250000D02*
X77655900Y-95250000D01*
%TO.N,MSEL1_33*%
X67945000Y-57335900D02*
X74123400Y-63514300D01*
X74123400Y-79644500D02*
X74438400Y-79959500D01*
X74123400Y-63514300D02*
X74123400Y-79644500D01*
X67945000Y-55880000D02*
X67945000Y-57335900D01*
%TO.N,INT_33*%
X125720800Y-88890800D02*
X132080000Y-95250000D01*
X125720800Y-87926600D02*
X125720800Y-88890800D01*
X120067300Y-82273100D02*
X125720800Y-87926600D01*
X106045000Y-55880000D02*
X106045000Y-57335900D01*
X107593900Y-78134900D02*
X111732100Y-82273100D01*
X111732100Y-82273100D02*
X120067300Y-82273100D01*
X106045000Y-57335900D02*
X107593900Y-58884800D01*
X107593900Y-58884800D02*
X107593900Y-78134900D01*
%TO.N,BUSDIR_33*%
X103505000Y-55880000D02*
X103505000Y-57335900D01*
X107161100Y-78207800D02*
X107161100Y-60992000D01*
X124627000Y-87411400D02*
X120143900Y-82928300D01*
X132080000Y-97790000D02*
X130624100Y-97790000D01*
X107161100Y-60992000D02*
X103505000Y-57335900D01*
X124627000Y-88334000D02*
X124627000Y-87411400D01*
X120143900Y-82928300D02*
X111881600Y-82928300D01*
X111881600Y-82928300D02*
X107161100Y-78207800D01*
X130624100Y-94331100D02*
X124627000Y-88334000D01*
X130624100Y-97790000D02*
X130624100Y-94331100D01*
%TO.N,JP1*%
X80113400Y-104149900D02*
X81208300Y-103055000D01*
X84455000Y-55218300D02*
X85290300Y-54383000D01*
X72910700Y-126840800D02*
X80113400Y-119638100D01*
X69850000Y-125730000D02*
X70955900Y-125730000D01*
X85290300Y-54383000D02*
X88669800Y-54383000D01*
X89535000Y-55248200D02*
X89535000Y-57334200D01*
X93345000Y-61144200D02*
X93345000Y-76200000D01*
X89535000Y-57334200D02*
X93345000Y-61144200D01*
X81208300Y-103055000D02*
X81208300Y-83115200D01*
X81208300Y-83115200D02*
X84455000Y-79868500D01*
X88669800Y-54383000D02*
X89535000Y-55248200D01*
X70955900Y-125730000D02*
X70955900Y-125868200D01*
X80113400Y-119638100D02*
X80113400Y-104149900D01*
X71928500Y-126840800D02*
X72910700Y-126840800D01*
X84455000Y-79868500D02*
X84455000Y-55218300D01*
X70955900Y-125868200D02*
X71928500Y-126840800D01*
%TO.N,WAIT_33*%
X95885000Y-81506000D02*
X99162400Y-84783400D01*
X95885000Y-76200000D02*
X95885000Y-81506000D01*
%TO.N,SOUNDIN*%
X81280000Y-135490100D02*
X81280000Y-139700000D01*
X74059900Y-128270000D02*
X81280000Y-135490100D01*
X72390000Y-128270000D02*
X74059900Y-128270000D01*
%TO.N,Net-(CON1-5V@1)*%
X84613200Y-135634100D02*
X86360000Y-137380900D01*
X83820000Y-139700000D02*
X83820000Y-135634100D01*
X86360000Y-139700000D02*
X86360000Y-137667000D01*
X88900000Y-81788000D02*
X88900000Y-83143900D01*
X88900000Y-83143900D02*
X88615200Y-83143900D01*
X86360000Y-137380900D02*
X86360000Y-137667000D01*
X83820000Y-135634100D02*
X84613200Y-135634100D01*
X81778500Y-89980600D02*
X81778500Y-102990400D01*
X80796800Y-132610900D02*
X83820000Y-135634100D01*
X80796800Y-103972100D02*
X80796800Y-132610900D01*
X88615200Y-83143900D02*
X81778500Y-89980600D01*
X81778500Y-102990400D02*
X80796800Y-103972100D01*
%TO.N,Net-(C1-Pad2)*%
X155759400Y-107950000D02*
X155857700Y-108048300D01*
X155702000Y-115570000D02*
X155702000Y-114614100D01*
X155857700Y-108048300D02*
X155857700Y-114458400D01*
X155759400Y-107950000D02*
X155760900Y-107950000D01*
X155671100Y-107950000D02*
X155759400Y-107950000D01*
X155702000Y-98806000D02*
X155760900Y-98864900D01*
X155760900Y-98864900D02*
X155760900Y-107950000D01*
X155857700Y-114458400D02*
X155702000Y-114614100D01*
X154305000Y-107950000D02*
X155671100Y-107950000D01*
%TO.N,JP0*%
X60325000Y-76200000D02*
X60325000Y-77655900D01*
X62015900Y-79346800D02*
X62015900Y-114250000D01*
X69850000Y-123190000D02*
X69850000Y-122084100D01*
X60325000Y-77655900D02*
X62015900Y-79346800D01*
X62015900Y-114250000D02*
X69850000Y-122084100D01*
%TO.N,Net-(U4-+)*%
X150835400Y-121565300D02*
X154746100Y-125476000D01*
X150622000Y-120650000D02*
X150622000Y-121565300D01*
X155702000Y-125476000D02*
X154746100Y-125476000D01*
X148140900Y-107950000D02*
X148140900Y-112738200D01*
X147788000Y-123484000D02*
X147788000Y-125476000D01*
X150622000Y-121565300D02*
X150835400Y-121565300D01*
X148496500Y-122775500D02*
X149706700Y-121565300D01*
X149706700Y-121565300D02*
X150622000Y-121565300D01*
X148496500Y-122775500D02*
X147788000Y-123484000D01*
X146847800Y-121126800D02*
X148496500Y-122775500D01*
X148140900Y-112738200D02*
X146847800Y-114031300D01*
X146847800Y-114031300D02*
X146847800Y-121126800D01*
X146685000Y-107950000D02*
X148140900Y-107950000D01*
%TO.N,Net-(D1-A)*%
X147320000Y-86106000D02*
X147320000Y-85150100D01*
X146050000Y-81915000D02*
X146050000Y-83880100D01*
X146050000Y-83880100D02*
X147320000Y-85150100D01*
%TO.N,SOUNDOUT*%
X110024400Y-88684400D02*
X103334900Y-95373900D01*
X112752300Y-88684400D02*
X110024400Y-88684400D01*
X153575000Y-79730000D02*
X153575000Y-84474100D01*
X119808500Y-86080600D02*
X115356100Y-86080600D01*
X155575000Y-90805000D02*
X155575000Y-87630000D01*
X153575000Y-84474100D02*
X155575000Y-86474100D01*
X103334900Y-117212200D02*
X93304200Y-127242900D01*
X120035500Y-86307600D02*
X119808500Y-86080600D01*
X103334900Y-95373900D02*
X103334900Y-117212200D01*
X115356100Y-86080600D02*
X112752300Y-88684400D01*
X93304200Y-127242900D02*
X93304200Y-130144800D01*
X150495000Y-95885000D02*
X155575000Y-90805000D01*
X155575000Y-87630000D02*
X155575000Y-86474100D01*
%TD*%
M02*
