M48
; DRILL file {KiCad 7.0.7} date Thu Nov 23 15:50:35 2023
; FORMAT={-:-/ absolute / inch / decimal}
; #@! TF.CreationDate,2023-11-23T15:50:35-08:00
; #@! TF.GenerationSoftware,Kicad,Pcbnew,7.0.7
; #@! TF.FileFunction,Plated,1,2,PTH
FMAT,2
INCH
; #@! TA.AperFunction,Plated,PTH,ViaDrill
T1C0.0150
; #@! TA.AperFunction,Plated,PTH,ComponentDrill
T2C0.0295
; #@! TA.AperFunction,Plated,PTH,ComponentDrill
T3C0.0315
; #@! TA.AperFunction,Plated,PTH,ComponentDrill
T4C0.0354
; #@! TA.AperFunction,Plated,PTH,ComponentDrill
T5C0.0394
; #@! TA.AperFunction,Plated,PTH,ComponentDrill
T6C0.0433
%
G90
G05
T1
X2.9978Y-3.7658
X3.0178Y-4.9387
X3.113Y-3.0726
X3.1282Y-3.8296
X3.1552Y-3.1036
X3.2337Y-4.3088
X3.2545Y-4.9814
X3.3259Y-3.0441
X3.348Y-4.5095
X3.3694Y-4.2072
X3.3917Y-3.0703
X3.4029Y-2.7366
X3.5072Y-3.1015
X3.5376Y-5.1202
X3.6151Y-3.0461
X3.6212Y-5.0243
X3.647Y-5.2281
X3.701Y-4.9972
X3.7449Y-3.7004
X3.7493Y-3.7519
X3.7519Y-5.0235
X3.7706Y-3.8099
X3.7799Y-3.3604
X3.7894Y-5.1274
X3.8062Y-3.3211
X3.8817Y-5.1167
X3.901Y-4.0172
X3.9093Y-3.6246
X3.924Y-4.2288
X3.9533Y-5.1444
X4.1524Y-5.208
X4.3527Y-5.2226
X4.3955Y-5.0687
X4.4526Y-5.2075
X4.5029Y-3.2246
X4.5118Y-5.1189
X4.6917Y-5.327
X4.6978Y-4.0655
X4.7981Y-3.2469
X5.0052Y-4.3088
X5.0423Y-3.6228
X5.0795Y-4.9664
X5.1Y-5.0604
X5.1017Y-4.7558
X5.115Y-4.6484
X5.1166Y-4.2184
X5.1199Y-4.2806
X5.1439Y-4.8183
X5.1456Y-4.7812
X5.2823Y-4.7774
X5.3023Y-5.0184
X5.3826Y-5.0533
X5.4Y-5.3283
X5.5472Y-5.2274
X5.6905Y-4.5277
T2
X5.845Y-5.04
X5.845Y-5.09
X5.845Y-5.14
T3
X2.275Y-2.175
X2.275Y-2.975
X2.3016Y-3.175
X2.375Y-2.175
X2.375Y-2.975
X2.4Y-3.175
X2.475Y-2.175
X2.475Y-2.975
X2.5Y-3.675
X2.5Y-3.775
X2.5Y-3.875
X2.5Y-3.975
X2.5Y-4.075
X2.5Y-4.175
X2.5Y-4.275
X2.5Y-4.375
X2.5Y-4.475
X2.5Y-4.575
X2.575Y-2.175
X2.575Y-2.975
X2.6Y-3.475
X2.675Y-2.175
X2.675Y-2.975
X2.675Y-3.175
X2.6984Y-3.475
X2.7734Y-3.175
X2.775Y-2.175
X2.775Y-2.975
X2.8Y-3.675
X2.8Y-3.775
X2.8Y-3.875
X2.8Y-3.975
X2.8Y-4.075
X2.8Y-4.175
X2.8Y-4.275
X2.8Y-4.375
X2.8Y-4.475
X2.8Y-4.575
X2.83Y-4.7624
X2.83Y-4.8411
X2.875Y-2.175
X2.875Y-2.975
X2.975Y-2.175
X2.975Y-2.975
X3.075Y-2.175
X3.075Y-2.975
X3.175Y-2.175
X3.175Y-2.975
X3.175Y-3.675
X3.175Y-3.775
X3.175Y-3.875
X3.175Y-3.975
X3.175Y-4.075
X3.175Y-4.175
X3.175Y-4.275
X3.175Y-4.375
X3.175Y-4.475
X3.175Y-4.575
X3.275Y-2.175
X3.275Y-2.975
X3.2766Y-3.475
X3.375Y-2.175
X3.375Y-2.975
X3.375Y-3.475
X3.475Y-2.175
X3.475Y-2.975
X3.475Y-3.675
X3.475Y-3.775
X3.475Y-3.875
X3.475Y-3.975
X3.475Y-4.075
X3.475Y-4.175
X3.475Y-4.275
X3.475Y-4.375
X3.475Y-4.475
X3.475Y-4.575
X3.575Y-2.175
X3.575Y-2.975
X3.675Y-2.175
X3.675Y-2.975
X3.775Y-2.175
X3.775Y-2.975
X3.85Y-3.675
X3.85Y-3.775
X3.85Y-3.875
X3.85Y-3.975
X3.85Y-4.075
X3.85Y-4.175
X3.85Y-4.275
X3.85Y-4.375
X3.85Y-4.475
X3.85Y-4.575
X3.875Y-2.175
X3.875Y-2.975
X3.9516Y-3.475
X3.975Y-2.175
X3.975Y-2.975
X4.05Y-3.475
X4.075Y-2.175
X4.075Y-2.975
X4.0758Y-3.175
X4.15Y-3.675
X4.15Y-3.775
X4.15Y-3.875
X4.15Y-3.975
X4.15Y-4.075
X4.15Y-4.175
X4.15Y-4.275
X4.15Y-4.375
X4.15Y-4.475
X4.15Y-4.575
X4.1742Y-3.175
X4.175Y-2.175
X4.175Y-2.975
X4.55Y-3.675
X4.55Y-3.775
X4.55Y-3.875
X4.55Y-3.975
X4.55Y-4.075
X4.55Y-4.175
X4.55Y-4.275
X4.55Y-4.375
X4.55Y-4.475
X4.55Y-4.575
X4.6516Y-3.475
X4.75Y-3.475
X4.85Y-3.675
X4.85Y-3.775
X4.85Y-3.875
X4.85Y-3.975
X4.85Y-4.075
X4.85Y-4.175
X4.85Y-4.275
X4.85Y-4.375
X4.85Y-4.475
X4.85Y-4.575
X5.05Y-3.2
X5.225Y-3.675
X5.225Y-3.775
X5.225Y-3.875
X5.225Y-3.975
X5.225Y-4.075
X5.225Y-4.175
X5.225Y-4.275
X5.225Y-4.375
X5.225Y-4.475
X5.225Y-4.575
X5.3266Y-3.475
X5.425Y-3.475
X5.45Y-3.2
X5.525Y-3.675
X5.525Y-3.775
X5.525Y-3.875
X5.525Y-3.975
X5.525Y-4.075
X5.525Y-4.175
X5.525Y-4.275
X5.525Y-4.375
X5.525Y-4.475
X5.525Y-4.575
X5.725Y-3.885
X5.725Y-4.625
X5.725Y-4.75
X5.725Y-4.885
X5.85Y-4.0313
X5.85Y-4.11
X5.85Y-4.275
X5.85Y-4.3537
X5.8758Y-4.5
X5.8766Y-3.76
X5.9742Y-4.5
X5.975Y-3.76
X6.125Y-3.885
X6.125Y-4.625
X6.125Y-4.75
X6.125Y-4.885
T4
X5.65Y-3.2
X5.75Y-3.2
T5
X2.815Y-4.9998
X2.815Y-5.0998
X4.6498Y-3.2
X4.7498Y-3.2
T6
X3.5Y-3.175
X3.9Y-3.175
T5
G00X6.0266Y-3.139
M15
G01X6.0659Y-3.139
M16
G05
G00X6.1053Y-3.2335
M15
G01X6.1447Y-3.2335
M16
G05
G00X6.1053Y-3.45
M15
G01X6.1447Y-3.45
M16
G05
T0
M30
