M48
; DRILL file {KiCad 7.0.7} date Thu Sep 28 21:36:22 2023
; FORMAT={-:-/ absolute / inch / decimal}
; #@! TF.CreationDate,2023-09-28T21:36:22-07:00
; #@! TF.GenerationSoftware,Kicad,Pcbnew,7.0.7
; #@! TF.FileFunction,Plated,1,2,PTH
FMAT,2
INCH
; #@! TA.AperFunction,Plated,PTH,ViaDrill
T1C0.0150
; #@! TA.AperFunction,Plated,PTH,ComponentDrill
T2C0.0276
; #@! TA.AperFunction,Plated,PTH,ComponentDrill
T3C0.0315
; #@! TA.AperFunction,Plated,PTH,ComponentDrill
T4C0.0354
; #@! TA.AperFunction,Plated,PTH,ComponentDrill
T5C0.0394
; #@! TA.AperFunction,Plated,PTH,ComponentDrill
T6C0.0433
%
G90
G05
T1
X2.584Y-4.3442
X2.7287Y-4.6172
X2.7718Y-4.7826
X2.7739Y-3.725
X2.9306Y-3.148
X3.369Y-3.4569
X3.424Y-4.2701
X3.4711Y-3.3289
X3.5258Y-4.9736
X3.5573Y-4.8977
X3.5888Y-5.0135
X3.6527Y-5.2284
X3.6734Y-5.1238
X3.7137Y-5.1272
X3.8476Y-5.1675
X3.8911Y-4.4948
X3.904Y-3.3379
X3.9156Y-4.6316
X3.9455Y-4.6088
X3.948Y-5.2093
X3.9522Y-5.1722
X4.0225Y-4.8854
X4.0266Y-4.7572
X4.0426Y-4.7208
X4.1054Y-3.0606
X4.1199Y-3.118
X4.1537Y-5.1363
X4.1565Y-4.3032
X4.1836Y-4.4157
X4.1874Y-5.0566
X4.1923Y-4.6861
X4.2472Y-5.1891
X4.3327Y-4.2937
X4.3704Y-4.1184
X4.4157Y-3.3741
X4.418Y-4.6987
X4.4267Y-4.8584
X4.5177Y-4.7563
X4.6104Y-3.1941
X4.6112Y-5.0855
X4.6159Y-4.7973
X4.6238Y-4.8818
X4.6467Y-5.2127
X4.7047Y-3.779
X4.7258Y-3.3979
X4.813Y-3.8121
X4.9889Y-4.4153
X5.0Y-5.1277
X5.0454Y-4.7727
X5.0518Y-5.0294
X5.247Y-5.2229
X5.2705Y-5.0024
X5.2739Y-4.0623
X5.2917Y-5.1009
X5.3596Y-5.0534
X5.3827Y-4.991
T2
X5.6Y-3.39
X5.8Y-3.39
X5.925Y-3.775
X5.93Y-3.89
X5.93Y-4.55
X5.93Y-4.75
X5.93Y-4.94
X6.125Y-3.775
X6.13Y-3.89
X6.13Y-4.55
X6.13Y-4.75
X6.13Y-4.94
T3
X2.275Y-2.2
X2.275Y-3.0
X2.3016Y-3.22
X2.375Y-2.2
X2.375Y-3.0
X2.4Y-3.22
X2.475Y-2.2
X2.475Y-3.0
X2.575Y-2.2
X2.575Y-3.0
X2.675Y-2.2
X2.675Y-3.0
X2.7Y-3.65
X2.7Y-3.75
X2.7Y-3.85
X2.7Y-3.95
X2.7Y-4.05
X2.7Y-4.15
X2.7Y-4.25
X2.7Y-4.35
X2.7Y-4.45
X2.7Y-4.55
X2.775Y-2.2
X2.775Y-3.0
X2.8Y-3.22
X2.8016Y-3.45
X2.875Y-2.2
X2.875Y-3.0
X2.8984Y-3.22
X2.9Y-3.45
X2.975Y-2.2
X2.975Y-3.0
X3.0Y-3.65
X3.0Y-3.75
X3.0Y-3.85
X3.0Y-3.95
X3.0Y-4.05
X3.0Y-4.15
X3.0Y-4.25
X3.0Y-4.35
X3.0Y-4.45
X3.0Y-4.55
X3.075Y-2.2
X3.075Y-3.0
X3.175Y-2.2
X3.175Y-3.0
X3.275Y-2.2
X3.275Y-3.0
X3.325Y-3.65
X3.325Y-3.75
X3.325Y-3.85
X3.325Y-3.95
X3.325Y-4.05
X3.325Y-4.15
X3.325Y-4.25
X3.325Y-4.35
X3.325Y-4.45
X3.325Y-4.55
X3.375Y-2.2
X3.375Y-3.0
X3.4516Y-3.45
X3.475Y-2.2
X3.475Y-3.0
X3.55Y-3.45
X3.575Y-2.2
X3.575Y-3.0
X3.625Y-3.65
X3.625Y-3.75
X3.625Y-3.85
X3.625Y-3.95
X3.625Y-4.05
X3.625Y-4.15
X3.625Y-4.25
X3.625Y-4.35
X3.625Y-4.45
X3.625Y-4.55
X3.675Y-2.2
X3.675Y-3.0
X3.775Y-2.2
X3.775Y-3.0
X3.875Y-2.2
X3.875Y-3.0
X3.95Y-3.65
X3.95Y-3.75
X3.95Y-3.85
X3.95Y-3.95
X3.95Y-4.05
X3.95Y-4.15
X3.95Y-4.25
X3.95Y-4.35
X3.95Y-4.45
X3.95Y-4.55
X3.975Y-2.2
X3.975Y-3.0
X4.0508Y-3.22
X4.0516Y-3.45
X4.075Y-2.2
X4.075Y-3.0
X4.1492Y-3.22
X4.15Y-3.45
X4.175Y-2.2
X4.175Y-3.0
X4.25Y-3.65
X4.25Y-3.75
X4.25Y-3.85
X4.25Y-3.95
X4.25Y-4.05
X4.25Y-4.15
X4.25Y-4.25
X4.25Y-4.35
X4.25Y-4.45
X4.25Y-4.55
X4.575Y-3.65
X4.575Y-3.75
X4.575Y-3.85
X4.575Y-3.95
X4.575Y-4.05
X4.575Y-4.15
X4.575Y-4.25
X4.575Y-4.35
X4.575Y-4.45
X4.575Y-4.55
X4.6766Y-3.45
X4.775Y-3.45
X4.875Y-3.65
X4.875Y-3.75
X4.875Y-3.85
X4.875Y-3.95
X4.875Y-4.05
X4.875Y-4.15
X4.875Y-4.25
X4.875Y-4.35
X4.875Y-4.45
X4.875Y-4.55
X5.2Y-3.65
X5.2Y-3.75
X5.2Y-3.85
X5.2Y-3.95
X5.2Y-4.05
X5.2Y-4.15
X5.2Y-4.25
X5.2Y-4.35
X5.2Y-4.45
X5.2Y-4.55
X5.3016Y-3.45
X5.4Y-3.45
X5.5Y-3.65
X5.5Y-3.75
X5.5Y-3.85
X5.5Y-3.95
X5.5Y-4.05
X5.5Y-4.15
X5.5Y-4.25
X5.5Y-4.35
X5.5Y-4.45
X5.5Y-4.55
X5.72Y-4.94
X5.725Y-4.55
X5.725Y-4.75
X5.77Y-3.79
X5.77Y-3.8687
X5.775Y-4.05
X5.775Y-4.15
X5.775Y-4.25
X5.775Y-4.35
X5.8184Y-4.94
X5.8234Y-4.55
X5.8234Y-4.75
X6.075Y-4.05
X6.075Y-4.15
X6.075Y-4.25
X6.075Y-4.35
T4
X5.65Y-3.225
X5.75Y-3.225
T5
X2.75Y-4.85
X2.75Y-4.95
X2.75Y-5.05
X2.85Y-4.85
X2.85Y-4.95
X2.85Y-5.05
T6
X3.5Y-3.22
X3.9Y-3.22
T5
G00X6.0266Y-3.139
M15
G01X6.0659Y-3.139
M16
G05
G00X6.1053Y-3.2335
M15
G01X6.1447Y-3.2335
M16
G05
G00X6.1053Y-3.45
M15
G01X6.1447Y-3.45
M16
G05
T0
M30
